<?xml version="1.0" encoding="iso-8859-1"?>
<!-- Generator: Adobe Illustrator 19.0.0, SVG Export Plug-In . SVG Version: 6.00 Build 0)  -->
<svg version="1.1" id="Capa_1" xmlns="http://www.w3.org/2000/svg" xmlns:xlink="http://www.w3.org/1999/xlink" x="0px" y="0px"
	 viewBox="0 0 512.001 512.001" style="enable-background:new 0 0 512.001 512.001;" xml:space="preserve">
<path style="fill:#EDA751;" d="M122.764,459.501c-5.222,0-10.367-0.823-15.322-2.486c-22.302-7.487-35.543-30.289-30.8-53.04
	c1.46-7.003,8.319-11.499,15.323-10.036c7.003,1.46,11.497,8.32,10.037,15.323c-2.066,9.911,3.817,19.883,13.685,23.196
	c22.588,7.581,45.532-21.259,58.318-48.262c3.061-6.465,10.784-9.225,17.249-6.163c6.465,3.061,9.225,10.784,6.163,17.25
	c-12.133,25.624-26.692,43.951-43.272,54.472C143.979,456.205,133.216,459.501,122.764,459.501z"/>
<path style="fill:#FCD79D;" d="M102.409,418.793c-0.893-3.027-1.086-6.28-0.408-9.532c1.46-7.003-3.034-13.863-10.037-15.323
	c-7.004-1.463-13.863,3.034-15.323,10.036c-1.029,4.935-1.209,9.873-0.636,14.656C81.828,420.269,92.768,421.44,102.409,418.793z"/>
<path style="opacity:0.2;fill:#A35F00;enable-background:new    ;" d="M191.254,378.032c-6.465-3.062-14.188-0.302-17.249,6.163
	c-10.552,22.285-28.023,45.8-46.502,49.083c0.139,8.31,0.388,16.953,0.749,25.917c8.698-0.945,17.499-4.114,25.894-9.441
	c16.58-10.521,31.139-28.848,43.272-54.472C200.478,388.816,197.719,381.093,191.254,378.032z"/>
<g>
	<path style="fill:#EDA751;" d="M199.147,512.001c-0.855,0-1.718-0.053-2.588-0.161c-11.358-1.415-19.418-11.77-18.003-23.127
		c2.669-21.425,0.654-38.386-1.296-54.789c-0.382-3.206-0.757-6.368-1.095-9.512c-1.224-11.38,7.008-21.597,18.388-22.822
		c11.379-1.229,21.597,7.009,22.822,18.388c0.322,2.992,0.68,6.002,1.043,9.053c2.137,17.987,4.561,38.375,1.267,64.805
		C218.379,504.325,209.45,512.001,199.147,512.001z"/>
	<path style="fill:#EDA751;" d="M266.826,512.001c-0.855,0-1.718-0.053-2.588-0.161c-11.358-1.415-19.417-11.769-18.003-23.127
		c2.668-21.423,0.654-38.384-1.296-54.786c-0.38-3.208-0.756-6.372-1.095-9.516c-1.223-11.38,7.01-21.597,18.389-22.821
		c11.38-1.223,21.597,7.009,22.821,18.389c0.322,2.993,0.68,6.004,1.042,9.057c2.138,17.986,4.561,38.372,1.268,64.801
		C286.059,504.325,277.128,512.001,266.826,512.001z"/>
</g>
<path style="fill:#7694E4;" d="M126.968,376.805c-21.512,0-48.459-4.787-68.182-24.511c-8.093-8.093-8.093-21.215,0-29.308
	c8.093-8.093,21.215-8.093,29.308,0c6.882,6.882,28.952,17.763,63.225,9.686c11.139-2.62,22.3,4.277,24.925,15.417
	s-4.277,22.299-15.417,24.925C156.123,374.123,143.067,376.805,126.968,376.805z"/>
<path style="fill:#EDA751;" d="M347.092,382.722c-19.378,0-38.151-4.679-51.134-11.58c-10.106-5.373-13.943-17.921-8.57-28.027
	c5.372-10.106,17.918-13.945,28.027-8.571c15.85,8.428,49.519,10.775,63.543-3.251c8.093-8.093,21.216-8.093,29.309,0
	c8.092,8.093,8.092,21.215,0,29.308C392.288,376.58,369.294,382.722,347.092,382.722z"/>
<path style="fill:#7694E4;" d="M347.092,382.722c-19.378,0-38.151-4.679-51.134-11.58c-10.106-5.373-13.943-17.921-8.57-28.027
	c5.372-10.106,17.918-13.945,28.027-8.571c15.85,8.428,49.519,10.775,63.543-3.251c8.093-8.093,21.216-8.093,29.309,0
	c8.092,8.093,8.092,21.215,0,29.308C392.288,376.58,369.294,382.722,347.092,382.722z"/>
<path style="fill:#EDA751;" d="M378.958,331.293c-2.987,2.988-6.871,5.227-11.279,6.828c0.359,10.237,4.675,27.816,17.835,37.441
	c8.406-3.501,16.178-8.387,22.753-14.961c8.092-8.093,8.092-21.215,0-29.308C400.174,323.2,387.052,323.2,378.958,331.293z"/>
<g>
	<path style="opacity:0.2;fill:#A35F00;enable-background:new    ;" d="M288.788,458.867c-0.444-10.884-1.602-20.672-2.691-29.831
		c-0.362-3.053-0.72-6.064-1.042-9.057c-1.224-11.38-11.442-19.612-22.821-18.389c-11.38,1.224-19.613,11.441-18.389,22.821
		c0.339,3.144,0.714,6.308,1.095,9.516c1.425,11.987,2.876,24.281,2.517,38.389C262.317,470.311,276.283,465.656,288.788,458.867z"
		/>
	<path style="opacity:0.2;fill:#A35F00;enable-background:new    ;" d="M217.375,419.979c-1.224-11.379-11.442-19.618-22.822-18.388
		c-11.38,1.224-19.613,11.442-18.388,22.822c0.338,3.143,0.713,6.306,1.095,9.512c1.076,9.056,2.168,18.286,2.486,28.338
		c12.704,5.882,26.704,9.643,41.48,10.792c0.411-16.826-1.267-31.055-2.808-44.022C218.055,425.98,217.697,422.971,217.375,419.979z
		"/>
</g>
<ellipse style="fill:#FCD690;" cx="230.88" cy="363.891" rx="95.59" ry="88.82"/>
<path style="opacity:0.15;fill:#C17A00;enable-background:new    ;" d="M216.922,451.765
	c-43.68-28.678-30.143-87.454-22.728-113.158v-56.755c-34.582,13.369-58.9,45.063-58.9,82.038
	C135.294,408.538,170.748,445.486,216.922,451.765z"/>
<path style="opacity:0.1;enable-background:new    ;" d="M341.081,341.118c-9.822-0.723-19.218-3.145-25.665-6.573
	c-10.109-5.374-22.655-1.535-28.027,8.571c-5.373,10.106-1.536,22.654,8.57,28.027c12.276,6.526,29.73,11.058,47.976,11.533
	C343.516,366.932,342.561,353.075,341.081,341.118z"/>
<path style="fill:#7694E4;" d="M264.298,456.851c12.966-0.008,38.845-0.818,58.429-6.502c2.868-0.832,4.881-3.394,5.002-6.378
	c2.51-61.947-0.243-108.993-8.707-131.873H256.16v136.605C256.16,453.203,259.799,456.853,264.298,456.851z"/>
<path style="fill:#7CC5E6;" d="M273.339,427.409c0,1.435,0.716,2.787,1.929,3.553c2.579,1.63,7.727,4.085,15.329,4.085
	c7.603,0,12.75-2.455,15.329-4.085c1.213-0.766,1.929-2.118,1.929-3.553v-29.71c0-1.473-1.194-2.668-2.668-2.668h-29.18
	c-1.473,0-2.668,1.194-2.668,2.668V427.409z"/>
<path style="opacity:0.1;enable-background:new    ;" d="M151.319,332.672c-11.323,2.668-21.304,3.259-29.856,2.617
	c-1.714,11.706-2.861,25.462-3.44,41.227c3.059,0.198,6.052,0.288,8.945,0.288c16.099,0,29.155-2.682,33.858-3.79
	c11.141-2.626,18.043-13.785,15.417-24.925S162.458,330.052,151.319,332.672z"/>
<path style="fill:#7694E4;" d="M197.462,456.851c-12.966-0.008-38.845-0.818-58.429-6.502c-2.868-0.832-4.881-3.394-5.002-6.378
	c-2.51-61.947,0.243-108.993,8.707-131.873H205.6v136.605C205.6,453.203,201.961,456.853,197.462,456.851z"/>
<path style="fill:#DEE2E5;" d="M237.332,149.068c17.087-8.482,45.797-10.219,64.645-11.112c5.014-0.238,9.336-3.529,10.977-8.273
	c6.693-19.349,24.827-53.456,33.574-68.979c1.789-3.175-1.02-6.971-4.578-6.18c-11.235,2.496-29.314,7.232-40.338,12.38
	c-2.563,1.197-5.351-1.149-4.593-3.873c3.033-10.902,9.404-27.566,14.062-37.772c1.625-3.559-1.55-7.448-5.355-6.534
	c-18.483,4.438-32.941,16.633-44.809,28.598c-2.286,2.305-6.179,1.515-7.425-1.482c-7.064-16.987-14.641-33.929-18.985-43.503
	c-1.414-3.117-5.838-3.117-7.252,0c-4.344,9.573-11.921,26.515-18.985,43.503c-1.246,2.997-5.139,3.787-7.425,1.482
	c-11.868-11.965-26.326-24.16-44.809-28.598c-3.805-0.913-6.98,2.975-5.355,6.534c4.659,10.206,11.03,26.87,14.062,37.772
	c0.758,2.725-2.031,5.07-4.593,3.873c-11.024-5.148-29.103-9.884-40.338-12.38c-3.558-0.791-6.367,3.005-4.578,6.18
	c8.747,15.523,26.881,49.63,33.574,68.979c1.641,4.744,5.963,8.035,10.977,8.273c18.847,0.894,47.558,2.63,64.645,11.112
	C228.484,151.081,233.276,151.081,237.332,149.068z"/>
<path style="fill:#EDA751;" d="M172.71,209.876c18.704-15.694,31.192-42.041,4.81-80.988c-26.59-39.255-66.179-49.095-97.086-45.454
	c-7.62,0.898-14.013,6.262-16.221,13.611c-8.953,29.805-6.137,70.501,27.904,103.504
	C125.892,233.294,154.006,225.571,172.71,209.876z"/>
<path style="fill:#FF91AB;" d="M62.969,101.606c-7.34,29.305-3.19,67.592,29.148,98.944c29.274,28.382,54.292,26.354,72.62,15.091
	C152.132,130.072,97.069,107.381,62.969,101.606z"/>
<path style="fill:#EDA751;" d="M289.05,209.876c-18.704-15.694-31.192-42.041-4.81-80.988c26.59-39.255,66.179-49.095,97.087-45.454
	c7.62,0.898,14.013,6.262,16.22,13.611c8.953,29.805,6.137,70.501-27.904,103.504C335.868,233.294,307.754,225.571,289.05,209.876z"
	/>
<path style="fill:#FF91AB;" d="M398.791,101.606c7.34,29.305,3.19,67.592-29.148,98.944c-29.275,28.382-54.292,26.354-72.62,15.091
	C309.628,130.072,364.691,107.381,398.791,101.606z"/>
<path style="fill:#FFDC9C;" d="M393.613,233.564c0,74.406-72.858,106.995-162.733,106.995S68.147,307.97,68.147,233.564
	S141.005,98.84,230.88,98.84S393.613,159.158,393.613,233.564z"/>
<path style="opacity:0.15;fill:#C17A00;enable-background:new    ;" d="M143.989,119.641
	c-45.575,23.875-75.842,65.971-75.842,113.923c0,63.962,53.84,97.022,126.047,105.043
	C90.543,276.694,104.061,193.414,143.989,119.641z"/>
<g>
	<ellipse style="fill:#FF91AB;" cx="151.03" cy="236.701" rx="29.465" ry="23.464"/>
	<ellipse style="fill:#FF91AB;" cx="310.73" cy="236.701" rx="29.465" ry="23.464"/>
</g>
<g>
	<circle style="fill:#FFFFFF;" cx="168.2" cy="208.091" r="31.441"/>
	<circle style="fill:#FFFFFF;" cx="293.56" cy="208.091" r="31.441"/>
</g>
<g>
	<path style="fill:#495059;" d="M168.198,220.795c-4.142,0-7.5-3.358-7.5-7.5V202.89c0-4.142,3.358-7.5,7.5-7.5s7.5,3.358,7.5,7.5
		v10.405C175.698,217.438,172.34,220.795,168.198,220.795z"/>
	<path style="fill:#495059;" d="M293.563,220.795c-4.143,0-7.5-3.358-7.5-7.5V202.89c0-4.142,3.357-7.5,7.5-7.5s7.5,3.358,7.5,7.5
		v10.405C301.063,217.438,297.705,220.795,293.563,220.795z"/>
	<path style="fill:#495059;" d="M230.88,228.785c-8.501,0-16.585-3.682-22.18-10.101c-2.722-3.123-2.396-7.86,0.726-10.581
		c3.122-2.722,7.86-2.397,10.581,0.726c2.746,3.15,6.708,4.957,10.872,4.957s8.127-1.807,10.872-4.956
		c2.721-3.123,7.459-3.448,10.582-0.727s3.448,7.459,0.727,10.581C247.466,225.104,239.381,228.785,230.88,228.785z"/>
	<path style="fill:#495059;" d="M109.477,241.468c-3.36,0-6.418-2.275-7.27-5.683c-1.005-4.018,1.439-8.09,5.457-9.095
		c8.189-2.047,27.707-3.505,37.216-2.249c4.106,0.543,6.995,4.312,6.453,8.419c-0.543,4.106-4.314,6.994-8.418,6.453
		c-7.395-0.978-25.156,0.316-31.613,1.93C110.692,241.395,110.08,241.468,109.477,241.468z"/>
	<path style="fill:#495059;" d="M118.864,276.38c-2.3,0-4.569-1.054-6.04-3.046c-2.46-3.333-1.752-8.028,1.58-10.488
		c6.79-5.012,24.28-13.797,33.552-16.259c4.003-1.06,8.11,1.321,9.174,5.324c1.063,4.003-1.321,8.111-5.324,9.174
		c-7.212,1.915-23.14,9.877-28.493,13.83C121.972,275.903,120.411,276.38,118.864,276.38z"/>
	<path style="fill:#495059;" d="M352.283,241.468c-0.602,0-1.214-0.073-1.825-0.226c-6.456-1.614-24.216-2.908-31.613-1.93
		c-4.095,0.539-7.875-2.346-8.418-6.453c-0.543-4.106,2.347-7.876,6.453-8.419c9.51-1.256,29.027,0.202,37.217,2.249
		c4.019,1.004,6.461,5.077,5.457,9.095C358.701,239.193,355.643,241.468,352.283,241.468z"/>
	<path style="fill:#495059;" d="M342.896,276.38c-1.548,0-3.107-0.477-4.448-1.466c-5.354-3.952-21.281-11.915-28.493-13.83
		c-4.003-1.063-6.387-5.17-5.324-9.174s5.168-6.384,9.174-5.324c9.27,2.462,26.761,11.247,33.552,16.259
		c3.333,2.46,4.04,7.156,1.58,10.488C347.466,275.326,345.197,276.38,342.896,276.38z"/>
</g>
<path style="fill:#7CC5E6;" d="M437.148,367.996l19.539,19.065c5.003,4.881,2.382,13.376-4.502,14.59l-61.064,10.767
	c-6.883,1.214-12.252-5.872-9.22-12.17l11.841-24.598c2.857-5.935,3.778-12.616,2.634-19.102l-5.582-31.657
	c-0.52-2.951,1.45-5.766,4.401-6.286l21.075-3.716c2.951-0.52,5.765,1.45,6.286,4.401l5.582,31.657
	C429.283,357.432,432.434,363.396,437.148,367.996z"/>
<path style="fill:#F5D141;" d="M456.688,387.061l-19.539-19.065c-0.593-0.578-1.16-1.178-1.702-1.798
	c-11.939,2.273-26.899,8.448-41.651,9.332c-0.019,0.039-0.033,0.08-0.052,0.119l-11.84,24.598c-3.031,6.298,2.337,13.384,9.22,12.17
	l61.064-10.767C459.069,400.436,461.69,391.942,456.688,387.061z"/>
<g>
	<path style="fill:#7694E4;" d="M168.198,247.034c-21.472,0-38.941-17.469-38.941-38.941s17.469-38.941,38.941-38.941
		s38.941,17.469,38.941,38.941C207.139,229.565,189.67,247.034,168.198,247.034z M168.198,184.151
		c-13.201,0-23.941,10.74-23.941,23.941c0,13.201,10.74,23.941,23.941,23.941c13.201,0,23.941-10.74,23.941-23.941
		C192.139,194.892,181.399,184.151,168.198,184.151z"/>
	<path style="fill:#7694E4;" d="M293.563,247.034c-21.473,0-38.941-17.469-38.941-38.941s17.469-38.941,38.941-38.941
		c21.473,0,38.941,17.469,38.941,38.941C332.504,229.565,315.035,247.034,293.563,247.034z M293.563,184.151
		c-13.201,0-23.941,10.74-23.941,23.941c0,13.201,10.74,23.941,23.941,23.941c13.201,0,23.941-10.74,23.941-23.941
		C317.504,194.892,306.764,184.151,293.563,184.151z"/>
	<path style="fill:#7694E4;" d="M265.089,202.25c-1.779,0-3.565-0.629-4.996-1.909c-0.076-0.068-7.872-6.817-29.212-6.817
		c-21.339,0-29.136,6.75-29.212,6.818c-3.087,2.761-7.829,2.496-10.59-0.593c-2.761-3.088-2.495-7.829,0.593-10.59
		c5.751-5.142,19.072-10.635,39.21-10.635c20.139,0,33.46,5.494,39.21,10.636c3.088,2.761,3.353,7.502,0.592,10.59
		C269.201,201.405,267.148,202.25,265.089,202.25z"/>
</g>
<path style="fill:#7CC5E6;" d="M188.421,427.409c0,1.435-0.716,2.787-1.929,3.553c-2.579,1.63-7.727,4.085-15.329,4.085
	c-7.602,0-12.75-2.455-15.329-4.085c-1.213-0.766-1.929-2.118-1.929-3.553v-29.71c0-1.473,1.194-2.668,2.668-2.668h29.18
	c1.473,0,2.668,1.194,2.668,2.668L188.421,427.409L188.421,427.409z"/>
<path style="fill:#EDA751;" d="M88.094,322.986c-8.093-8.093-21.215-8.093-29.308,0s-8.093,21.215,0,29.308
	c4.916,4.916,10.28,8.903,15.898,12.12c16.792-10.631,21.381-25.455,22.519-35.301C93.054,327.088,89.993,324.885,88.094,322.986z"
	/>
<g>
</g>
<g>
</g>
<g>
</g>
<g>
</g>
<g>
</g>
<g>
</g>
<g>
</g>
<g>
</g>
<g>
</g>
<g>
</g>
<g>
</g>
<g>
</g>
<g>
</g>
<g>
</g>
<g>
</g>
</svg>
