<?xml version="1.0" encoding="iso-8859-1"?>
<!-- Generator: Adobe Illustrator 19.0.0, SVG Export Plug-In . SVG Version: 6.00 Build 0)  -->
<svg version="1.1" id="Capa_1" xmlns="http://www.w3.org/2000/svg" xmlns:xlink="http://www.w3.org/1999/xlink" x="0px" y="0px"
	 viewBox="0 0 512.001 512.001" style="enable-background:new 0 0 512.001 512.001;" xml:space="preserve">
<path style="fill:#EDA751;" d="M170.363,424.537c-8.426,0.001-17.179-1.749-26.349-5.242c-42.88-16.334-80.747-18.419-101.295-5.575
	c-7.233,4.521-16.766,2.323-21.288-4.913c-4.522-7.235-2.323-16.766,4.913-21.288c29.132-18.207,76.03-17.148,128.669,2.903
	c25.839,9.842,38.443-3.754,62.282-32.946l0.878-1.074c5.398-6.607,15.13-7.588,21.737-2.191c6.607,5.398,7.588,15.131,2.191,21.738
	l-0.874,1.069c-12.018,14.717-23.37,28.617-38.018,37.741C192.732,421.282,181.853,424.536,170.363,424.537z"/>
<path style="opacity:0.2;fill:#A35F00;enable-background:new    ;" d="M239.909,354.211c-6.607-5.397-16.339-4.417-21.737,2.191
	l-0.878,1.074c-20.221,24.763-32.363,38.295-51.352,35.827c-1.051,8.912-0.793,22.367,3.849,31.22
	c0.19,0.002,0.382,0.015,0.571,0.015c11.489-0.001,22.369-3.255,32.845-9.779c14.648-9.123,26-23.023,38.018-37.741l0.874-1.069
	C247.497,369.341,246.517,359.609,239.909,354.211z"/>
<path style="fill:#FCD79D;" d="M50.314,377.726c-8.905,2.154-16.957,5.409-23.97,9.792c-7.236,4.522-9.434,14.053-4.913,21.288
	c4.522,7.236,14.056,9.434,21.288,4.913c5.066-3.166,11.188-5.421,18.175-6.783C60.857,393.801,56.363,384.109,50.314,377.726z"/>
<g>
	<path style="fill:#EDA751;" d="M387.756,498.998c-2.734,0-5.514-0.457-8.238-1.42c-12.871-4.55-19.616-18.672-15.066-31.543
		c4.284-12.118,0.641-29.185-8.474-39.702c-4.936-5.695-10.162-8.039-15.533-6.965c-13.379,2.675-26.406-6.008-29.082-19.395
		c-2.675-13.387,6.009-26.407,19.395-29.082c23.074-4.607,45.879,3.798,62.578,23.065c20.831,24.035,27.954,59.623,17.725,88.556
		C407.474,492.658,397.938,498.998,387.756,498.998z"/>
	<path style="fill:#EDA751;" d="M228.293,512.001c-8.112,0-16.058-3.989-20.787-11.311c-30.328-46.959-9.369-80.116,1.891-97.93
		c2.091-3.308,4.066-6.432,5.313-8.928c6.106-12.209,20.953-17.157,33.163-11.054c12.21,6.105,17.159,20.952,11.054,33.163
		c-2.355,4.709-5.094,9.042-7.743,13.233c-10.215,16.16-15.342,24.271-2.151,44.695c7.406,11.468,4.114,26.768-7.354,34.174
		C237.535,510.722,232.887,512.001,228.293,512.001z"/>
	<path style="fill:#EDA751;" d="M173.748,358.609c-17.21,1.151-35.884-1.624-54.697-8.294
		c-26.923-9.545-50.429-26.004-62.881-44.026c-7.759-11.232-4.945-26.627,6.287-34.386c11.235-7.76,26.628-4.944,34.387,6.287
		c12.851,18.6,59.317,39.401,88.053,28.044c12.692-5.023,27.055,1.202,32.075,13.897s-1.202,27.055-13.897,32.074
		C194.033,355.78,184.157,357.913,173.748,358.609z"/>
</g>
<g>
	<path style="opacity:0.2;fill:#A35F00;enable-background:new    ;" d="M184.897,306.233c-9.311,3.68-20.485,3.969-31.772,2.065
		c-2.038,8.716-3.122,17.764-3.122,27.047c0,7.756,0.755,15.348,2.19,22.72c7.365,0.82,14.582,1.01,21.554,0.544
		c10.409-0.696,20.285-2.829,29.327-6.404c12.695-5.02,18.917-19.38,13.897-32.075C211.952,307.434,197.589,301.21,184.897,306.233z
		"/>
	<path style="opacity:0.2;fill:#A35F00;enable-background:new    ;" d="M247.874,382.779c-12.21-6.103-27.057-1.155-33.163,11.054
		c-1.247,2.495-3.223,5.62-5.313,8.927c-4.315,6.826-10.051,15.908-13.783,27.153c13.171,10.887,28.622,19.392,45.589,24.781
		c-0.685-8.633,3.675-15.544,9.981-25.52c2.649-4.191,5.388-8.525,7.743-13.233C265.033,403.731,260.084,388.884,247.874,382.779z"
		/>
	<path style="opacity:0.2;fill:#A35F00;enable-background:new    ;" d="M398.563,400.638c-1.634-2.309-3.374-4.544-5.228-6.683
		c-16.699-19.267-39.504-27.672-62.578-23.065c-13.386,2.675-22.07,15.695-19.395,29.082c2.676,13.388,15.703,22.07,29.082,19.395
		c5.371-1.074,10.597,1.27,15.533,6.965c2.736,3.156,4.967,6.909,6.65,10.934C377.028,427.43,389.278,414.973,398.563,400.638z"/>
</g>
<ellipse style="fill:#FCD690;" cx="284.01" cy="335.341" rx="114.01" ry="105.94"/>
<path style="opacity:0.15;fill:#C17A00;enable-background:new    ;" d="M235.205,304.589L235.205,304.589
	c-19.841-2.5-38.448-6.628-55.292-12.468c-6.359,13.201-9.909,27.824-9.909,43.223c0,58.508,51.043,105.938,114.007,105.938
	c1.288,0,2.568-0.027,3.845-0.067C202.495,397.072,228.268,335.279,235.205,304.589z"/>
<path style="fill:#EDA751;" d="M214.63,151.649c22.309-18.719,37.203-50.143,5.737-96.597C188.652,8.232,141.433-3.504,104.57,0.839
	C95.482,1.91,87.856,8.308,85.223,17.073c-10.678,35.55-7.32,84.089,33.282,123.452C158.788,179.58,192.321,170.368,214.63,151.649z
	"/>
<path style="fill:#FF91AB;" d="M83.739,22.512c-8.754,34.953-3.804,80.619,34.766,118.013c34.916,33.852,64.755,31.433,86.615,18
	C190.086,56.464,124.411,29.4,83.739,22.512z"/>
<path style="fill:#EDA751;" d="M353.391,151.649c-22.309-18.719-37.203-50.143-5.737-96.597
	c31.715-46.82,78.934-58.557,115.797-54.214c9.088,1.071,16.714,7.469,19.347,16.234c10.678,35.55,7.32,84.089-33.282,123.452
	C409.233,179.58,375.699,170.368,353.391,151.649z"/>
<path style="fill:#FF91AB;" d="M484.282,22.512c8.754,34.953,3.804,80.619-34.765,118.013c-34.917,33.852-64.755,31.433-86.615,18
	C377.935,56.464,443.61,29.4,484.282,22.512z"/>
<path style="fill:#FFDC9C;" d="M478.106,179.902c0,88.746-86.899,127.616-194.095,127.616S89.916,268.648,89.916,179.902
	S176.815,19.214,284.01,19.214C391.206,19.214,478.106,91.156,478.106,179.902z"/>
<path style="opacity:0.15;fill:#C17A00;enable-background:new    ;" d="M89.915,179.902c0,74.79,61.719,114.155,145.289,124.687
	c-114.666-61.483-103.5-191.795-52.864-261.582C126.887,71.294,89.915,122.021,89.915,179.902z"/>
<g>
	<ellipse style="fill:#FF91AB;" cx="188.77" cy="183.641" rx="35.14" ry="27.986"/>
	<ellipse style="fill:#FF91AB;" cx="379.25" cy="183.641" rx="35.14" ry="27.986"/>
</g>
<g>
	<path style="fill:#495059;" d="M225.82,160.727c-4.142,0-7.5-3.358-7.5-7.5c0-5.003-4.07-9.073-9.073-9.073
		c-5.003,0-9.072,4.07-9.072,9.073c0,4.142-3.358,7.5-7.5,7.5s-7.5-3.358-7.5-7.5c0-13.274,10.799-24.073,24.072-24.073
		c13.274,0,24.073,10.799,24.073,24.073C233.32,157.369,229.962,160.727,225.82,160.727z"/>
	<path style="fill:#495059;" d="M375.346,160.727c-4.142,0-7.5-3.358-7.5-7.5c0-5.003-4.07-9.073-9.073-9.073
		s-9.073,4.07-9.073,9.073c0,4.142-3.358,7.5-7.5,7.5s-7.5-3.358-7.5-7.5c0-13.274,10.799-24.073,24.073-24.073
		s24.073,10.799,24.073,24.073C382.846,157.369,379.488,160.727,375.346,160.727z"/>
</g>
<path style="fill:#FF91AB;" d="M283.058,205.606c-10.602-0.499-18.758-9.632-18.758-20.245V169.38c0-2.949,1.322-5.764,3.646-7.579
	c4.432-3.46,10.006-5.524,16.064-5.524c6.059,0,11.633,2.064,16.064,5.524c2.324,1.815,3.646,4.63,3.646,7.579v16.537
	C303.721,197.12,294.377,206.139,283.058,205.606z"/>
<g>
	<path style="fill:#495059;" d="M139.212,187.884c-3.36,0-6.418-2.275-7.27-5.683c-1.005-4.019,1.438-8.091,5.457-9.095
		c9.65-2.414,32.647-4.132,43.85-2.652c4.107,0.543,6.995,4.312,6.453,8.418c-0.543,4.107-4.309,6.994-8.419,6.453
		c-9.134-1.208-30.26,0.336-38.245,2.333C140.427,187.811,139.814,187.884,139.212,187.884z"/>
	<path style="fill:#495059;" d="M150.405,229.524c-2.3,0-4.569-1.054-6.04-3.046c-2.46-3.333-1.752-8.028,1.58-10.488
		c8.004-5.908,28.611-16.26,39.531-19.159c4.005-1.062,8.111,1.321,9.173,5.325c1.063,4.003-1.321,8.11-5.325,9.173
		c-8.903,2.363-27.849,11.841-34.472,16.729C153.513,229.047,151.952,229.524,150.405,229.524z"/>
	<path style="fill:#495059;" d="M428.809,187.884c-0.603,0-1.214-0.073-1.825-0.226c-7.984-1.996-29.111-3.541-38.245-2.333
		c-4.109,0.546-7.875-2.346-8.419-6.453c-0.543-4.106,2.346-7.875,6.453-8.418c11.201-1.481,34.199,0.238,43.85,2.652
		c4.018,1.004,6.461,5.077,5.456,9.095C435.227,185.609,432.169,187.884,428.809,187.884z"/>
	<path style="fill:#495059;" d="M417.616,229.524c-1.547,0-3.108-0.477-4.448-1.466c-6.623-4.889-25.568-14.366-34.471-16.729
		c-4.003-1.063-6.387-5.17-5.325-9.173c1.063-4.003,5.172-6.384,9.173-5.325c10.919,2.899,31.527,13.251,39.531,19.159
		c3.332,2.46,4.04,7.156,1.58,10.488C422.185,228.47,419.915,229.524,417.616,229.524z"/>
</g>
<path style="fill:#EDA751;" d="M471.333,202.74c-13.542-1.735-25.922,7.843-27.652,21.384
	c-3.714,29.053-32.414,55.641-55.554,67.996l-0.003,0.002c6.356,13.2,9.895,27.827,9.895,43.223c0,1.471-0.041,2.934-0.105,4.39l0,0
	c36.699-15.895,87.874-55.129,94.804-109.343C494.448,216.851,484.874,204.47,471.333,202.74z"/>
<path style="opacity:0.2;fill:#A35F00;enable-background:new    ;" d="M416.367,330.364c-0.232-25.749-10.003-36.871-3.232-55.93
	c-8.146,7.299-16.916,13.365-25.008,17.685l-0.003,0.002c6.356,13.2,9.895,27.827,9.895,43.223c0,1.471-0.041,2.934-0.105,4.39
	C403.774,337.196,410.006,334.059,416.367,330.364z"/>
<g>
</g>
<g>
</g>
<g>
</g>
<g>
</g>
<g>
</g>
<g>
</g>
<g>
</g>
<g>
</g>
<g>
</g>
<g>
</g>
<g>
</g>
<g>
</g>
<g>
</g>
<g>
</g>
<g>
</g>
</svg>
