<?xml version="1.0" encoding="iso-8859-1"?>
<!-- Generator: Adobe Illustrator 19.0.0, SVG Export Plug-In . SVG Version: 6.00 Build 0)  -->
<svg version="1.1" id="Capa_1" xmlns="http://www.w3.org/2000/svg" xmlns:xlink="http://www.w3.org/1999/xlink" x="0px" y="0px"
	 viewBox="0 0 512 512" style="enable-background:new 0 0 512 512;" xml:space="preserve">
<g>
	<path style="fill:#F5D141;" d="M45.057,49.99c-1.405,0-2.827-0.395-4.092-1.22c-3.469-2.264-4.446-6.911-2.183-10.38
		c6.936-10.627,16.34-19.71,27.197-26.268C79.115,4.191,94.205,0,109.62,0c26.803,0,51.431,12.295,67.569,33.732
		c2.491,3.31,1.828,8.012-1.481,10.503c-3.309,2.49-8.011,1.827-10.503-1.482C151.928,25.116,131.667,15,109.62,15
		c-12.683,0-25.092,3.445-35.885,9.962c-8.938,5.398-16.681,12.877-22.39,21.626C49.907,48.792,47.507,49.99,45.057,49.99z"/>
	<path style="fill:#F5D141;" d="M34.4,75.391c-0.534,0-1.076-0.058-1.62-0.178c-4.045-0.891-6.602-4.893-5.711-8.938
		c0.551-2.502,1.225-5.007,2.002-7.445c1.258-3.946,5.478-6.127,9.424-4.867c3.946,1.258,6.125,5.478,4.867,9.424
		c-0.639,2.002-1.191,4.06-1.645,6.115C40.946,73.004,37.844,75.391,34.4,75.391z"/>
	<path style="fill:#F5D141;" d="M71.613,159.048c-1.256,0-2.528-0.315-3.698-0.98c-22.323-12.686-37.519-34.431-41.689-59.661
		c-0.676-4.086,2.09-7.947,6.177-8.622c4.076-0.681,7.947,2.09,8.622,6.177c3.429,20.743,15.931,38.627,34.3,49.065
		c3.602,2.046,4.862,6.625,2.815,10.226C76.759,157.684,74.222,159.048,71.613,159.048z"/>
	<path style="fill:#F5D141;" d="M109.62,169.058c-4.142,0-7.5-3.357-7.5-7.5s3.358-7.5,7.5-7.5c38.339,0,69.529-31.19,69.529-69.529
		c0-6.316-0.846-12.574-2.515-18.601c-1.105-3.992,1.235-8.124,5.227-9.229c3.99-1.102,8.124,1.235,9.229,5.228
		c2.028,7.329,3.058,14.935,3.058,22.602C194.149,131.138,156.229,169.058,109.62,169.058z"/>
	<circle style="fill:#F5D141;" cx="109.62" cy="84.53" r="49.63"/>
</g>
<path style="fill:#EDA751;" d="M398.438,443.383c-19.886,0-41.609-9.259-61.196-46.758c-3.276-6.27-0.848-14.009,5.423-17.284
	c6.272-3.278,14.011-0.848,17.284,5.423c9.701,18.568,19.647,29.039,30.411,32.012c9.452,2.613,20.242-0.267,31.661-3.314
	c16.595-4.425,37.244-9.933,57.68,2.451c6.05,3.667,7.983,11.544,4.316,17.595s-11.544,7.983-17.595,4.316
	c-10.566-6.403-21.247-4.022-37.799,0.392C419.534,440.642,409.257,443.382,398.438,443.383z"/>
<path style="fill:#FCD79D;" d="M484.019,433.508c3.667-6.051,1.733-13.928-4.316-17.595c-3.184-1.93-6.374-3.424-9.552-4.557
	c-4.069,4.578-9.323,12.623-10.206,23.619c2.195,0.632,4.341,1.553,6.48,2.849C472.475,441.491,480.352,439.558,484.019,433.508z"/>
<g>
	<path style="fill:#EDA751;" d="M335.765,512c-10.256,0-19.111-7.683-20.331-18.118c-2.602-22.255-2.506-48.996,0.257-71.533
		c1.378-11.235,11.598-19.227,22.839-17.849c11.235,1.378,19.226,11.603,17.849,22.839c-2.354,19.194-2.442,42.868-0.231,61.784
		c1.315,11.243-6.734,21.422-17.977,22.736C337.363,511.954,336.559,512,335.765,512z"/>
	<path style="fill:#EDA751;" d="M272.256,512c-10.256,0-19.111-7.683-20.331-18.118c-2.602-22.255-2.506-48.996,0.257-71.533
		c1.377-11.235,11.602-19.227,22.839-17.849c11.235,1.378,19.226,11.603,17.849,22.839c-2.354,19.194-2.442,42.868-0.231,61.784
		c1.315,11.243-6.734,21.422-17.977,22.736C273.854,511.954,273.05,512,272.256,512z"/>
	<path style="fill:#EDA751;" d="M202.468,460.546c-3.09,0-6.226-0.701-9.175-2.181c-10.118-5.076-14.205-17.392-9.128-27.51
		c9.74-19.412,12.179-34.645,14.332-48.084c2.316-14.457,4.71-29.407,16.157-42.221c7.541-8.443,20.499-9.172,28.939-1.63
		c8.441,7.541,9.172,20.498,1.63,28.939c-3.288,3.682-4.405,9.868-6.252,21.395c-2.36,14.736-5.592,34.918-18.169,59.983
		C217.207,456.405,209.976,460.546,202.468,460.546z"/>
</g>
<g>
	<path style="opacity:0.2;fill:#A35F00;enable-background:new    ;" d="M390.361,416.776c-10.764-2.972-20.711-13.443-30.412-32.012
		c-3.273-6.271-11.012-8.701-17.284-5.423c-6.271,3.276-8.699,11.014-5.423,17.284c14.988,28.693,31.225,40.842,46.934,44.97
		c7.646-7.113,14.232-15.232,19.517-24.126C399.026,418.01,394.561,417.937,390.361,416.776z"/>
	<path style="opacity:0.2;fill:#A35F00;enable-background:new    ;" d="M338.53,404.5c-11.241-1.378-21.46,6.614-22.839,17.849
		c-1.911,15.59-2.544,33.19-1.893,49.926c14.529-1.177,28.288-4.924,40.762-10.756c-0.081-11.724,0.524-23.629,1.818-34.18
		C357.756,416.103,349.764,405.878,338.53,404.5z"/>
	<path style="opacity:0.2;fill:#A35F00;enable-background:new    ;" d="M275.021,404.5c-11.237-1.378-21.462,6.614-22.839,17.849
		c-1.446,11.797-2.154,24.744-2.135,37.598c12.545,6.343,26.486,10.541,41.268,12.076c-0.647-14.935-0.13-30.953,1.554-44.684
		C294.247,416.103,286.256,405.878,275.021,404.5z"/>
	<path style="opacity:0.2;fill:#A35F00;enable-background:new    ;" d="M243.594,338.921c-8.44-7.542-21.398-6.812-28.939,1.63
		c-11.448,12.814-13.842,27.763-16.157,42.221c-0.821,5.127-1.688,10.517-2.982,16.298c5.827,16.455,15.772,31.151,28.676,43.005
		c9.784-21.764,12.65-39.518,14.78-52.82c1.846-11.527,2.963-17.712,6.252-21.394C252.766,359.418,252.035,346.461,243.594,338.921z
		"/>
</g>
<ellipse style="fill:#FCD690;" cx="303.92" cy="365.13" rx="94.53" ry="87.84"/>
<path style="opacity:0.15;fill:#C17A00;enable-background:new    ;" d="M290.118,452.039
	c-43.199-28.362-29.811-86.491-22.478-111.913v-56.13c-34.202,13.221-58.251,44.567-58.251,81.135
	C209.389,409.287,244.453,445.829,290.118,452.039z"/>
<path style="fill:#EDA751;" d="M246.394,212.812c18.498-15.522,30.849-41.578,4.757-80.097
	c-26.298-38.823-65.451-48.554-96.018-44.953c-7.536,0.888-13.859,6.193-16.042,13.461c-8.854,29.477-6.07,69.726,27.597,102.365
	C200.09,235.972,227.895,228.334,246.394,212.812z"/>
<path style="fill:#FF91AB;" d="M137.86,105.733c-7.259,28.983-3.155,66.848,28.827,97.855c28.952,28.07,53.694,26.064,71.821,14.925
	C226.042,133.886,171.584,111.444,137.86,105.733z"/>
<path style="fill:#EDA751;" d="M361.453,212.812c-18.498-15.522-30.849-41.578-4.757-80.097
	c26.298-38.823,65.451-48.554,96.018-44.953c7.536,0.888,13.859,6.193,16.042,13.461c8.854,29.477,6.07,69.726-27.597,102.365
	C407.756,235.972,379.951,228.334,361.453,212.812z"/>
<path style="fill:#FF91AB;" d="M469.986,105.733c7.259,28.983,3.155,66.848-28.827,97.855
	c-28.952,28.07-53.694,26.064-71.821,14.925C381.805,133.886,436.262,111.444,469.986,105.733z"/>
<path style="fill:#FFDC9C;" d="M464.865,236.239c0,73.587-72.056,105.817-160.942,105.817s-160.942-32.23-160.942-105.817
	s72.056-133.241,160.942-133.241S464.865,162.652,464.865,236.239z"/>
<path style="opacity:0.15;fill:#C17A00;enable-background:new    ;" d="M217.988,123.57
	c-45.074,23.612-75.007,65.244-75.007,112.669c0,63.258,53.247,95.954,124.66,103.887C165.131,278.894,178.5,196.531,217.988,123.57
	z"/>
<g>
	<ellipse style="fill:#FF91AB;" cx="200.34" cy="251.41" rx="29.14" ry="23.21"/>
	<ellipse style="fill:#FF91AB;" cx="358.29" cy="251.41" rx="29.14" ry="23.21"/>
</g>
<g>
	<path style="fill:#495059;" d="M217.318,235.764c-4.143,0-7.5-3.357-7.5-7.5v-10.291c0-4.143,3.357-7.5,7.5-7.5s7.5,3.357,7.5,7.5
		v10.291C224.818,232.406,221.461,235.764,217.318,235.764z"/>
	<path style="fill:#495059;" d="M341.303,235.764c-4.143,0-7.5-3.357-7.5-7.5v-10.291c0-4.143,3.357-7.5,7.5-7.5s7.5,3.357,7.5,7.5
		v10.291C348.803,232.406,345.446,235.764,341.303,235.764z"/>
</g>
<path style="fill:#FF91AB;" d="M308.308,257.204c0-16.015-12.982-28.997-28.997-28.997s-28.997,12.982-28.997,28.997
	s12.982,9.341,28.997,9.341S308.308,273.219,308.308,257.204z"/>
<g>
	<path style="fill:#495059;" d="M159.245,256.209c-3.36,0-6.418-2.275-7.27-5.684c-1.004-4.018,1.439-8.09,5.458-9.095
		c8.105-2.026,27.426-3.472,36.838-2.226c4.105,0.543,6.995,4.313,6.452,8.419c-0.543,4.107-4.313,6.996-8.419,6.452
		c-7.304-0.966-24.854,0.311-31.234,1.907C160.459,256.136,159.847,256.209,159.245,256.209z"/>
	<path style="fill:#495059;" d="M168.528,290.736c-2.3,0-4.569-1.054-6.04-3.046c-2.46-3.332-1.753-8.027,1.58-10.488
		c6.72-4.961,24.032-13.657,33.21-16.095c4.006-1.059,8.11,1.322,9.174,5.324c1.063,4.003-1.32,8.11-5.324,9.174
		c-7.126,1.892-22.862,9.76-28.151,13.665C171.636,290.26,170.075,290.736,168.528,290.736z"/>
	<path style="fill:#495059;" d="M399.378,256.209c-0.603,0-1.214-0.073-1.824-0.226c-6.381-1.595-23.93-2.875-31.234-1.907
		c-4.104,0.543-7.876-2.346-8.419-6.452s2.346-7.876,6.452-8.419c9.414-1.245,28.73,0.199,36.838,2.226
		c4.019,1.005,6.462,5.077,5.458,9.095C405.796,253.934,402.738,256.209,399.378,256.209z"/>
	<path style="fill:#495059;" d="M390.095,290.736c-1.548,0-3.108-0.477-4.448-1.466c-5.29-3.905-21.027-11.773-28.152-13.665
		c-4.004-1.064-6.387-5.171-5.324-9.174c1.065-4.004,5.175-6.383,9.174-5.324c9.177,2.438,26.489,11.133,33.211,16.095
		c3.332,2.46,4.04,7.155,1.58,10.488C394.664,289.683,392.394,290.736,390.095,290.736z"/>
</g>
<path style="fill:#EDA751;" d="M378.947,372.657c-7.595,0-14.891-4.238-18.441-11.526c-4.957-10.177-0.725-22.444,9.451-27.401
	c4.187-2.04,16.658-12.571,26.508-27.669c7.561-11.592,15.644-28.934,11.21-45.727c-2.89-10.944,3.639-22.159,14.583-25.049
	c10.949-2.89,22.16,3.64,25.049,14.583c14.871,56.316-37.127,109.866-59.401,120.715
	C385.018,371.989,381.958,372.657,378.947,372.657z"/>
<g>
	<path style="fill:#7CC5E6;" d="M389.893,163.927c5.542,6.11,13.669,17.197,14.267,30.176c0.517,11.211-8.168,20.943-19.391,20.945
		c-10.733,0.002-19.434-8.698-19.434-19.43c0-13.597,8.507-25.291,14.263-31.648C382.354,160.928,387.135,160.887,389.893,163.927z"
		/>
	<path style="fill:#7CC5E6;" d="M271.216,137.237c5.542,6.11,13.669,17.197,14.267,30.175c0.517,11.211-8.168,20.943-19.391,20.945
		c-10.733,0.002-19.434-8.698-19.434-19.43c0-13.597,8.507-25.291,14.263-31.648C263.678,134.238,268.459,134.197,271.216,137.237z"
		/>
</g>
<g>
</g>
<g>
</g>
<g>
</g>
<g>
</g>
<g>
</g>
<g>
</g>
<g>
</g>
<g>
</g>
<g>
</g>
<g>
</g>
<g>
</g>
<g>
</g>
<g>
</g>
<g>
</g>
<g>
</g>
</svg>
