<?xml version="1.0" encoding="iso-8859-1"?>
<!-- Generator: Adobe Illustrator 19.0.0, SVG Export Plug-In . SVG Version: 6.00 Build 0)  -->
<svg version="1.1" id="Capa_1" xmlns="http://www.w3.org/2000/svg" xmlns:xlink="http://www.w3.org/1999/xlink" x="0px" y="0px"
	 viewBox="0 0 511.999 511.999" style="enable-background:new 0 0 511.999 511.999;" xml:space="preserve">
<path style="fill:#EDA751;" d="M82.581,415.29c-7.478,0-15.023-2.083-22.329-6.218c-19.766-11.186-21.926-28.919-23.504-41.866
	c-1.773-14.551-2.583-21.192-21.423-24.537c-6.609-1.174-11.016-7.482-9.842-14.091c1.174-6.608,7.479-11.013,14.091-9.841
	c36.545,6.489,39.407,29.983,41.302,45.53c1.482,12.16,2.66,18.735,11.347,23.652c5.732,3.243,11.019,3.894,16.163,1.99
	c8.842-3.274,15.92-13.209,18.754-21.054c2.281-6.314,9.248-9.583,15.559-7.302c6.313,2.28,9.582,9.247,7.302,15.559
	c-4.484,12.413-15.863,29.182-33.176,35.591C92.161,414.431,87.385,415.29,82.581,415.29z"/>
<path style="fill:#FCD79D;" d="M26.901,346.14c3.596-4.354,8.046-11,9.323-22.379c-4.589-2.127-10.065-3.855-16.649-5.024
	c-6.612-1.172-12.918,3.233-14.091,9.841c-1.174,6.609,3.233,12.918,9.842,14.091C20.349,343.562,24.081,344.691,26.901,346.14z"/>
<path style="fill:#EDA751;" d="M144.996,474.134c-2.152,0-4.338-0.359-6.481-1.117c-10.125-3.58-15.432-14.69-11.853-24.815
	c9.277-26.243,9.964-34.583,4.323-52.497c-3.226-10.244,2.463-21.163,12.707-24.389c10.243-3.226,21.163,2.463,24.389,12.707
	c9.135,29.009,6.081,46.499-4.751,77.141C160.508,469.147,153.005,474.134,144.996,474.134z"/>
<path id="SVGCleanerId_0" style="fill:#EDA751;" d="M228.782,462.552c-2.152,0-4.338-0.359-6.481-1.117
	c-10.125-3.58-15.432-14.69-11.853-24.815c6.92-19.574-5.188-33.529-7.858-35.466c-8.694-6.305-10.631-18.464-4.325-27.158
	c6.305-8.694,18.464-10.631,27.158-4.325c15.369,11.146,34.849,42.697,21.693,79.912
	C244.294,457.565,236.791,462.552,228.782,462.552z"/>
<g>
	<path id="SVGCleanerId_0_1_" style="fill:#EDA751;" d="M228.782,462.552c-2.152,0-4.338-0.359-6.481-1.117
		c-10.125-3.58-15.432-14.69-11.853-24.815c6.92-19.574-5.188-33.529-7.858-35.466c-8.694-6.305-10.631-18.464-4.325-27.158
		c6.305-8.694,18.464-10.631,27.158-4.325c15.369,11.146,34.849,42.697,21.693,79.912
		C244.294,457.565,236.791,462.552,228.782,462.552z"/>
</g>
<g>
	<path style="opacity:0.2;fill:#A35F00;enable-background:new    ;" d="M225.422,369.671c-8.694-6.305-20.853-4.368-27.158,4.326
		c-6.305,8.694-4.369,20.853,4.326,27.158c2.154,1.562,10.442,10.946,9.938,24.788c5.28-2.102,10.352-4.58,15.174-7.403
		c0.87-0.509,1.934-0.496,2.798,0.022c1.793,1.075,3.827,1.801,6.02,2.066l14.892,1.801
		C250.58,397.588,236.866,377.971,225.422,369.671z"/>
	<path style="opacity:0.2;fill:#A35F00;enable-background:new    ;" d="M122.701,361.553c-6.312-2.281-13.279,0.988-15.559,7.302
		c-2.834,7.845-9.912,17.78-18.754,21.054c-2.472,0.915-4.977,1.234-7.549,0.965c5.721,7.501,12.482,14.251,20.081,20.066
		c15.017-7.345,24.963-22.422,29.082-33.827C132.283,370.8,129.014,363.833,122.701,361.553z"/>
	<path style="opacity:0.2;fill:#A35F00;enable-background:new    ;" d="M143.692,371.317c-10.244,3.226-15.932,14.145-12.707,24.389
		c3.875,12.305,4.764,20.093,1.934,32.268c11.578,3.926,24.051,6.072,37.046,6.072c0.477,0,0.952-0.011,1.427-0.017
		c3.445-16.423,2.782-30.653-3.312-50.005C164.855,373.781,153.935,368.092,143.692,371.317z"/>
</g>
<ellipse style="fill:#FCD690;" cx="169.97" cy="330.7" rx="89.69" ry="83.34"/>
<path style="opacity:0.15;fill:#C17A00;enable-background:new    ;" d="M156.868,413.158
	c-40.985-26.909-28.283-82.06-21.326-106.178v-53.254c-32.449,12.544-55.267,42.283-55.267,76.978
	C80.276,372.598,113.543,407.267,156.868,413.158z"/>
<path style="fill:#EDA751;" d="M114.74,193.118c15.754-16.634,24.572-42.532-4.194-76.011
	C81.553,83.363,43.595,78.432,15.174,85.138C8.167,86.791,2.782,92.477,1.512,99.564c-5.152,28.743,1.833,66.378,37.102,93.495
	C73.606,219.964,98.986,209.752,114.74,193.118z"/>
<path style="fill:#FF91AB;" d="M0.841,103.948c-3.702,28.104,4.269,63.35,37.773,89.111c30.33,23.32,53.433,18.749,69.312,6.287
	C87.007,120.931,33.246,105.678,0.841,103.948z"/>
<path style="fill:#EDA751;" d="M223.19,180.653c-19.117-12.626-33.581-35.848-13.161-74.981
	c20.581-39.442,56.431-52.856,85.632-52.773c7.199,0.02,13.734,4.336,16.579,10.95c11.539,26.825,13.275,65.063-14.922,99.475
	C269.342,197.466,242.307,193.279,223.19,180.653z"/>
<path style="fill:#FF91AB;" d="M313.888,67.967c9.982,26.531,10.215,62.667-16.57,95.357
	c-24.248,29.594-47.786,30.383-66.078,21.849C233.822,104.056,282.72,77.004,313.888,67.967z"/>
<path style="fill:#FFDC9C;" d="M323.2,191.531c7.972,69.36-56.453,107.545-140.233,117.175S27.778,295.763,19.806,226.403
	C11.834,157.043,73.288,93.009,157.068,83.38C240.848,73.75,315.228,122.171,323.2,191.531z"/>
<path style="opacity:0.15;fill:#C17A00;enable-background:new    ;" d="M78.298,112.08c-39.926,27.139-63.63,69.623-58.492,114.323
	c6.853,59.624,60.584,84.673,128.753,84.414C45.304,264.208,48.983,185.128,78.298,112.08z"/>
<g>
	
		<ellipse transform="matrix(-0.1142 -0.9935 0.9935 -0.1142 -126.511 318.1335)" style="fill:#FF91AB;" cx="78.574" cy="215.468" rx="22.021" ry="27.648"/>
	
		<ellipse transform="matrix(0.1142 0.9935 -0.9935 0.1142 398.5095 -50.2555)" style="fill:#FF91AB;" cx="227.436" cy="198.343" rx="22.021" ry="27.648"/>
</g>
<g>
	<path style="fill:#495059;" d="M92.056,199.3c-3.759,0-7.002-2.82-7.442-6.644l-1.115-9.7c-0.473-4.115,2.479-7.834,6.594-8.307
		c4.112-0.479,7.834,2.48,8.307,6.594l1.115,9.7c0.473,4.115-2.479,7.834-6.594,8.307C92.631,199.284,92.342,199.3,92.056,199.3z"/>
	<path style="fill:#495059;" d="M208.919,185.868c-3.759,0-7.002-2.82-7.441-6.644l-1.115-9.699
		c-0.473-4.115,2.479-7.835,6.594-8.308c4.122-0.482,7.835,2.479,8.308,6.594l1.115,9.699c0.473,4.115-2.479,7.835-6.594,8.308
		C209.494,185.852,209.205,185.868,208.919,185.868z"/>
	<path style="fill:#495059;" d="M149.006,200.166c-6.958,0-13.713-2.592-18.919-7.341c-3.06-2.791-3.278-7.536-0.486-10.596
		c2.793-3.06,7.535-3.277,10.596-0.486c2.797,2.552,6.55,3.762,10.3,3.338c3.749-0.431,7.13-2.468,9.276-5.588
		c2.347-3.412,7.017-4.277,10.43-1.93c3.413,2.347,4.277,7.017,1.93,10.43c-4.604,6.694-11.865,11.064-19.922,11.99
		C151.14,200.105,150.07,200.166,149.006,200.166z"/>
	<path style="fill:#495059;" d="M43.373,233.484c-2.827,0-5.533-1.606-6.805-4.337c-1.748-3.755-0.12-8.217,3.635-9.964
		c7.217-3.358,25.028-8.195,34.056-8.73c4.14-0.244,7.685,2.908,7.931,7.043c0.245,4.135-2.908,7.686-7.043,7.931
		c-6.946,0.412-22.985,4.736-28.615,7.356C45.509,233.259,44.432,233.484,43.373,233.484z"/>
	<path style="fill:#495059;" d="M58.21,263.982c-1.816,0-3.637-0.656-5.079-1.983c-3.047-2.806-3.242-7.551-0.436-10.598
		c5.391-5.854,20.015-17.112,28.161-21.049c3.729-1.801,8.213-0.24,10.017,3.489c1.802,3.73,0.24,8.214-3.489,10.017
		c-6.267,3.029-19.449,13.138-23.654,17.705C62.251,263.168,60.233,263.982,58.21,263.982z"/>
	<path style="fill:#495059;" d="M239.565,200.587c-3.358,0-6.415-2.272-7.269-5.677c-1.008-4.018,1.432-8.092,5.449-9.1
		c8.773-2.201,27.212-2.939,35.106-1.901c4.107,0.538,6.999,4.305,6.46,8.412c-0.539,4.106-4.3,6.998-8.412,6.46
		c-6.154-0.807-22.754-0.115-29.503,1.578C240.783,200.514,240.169,200.587,239.565,200.587z"/>
	<path style="fill:#495059;" d="M266.871,232.397c-1.268,0-2.552-0.322-3.729-0.998c-5.383-3.093-20.992-8.777-27.879-9.783
		c-4.099-0.599-6.936-4.407-6.337-8.506c0.599-4.098,4.403-6.934,8.506-6.337c8.951,1.308,26.282,7.654,33.183,11.619
		c3.591,2.063,4.83,6.648,2.767,10.24C271.994,231.046,269.468,232.397,266.871,232.397z"/>
</g>
<path style="fill:#78CFC0;" d="M392.761,427.456l-150.917-18.254c-7.712-0.933-13.512-7.479-13.51-15.247l0.093-269.742
	l245.311,29.672L409.515,415.87C407.666,423.414,400.473,428.389,392.761,427.456z"/>
<path style="opacity:0.15;enable-background:new    ;" d="M228.345,364.233l-0.01,29.721c-0.003,7.768,5.798,14.314,13.51,15.247
	l150.916,18.254c7.712,0.933,14.906-4.042,16.755-11.587l7.076-28.866L228.345,364.233z"/>
<circle style="fill:#FFFFFF;" cx="336.74" cy="257.61" r="63.04"/>
<path style="fill:#B77866;" d="M498.291,104.534L216.349,70.432c-8.541-1.033-16.302,5.053-17.335,13.594l-2.496,20.636
	c-1.033,8.541,5.053,16.302,13.594,17.335L492.054,156.1c8.541,1.033,16.302-5.053,17.335-13.594l2.496-20.636
	C512.919,113.329,506.832,105.567,498.291,104.534z"/>
<path style="opacity:0.15;enable-background:new    ;" d="M498.291,104.534L216.349,70.432c-8.541-1.033-16.302,5.053-17.335,13.594
	l-2.496,20.636c-1.033,8.541,5.053,16.302,13.594,17.335L492.054,156.1c8.541,1.033,16.302-5.053,17.335-13.594l2.496-20.636
	C512.919,113.329,506.832,105.567,498.291,104.534z"/>
<g>
	<path style="fill:#B77866;" d="M479.976,102.319L234.665,72.647l14.02-24.472c4.095-7.148,12.071-11.15,20.249-10.161l186.02,22.5
		c8.178,0.989,14.97,6.778,17.242,14.696L479.976,102.319z"/>
	<path style="fill:#B77866;" d="M343.734,294.927L343.734,294.927c-5.983,0.563-10.956-4.544-10.235-10.51l6.484-53.606
		c0.802-6.634,8.065-10.346,13.912-7.112l0,0c11.276,6.237,17.641,18.69,16.094,31.482l-1.944,16.07
		C366.518,283.879,356.398,293.735,343.734,294.927z"/>
	<path style="fill:#B77866;" d="M321.055,292.184L321.055,292.184c5.676,1.973,11.724-1.801,12.445-7.766l6.484-53.606
		c0.802-6.634-5.365-11.97-11.815-10.223l0,0c-12.438,3.369-21.589,13.945-23.136,26.737l-1.944,16.07
		C301.562,276.022,309.041,288.007,321.055,292.184z"/>
</g>
<path style="opacity:0.15;enable-background:new    ;" d="M321.055,292.184L321.055,292.184c5.676,1.973,11.724-1.801,12.445-7.766
	l6.484-53.606c0.802-6.634-5.365-11.97-11.815-10.223l0,0c-12.438,3.369-21.589,13.945-23.136,26.737l-1.944,16.07
	C301.562,276.022,309.041,288.007,321.055,292.184z"/>
<path style="opacity:0.1;enable-background:new    ;" d="M228.335,393.954c-0.003,7.768,5.798,14.315,13.51,15.247L352.54,422.59
	c-69.867-75.728-80.623-178.091-79.48-255.274c0.126-8.495,7.599-14.997,16.033-13.977l179.458,21.707l5.188-21.162l-245.311-29.672
	L228.335,393.954z"/>
<path style="fill:#EDA751;" d="M186.949,366.574c-12.956,0-24.491-2.102-33.184-6.194c-9.717-4.574-13.886-16.159-9.313-25.875
	c4.574-9.717,16.158-13.886,25.876-9.313c11.207,5.276,49.991,2.654,71.512-14.629c8.374-6.724,20.614-5.387,27.338,2.986
	c6.724,8.374,5.387,20.613-2.986,27.338c-14.648,11.763-35.067,20.241-57.495,23.872
	C201.189,365.975,193.866,366.574,186.949,366.574z"/>
<path style="opacity:0.15;fill:#C18F00;enable-background:new    ;" d="M186.949,366.574c-12.956,0-24.491-2.102-33.184-6.194
	c-9.717-4.574-13.886-16.159-9.313-25.875c4.574-9.717,16.158-13.886,25.876-9.313c11.207,5.276,49.991,2.654,71.512-14.629
	c8.374-6.724,20.614-5.387,27.338,2.986c6.724,8.374,5.387,20.613-2.986,27.338c-14.648,11.763-35.067,20.241-57.495,23.872
	C201.189,365.975,193.866,366.574,186.949,366.574z"/>
<g>
</g>
<g>
</g>
<g>
</g>
<g>
</g>
<g>
</g>
<g>
</g>
<g>
</g>
<g>
</g>
<g>
</g>
<g>
</g>
<g>
</g>
<g>
</g>
<g>
</g>
<g>
</g>
<g>
</g>
</svg>
