<?xml version="1.0" encoding="iso-8859-1"?>
<!-- Generator: Adobe Illustrator 19.0.0, SVG Export Plug-In . SVG Version: 6.00 Build 0)  -->
<svg version="1.1" id="Capa_1" xmlns="http://www.w3.org/2000/svg" xmlns:xlink="http://www.w3.org/1999/xlink" x="0px" y="0px"
	 viewBox="0 0 512 512" style="enable-background:new 0 0 512 512;" xml:space="preserve">
<path style="fill:#EDA751;" d="M120.203,458.096c-1.383,0-2.669-0.042-3.844-0.109c-30.752-1.768-57.406-23.107-64.818-51.894
	c-2.046-7.946,2.737-16.047,10.683-18.094c7.944-2.046,16.047,2.737,18.092,10.684c4.16,16.156,20.034,28.62,37.747,29.638
	c26.267,1.524,50.369-21.05,66.062-61.895c2.943-7.66,11.538-11.486,19.197-8.54c7.66,2.942,11.484,11.538,8.541,19.197
	C184.374,448.636,141.106,458.096,120.203,458.096z"/>
<path style="fill:#FCD79D;" d="M80.317,398.683c-2.046-7.946-10.148-12.73-18.092-10.683c-7.946,2.046-12.73,10.147-10.683,18.093
	c0.936,3.637,2.182,7.154,3.702,10.529c8.281-1,18.839-4.34,28.119-10.156C82.05,403.999,81.015,401.395,80.317,398.683z"/>
<g>
	<path style="fill:#EDA751;" d="M214.762,512c-0.819,0-1.645-0.043-2.477-0.129c-13.059-1.352-22.55-13.034-21.197-26.094
		c2.811-27.151,2.399-50.988-1.261-72.872c-2.165-12.948,6.577-25.201,19.526-27.367c12.955-2.168,25.202,6.578,27.367,19.527
		c4.372,26.15,4.915,54.153,1.659,85.608C237.111,502.901,226.79,512,214.762,512z"/>
	<path style="fill:#EDA751;" d="M289.659,512c-0.819,0-1.645-0.043-2.477-0.129c-13.059-1.352-22.55-13.034-21.197-26.094
		c2.811-27.152,2.399-50.989-1.26-72.872c-2.165-12.948,6.577-25.201,19.526-27.367c12.954-2.168,25.202,6.578,27.367,19.527
		c4.372,26.149,4.915,54.152,1.658,85.608C312.009,502.901,301.688,512,289.659,512z"/>
	<path style="fill:#EDA751;" d="M107.499,368.844c-18.862,0-37.281-4.295-54.83-12.905c-11.787-5.783-16.654-20.026-10.87-31.812
		c5.783-11.786,20.026-16.652,31.812-10.87c24.975,12.253,51.278,10.678,80.416-4.812c11.592-6.164,25.987-1.762,32.149,9.83
		c6.164,11.592,1.762,25.987-9.83,32.149C153.27,362.692,130.068,368.844,107.499,368.844z"/>
	<path style="fill:#EDA751;" d="M340.906,348.939c-3.527,0-6.923-0.32-10.13-0.987c-12.853-2.673-21.106-15.261-18.433-28.114
		c2.668-12.824,15.2-21.073,28.022-18.452c6.502,0.809,28.344-7.321,37.452-21.281c4.626-7.089,4.461-13.332-0.567-21.548
		c-6.854-11.198-3.332-25.831,7.866-32.685c11.196-6.855,25.832-3.333,32.685,7.866c15.02,24.54,14.406,51.726-1.685,74.587
		C399.604,331.785,366.746,348.939,340.906,348.939z"/>
</g>
<g>
	<path style="opacity:0.2;fill:#A35F00;enable-background:new    ;" d="M315.322,447.242c-0.221-14.697-1.449-28.686-3.705-42.177
		c-2.165-12.949-14.412-21.695-27.367-19.527c-12.949,2.166-21.691,14.419-19.526,27.367c2.591,15.5,3.546,31.986,2.888,49.929
		C284.815,460.603,300.949,455.188,315.322,447.242z"/>
	<path style="opacity:0.2;fill:#A35F00;enable-background:new    ;" d="M209.352,385.539c-12.949,2.166-21.691,14.419-19.526,27.367
		c2.042,12.214,3.07,25.038,3.094,38.704c14.479,6.675,30.465,10.888,47.339,12.048c0.71-20.82-0.46-40.169-3.541-58.592
		C234.553,392.116,222.307,383.37,209.352,385.539z"/>
	<path style="opacity:0.2;fill:#A35F00;enable-background:new    ;" d="M203.324,357.886c-7.66-2.946-16.254,0.88-19.197,8.54
		c-9.263,24.11-21.457,41.847-35.296,52.026c6.51,7.595,13.966,14.442,22.2,20.384c14.508-12.01,29.106-31.228,40.833-61.752
		C214.807,369.424,210.982,360.829,203.324,357.886z"/>
	<path style="opacity:0.2;fill:#A35F00;enable-background:new    ;" d="M154.027,308.443c-10.948,5.82-21.496,9.675-31.724,11.571
		c-1.401,7.167-2.139,14.548-2.139,22.09c0,8.835,1.014,17.45,2.923,25.757c17.597-2.17,35.465-7.978,53.26-17.439
		c11.592-6.162,15.994-20.557,9.83-32.149C180.014,306.681,165.619,302.28,154.027,308.443z"/>
</g>
<ellipse style="fill:#FCD690;" cx="249.807" cy="342.1" rx="109.64" ry="101.88"/>
<path style="opacity:0.15;fill:#C17A00;enable-background:new    ;" d="M233.796,442.904
	c-50.104-32.895-34.576-100.316-26.071-129.801V248c-39.669,15.335-67.563,51.69-67.563,94.104
	C140.163,393.319,180.831,435.702,233.796,442.904z"/>
<path style="fill:#EDA751;" d="M183.083,165.438c21.455-18.003,35.78-48.224,5.517-92.9
	c-30.501-45.029-75.913-56.316-111.366-52.139c-8.741,1.03-16.074,7.184-18.606,15.613c-10.27,34.189-7.04,80.871,32.008,118.728
	C129.378,192.3,161.628,183.441,183.083,165.438z"/>
<path style="fill:#FF91AB;" d="M57.2,41.243c-8.419,33.615-3.659,77.534,33.435,113.497c33.58,32.556,62.277,30.23,83.301,17.311
	C159.477,73.896,96.315,47.867,57.2,41.243z"/>
<path style="fill:#EDA751;" d="M316.534,165.438c-21.455-18.003-35.78-48.224-5.517-92.9
	c30.501-45.029,75.913-56.316,111.366-52.139c8.741,1.03,16.074,7.184,18.606,15.613c10.27,34.189,7.04,80.871-32.008,118.728
	C370.238,192.3,337.988,183.441,316.534,165.438z"/>
<path style="fill:#FF91AB;" d="M442.415,41.243c8.419,33.615,3.659,77.534-33.435,113.497c-33.58,32.556-62.277,30.23-83.301,17.311
	C340.138,73.896,403.301,47.867,442.415,41.243z"/>
<path style="fill:#FFDC9C;" d="M436.475,192.61c0,85.35-83.574,122.732-186.668,122.732S63.139,277.96,63.139,192.61
	S146.714,38.071,249.807,38.071S436.475,107.26,436.475,192.61z"/>
<path style="opacity:0.15;fill:#C17A00;enable-background:new    ;" d="M150.137,61.931C97.857,89.318,63.139,137.605,63.139,192.61
	c0,73.369,61.759,111.292,144.586,120.493C88.829,242.083,104.336,146.554,150.137,61.931z"/>
<g>
	<ellipse style="fill:#FF91AB;" cx="158.208" cy="196.21" rx="33.798" ry="26.915"/>
	<ellipse style="fill:#FF91AB;" cx="341.408" cy="196.21" rx="33.798" ry="26.915"/>
</g>
<g>
	<path style="fill:#495059;" d="M177.906,176.86c-4.142,0-7.5-3.357-7.5-7.5v-11.936c0-4.143,3.358-7.5,7.5-7.5s7.5,3.357,7.5,7.5
		v11.936C185.406,173.503,182.048,176.86,177.906,176.86z"/>
	<path style="fill:#495059;" d="M321.71,176.86c-4.142,0-7.5-3.357-7.5-7.5v-11.936c0-4.143,3.358-7.5,7.5-7.5s7.5,3.357,7.5,7.5
		v11.936C329.21,173.503,325.852,176.86,321.71,176.86z"/>
	<path style="fill:#495059;" d="M110.55,200.573c-3.36,0-6.418-2.275-7.271-5.684c-1.004-4.018,1.439-8.09,5.458-9.095
		c9.307-2.325,31.481-3.981,42.278-2.556c4.106,0.543,6.995,4.313,6.453,8.419c-0.543,4.106-4.309,6.996-8.419,6.452
		c-8.755-1.159-29.016,0.321-36.675,2.237C111.764,200.5,111.152,200.573,110.55,200.573z"/>
	<path style="fill:#495059;" d="M121.315,240.621c-2.3,0-4.569-1.055-6.04-3.047c-2.46-3.332-1.753-8.027,1.579-10.488
		c7.715-5.695,27.584-15.676,38.115-18.473c4.003-1.061,8.11,1.321,9.174,5.324c1.063,4.004-1.321,8.11-5.324,9.174
		c-8.539,2.267-26.707,11.355-33.056,16.043C124.423,240.144,122.862,240.621,121.315,240.621z"/>
	<path style="fill:#495059;" d="M389.065,200.573c-0.603,0-1.214-0.073-1.825-0.225c-7.659-1.916-27.921-3.398-36.675-2.237
		c-4.111,0.545-7.875-2.347-8.418-6.452c-0.543-4.106,2.346-7.876,6.453-8.419c10.797-1.427,32.972,0.229,42.278,2.556
		c4.018,1.005,6.462,5.076,5.457,9.095C395.483,198.298,392.426,200.573,389.065,200.573z"/>
	<path style="fill:#495059;" d="M378.301,240.621c-1.547,0-3.108-0.478-4.449-1.467c-6.349-4.688-24.517-13.776-33.056-16.043
		c-4.003-1.063-6.387-5.17-5.324-9.174c1.064-4.003,5.172-6.384,9.174-5.324c10.531,2.797,30.4,12.777,38.115,18.473
		c3.333,2.461,4.04,7.156,1.579,10.488C382.87,239.566,380.599,240.621,378.301,240.621z"/>
	<path style="fill:#495059;" d="M157.649,127.459c-1.091,0-2.199-0.239-3.249-0.744c-3.732-1.798-5.301-6.279-3.503-10.012
		c3.301-6.855,9.075-12.016,16.257-14.529c7.182-2.515,14.912-2.079,21.769,1.223c3.732,1.797,5.3,6.279,3.503,10.011
		s-6.279,5.302-10.012,3.503c-3.245-1.563-6.904-1.769-10.306-0.578c-3.4,1.189-6.134,3.633-7.697,6.879
		C163.12,125.894,160.44,127.459,157.649,127.459z"/>
	<path style="fill:#495059;" d="M332.139,142.851h-16.396c-4.142,0-7.5-3.357-7.5-7.5s3.358-7.5,7.5-7.5h16.396
		c4.142,0,7.5,3.357,7.5,7.5C339.639,139.493,336.281,142.851,332.139,142.851z"/>
</g>
<path style="fill:#FF91AB;" d="M275.599,193.378c0-14.244-11.547-25.79-25.791-25.79s-25.79,11.547-25.79,25.79v5.261
	c0,3.939,3.193,7.132,7.132,7.132h37.316c3.939,0,7.132-3.193,7.132-7.132L275.599,193.378z"/>
<g>
	<path style="fill:#BD4568;" d="M477.659,140.75c-7.869,1.387-15.372-3.866-16.759-11.735l-7.219-40.941
		c-1.388-7.869,3.866-15.372,11.735-16.759c11.594-2.044,19.363-13.14,17.319-24.734c-2.044-11.593-13.139-19.362-24.733-17.318
		c-8.811,1.554-15.774,8.513-17.328,17.318c-1.388,7.868-8.895,13.118-16.76,11.733c-7.868-1.388-13.122-8.893-11.733-16.761
		c3.659-20.737,20.054-37.127,40.797-40.784c27.305-4.815,53.437,13.483,58.252,40.788c3.942,22.356-7.607,43.924-26.909,53.652
		l5.075,28.782C490.781,131.86,485.527,139.363,477.659,140.75z"/>
	<circle style="fill:#BD4568;" cx="483.557" cy="170.52" r="13.393"/>
	<path style="fill:#BD4568;" d="M22.242,180.435c-7.62-2.773-11.548-11.198-8.775-18.818l14.43-39.645
		c2.773-7.62,11.198-11.548,18.818-8.775c11.227,4.086,23.685-1.723,27.771-12.95c4.086-11.226-1.723-23.684-12.95-27.771
		c-8.532-3.105-18.184-0.522-24.017,6.428c-5.213,6.211-14.474,7.016-20.684,1.807c-6.211-5.213-7.02-14.474-1.807-20.685
		c13.738-16.368,36.464-22.454,56.551-15.143c26.441,9.624,40.123,38.965,30.5,65.406c-7.879,21.648-28.974,34.744-50.874,33.499
		L41.06,171.66C38.286,179.28,29.862,183.208,22.242,180.435z"/>
	<circle style="fill:#BD4568;" cx="13.593" cy="207.38" r="13.592"/>
</g>
<g>
</g>
<g>
</g>
<g>
</g>
<g>
</g>
<g>
</g>
<g>
</g>
<g>
</g>
<g>
</g>
<g>
</g>
<g>
</g>
<g>
</g>
<g>
</g>
<g>
</g>
<g>
</g>
<g>
</g>
</svg>
