<?xml version="1.0" encoding="iso-8859-1"?>
<!-- Generator: Adobe Illustrator 19.0.0, SVG Export Plug-In . SVG Version: 6.00 Build 0)  -->
<svg version="1.1" id="Capa_1" xmlns="http://www.w3.org/2000/svg" xmlns:xlink="http://www.w3.org/1999/xlink" x="0px" y="0px"
	 viewBox="0 0 512 512" style="enable-background:new 0 0 512 512;" xml:space="preserve">
<path style="fill:#EDA751;" d="M353.501,400.987c-24.674,3.039-49.469-1.111-71.019-21.728c-6.301-6.029-6.523-16.025-0.494-22.327
	c6.03-6.303,16.025-6.523,22.327-0.494c18.023,17.244,41.059,18.241,82.144,3.567c11.127-3.974,13.859-11.35,18.517-26.327
	c5.476-17.609,12.975-41.726,46.062-51.942c8.321-2.574,17.175,2.096,19.747,10.43c2.574,8.333-2.096,17.174-10.43,19.747
	c-16.422,5.071-19.942,14.167-25.223,31.145c-4.886,15.714-11.579,37.236-38.05,46.69
	C383.085,394.747,368.315,399.162,353.501,400.987z"/>
<path style="fill:#FCD79D;" d="M470.786,292.165c-2.573-8.334-11.427-13.004-19.747-10.43c-6.254,1.931-11.591,4.36-16.176,7.147
	c0.86,9.308,4.453,21.254,14.744,28.088c2.839-2.028,6.323-3.691,10.75-5.058C468.69,309.339,473.36,300.498,470.786,292.165z"/>
<g>
	<path style="fill:#EDA751;" d="M205.69,512c-13.954,0-25.267-11.312-25.267-25.266c0-7.103,0.045-15.529,0.09-24.46
		c0.113-21.552,0.241-45.98-0.204-61.368c-0.401-13.949,10.58-25.582,24.529-25.984c13.929-0.421,25.581,10.578,25.984,24.527
		c0.468,16.249,0.338,41.134,0.223,63.09c-0.047,8.834-0.09,17.17-0.09,24.196C230.956,500.688,219.644,512,205.69,512z"/>
	<path style="fill:#EDA751;" d="M292.343,512c-13.954,0-25.266-11.312-25.266-25.266c0-7.032-0.043-15.375-0.09-24.217
		c-0.115-21.948-0.244-46.824,0.222-63.067c0.402-13.95,12.084-24.945,25.983-24.529c13.948,0.402,24.931,12.034,24.53,25.983
		c-0.443,15.384-0.316,39.804-0.204,61.35c0.047,8.938,0.091,17.372,0.091,24.481C317.609,500.688,306.298,512,292.343,512z"/>
	<path style="fill:#EDA751;" d="M132.46,433.244c-3.739,0-7.536-0.833-11.118-2.592c-12.526-6.151-17.694-21.29-11.543-33.816
		c11.53-23.484,24.848-75.996,26.302-86.727c1.875-13.828,14.607-23.52,28.431-21.645c13.829,1.874,23.518,14.603,21.644,28.43
		c-2.107,15.553-16.756,73.171-31.018,102.214C150.767,428.051,141.793,433.244,132.46,433.244z"/>
	<path style="fill:#EDA751;" d="M365.573,433.244c-9.334,0-18.307-5.191-22.698-14.136c-14.262-29.043-28.911-86.661-31.018-102.214
		c-1.874-13.827,7.816-26.556,21.644-28.43c13.816-1.878,26.556,7.816,28.431,21.645c1.453,10.731,14.771,63.243,26.301,86.727
		c6.151,12.526,0.983,27.665-11.543,33.816C373.108,432.411,369.311,433.244,365.573,433.244z"/>
</g>
<g>
	<path style="opacity:0.2;fill:#A35F00;enable-background:new    ;" d="M204.838,374.921c-13.949,0.402-24.93,12.035-24.529,25.984
		c0.321,11.127,0.343,26.981,0.288,43.057c15.218,8.291,32.283,13.905,50.461,16.154c0.111-21.346,0.215-45.012-0.236-60.668
		C230.419,385.499,218.767,374.5,204.838,374.921z"/>
	<path style="opacity:0.2;fill:#A35F00;enable-background:new    ;" d="M293.192,374.921c-13.899-0.416-25.581,10.58-25.983,24.529
		c-0.45,15.655-0.346,39.323-0.234,60.666c18.178-2.249,35.242-7.863,50.46-16.154c-0.055-16.075-0.033-31.931,0.287-43.059
		C318.123,386.955,307.14,375.322,293.192,374.921z"/>
	<path style="opacity:0.2;fill:#A35F00;enable-background:new    ;" d="M361.932,310.109c-1.875-13.829-14.615-23.523-28.431-21.645
		c-13.829,1.874-23.518,14.603-21.644,28.43c2.107,15.553,16.756,73.171,31.018,102.214c0.792,1.612,1.737,3.098,2.801,4.458
		c14.907-13.994,26.399-31.196,33.202-50.394C370.439,348.295,362.997,317.975,361.932,310.109z"/>
	<path style="opacity:0.2;fill:#A35F00;enable-background:new    ;" d="M164.532,288.464c-13.824-1.875-26.556,7.817-28.431,21.645
		c-1.065,7.867-8.507,38.186-16.946,63.064c6.803,19.198,18.295,36.4,33.202,50.394c1.065-1.36,2.01-2.846,2.802-4.458
		c14.262-29.043,28.911-86.661,31.018-102.214C188.05,303.067,178.36,290.338,164.532,288.464z"/>
</g>
<ellipse style="fill:#FCD690;" cx="249.02" cy="332.64" rx="116.54" ry="108.29"/>
<path style="opacity:0.15;fill:#C17A00;enable-background:new    ;" d="M231.998,439.776
	c-53.254-34.964-38.826-103.579-27.71-127.814v-79.344c-42.163,16.299-71.81,54.94-71.81,100.021
	C132.479,387.073,175.704,432.121,231.998,439.776z"/>
<path style="fill:#EDA751;" d="M178.096,155.014c22.804-19.135,38.029-51.256,5.864-98.741
	C151.541,8.414,103.274-3.583,65.593,0.856C56.303,1.95,48.508,8.491,45.817,17.45c-10.915,36.339-7.482,85.955,34.021,126.192
	C121.015,183.564,155.292,174.148,178.096,155.014z"/>
<path style="fill:#FF91AB;" d="M44.3,23.011c-8.949,35.729-3.889,82.408,35.537,120.632c35.692,34.603,66.192,32.13,88.538,18.399
	C153.007,57.716,85.874,30.052,44.3,23.011z"/>
<path style="fill:#EDA751;" d="M319.937,155.014c-22.804-19.135-38.029-51.256-5.864-98.741
	C346.491,8.414,394.758-3.583,432.44,0.856c9.29,1.094,17.085,7.635,19.776,16.594c10.915,36.339,7.482,85.955-34.021,126.192
	C377.018,183.564,342.74,174.148,319.937,155.014z"/>
<path style="fill:#FF91AB;" d="M453.733,23.011c8.949,35.729,3.889,82.408-35.537,120.632
	c-35.691,34.603-66.192,32.13-88.538,18.399C345.026,57.716,412.158,30.052,453.733,23.011z"/>
<path style="fill:#FFDC9C;" d="M447.419,183.894c0,90.715-88.828,130.448-198.403,130.448S50.613,274.61,50.613,183.894
	S139.441,19.639,249.016,19.639S447.419,93.179,447.419,183.894z"/>
<path style="opacity:0.15;fill:#C17A00;enable-background:new    ;" d="M143.079,44.999C87.514,74.108,50.613,125.43,50.613,183.894
	c0,77.982,65.642,118.288,153.676,128.068C77.918,236.477,94.399,134.943,143.079,44.999z"/>
<g>
	<path style="fill:#495059;" d="M172.594,193.702c-4.143,0-7.5-3.358-7.5-7.5v-12.686c0-4.142,3.357-7.5,7.5-7.5s7.5,3.358,7.5,7.5
		v12.686C180.094,190.344,176.736,193.702,172.594,193.702z"/>
	<path style="fill:#495059;" d="M325.439,193.702c-4.143,0-7.5-3.358-7.5-7.5v-12.686c0-4.142,3.357-7.5,7.5-7.5s7.5,3.358,7.5,7.5
		v12.686C332.939,190.344,329.581,193.702,325.439,193.702z"/>
	<path style="fill:#495059;" d="M269.167,203.444c-2.093,0-4.175-0.871-5.657-2.573c-3.658-4.199-8.941-6.606-14.493-6.606
		c-5.553,0-10.836,2.408-14.494,6.606c-2.721,3.123-7.459,3.449-10.581,0.727c-3.123-2.721-3.449-7.458-0.727-10.581
		c6.508-7.468,15.912-11.752,25.803-11.752c9.89,0,19.294,4.284,25.802,11.752c2.722,3.123,2.395,7.86-0.728,10.581
		C272.67,202.836,270.915,203.444,269.167,203.444z"/>
	<path style="fill:#495059;" d="M101.004,218.906c-3.36,0-6.418-2.275-7.271-5.683c-1.004-4.018,1.439-8.09,5.458-9.095
		c9.85-2.463,33.322-4.219,44.759-2.707c4.106,0.543,6.996,4.311,6.453,8.418s-4.323,6.991-8.418,6.453
		c-9.349-1.236-30.982,0.345-39.157,2.388C102.218,218.833,101.606,218.906,101.004,218.906z"/>
	<path style="fill:#495059;" d="M112.445,261.471c-2.3,0-4.569-1.054-6.04-3.046c-2.46-3.332-1.753-8.028,1.58-10.488
		c8.17-6.031,29.205-16.598,40.352-19.557c4.01-1.062,8.111,1.321,9.174,5.325s-1.321,8.11-5.324,9.173
		c-9.116,2.42-28.514,12.123-35.293,17.128C115.554,260.994,113.992,261.471,112.445,261.471z"/>
	<path style="fill:#495059;" d="M397.028,218.906c-0.603,0-1.214-0.073-1.824-0.226c-8.176-2.044-29.806-3.625-39.157-2.388
		c-4.094,0.537-7.874-2.345-8.418-6.453c-0.543-4.107,2.347-7.875,6.453-8.418c11.435-1.51,34.908,0.244,44.759,2.707
		c4.019,1.004,6.462,5.076,5.458,9.095C403.446,216.631,400.389,218.906,397.028,218.906z"/>
	<path style="fill:#495059;" d="M385.587,261.471c-1.548,0-3.108-0.477-4.448-1.466c-6.779-5.005-26.177-14.708-35.293-17.128
		c-4.003-1.063-6.387-5.17-5.324-9.173s5.166-6.387,9.174-5.325c11.146,2.959,32.182,13.526,40.352,19.557
		c3.333,2.46,4.04,7.156,1.58,10.488C390.156,260.417,387.887,261.471,385.587,261.471z"/>
</g>
<g>
</g>
<g>
</g>
<g>
</g>
<g>
</g>
<g>
</g>
<g>
</g>
<g>
</g>
<g>
</g>
<g>
</g>
<g>
</g>
<g>
</g>
<g>
</g>
<g>
</g>
<g>
</g>
<g>
</g>
</svg>
