<?xml version="1.0" encoding="iso-8859-1"?>
<!-- Generator: Adobe Illustrator 19.0.0, SVG Export Plug-In . SVG Version: 6.00 Build 0)  -->
<svg version="1.1" id="Capa_1" xmlns="http://www.w3.org/2000/svg" xmlns:xlink="http://www.w3.org/1999/xlink" x="0px" y="0px"
	 viewBox="0 0 511.999 511.999" style="enable-background:new 0 0 511.999 511.999;" xml:space="preserve">
<path style="fill:#EDA751;" d="M15.561,463.785c-4.516,0-8.993-1.957-12.067-5.731c-5.424-6.66-4.422-16.455,2.237-21.879
	c26.838-21.858,72.024-26.486,127.235-13.03c30.871,7.525,58.556-8.601,67.325-39.212c2.366-8.257,10.978-13.03,19.232-10.667
	c8.257,2.365,13.033,10.976,10.667,19.232c-13.399,46.772-57.385,72.369-104.589,60.865c-44.865-10.934-81.398-8.41-100.229,6.927
	C22.488,462.641,19.012,463.785,15.561,463.785z"/>
<path style="fill:#FCD79D;" d="M18.967,427.545c-4.8,2.493-9.227,5.365-13.236,8.631c-6.659,5.424-7.661,15.219-2.237,21.879
	c3.074,3.774,7.551,5.731,12.067,5.731c3.452,0,6.927-1.145,9.812-3.494s6.189-4.395,9.87-6.14
	C32.794,441.459,24.711,432.154,18.967,427.545z"/>
<g>
	<path style="fill:#EDA751;" d="M127.211,376.332c-19.885,0-41.256-3.815-61.353-15.65c-11.841-6.973-15.787-22.225-8.814-34.067
		c6.974-11.841,22.225-15.786,34.067-8.814c26.569,15.647,61.255,6.868,84.208,1.06c3.041-0.77,5.867-1.483,8.444-2.091
		c13.375-3.148,26.773,5.135,29.926,18.511c3.152,13.375-5.135,26.773-18.511,29.926c-2.335,0.55-4.896,1.2-7.652,1.897
		C172.763,370.84,151.057,376.332,127.211,376.332z"/>
	<path style="fill:#EDA751;" d="M388.381,369.93c-10.501,0-20.85-1.725-30.738-6.856c-12.197-6.329-16.955-21.348-10.626-33.546
		c6.329-12.197,21.346-16.955,33.546-10.626c5.427,2.816,19.227,0.482,32.573-1.775c22.44-3.797,50.367-8.522,81.12,0.699
		c13.163,3.946,20.635,17.816,16.689,30.979c-3.946,13.163-17.815,20.635-30.979,16.689c-19.621-5.883-39.401-2.535-58.529,0.7
		C410.49,368.047,399.353,369.93,388.381,369.93z"/>
</g>
<g>
	<path style="opacity:0.2;fill:#A35F00;enable-background:new    ;" d="M415.622,367.164c-0.767-16.257-2.368-31.525-3.778-44.949
		c-0.171-1.626-0.338-3.221-0.5-4.785c-12.771,2.153-25.597,4.162-30.781,1.473c-12.199-6.329-27.216-1.571-33.546,10.626
		c-6.329,12.198-1.571,27.216,10.626,33.546c9.888,5.131,20.237,6.856,30.738,6.856C397.416,369.93,406.562,368.65,415.622,367.164z
		"/>
	<path style="opacity:0.2;fill:#A35F00;enable-background:new    ;" d="M219.523,373.267c-8.255-2.363-16.866,2.41-19.232,10.667
		c-7.29,25.448-27.658,40.87-52.057,41.03c-1.21,10.53-2.775,20.954-4.784,31.017c40.079,2.005,75.052-22.675,86.741-63.481
		C232.556,384.243,227.78,375.633,219.523,373.267z"/>
	<path style="opacity:0.2;fill:#A35F00;enable-background:new    ;" d="M213.689,335.281c-3.153-13.375-16.551-21.659-29.926-18.511
		c-2.577,0.607-5.403,1.321-8.444,2.091c-6.889,1.743-14.839,3.75-23.305,5.288c0.199,14.707,0.283,32.024-0.29,50.404
		c13.949-1.928,26.315-5.047,35.804-7.448c2.756-0.697,5.317-1.347,7.652-1.897C208.554,362.055,216.841,348.656,213.689,335.281z"
		/>
</g>
<path style="fill:#FCD690;" d="M171.587,291.937c0,34.182,4.224,111.457-10.027,175.103c-1.187,5.3,0.364,10.842,4.059,14.822
	l1.95,2.101c6.202,6.68,16.051,8.5,24.23,4.476l7.036-3.461c7.688-3.782,16.914-2.419,23.18,3.424l0.649,0.605
	c6.705,6.252,16.73,7.33,24.611,2.648l6.607-3.925c7.13-4.236,16.104-3.792,22.78,1.128l3.304,2.435
	c6.506,4.794,15.212,5.349,22.274,1.419l10.807-6.013c7.358-4.094,16.465-3.307,23.011,1.988l0,0
	c7.774,6.289,18.938,6.099,26.493-0.45l0,0c12.158-10.539,21.112-24.32,25.612-39.768c16.993-58.329,1.271-125.73,1.271-156.531
	H171.587V291.937z"/>
<path style="opacity:0.15;fill:#C17A00;enable-background:new    ;" d="M161.56,467.04c-1.187,5.3,0.364,10.842,4.059,14.822
	l1.95,2.101c6.202,6.68,16.051,8.499,24.23,4.476l7.036-3.461c7.688-3.782,16.914-2.419,23.18,3.424l0.649,0.605
	c3.273,3.051,7.338,4.861,11.557,5.379c-20.563-41.841-5.105-138.118,1.018-170.489v-31.96h-63.653
	C171.587,326.119,175.811,403.394,161.56,467.04z"/>
<path style="fill:#EDA751;" d="M209.446,169.337c22.457-18.843,37.45-50.476,5.775-97.238
	c-31.925-47.13-79.457-58.945-116.566-54.573c-9.149,1.078-16.825,7.519-19.475,16.341c-10.749,35.785-7.368,84.647,33.503,124.272
	C153.234,197.453,186.99,188.18,209.446,169.337z"/>
<path style="fill:#FF91AB;" d="M77.687,39.343c-8.812,35.185-3.83,81.154,34.996,118.796c35.148,34.076,65.185,31.641,87.19,18.119
	C184.739,73.521,118.628,46.277,77.687,39.343z"/>
<path style="fill:#EDA751;" d="M349.128,169.337c-22.457-18.843-37.45-50.476-5.775-97.238
	c31.926-47.131,79.458-58.945,116.566-54.573c9.149,1.078,16.825,7.519,19.475,16.341c10.749,35.785,7.368,84.647-33.503,124.272
	C405.34,197.453,371.585,188.18,349.128,169.337z"/>
<path style="fill:#FF91AB;" d="M480.887,39.343c8.813,35.185,3.83,81.154-34.996,118.796c-35.148,34.076-65.185,31.641-87.19,18.119
	C373.835,73.521,439.946,46.277,480.887,39.343z"/>
<path style="fill:#FFDC9C;" d="M474.67,197.778c0,89.335-87.476,128.462-195.383,128.462S83.904,287.113,83.904,197.778
	S171.38,36.023,279.287,36.023S474.67,108.443,474.67,197.778z"/>
<path style="opacity:0.15;fill:#C17A00;enable-background:new    ;" d="M174.962,60.997
	c-54.719,28.665-91.058,79.207-91.058,136.781c0,76.795,64.642,116.488,151.337,126.118
	C110.793,249.561,127.023,149.572,174.962,60.997z"/>
<g>
	<ellipse style="fill:#FF91AB;" cx="197.91" cy="201.549" rx="35.38" ry="28.17"/>
	<ellipse style="fill:#FF91AB;" cx="389.66" cy="201.549" rx="35.38" ry="28.17"/>
</g>
<g>
	<path style="fill:#495059;" d="M218.529,180.942c-4.142,0-7.5-3.358-7.5-7.5V160.95c0-4.142,3.358-7.5,7.5-7.5s7.5,3.358,7.5,7.5
		v12.492C226.029,177.584,222.671,180.942,218.529,180.942z"/>
	<path style="fill:#495059;" d="M369.047,180.942c-4.142,0-7.5-3.358-7.5-7.5V160.95c0-4.142,3.358-7.5,7.5-7.5s7.5,3.358,7.5,7.5
		v12.492C376.547,177.584,373.189,180.942,369.047,180.942z"/>
</g>
<circle style="fill:#FF91AB;" cx="293.79" cy="185.549" r="23.813"/>
<g>
	<path style="fill:#495059;" d="M148.029,205.763c-3.36,0-6.418-2.275-7.27-5.683c-1.005-4.019,1.438-8.09,5.456-9.095
		c9.71-2.429,32.851-4.158,44.122-2.668c4.106,0.543,6.995,4.312,6.453,8.418c-0.543,4.106-4.305,6.997-8.419,6.453
		c-9.198-1.217-30.476,0.338-38.517,2.349C149.243,205.689,148.631,205.763,148.029,205.763z"/>
	<path style="fill:#495059;" d="M159.296,247.679c-2.3,0-4.569-1.054-6.04-3.046c-2.46-3.333-1.753-8.028,1.58-10.488
		c8.053-5.944,28.788-16.36,39.776-19.278c4.002-1.061,8.111,1.321,9.174,5.324c1.063,4.003-1.321,8.111-5.324,9.174
		c-8.968,2.381-28.049,11.925-34.718,16.848C162.404,247.202,160.843,247.679,159.296,247.679z"/>
	<path style="fill:#495059;" d="M439.547,205.763c-0.603,0-1.214-0.073-1.825-0.226c-8.042-2.01-29.319-3.567-38.518-2.349
		c-4.102,0.543-7.874-2.347-8.418-6.453c-0.542-4.106,2.347-7.875,6.453-8.418c11.27-1.49,34.411,0.24,44.121,2.668
		c4.018,1.004,6.461,5.077,5.457,9.095C445.965,203.487,442.907,205.762,439.547,205.763z"/>
	<path style="fill:#495059;" d="M428.28,247.679c-1.547,0-3.108-0.477-4.448-1.466c-6.669-4.923-25.751-14.468-34.718-16.848
		c-4.004-1.063-6.387-5.17-5.324-9.174c1.064-4.002,5.169-6.384,9.174-5.324c10.987,2.917,31.723,13.333,39.776,19.278
		c3.333,2.46,4.04,7.156,1.58,10.488C432.85,246.625,430.58,247.679,428.28,247.679z"/>
</g>
<g>
</g>
<g>
</g>
<g>
</g>
<g>
</g>
<g>
</g>
<g>
</g>
<g>
</g>
<g>
</g>
<g>
</g>
<g>
</g>
<g>
</g>
<g>
</g>
<g>
</g>
<g>
</g>
<g>
</g>
</svg>
