<?xml version="1.0" encoding="iso-8859-1"?>
<!-- Generator: Adobe Illustrator 19.0.0, SVG Export Plug-In . SVG Version: 6.00 Build 0)  -->
<svg version="1.1" id="Capa_1" xmlns="http://www.w3.org/2000/svg" xmlns:xlink="http://www.w3.org/1999/xlink" x="0px" y="0px"
	 viewBox="0 0 512.001 512.001" style="enable-background:new 0 0 512.001 512.001;" xml:space="preserve">
<path style="fill:#EDA751;" d="M82.496,419.062c-1.647,0-3.322-0.274-4.965-0.85c-7.8-2.743-11.9-11.287-9.159-19.088
	c4.74-13.485,15.14-23.871,29.282-29.245c20.505-7.794,46.624-4.745,69.869,8.153c10.066,5.587,17.849,5.572,26.859-0.043
	c9.951-6.202,19.876-18.41,29.474-30.215l2.937-3.607c5.234-6.403,14.665-7.351,21.065-2.123c6.403,5.231,7.353,14.663,2.123,21.065
	l-2.892,3.552c-11.148,13.713-22.676,27.893-36.87,36.738c-18.342,11.429-37.594,11.704-57.22,0.815
	c-15.162-8.413-32.71-10.906-44.708-6.346c-5.926,2.251-9.852,6.015-11.67,11.186C94.455,415.21,88.672,419.062,82.496,419.062z"/>
<path style="opacity:0.2;fill:#A35F00;enable-background:new    ;" d="M247.858,342.044c-6.4-5.228-15.831-4.28-21.065,2.123
	l-2.937,3.607c-9.597,11.805-19.523,24.013-29.474,30.215c-9.01,5.615-16.792,5.63-26.859,0.043
	c-11.456-6.356-23.609-10.316-35.445-11.769l53.779,45.71c8.262-0.756,16.397-3.613,24.361-8.575
	c14.194-8.845,25.722-23.025,36.87-36.738l2.892-3.552C255.211,356.706,254.261,347.275,247.858,342.044z"/>
<path style="fill:#FCD79D;" d="M74.598,387.207c-2.61,3.615-4.71,7.605-6.225,11.916c-2.741,7.801,1.359,16.346,9.159,19.088
	c1.643,0.576,3.318,0.85,4.965,0.85c6.176,0,11.959-3.852,14.123-10.009c0.856-2.435,2.197-4.547,3.978-6.347
	C94.4,393.18,82.96,388.741,74.598,387.207z"/>
<path style="fill:#EDA751;" d="M233.108,496.15c-2.65,0-5.342-0.443-7.983-1.376c-12.472-4.409-19.009-18.094-14.6-30.566
	c8.135-23.01,15.583-48.269,9.143-61.147c-5.916-11.832-1.12-26.22,10.712-32.136c11.835-5.916,26.219-1.119,32.136,10.712
	c13.618,27.237,7.12,59.089-6.826,98.537C252.215,490.005,242.973,496.15,233.108,496.15z"/>
<path style="opacity:0.2;fill:#A35F00;enable-background:new    ;" d="M230.38,370.925c-11.832,5.916-16.628,20.303-10.712,32.136
	c4.159,8.317,2.522,21.8-1.348,36.504l39.734,33.772c12.27-36.316,17.284-66.055,4.462-91.7
	C256.599,369.805,242.215,365.009,230.38,370.925z"/>
<path style="fill:#EDA751;" d="M364.239,495.751c-2.649,0-5.344-0.443-7.983-1.377c-12.472-4.409-19.009-18.094-14.599-30.566
	c4.416-12.493,2.42-24.835-0.033-32.991c-3.141-10.444-8.056-17.514-9.934-19.289c-10.464-7.824-12.738-22.63-5.041-33.242
	c7.766-10.708,22.746-13.093,33.453-5.327c18.419,13.36,43.102,60.479,26.721,106.816
	C383.346,489.607,374.105,495.751,364.239,495.751z M331.965,411.732c0.004,0.002,0.007,0.005,0.01,0.007
	C331.972,411.736,331.969,411.734,331.965,411.732z"/>
<ellipse style="fill:#FCD690;" cx="291.791" cy="324.96" rx="110.48" ry="102.66"/>
<path style="opacity:0.15;fill:#C17A00;enable-background:new    ;" d="M275.658,426.525
	c-50.485-33.145-34.839-101.078-26.268-130.787v-65.597c-39.97,15.451-68.076,52.083-68.076,94.819
	C181.314,376.563,222.292,419.268,275.658,426.525z"/>
<path style="fill:#EDA751;" d="M224.559,146.952c21.618-18.139,36.051-48.591,5.559-93.605
	C199.385,7.976,153.629-3.397,117.906,0.812C109.099,1.85,101.71,8.05,99.158,16.543c-10.348,34.449-7.093,81.485,32.251,119.63
	C170.446,174.018,202.941,165.092,224.559,146.952z"/>
<path style="fill:#FF91AB;" d="M97.721,21.814c-8.483,33.871-3.687,78.122,33.689,114.358c33.835,32.803,62.75,30.459,83.933,17.443
	C200.775,54.715,137.133,28.489,97.721,21.814z"/>
<path style="fill:#EDA751;" d="M359.023,146.952c-21.618-18.139-36.051-48.591-5.559-93.605
	c30.733-45.37,76.49-56.743,112.212-52.535c8.807,1.038,16.196,7.238,18.747,15.731c10.348,34.449,7.093,81.485-32.251,119.63
	C413.136,174.018,380.641,165.092,359.023,146.952z"/>
<path style="fill:#FF91AB;" d="M485.861,21.814c8.483,33.871,3.687,78.122-33.689,114.358
	c-33.835,32.803-62.75,30.459-83.933,17.443C382.807,54.715,446.449,28.489,485.861,21.814z"/>
<path style="fill:#FFDC9C;" d="M479.876,174.33c0,85.998-84.209,123.664-188.085,123.664c-103.877,0-188.085-37.666-188.085-123.664
	S187.914,18.618,291.791,18.618S479.876,88.333,479.876,174.33z"/>
<path style="opacity:0.15;fill:#C17A00;enable-background:new    ;" d="M191.363,42.659
	c-52.675,27.595-87.657,76.248-87.657,131.672c0,73.926,62.228,112.137,145.684,121.408
	C129.591,224.179,145.215,127.925,191.363,42.659z"/>
<g>
	<ellipse style="fill:#FF91AB;" cx="221.241" cy="193.97" rx="34.05" ry="27.12"/>
	<ellipse style="fill:#FF91AB;" cx="405.831" cy="193.97" rx="34.05" ry="27.12"/>
</g>
<g>
	<path style="fill:#495059;" d="M241.084,174.418c-4.143,0-7.5-3.357-7.5-7.5v-12.025c0-4.143,3.357-7.5,7.5-7.5s7.5,3.357,7.5,7.5
		v12.025C248.584,171.06,245.227,174.418,241.084,174.418z"/>
	<path style="fill:#495059;" d="M385.98,174.418c-4.143,0-7.5-3.357-7.5-7.5v-12.025c0-4.143,3.357-7.5,7.5-7.5s7.5,3.357,7.5,7.5
		v12.025C393.48,171.06,390.122,174.418,385.98,174.418z"/>
	<path style="fill:#495059;" d="M313.532,183.653c-9.488,0-18.512-4.109-24.755-11.275c-2.722-3.123-2.396-7.86,0.727-10.581
		c3.122-2.721,7.86-2.396,10.581,0.727c3.395,3.895,8.295,6.129,13.446,6.129c5.15,0,10.051-2.234,13.445-6.129
		c2.72-3.124,7.459-3.449,10.581-0.727c3.123,2.721,3.449,7.458,0.728,10.581C332.043,179.544,323.021,183.653,313.532,183.653z"/>
	<path style="fill:#495059;" d="M173.217,198.311c-3.36,0-6.418-2.274-7.271-5.683c-1.005-4.019,1.439-8.091,5.457-9.096
		c9.371-2.343,31.703-4.014,42.578-2.574c4.106,0.543,6.996,4.312,6.453,8.418c-0.543,4.107-4.323,7-8.418,6.453
		c-8.83-1.169-29.255,0.324-36.975,2.256C174.432,198.238,173.82,198.311,173.217,198.311z"/>
	<path style="fill:#495059;" d="M184.064,238.663c-2.3,0-4.569-1.055-6.04-3.047c-2.46-3.332-1.753-8.028,1.58-10.488
		c7.769-5.735,27.778-15.787,38.385-18.604c4.006-1.059,8.111,1.322,9.174,5.324c1.063,4.003-1.32,8.11-5.324,9.174
		c-8.609,2.286-26.925,11.448-33.326,16.174C187.172,238.185,185.611,238.663,184.064,238.663z"/>
	<path style="fill:#495059;" d="M453.847,198.311c-0.602,0-1.215-0.073-1.825-0.226c-7.72-1.93-28.143-3.421-36.975-2.256
		c-4.094,0.546-7.875-2.346-8.418-6.453c-0.543-4.106,2.347-7.875,6.453-8.418c10.881-1.438,33.209,0.231,42.578,2.574
		c4.018,1.006,6.462,5.077,5.457,9.096C460.265,196.037,457.207,198.311,453.847,198.311z"/>
	<path style="fill:#495059;" d="M443,238.663c-1.548,0-3.108-0.478-4.448-1.467c-6.401-4.726-24.717-13.888-33.326-16.174
		c-4.004-1.064-6.387-5.171-5.324-9.174c1.064-4.004,5.169-6.387,9.174-5.324c10.607,2.816,30.616,12.868,38.385,18.604
		c3.333,2.46,4.04,7.156,1.58,10.488C447.57,237.608,445.3,238.663,443,238.663z"/>
	<path style="fill:#495059;" d="M496.962,508.821h-81.295c-4.143,0-7.5-3.357-7.5-7.5s3.357-7.5,7.5-7.5h81.295
		c4.143,0,7.5,3.357,7.5,7.5C504.462,505.464,501.105,508.821,496.962,508.821z"/>
	
		<rect x="39.473" y="210.834" transform="matrix(-0.6428 0.766 -0.766 -0.6428 354.8255 307.8006)" style="fill:#495059;" width="132.357" height="51.583"/>
</g>
<path style="fill:#FF91AB;" d="M128.44,169.35L43.363,270.74l-25.289-21.22c-12.476-10.468-14.103-29.068-3.635-41.544
	l47.167-56.212c10.468-12.476,29.068-14.103,41.544-3.635L128.44,169.35z"/>
<path style="fill:#F5D141;" d="M82.878,303.898L295.47,484.591c9.863,8.276,21.856,13.608,34.608,15.386l85.382,11.906
	c8.589,1.198,15.471-7.004,12.8-15.254l-26.551-82.017c-3.965-12.249-11.299-23.134-21.162-31.41L167.955,202.508L82.878,303.898z"
	/>
<rect x="90.46" y="341.687" transform="matrix(-0.766 -0.6428 0.6428 -0.766 199.0478 770.8253)" style="opacity:0.1;enable-background:new    ;" width="298.702" height="15"/>
<path style="fill:#FFDC9C;" d="M312.429,495.034c5.61,2.416,11.54,4.092,17.65,4.944l85.382,11.906
	c8.589,1.198,15.471-7.004,12.8-15.254l-26.551-82.017c-1.9-5.868-4.58-11.418-7.933-16.523L312.429,495.034z"/>
<path style="fill:#495059;" d="M376.074,506.391l39.386,5.492c8.589,1.198,15.471-7.004,12.8-15.254l-12.248-37.834L376.074,506.391
	z"/>
<path style="opacity:0.1;enable-background:new    ;" d="M415.46,511.883c3.9,0.544,7.436-0.862,9.897-3.318
	c-225.258-98.801-365.779-274.126-389.678-325.9L14.44,207.977c-10.469,12.476-8.841,31.076,3.635,41.544l25.289,21.22
	l39.515,33.157l212.592,180.693c9.863,8.276,21.856,13.608,34.608,15.386L415.46,511.883z"/>
<g>
	<path style="fill:#EDA751;" d="M124.534,354.674c-3.794,0-7.643-0.904-11.227-2.809c-11.679-6.213-16.112-20.716-9.9-32.396
		c1.436-2.701,9.128-16.81,19.523-29.425c8.413-10.209,23.509-11.665,33.717-3.253c10.209,8.413,11.665,23.508,3.253,33.717
		c-6.203,7.528-11.843,17.029-14.197,21.456C141.396,350.06,133.105,354.674,124.534,354.674z"/>
	<path style="fill:#EDA751;" d="M324.838,361.706c-0.049,0-0.098,0-0.147,0c-13.229-0.036-23.923-10.789-23.887-24.018
		c0.036-13.206,10.754-23.887,23.951-23.887c0.036,0.001,0.07,0.001,0.108,0c9.569,0,36.012-9.212,48.215-19.758
		c10.009-8.649,25.135-7.547,33.785,2.462c8.649,10.009,7.547,25.135-2.462,33.785C385.002,347.053,347.873,361.706,324.838,361.706
		z"/>
</g>
<g>
</g>
<g>
</g>
<g>
</g>
<g>
</g>
<g>
</g>
<g>
</g>
<g>
</g>
<g>
</g>
<g>
</g>
<g>
</g>
<g>
</g>
<g>
</g>
<g>
</g>
<g>
</g>
<g>
</g>
</svg>
