<?xml version="1.0" encoding="iso-8859-1"?>
<!-- Generator: Adobe Illustrator 19.0.0, SVG Export Plug-In . SVG Version: 6.00 Build 0)  -->
<svg version="1.1" id="Capa_1" xmlns="http://www.w3.org/2000/svg" xmlns:xlink="http://www.w3.org/1999/xlink" x="0px" y="0px"
	 viewBox="0 0 512 512" style="enable-background:new 0 0 512 512;" xml:space="preserve">
<path style="fill:#EDA751;" d="M378.414,424.956c-36.328,0-55.427-23.386-75.496-47.952l-0.286-0.351
	c-5.408-6.619-4.426-16.37,2.195-21.779c6.622-5.41,16.37-4.426,21.779,2.195l0.287,0.351c22.32,27.324,33.524,41.034,64.264,35.296
	c17.022-3.181,22.573-9.728,30.258-18.79c8.083-9.533,18.145-21.399,40.464-26.009c8.363-1.736,16.56,3.655,18.288,12.027
	c1.729,8.371-3.655,16.559-12.027,18.288c-11.871,2.452-16.345,7.728-23.116,15.715c-9.065,10.69-20.348,23.996-48.182,29.197
	C390.231,424.381,384.106,424.956,378.414,424.956z"/>
<path style="fill:#FCD79D;" d="M480.165,359.945c-1.728-8.371-9.925-13.763-18.288-12.027c-6.445,1.331-11.863,3.27-16.512,5.58
	c0.736,8.055,4.824,20.605,11.78,28.835c2.936-1.782,6.41-3.154,10.993-4.101C476.509,376.504,481.894,368.316,480.165,359.945z"/>
<g>
	<path style="fill:#EDA751;" d="M108.767,370.7c-22.63,0-45.779-8.296-67.208-24.132c-11-8.128-13.328-23.635-5.2-34.634
		c8.129-11.001,23.637-13.328,34.634-5.2c18.578,13.728,46.321,24.591,72.992-1.623c9.753-9.586,25.434-9.451,35.021,0.302
		c9.588,9.755,9.452,25.433-0.302,35.021c-19.017,18.692-41.814,29.126-65.929,30.178C111.441,370.671,110.104,370.7,108.767,370.7z
		"/>
	<path style="fill:#EDA751;" d="M207.921,512c-12.04,0-22.596-8.793-24.455-21.059c-5.296-34.965-1.571-72.266,4.132-92.128
		c3.776-13.145,17.485-20.741,30.637-16.969c13.145,3.775,20.743,17.491,16.969,30.637c-3.424,11.925-7.203,41.758-2.768,71.042
		c2.048,13.522-7.254,26.145-20.776,28.194C210.403,511.907,209.153,512,207.921,512z"/>
	<path style="fill:#EDA751;" d="M292.526,512c-12.04,0-22.596-8.793-24.455-21.059c-5.296-34.965-1.571-72.266,4.132-92.128
		c3.775-13.145,17.486-20.741,30.637-16.969c13.145,3.775,20.742,17.491,16.969,30.637c-3.424,11.925-7.203,41.758-2.768,71.042
		c2.048,13.522-7.254,26.145-20.776,28.194C295.008,511.907,293.758,512,292.526,512z"/>
</g>
<g>
	<path style="opacity:0.2;fill:#A35F00;enable-background:new    ;" d="M143.985,305.112c-8.813,8.662-17.741,13.257-26.419,15.057
		c-0.692,5.179-1.051,10.453-1.051,15.805c0,11.72,1.716,23.07,4.914,33.845c20.899-2.899,40.549-12.944,57.275-29.384
		c9.755-9.588,9.89-25.266,0.302-35.021C169.419,295.661,153.738,295.525,143.985,305.112z"/>
	<path style="opacity:0.2;fill:#A35F00;enable-background:new    ;" d="M218.235,381.844c-13.152-3.773-26.861,3.824-30.637,16.969
		c-3.118,10.862-5.641,26.943-6.425,45.001c14.81,8.469,31.494,14.318,49.318,16.863c-0.525-20.868,2.188-39.403,4.714-48.196
		C238.978,399.335,231.381,385.619,218.235,381.844z"/>
	<path style="opacity:0.2;fill:#A35F00;enable-background:new    ;" d="M302.84,381.844c-13.151-3.773-26.862,3.824-30.637,16.969
		c-4.099,14.278-7.177,37.568-6.616,62.523c17.816-1.852,34.592-6.989,49.623-14.759c0.613-14.868,2.662-27.349,4.599-34.096
		C323.583,399.335,315.985,385.619,302.84,381.844z"/>
	<path style="opacity:0.2;fill:#A35F00;enable-background:new    ;" d="M370.288,393.28c-16.576-3.052-26.986-15.769-43.397-35.859
		l-0.287-0.351c-5.409-6.62-15.157-7.605-21.779-2.195c-6.62,5.409-7.602,15.16-2.195,21.779l0.287,0.351
		c14.321,17.53,28.153,34.452,48.099,42.711C358.566,411.74,365.064,402.866,370.288,393.28z"/>
</g>
<ellipse style="fill:#FCD690;" cx="250.739" cy="335.97" rx="114.22" ry="106.14"/>
<path style="opacity:0.15;fill:#C17A00;enable-background:new    ;" d="M234.056,440.981
	c-52.196-34.269-36.019-104.504-27.159-135.22v-67.82c-41.325,15.975-70.383,53.848-70.383,98.033
	C136.515,389.326,178.881,433.479,234.056,440.981z"/>
<path style="fill:#EDA751;" d="M181.225,151.933c22.35-18.754,37.273-50.238,5.748-96.778C155.198,8.246,107.891-3.512,70.958,0.839
	c-9.105,1.073-16.745,7.483-19.383,16.264C40.877,52.72,44.241,101.35,84.919,140.788
	C125.278,179.916,158.875,170.687,181.225,151.933z"/>
<path style="fill:#FF91AB;" d="M50.088,22.553c-8.771,35.019-3.812,80.77,34.831,118.234c34.982,33.915,64.877,31.492,86.778,18.034
	C156.635,56.569,90.836,29.454,50.088,22.553z"/>
<path style="fill:#EDA751;" d="M320.247,151.933c-22.35-18.754-37.273-50.238-5.748-96.778
	C346.274,8.246,393.581-3.512,430.514,0.839c9.105,1.073,16.745,7.483,19.383,16.264c10.698,35.616,7.333,84.247-33.344,123.684
	C376.193,179.916,342.597,170.687,320.247,151.933z"/>
<path style="fill:#FF91AB;" d="M451.384,22.553c8.771,35.019,3.811,80.77-34.831,118.234
	c-34.982,33.915-64.877,31.492-86.778,18.034C344.837,56.569,410.636,29.454,451.384,22.553z"/>
<path style="fill:#FFDC9C;" d="M445.196,180.239c0,88.913-87.063,127.855-194.46,127.855s-194.46-38.943-194.46-127.855
	s87.063-160.99,194.46-160.99S445.196,91.327,445.196,180.239z"/>
<path style="opacity:0.15;fill:#C17A00;enable-background:new    ;" d="M146.904,44.105c-54.461,28.53-90.628,78.832-90.628,136.134
	c0,76.432,64.337,115.937,150.621,125.522C83.038,231.777,99.192,132.261,146.904,44.105z"/>
<g>
	<ellipse style="fill:#FF91AB;" cx="130.639" cy="183.99" rx="35.21" ry="28.04"/>
	<ellipse style="fill:#FF91AB;" cx="321.489" cy="183.99" rx="35.21" ry="28.04"/>
	<path style="fill:#FF91AB;" d="M224.883,206.697c-13.127-0.618-23.226-11.926-23.226-25.068v-19.788
		c0-3.651,1.637-7.137,4.515-9.385c5.487-4.285,12.389-6.84,19.891-6.84s14.404,2.555,19.891,6.84
		c2.878,2.247,4.515,5.733,4.515,9.385v20.477C250.469,196.189,238.898,207.357,224.883,206.697z"/>
</g>
<g>
	<path style="fill:#495059;" d="M151.159,163.519c-4.143,0-7.5-3.358-7.5-7.5v-12.434c0-4.143,3.357-7.5,7.5-7.5s7.5,3.357,7.5,7.5
		v12.434C158.659,160.161,155.302,163.519,151.159,163.519z"/>
	<path style="fill:#495059;" d="M300.966,163.519c-4.143,0-7.5-3.358-7.5-7.5v-12.434c0-4.143,3.357-7.5,7.5-7.5s7.5,3.357,7.5,7.5
		v12.434C308.466,160.161,305.108,163.519,300.966,163.519z"/>
	<path style="fill:#495059;" d="M80.992,188.222c-3.36,0-6.418-2.275-7.271-5.684c-1.004-4.018,1.439-8.09,5.458-9.095
		c9.667-2.417,32.706-4.137,43.925-2.656c4.106,0.543,6.995,4.311,6.453,8.418c-0.543,4.107-4.323,6.992-8.418,6.453
		c-9.151-1.211-30.321,0.338-38.323,2.338C82.206,188.148,81.595,188.222,80.992,188.222z"/>
	<path style="fill:#495059;" d="M92.206,229.939c-2.3,0-4.569-1.054-6.04-3.046c-2.46-3.333-1.752-8.029,1.58-10.488
		c8.02-5.919,28.663-16.288,39.601-19.192c4.005-1.061,8.111,1.321,9.174,5.324c1.063,4.004-1.321,8.11-5.324,9.174
		c-8.921,2.368-27.905,11.864-34.542,16.763C95.313,229.463,93.753,229.939,92.206,229.939z"/>
	<path style="fill:#495059;" d="M371.133,188.222c-0.603,0-1.214-0.073-1.824-0.226c-8.002-2-29.173-3.548-38.323-2.338
		c-4.108,0.541-7.875-2.347-8.418-6.453c-0.542-4.107,2.347-7.875,6.453-8.418c11.218-1.48,34.257,0.24,43.925,2.656
		c4.018,1.005,6.462,5.077,5.458,9.095C377.551,185.946,374.493,188.222,371.133,188.222z"/>
	<path style="fill:#495059;" d="M359.919,229.939c-1.547,0-3.107-0.477-4.448-1.466c-6.637-4.897-25.621-14.395-34.541-16.763
		c-4.003-1.063-6.387-5.17-5.324-9.174s5.168-6.386,9.174-5.324c10.938,2.904,31.581,13.274,39.6,19.192
		c3.332,2.459,4.04,7.155,1.58,10.488C364.488,228.886,362.219,229.939,359.919,229.939z"/>
</g>
<path style="fill:#7694E4;" d="M432.321,257.68l-53.773-5.913c-12.003-1.32-20.663-12.12-19.344-24.123l12.151-110.504
	c1.32-12.003,12.12-20.663,24.123-19.344l53.773,5.913c12.003,1.32,20.664,12.12,19.344,24.123l-12.151,110.504
	C455.124,250.34,444.324,259,432.321,257.68z"/>
<circle style="opacity:0.1;enable-background:new    ;" cx="397.079" cy="125.97" r="9.106"/>
<circle style="fill:#FFFFFF;" cx="415.139" cy="166.47" r="15.517"/>
<rect x="360.516" y="210.822" transform="matrix(-0.994 -0.1093 0.1093 -0.994 792.5446 480.0865)" style="opacity:0.1;enable-background:new    ;" width="97.829" height="15"/>
<path style="fill:#EDA751;" d="M341.341,347.542c-11.49,0-21.793-8.041-24.221-19.735c-2.781-13.391,5.821-26.501,19.213-29.281
	c33.173-6.888,49.975-27.699,52.876-65.495c1.047-13.636,12.954-23.849,26.586-22.797c13.637,1.047,23.843,12.95,22.797,26.586
	c-4.579,59.67-37.32,98.807-92.191,110.199C344.702,347.373,343.01,347.542,341.341,347.542z"/>
<g>
</g>
<g>
</g>
<g>
</g>
<g>
</g>
<g>
</g>
<g>
</g>
<g>
</g>
<g>
</g>
<g>
</g>
<g>
</g>
<g>
</g>
<g>
</g>
<g>
</g>
<g>
</g>
<g>
</g>
</svg>
