<?xml version="1.0" encoding="iso-8859-1"?>
<!-- Generator: Adobe Illustrator 19.0.0, SVG Export Plug-In . SVG Version: 6.00 Build 0)  -->
<svg version="1.1" id="Capa_1" xmlns="http://www.w3.org/2000/svg" xmlns:xlink="http://www.w3.org/1999/xlink" x="0px" y="0px"
	 viewBox="0 0 512 512" style="enable-background:new 0 0 512 512;" xml:space="preserve">
<path style="fill:#EDA751;" d="M366.601,430.216c-38.013,0-59.55-26.577-78.701-50.208c-1.266-1.564-2.538-3.131-3.815-4.695
	c-5.052-6.185-4.135-15.296,2.051-20.349c6.187-5.054,15.296-4.134,20.349,2.05c1.302,1.594,2.596,3.191,3.887,4.784
	c21.043,25.966,35.294,41.753,61.698,39.226c18.032-1.724,27.687-8.287,37.909-15.234c10.618-7.218,22.654-15.398,41.632-15.398
	c7.987,0,14.462,6.474,14.462,14.462c0,7.987-6.475,14.462-14.462,14.462c-10.078,0-16.163,4.136-25.372,10.395
	c-11.586,7.875-26.006,17.677-51.415,20.106C371.998,430.086,369.259,430.216,366.601,430.216z"/>
<path style="fill:#FCD79D;" d="M451.609,370.391c-8.043,0-14.83,1.478-20.8,3.721c-0.549,7.402,0.429,17.924,7.454,28.216
	c4.038-1.913,8.164-3.013,13.346-3.013c7.987,0,14.462-6.475,14.462-14.462C466.071,376.866,459.596,370.391,451.609,370.391z"/>
<g>
	<path style="fill:#EDA751;" d="M285.79,512c-12.141,0-22.331-9.461-23.076-21.741c-2.64-43.611,0.382-73.47,1.835-87.82
		c1.287-12.714,12.644-21.975,25.351-20.691c12.715,1.287,21.978,12.637,20.692,25.352c-1.433,14.149-4.098,40.487-1.684,80.363
		c0.772,12.756-8.943,23.722-21.698,24.495C286.735,511.986,286.26,512,285.79,512z"/>
	<path style="fill:#EDA751;" d="M203.497,512c-12.14,0-22.331-9.461-23.074-21.741c-2.641-43.608,0.382-73.47,1.834-87.821
		c1.287-12.714,12.631-21.975,25.352-20.691c12.714,1.287,21.977,12.637,20.69,25.352c-1.432,14.15-4.098,40.49-1.684,80.363
		c0.773,12.756-8.942,23.723-21.698,24.495C204.442,511.986,203.967,512,203.497,512z"/>
</g>
<path style="fill:#495059;" d="M128.831,344.687c-24.019,0-54.105-5.345-76.127-27.367c-9.036-9.036-9.036-23.687,0-32.723
	c9.036-9.037,23.688-9.037,32.723,0c7.685,7.684,32.329,19.834,70.592,10.815c12.437-2.929,24.898,4.776,27.83,17.214
	c2.931,12.438-4.775,24.898-17.214,27.83C161.383,341.693,146.806,344.687,128.831,344.687z"/>
<path style="fill:#EDA751;" d="M85.427,284.597c-9.035-9.037-23.687-9.037-32.723,0c-9.036,9.036-9.036,23.687,0,32.723
	c7.181,7.181,15.221,12.579,23.627,16.607c12.692-13.039,18.865-28.528,21.866-41.302C92.228,290.063,87.926,287.095,85.427,284.597
	z"/>
<path style="opacity:0.15;enable-background:new    ;" d="M156.019,295.411c-11.006,2.594-20.878,3.431-29.55,3.132
	c-3.437,12.938-5.131,29.29-5.963,45.919c2.837,0.152,5.621,0.224,8.324,0.224c17.975,0,32.552-2.994,37.804-4.232
	c12.439-2.932,20.145-15.391,17.214-27.83C180.918,300.187,168.456,292.482,156.019,295.411z"/>
<path style="fill:#495059;" d="M360.872,344.687c24.019,0,54.105-5.345,76.127-27.367c9.036-9.036,9.036-23.687,0-32.723
	c-9.036-9.037-23.688-9.037-32.723,0c-7.685,7.684-32.329,19.834-70.592,10.815c-12.437-2.929-24.898,4.776-27.83,17.214
	c-2.931,12.438,4.775,24.898,17.214,27.83C328.319,341.693,342.897,344.687,360.872,344.687z"/>
<path style="fill:#EDA751;" d="M404.276,284.597c9.035-9.037,23.687-9.037,32.723,0c9.036,9.036,9.036,23.687,0,32.723
	c-7.181,7.181-15.221,12.579-23.627,16.607c-12.692-13.039-18.865-28.528-21.866-41.302
	C397.475,290.063,401.777,287.095,404.276,284.597z"/>
<path style="opacity:0.15;enable-background:new    ;" d="M333.683,295.411c11.006,2.594,20.878,3.431,29.55,3.132
	c3.437,12.938,5.131,29.29,5.963,45.919c-2.837,0.152-5.621,0.224-8.324,0.224c-17.975,0-32.552-2.994-37.804-4.232
	c-12.439-2.932-20.145-15.391-17.214-27.83C308.785,300.187,321.246,292.482,333.683,295.411z"/>
<g>
	<path style="opacity:0.2;fill:#A35F00;enable-background:new    ;" d="M310.371,361.798c-1.29-1.593-2.585-3.19-3.887-4.784
		c-5.054-6.184-14.162-7.104-20.349-2.05c-6.186,5.053-7.103,14.163-2.051,20.349c1.278,1.564,2.549,3.132,3.815,4.696
		c12.747,15.729,26.558,32.753,45.574,42.386c7.5-6.909,14.097-14.68,19.598-23.148C337.53,394.331,325.765,380.795,310.371,361.798
		z"/>
	<path style="opacity:0.2;fill:#A35F00;enable-background:new    ;" d="M207.608,381.748c-12.72-1.284-24.064,7.977-25.351,20.691
		c-0.792,7.822-2.048,20.263-2.601,37.016c13.838,7.84,29.388,13.268,45.991,15.652c0.05-22.261,1.652-38.116,2.653-48.007
		C229.585,394.385,220.322,383.034,207.608,381.748z"/>
	<path style="opacity:0.2;fill:#A35F00;enable-background:new    ;" d="M289.901,381.748c-12.707-1.284-24.064,7.977-25.351,20.691
		c-1.026,10.132-2.832,28.005-2.877,52.982c16.758-2.1,32.492-7.288,46.529-14.939c0.505-14.752,1.624-25.813,2.39-33.382
		C311.879,394.385,302.616,383.034,289.901,381.748z"/>
</g>
<ellipse style="fill:#FCD690;" cx="244.849" cy="337.3" rx="106.72" ry="99.17"/>
<path style="opacity:0.15;fill:#C17A00;enable-background:new    ;" d="M229.266,435.417
	c-48.769-32.019-33.655-97.644-25.376-126.344v-63.368c-38.612,14.926-65.763,50.313-65.763,91.598
	C138.128,387.153,177.713,428.407,229.266,435.417z"/>
<path style="fill:#495059;" d="M145.099,285.264c-9.389,18.768-11.163,54.451-11.498,85.097
	c-0.122,11.18,8.883,20.317,20.064,20.317h49.968c4.426,0,8.014-3.588,8.014-8.014v-97.401h-66.548V285.264z"/>
<path style="fill:#8F959B;" d="M190.867,390.678h12.765c4.426,0,8.014-3.588,8.014-8.013v-97.401h-20.779L190.867,390.678
	L190.867,390.678z"/>
<path style="fill:#495059;" d="M344.603,285.264c9.389,18.768,11.163,54.451,11.498,85.097c0.122,11.18-8.883,20.317-20.064,20.317
	h-49.968c-4.426,0-8.013-3.588-8.013-8.014v-97.401h66.547V285.264z"/>
<path style="fill:#8F959B;" d="M298.835,390.678h-12.766c-4.426,0-8.013-3.588-8.013-8.013v-97.401h20.779V390.678z"/>
<path style="fill:#EDA751;" d="M179.903,165.342c20.883-17.523,34.827-46.94,5.37-90.425c-29.689-43.829-73.891-54.815-108.4-50.75
	c-8.508,1.002-15.646,6.992-18.111,15.197c-9.996,33.278-6.852,78.717,31.156,115.565
	C127.629,191.489,159.02,182.865,179.903,165.342z"/>
<path style="fill:#FF91AB;" d="M57.374,44.455c-8.195,32.72-3.561,75.468,32.545,110.473c32.686,31.689,60.618,29.424,81.082,16.85
	C156.927,76.238,95.447,50.903,57.374,44.455z"/>
<path style="fill:#EDA751;" d="M309.799,165.342c-20.883-17.523-34.827-46.94-5.37-90.425c29.689-43.829,73.891-54.815,108.4-50.75
	c8.508,1.002,15.646,6.992,18.111,15.197c9.996,33.278,6.852,78.717-31.156,115.565
	C362.073,191.489,330.683,182.865,309.799,165.342z"/>
<path style="fill:#FF91AB;" d="M432.328,44.455c8.195,32.72,3.561,75.468-32.544,110.473c-32.686,31.689-60.618,29.424-81.082,16.85
	C332.776,76.238,394.255,50.903,432.328,44.455z"/>
<path style="fill:#FFDC9C;" d="M426.547,191.79c0,83.076-81.348,119.463-181.695,119.463S63.156,274.867,63.156,191.79
	c0-83.076,81.348-150.423,181.695-150.423S426.547,108.714,426.547,191.79z"/>
<path style="opacity:0.15;fill:#C17A00;enable-background:new    ;" d="M147.835,64.592C96.949,91.249,63.156,138.25,63.156,191.79
	c0,71.415,60.114,108.327,140.734,117.283C88.162,239.945,103.255,146.961,147.835,64.592z"/>
<g>
	<ellipse style="fill:#FF91AB;" cx="155.689" cy="195.29" rx="32.898" ry="26.2"/>
	<ellipse style="fill:#FF91AB;" cx="334.009" cy="195.29" rx="32.898" ry="26.2"/>
</g>
<g>
	<path style="fill:#495059;" d="M174.865,176.66c-4.142,0-7.5-3.358-7.5-7.5v-11.618c0-4.142,3.358-7.5,7.5-7.5s7.5,3.358,7.5,7.5
		v11.618C182.365,173.302,179.007,176.66,174.865,176.66z"/>
	<path style="fill:#495059;" d="M314.838,176.66c-4.143,0-7.5-3.358-7.5-7.5v-11.618c0-4.142,3.357-7.5,7.5-7.5
		c4.142,0,7.5,3.358,7.5,7.5v11.618C322.338,173.302,318.98,176.66,314.838,176.66z"/>
	<path style="fill:#495059;" d="M244.851,196.753c-9.239,0-18.025-4.001-24.105-10.978c-2.721-3.123-2.396-7.86,0.727-10.582
		c3.124-2.721,7.86-2.395,10.582,0.727c3.23,3.708,7.895,5.834,12.797,5.834s9.567-2.126,12.797-5.834
		c2.72-3.122,7.458-3.448,10.582-0.727c3.122,2.722,3.448,7.459,0.727,10.582C262.877,192.751,254.09,196.753,244.851,196.753z"/>
	<path style="fill:#495059;" d="M109.303,199.741c-3.36,0-6.418-2.275-7.27-5.683c-1.005-4.019,1.438-8.091,5.456-9.095
		c9.071-2.268,30.692-3.882,41.227-2.493c4.106,0.543,6.996,4.312,6.453,8.418s-4.308,6.995-8.418,6.453
		c-8.504-1.123-28.186,0.314-35.623,2.173C110.518,199.668,109.905,199.741,109.303,199.741z"/>
	<path style="fill:#495059;" d="M119.782,238.721c-2.3,0-4.569-1.054-6.04-3.046c-2.46-3.332-1.753-8.028,1.58-10.488
		c7.524-5.554,26.899-15.286,37.167-18.012c4.005-1.061,8.111,1.322,9.173,5.325c1.063,4.003-1.321,8.11-5.325,9.173
		c-8.292,2.201-25.94,11.029-32.108,15.583C122.89,238.244,121.329,238.721,119.782,238.721z"/>
	<path style="fill:#495059;" d="M380.399,199.741c-0.603,0-1.215-0.073-1.825-0.226c-7.438-1.86-27.117-3.299-35.623-2.173
		c-4.106,0.539-7.875-2.347-8.418-6.453c-0.542-4.106,2.347-7.875,6.453-8.418c10.533-1.392,32.155,0.225,41.227,2.493
		c4.018,1.004,6.461,5.077,5.457,9.095C386.817,197.466,383.76,199.741,380.399,199.741z"/>
	<path style="fill:#495059;" d="M369.921,238.721c-1.548,0-3.107-0.477-4.448-1.466c-6.169-4.553-23.815-13.381-32.108-15.583
		c-4.003-1.063-6.387-5.17-5.324-9.173s5.165-6.386,9.174-5.325c10.269,2.726,29.644,12.459,37.167,18.012
		c3.333,2.46,4.04,7.156,1.58,10.488C374.49,237.667,372.221,238.721,369.921,238.721z"/>
	<path style="fill:#495059;" d="M153.802,130.721c-4.807,0-8.703,3.897-8.703,8.703v20.26c0,16.91,14.897,30.619,33.274,30.619
		s33.274-13.708,33.274-30.619v-20.26c0-4.807-3.897-8.703-8.703-8.703H153.802z"/>
	<path style="fill:#495059;" d="M335.9,130.721c4.807,0,8.703,3.897,8.703,8.703v20.26c0,16.91-14.897,30.619-33.274,30.619
		c-18.376,0-33.274-13.708-33.274-30.619v-20.26c0-4.807,3.897-8.703,8.703-8.703H335.9z"/>
	<path style="fill:#495059;" d="M203.884,152.407c-3.387,0-6.458-2.31-7.286-5.748c-0.969-4.027,1.511-8.077,5.538-9.046
		c9.416-2.265,23.788-3.414,42.715-3.414s33.298,1.148,42.715,3.414c4.027,0.969,6.507,5.018,5.538,9.046
		c-0.969,4.027-5.015,6.509-9.046,5.538c-5.686-1.368-17.103-2.998-39.208-2.998s-33.522,1.63-39.207,2.998
		C205.055,152.339,204.465,152.407,203.884,152.407z"/>
	<path style="fill:#495059;" d="M296.712,93.771H193.865c-21.788,0-39.451-17.663-39.451-39.451l0,0
		c0-21.788,17.663-39.451,39.451-39.451h85.792c20.368,0,40.479-4.542,58.87-13.297l0,0c11.87-5.65,25.057,4.79,22.281,17.639
		l-5.975,27.655C348.919,74.235,324.712,93.771,296.712,93.771z"/>
</g>
<g style="opacity:0.1;">
	<path d="M273.933,62.939c-1.501,0-2.999-0.005-4.495-0.011c-1.429-0.005-2.853-0.01-4.269-0.01c-4.143,0-7.5-3.358-7.5-7.5
		s3.357-7.5,7.5-7.5c1.433,0,2.875,0.005,4.321,0.01c16.723,0.056,34.023,0.118,44.722-7.878c3.319-2.479,8.017-1.8,10.498,1.517
		c2.479,3.318,1.8,8.018-1.518,10.497C309.623,62.207,291.69,62.939,273.933,62.939z"/>
	<path d="M219.507,52.338H199.26c-4.142,0-7.5-3.358-7.5-7.5s3.358-7.5,7.5-7.5h20.247c4.142,0,7.5,3.358,7.5,7.5
		S223.649,52.338,219.507,52.338z"/>
</g>
<path style="fill:#FFFFFF;" d="M358.633,119.714L358.633,119.714c-3.606,0-6.53-2.923-6.53-6.529l0,0
	c0-4.126-3.179-7.739-7.303-7.845c-4.233-0.108-7.697,3.29-7.697,7.497v0.347c0,3.606-2.923,6.529-6.529,6.529l0,0
	c-4.125,0-7.738,3.178-7.845,7.302c-0.109,4.233,3.289,7.698,7.497,7.698h0.348c3.606,0,6.529,2.923,6.529,6.529v0.001
	c0,4.126,3.179,7.739,7.303,7.845c4.233,0.108,7.697-3.29,7.697-7.497v-0.348c0-3.606,2.923-6.529,6.529-6.529h0.348
	c4.208,0,7.606-3.465,7.497-7.698C366.372,122.892,362.758,119.714,358.633,119.714z"/>
<g>
</g>
<g>
</g>
<g>
</g>
<g>
</g>
<g>
</g>
<g>
</g>
<g>
</g>
<g>
</g>
<g>
</g>
<g>
</g>
<g>
</g>
<g>
</g>
<g>
</g>
<g>
</g>
<g>
</g>
</svg>
