<?xml version="1.0" encoding="iso-8859-1"?>
<!-- Generator: Adobe Illustrator 19.0.0, SVG Export Plug-In . SVG Version: 6.00 Build 0)  -->
<svg version="1.1" id="Capa_1" xmlns="http://www.w3.org/2000/svg" xmlns:xlink="http://www.w3.org/1999/xlink" x="0px" y="0px"
	 viewBox="0 0 512 512" style="enable-background:new 0 0 512 512;" xml:space="preserve">
<path style="fill:#EDA751;" d="M93.97,443.013c-32.114,0-62.976-17.682-77.28-44.47c-3.896-7.296-1.14-16.368,6.156-20.264
	c7.294-3.895,16.369-1.14,20.264,6.156c9.265,17.349,30.74,29.116,52.204,28.611c28.022-0.658,52.844-20.784,69.893-56.67
	c3.549-7.472,12.483-10.651,19.953-7.101c7.471,3.549,10.65,12.483,7.101,19.953c-29.889,62.915-73.129,73.219-96.244,73.762
	C95.336,443.005,94.65,443.013,93.97,443.013z"/>
<path style="fill:#BD4568;" d="M51.697,364.332l-33.899-7.293c-6.335-1.363-12.481,2.986-13.303,9.414l-4.399,34.395
	c-1.222,9.556,9.504,16.001,17.368,10.436l5.042-3.568c2.723,3.693,5.77,7.164,9.109,10.368c6.143-2.614,15.345-8.151,22.724-19.799
	c-2.758-2.395-5.238-5.033-7.384-7.871l8.806-6.232C63.625,378.618,61.115,366.359,51.697,364.332z"/>
<g>
	<path style="fill:#EDA751;" d="M172.254,504.168c-2.651,0-5.345-0.443-7.986-1.377c-12.477-4.411-19.016-18.101-14.605-30.578
		c8.138-23.018,15.588-48.287,9.146-61.17c-5.918-11.837-1.12-26.23,10.716-32.148c11.838-5.917,26.229-1.12,32.148,10.716
		c13.623,27.247,7.123,59.112-6.827,98.574C191.369,498.022,182.124,504.168,172.254,504.168z"/>
	<path style="fill:#EDA751;" d="M104.282,365.413c-0.435,0-0.869-0.004-1.305-0.011c-29.877-0.51-55.913-18.207-71.435-48.553
		c-6.026-11.782-1.36-26.218,10.422-32.244c11.784-6.026,26.219-1.358,32.244,10.422c7.411,14.489,17.641,22.255,29.586,22.459
		c9.16,0.141,17.204-4.442,19.723-8.977c6.424-11.569,21.012-15.739,32.581-9.315s15.74,21.012,9.315,32.581
		C154.012,352.306,130.119,365.413,104.282,365.413z"/>
	<path style="fill:#EDA751;" d="M303.435,495.382c-2.651,0-5.345-0.443-7.987-1.377c-12.477-4.411-19.015-18.102-14.604-30.578
		c8.527-24.118-6.393-41.315-9.684-43.702c-10.712-7.77-13.098-22.753-5.328-33.465c7.771-10.712,22.753-13.099,33.465-5.328
		c18.938,13.736,42.941,52.615,26.729,98.47C322.549,489.236,313.304,495.382,303.435,495.382z"/>
	<path style="fill:#EDA751;" d="M375.213,369.451c-7.499,0-15.029-0.707-22.457-2.136c-23.969-4.613-44.241-16.082-57.084-32.294
		c-8.217-10.373-6.47-25.443,3.903-33.661c10.373-8.218,25.443-6.47,33.661,3.903c11.604,14.649,43.904,22.22,69.759,10.423
		c12.039-5.494,26.252-0.187,31.746,11.854c5.493,12.04,0.186,26.253-11.854,31.746C408.16,366.005,391.767,369.451,375.213,369.451
		z"/>
</g>
<path style="fill:#BD4568;" d="M503.782,221.011c-7.38-3.732-16.389-0.779-20.124,6.602L466.75,261.03
	c-2.389,4.722-7.072,7.763-12.176,8.208c-1.438,0.125-2.583-1.199-2.308-2.615l9.827-50.664c1.534-7.91-3.217-15.897-11.044-17.811
	c-8.364-2.045-16.657,3.33-18.28,11.692l-9.908,51.083c-0.282,1.456-1.885,2.197-3.203,1.517c-4.522-2.335-7.693-6.881-8.14-12.121
	l-3.153-36.893c-0.687-8.035-7.452-14.42-15.51-14.112c-8.603,0.329-15.094,7.761-14.369,16.241l3.189,37.314
	c1.56,18.265,14.196,33.713,31.402,39.125c2.023,0.636,3.234,2.701,2.831,4.783l-23.402,120.658
	c-1.574,8.113,3.693,16.446,11.811,17.995c0.948,0.181,1.892,0.268,2.823,0.268c7.027,0,13.298-4.971,14.686-12.128l23.485-121.084
	c0.401-2.068,2.278-3.557,4.378-3.385c1.179,0.097,2.356,0.146,3.528,0.146c16.72,0,32.522-9.397,40.26-24.693l16.908-33.417
	C514.118,233.755,511.162,224.745,503.782,221.011z"/>
<g>
	<path style="opacity:0.2;fill:#A35F00;enable-background:new    ;" d="M360.756,320.001c-11.891-2.458-22.027-7.802-27.521-14.738
		c-8.218-10.373-23.288-12.121-33.661-3.903c-10.373,8.217-12.121,23.288-3.903,33.661c12.843,16.213,33.116,27.681,57.084,32.294
		c1.101,0.212,2.204,0.403,3.309,0.583c3.516-11.092,5.414-22.832,5.414-34.983C361.479,328.553,361.231,324.246,360.756,320.001z"
		/>
	<path style="opacity:0.2;fill:#A35F00;enable-background:new    ;" d="M156.099,299.194c-11.568-6.423-26.156-2.253-32.581,9.315
		c-2.518,4.535-10.563,9.118-19.723,8.977c-0.777-0.013-1.546-0.062-2.308-0.139c-0.69,5.099-1.046,10.295-1.046,15.567
		c0,11.243,1.626,22.135,4.652,32.487c25.524-0.272,49.038-13.31,60.32-33.626C171.839,320.205,167.668,305.618,156.099,299.194z"/>
	<path style="opacity:0.2;fill:#A35F00;enable-background:new    ;" d="M185.16,349.275c-7.47-3.55-16.404-0.371-19.953,7.101
		c-10.717,22.558-24.506,38.883-40.23,48.065c6.204,8.1,13.431,15.462,21.502,21.92c15.924-10.888,32.226-28.6,45.781-57.133
		C195.81,361.757,192.631,352.824,185.16,349.275z"/>
	<path style="opacity:0.2;fill:#A35F00;enable-background:new    ;" d="M169.525,378.896c-11.836,5.918-16.634,20.311-10.716,32.148
		c3.026,6.051,2.986,14.836,1.25,24.836c13.582,8.293,28.897,14.277,45.316,17.357c5.519-24.029,5.653-44.916-3.701-63.625
		C195.755,377.776,181.363,372.979,169.525,378.896z"/>
	<path style="opacity:0.2;fill:#A35F00;enable-background:new    ;" d="M325.555,417.366c-6.375-16.797-16.929-29.668-26.258-36.434
		c-10.712-7.771-25.695-5.384-33.465,5.328s-5.384,25.695,5.328,33.465c2.388,1.732,10.892,11.267,12.124,25.582
		C299.307,438.689,313.659,429.136,325.555,417.366z"/>
</g>
<ellipse style="fill:#FCD690;" cx="230.96" cy="332.91" rx="110.52" ry="102.7"/>
<path style="opacity:0.15;fill:#C17A00;enable-background:new    ;" d="M214.821,434.517
	c-50.504-33.158-34.852-101.116-26.278-130.836V238.06c-39.985,15.457-68.101,52.102-68.101,94.855
	C120.441,384.537,161.434,427.258,214.821,434.517z"/>
<path style="fill:#EDA751;" d="M163.703,154.839c21.626-18.146,36.065-48.609,5.561-93.641C138.519,15.811,92.746,4.434,57.01,8.644
	c-8.81,1.038-16.203,7.241-18.755,15.737c-10.352,34.462-7.096,81.516,32.264,119.675
	C109.569,181.916,142.077,172.986,163.703,154.839z"/>
<path style="fill:#FF91AB;" d="M36.817,29.654c-8.486,33.883-3.688,78.152,33.702,114.401
	c33.848,32.816,62.774,30.471,83.965,17.449C139.909,62.567,76.244,36.331,36.817,29.654z"/>
<path style="fill:#EDA751;" d="M298.217,154.839c-21.626-18.146-36.065-48.609-5.561-93.641
	C323.401,15.811,369.174,4.434,404.91,8.644c8.81,1.038,16.203,7.241,18.755,15.737c10.352,34.462,7.096,81.516-32.263,119.675
	C352.35,181.916,319.843,172.986,298.217,154.839z"/>
<path style="fill:#FF91AB;" d="M425.103,29.654c8.487,33.883,3.688,78.152-33.702,114.401
	c-33.848,32.816-62.774,30.471-83.965,17.449C322.011,62.567,385.676,36.331,425.103,29.654z"/>
<path style="fill:#FFDC9C;" d="M419.116,182.228c0,86.03-84.24,123.71-188.156,123.71s-188.156-37.68-188.156-123.71
	S127.044,26.457,230.96,26.457S419.116,96.198,419.116,182.228z"/>
<path style="opacity:0.15;fill:#C17A00;enable-background:new    ;" d="M130.494,50.507c-52.695,27.605-87.69,76.277-87.69,131.721
	c0,73.954,62.251,112.179,145.739,121.453C68.699,232.095,84.328,135.805,130.494,50.507z"/>
<g>
	<path style="fill:#495059;" d="M158.485,166.293c-4.142,0-7.5-3.358-7.5-7.5v-12.031c0-4.142,3.358-7.5,7.5-7.5s7.5,3.358,7.5,7.5
		v12.031C165.985,162.935,162.627,166.293,158.485,166.293z"/>
	<path style="fill:#495059;" d="M303.435,166.293c-4.142,0-7.5-3.358-7.5-7.5v-12.031c0-4.142,3.358-7.5,7.5-7.5s7.5,3.358,7.5,7.5
		v12.031C310.935,162.935,307.577,166.293,303.435,166.293z"/>
	<path style="fill:#495059;" d="M230.96,175.531c-9.491,0-18.516-4.11-24.762-11.277c-2.721-3.123-2.396-7.86,0.727-10.582
		c3.123-2.721,7.86-2.396,10.582,0.727c3.396,3.898,8.3,6.133,13.454,6.133c5.153,0,10.057-2.235,13.453-6.133
		c2.722-3.123,7.459-3.447,10.582-0.727c3.123,2.722,3.448,7.459,0.727,10.582C249.476,171.42,240.45,175.531,230.96,175.531z"/>
	<path style="fill:#495059;" d="M90.592,190.195c-3.36,0-6.419-2.275-7.27-5.683c-1.005-4.018,1.439-8.09,5.457-9.095
		c9.374-2.343,31.714-4.013,42.593-2.576c4.106,0.543,6.996,4.311,6.453,8.418c-0.542,4.106-4.31,6.997-8.418,6.453
		c-8.832-1.167-29.266,0.326-36.99,2.256C91.806,190.122,91.194,190.195,90.592,190.195z"/>
	<path style="fill:#495059;" d="M101.443,230.561c-2.3,0-4.569-1.054-6.04-3.046c-2.46-3.333-1.752-8.028,1.58-10.488
		c7.774-5.738,27.792-15.793,38.399-18.61c4.003-1.061,8.11,1.321,9.173,5.325c1.063,4.003-1.321,8.11-5.325,9.173
		c-8.61,2.286-26.934,11.452-33.339,16.18C104.551,230.084,102.99,230.561,101.443,230.561z"/>
	<path style="fill:#495059;" d="M371.328,190.195c-0.603,0-1.214-0.073-1.825-0.226c-7.723-1.93-28.155-3.422-36.99-2.256
		c-4.107,0.545-7.876-2.347-8.418-6.453c-0.543-4.107,2.347-7.875,6.453-8.418c10.879-1.437,33.218,0.232,42.592,2.576
		c4.019,1.004,6.462,5.076,5.457,9.095C377.746,187.919,374.688,190.194,371.328,190.195z"/>
	<path style="fill:#495059;" d="M360.477,230.561c-1.547,0-3.108-0.477-4.448-1.466c-6.405-4.728-24.729-13.895-33.339-16.18
		c-4.004-1.063-6.387-5.17-5.325-9.173c1.063-4.004,5.174-6.383,9.173-5.325c10.607,2.816,30.624,12.872,38.399,18.61
		c3.333,2.46,4.04,7.156,1.58,10.488C365.046,229.507,362.776,230.561,360.477,230.561z"/>
	<path style="fill:#495059;" d="M293.759,152.741c-1.919,0-3.839-0.732-5.303-2.197c-2.929-2.929-2.929-7.678,0-10.606
		l15.501-15.501c2.929-2.929,7.678-2.929,10.607,0s2.929,7.678,0,10.606l-15.501,15.501
		C297.598,152.009,295.678,152.741,293.759,152.741z"/>
	<path style="fill:#495059;" d="M168.161,152.741c-1.919,0-3.839-0.732-5.303-2.197l-15.502-15.501
		c-2.929-2.929-2.929-7.678,0-10.606c2.929-2.929,7.678-2.929,10.607,0l15.501,15.501c2.929,2.929,2.929,7.678,0,10.606
		C172,152.009,170.081,152.741,168.161,152.741z"/>
</g>
<g>
	<path style="fill:#BD4568;" d="M138.986,36.9c-6.22,15.395-6.572,31.99-2.397,43.089c1.607,4.272,5.043,7.555,9.398,8.92
		c10.433,3.27,24.212,1.354,33.984-4.583c6.673-4.054,7.835-13.264,2.676-19.124c-7.421-8.429-15.838-18.977-24.116-30.563
		C153.391,27.445,142.298,28.703,138.986,36.9z"/>
	<path style="fill:#BD4568;" d="M322.934,36.9c6.22,15.395,6.572,31.99,2.397,43.089c-1.607,4.272-5.043,7.555-9.398,8.92
		c-10.433,3.27-24.212,1.354-33.984-4.583c-6.673-4.054-7.835-13.264-2.676-19.124c7.421-8.429,15.838-18.977,24.116-30.563
		C308.529,27.445,319.622,28.703,322.934,36.9z"/>
</g>
<g>
</g>
<g>
</g>
<g>
</g>
<g>
</g>
<g>
</g>
<g>
</g>
<g>
</g>
<g>
</g>
<g>
</g>
<g>
</g>
<g>
</g>
<g>
</g>
<g>
</g>
<g>
</g>
<g>
</g>
</svg>
