<?xml version="1.0" encoding="iso-8859-1"?>
<!-- Generator: Adobe Illustrator 19.0.0, SVG Export Plug-In . SVG Version: 6.00 Build 0)  -->
<svg version="1.1" id="Capa_1" xmlns="http://www.w3.org/2000/svg" xmlns:xlink="http://www.w3.org/1999/xlink" x="0px" y="0px"
	 viewBox="0 0 512 512" style="enable-background:new 0 0 512 512;" xml:space="preserve">
<path style="fill:#495059;" d="M241.499,501.289H71.059c-3.877,0-7.02-3.143-7.02-7.02V368.791c0-7.474,6.059-13.533,13.533-13.533
	h150.395c7.474,0,13.533,6.059,13.533,13.533v132.498H241.499z"/>
<path style="fill:#7694E4;" d="M241.499,409.779H64.038v84.49c0,3.877,3.143,7.02,7.02,7.02h170.44L241.499,409.779L241.499,409.779
	z"/>
<g style="opacity:0.1;">
	<path d="M152.769,488.16c-4.142,0-7.5-3.357-7.5-7.5v-50.253c0-4.143,3.358-7.5,7.5-7.5s7.5,3.357,7.5,7.5v50.253
		C160.269,484.803,156.911,488.16,152.769,488.16z"/>
	<path d="M116.211,488.16c-4.142,0-7.5-3.357-7.5-7.5v-50.253c0-4.143,3.358-7.5,7.5-7.5s7.5,3.357,7.5,7.5v50.253
		C123.711,484.803,120.353,488.16,116.211,488.16z"/>
	<path d="M189.326,488.16c-4.142,0-7.5-3.357-7.5-7.5v-50.253c0-4.143,3.358-7.5,7.5-7.5s7.5,3.357,7.5,7.5v50.253
		C196.826,484.803,193.468,488.16,189.326,488.16z"/>
</g>
<path style="fill:#EDA751;" d="M56.51,472.295c-3.072,0-6.16-1.046-8.689-3.186c-5.672-4.803-6.376-13.293-1.574-18.965
	c16.734-19.766,46.989-24.155,89.918-13.047c18.59,4.811,28.614-8.112,45.414-40.876c5.503-10.735,10.702-20.875,17.074-28.674
	c4.702-5.755,13.179-6.608,18.934-1.908c5.755,4.702,6.609,13.179,1.908,18.934c-4.567,5.591-9.133,14.497-13.967,23.926
	c-6.961,13.578-14.852,28.967-25.787,40.122c-14.297,14.581-31.228,19.469-50.316,14.53c-31.171-8.065-53.417-6.506-62.639,4.383
	C64.124,470.677,60.329,472.295,56.51,472.295z"/>
<path style="fill:#FCD79D;" d="M46.247,450.144c-4.802,5.671-4.098,14.161,1.574,18.965c2.528,2.14,5.616,3.186,8.689,3.186
	c3.82,0,7.615-1.618,10.276-4.761c1.206-1.423,2.639-2.683,4.28-3.787c-2.748-12.142-12.479-18.764-18.053-20.176
	C50.556,445.532,48.299,447.721,46.247,450.144z"/>
<g>
	<path style="fill:#EDA751;" d="M249.905,512c-11.014,0-20.403-8.406-21.417-19.587c-2.408-26.558-11.425-56.722-20.975-70.165
		c-6.887-9.694-4.611-23.134,5.082-30.021c9.693-6.885,23.134-4.611,30.021,5.083c16.222,22.834,26.131,62.266,28.756,91.216
		c1.073,11.841-7.656,22.312-19.498,23.385C251.213,511.971,250.556,512,249.905,512z"/>
	<path style="fill:#EDA751;" d="M123.9,411.958c-8.09,0-15.841-4.581-19.505-12.39c-9.596-20.451-8.316-41.762,3.512-58.467
		c14.397-20.333,42.185-31.077,72.528-28.022c11.831,1.188,20.458,11.743,19.27,23.573c-1.189,11.832-11.746,20.462-23.575,19.27
		c-16.653-1.671-28.82,4.044-33.082,10.062c-1.126,1.59-4.119,5.818,0.327,15.295c5.051,10.764,0.419,23.585-10.345,28.636
		C130.076,411.301,126.963,411.958,123.9,411.958z"/>
</g>
<path style="opacity:0.2;fill:#A35F00;enable-background:new    ;" d="M180.436,313.079c-12.919-1.301-25.371-0.092-36.527,3.286
	c-3.384,10.392-5.212,21.419-5.212,32.842c0,7.602,0.82,15.025,2.357,22.207c0.207-2.886,1.378-4.558,1.995-5.43
	c4.261-6.017,16.428-11.733,33.082-10.062c11.828,1.192,22.386-7.438,23.575-19.27C200.894,324.821,192.267,314.267,180.436,313.079
	z"/>
<g>
	<path style="fill:#EDA751;" d="M314.73,506.039c-5.185,0-10.384-1.861-14.514-5.633c-8.78-8.019-9.397-21.637-1.377-30.417
		c4.335-4.746,6.154-9.893,5.724-16.198c-0.808-11.836-9.389-23.973-12.592-26.695c-9.497-7.013-11.582-20.385-4.637-29.96
		c6.982-9.624,20.444-11.769,30.069-4.786c10.849,7.869,27.304,30.488,29.918,56.134c1.935,18.994-3.835,36.472-16.688,50.545
		C326.386,503.679,320.567,506.039,314.73,506.039z M292.052,427.157c0.023,0.017,0.046,0.034,0.068,0.049
		C292.097,427.191,292.075,427.174,292.052,427.157z"/>
	<path style="fill:#EDA751;" d="M376.491,382.562c-28.665,0-51.892-22.879-58.683-30.324c-8.013-8.786-7.386-22.403,1.4-30.416
		c8.785-8.012,22.403-7.385,30.415,1.399c9.335,10.235,21.145,17.045,28.083,16.208c5.68-0.691,10.567-7.645,13.667-13.357
		c5.672-10.451,18.742-14.326,29.193-8.653c10.451,5.671,14.324,18.742,8.653,29.192c-14.373,26.484-33.117,33.957-46.311,35.562
		C380.744,382.438,378.6,382.562,376.491,382.562z"/>
</g>
<g>
	<path style="opacity:0.2;fill:#A35F00;enable-background:new    ;" d="M217.587,365.638c-5.755-4.7-14.232-3.846-18.934,1.908
		c-6.372,7.799-11.57,17.939-17.074,28.674c-5.743,11.2-10.694,20.079-15.466,26.726c6.1,6.577,12.998,12.48,20.553,17.575
		c7.501-9.888,13.464-21.496,18.861-32.023c4.834-9.429,9.4-18.335,13.967-23.926C224.196,378.817,223.342,370.341,217.587,365.638z
		"/>
	<path style="opacity:0.2;fill:#A35F00;enable-background:new    ;" d="M267.192,460.983c-4.817-23.144-13.12-47.547-24.576-63.673
		c-6.887-9.694-20.328-11.967-30.021-5.083c-9.694,6.887-11.969,20.327-5.082,30.021c5.325,7.496,10.483,20.193,14.423,34.562
		c10.799,3.033,22.232,4.671,34.064,4.671C259.774,461.48,263.506,461.307,267.192,460.983z"/>
	<path style="opacity:0.2;fill:#A35F00;enable-background:new    ;" d="M317.402,392.351c-9.625-6.983-23.087-4.838-30.069,4.786
		c-6.945,9.575-4.86,22.947,4.637,29.96c3.027,2.572,10.847,13.551,12.382,24.739c14.199-5.948,26.944-14.429,37.583-24.833
		C335.532,410.845,325.07,397.912,317.402,392.351z"/>
	<path style="opacity:0.2;fill:#A35F00;enable-background:new    ;" d="M375.303,349.206c0-3.31-0.162-6.584-0.462-9.822
		c-7.034-0.906-17.068-7.228-25.217-16.163c-8.013-8.784-21.63-9.411-30.416-1.399c-8.785,8.013-9.412,21.63-1.4,30.416
		c6.275,6.879,26.584,26.918,52.245,29.929C373.463,371.74,375.303,360.672,375.303,349.206z"/>
</g>
<ellipse style="fill:#FCD690;" cx="256" cy="349.21" rx="99.3" ry="92.28"/>
<path style="opacity:0.15;fill:#C17A00;enable-background:new    ;" d="M241.499,440.498
	c-45.378-29.793-31.315-90.855-23.612-117.559v-58.962c-35.927,13.888-61.19,46.815-61.19,85.228
	C156.697,395.59,193.53,433.976,241.499,440.498z"/>
<path style="fill:#EDA751;" d="M195.568,189.203c19.431-16.305,32.405-43.676,4.997-84.138
	c-27.624-40.782-68.753-51.004-100.862-47.221c-7.916,0.933-14.558,6.506-16.851,14.14c-9.301,30.964-6.376,73.243,28.989,107.53
	C146.929,213.531,176.137,205.508,195.568,189.203z"/>
<path style="fill:#FF91AB;" d="M81.559,76.722c-7.625,30.445-3.314,70.221,30.282,102.792
	c30.413,29.485,56.403,27.378,75.444,15.678C174.189,106.295,116.985,82.721,81.559,76.722z"/>
<path style="fill:#EDA751;" d="M316.432,189.203c-19.431-16.305-32.405-43.676-4.997-84.138
	c27.624-40.782,68.753-51.004,100.862-47.221c7.916,0.933,14.558,6.506,16.851,14.14c9.301,30.964,6.376,73.243-28.989,107.53
	C365.071,213.531,335.863,205.508,316.432,189.203z"/>
<path style="fill:#FF91AB;" d="M430.441,76.722c7.625,30.445,3.314,70.221-30.282,102.792
	c-30.413,29.485-56.403,27.378-75.444,15.678C337.811,106.295,395.015,82.721,430.441,76.722z"/>
<path style="fill:#FFDC9C;" d="M425.061,213.812c0,77.3-75.691,111.156-169.061,111.156S86.939,291.112,86.939,213.812
	S162.63,73.849,256,73.849S425.061,136.512,425.061,213.812z"/>
<path style="opacity:0.15;fill:#C17A00;enable-background:new    ;" d="M165.73,95.458c-47.348,24.804-78.791,68.536-78.791,118.354
	c0,66.449,55.934,100.795,130.949,109.128C110.205,258.618,124.249,172.1,165.73,95.458z"/>
<g>
	<ellipse style="fill:#FF91AB;" cx="173.04" cy="217.07" rx="30.611" ry="24.377"/>
	<ellipse style="fill:#FF91AB;" cx="338.96" cy="217.07" rx="30.611" ry="24.377"/>
</g>
<g>
	<path style="fill:#495059;" d="M256,208.556c-8.748,0-17.066-3.788-22.823-10.394c-2.721-3.123-2.396-7.86,0.727-10.582
		s7.86-2.395,10.581,0.727c2.907,3.336,7.104,5.249,11.514,5.249c4.411,0,8.607-1.913,11.514-5.249
		c2.721-3.123,7.459-3.448,10.582-0.727c3.123,2.722,3.448,7.459,0.727,10.582C273.066,204.768,264.748,208.556,256,208.556z"/>
	<path style="fill:#495059;" d="M190.88,195.423c-9.494,0-14.523-3.895-17.852-6.472c-3.275-2.536-3.874-7.246-1.338-10.521
		c2.536-3.274,7.246-3.875,10.522-1.338c2.591,2.006,4.302,3.331,8.668,3.331s6.077-1.325,8.668-3.331
		c3.274-2.538,7.985-1.939,10.522,1.338c2.536,3.275,1.936,7.985-1.338,10.521C205.403,191.528,200.374,195.423,190.88,195.423z"/>
	<path style="fill:#495059;" d="M321.12,195.423c-9.494,0-14.523-3.895-17.851-6.472c-3.275-2.536-3.874-7.246-1.338-10.521
		c2.536-3.274,7.246-3.875,10.522-1.338c2.591,2.006,4.302,3.331,8.668,3.331s6.077-1.325,8.668-3.331
		c3.274-2.538,7.986-1.939,10.522,1.338c2.536,3.275,1.937,7.985-1.338,10.521C335.644,191.528,330.614,195.423,321.12,195.423z"/>
	<path style="fill:#495059;" d="M129.876,221.731c-3.36,0-6.418-2.274-7.27-5.683c-1.005-4.018,1.438-8.091,5.457-9.096
		c8.483-2.119,28.705-3.63,38.554-2.33c4.107,0.543,6.996,4.312,6.454,8.418c-0.542,4.105-4.306,6.999-8.418,6.453
		c-7.709-1.018-26.224,0.329-32.951,2.012C131.091,221.658,130.479,221.731,129.876,221.731z"/>
	<path style="fill:#495059;" d="M139.627,258.001c-2.299,0-4.569-1.054-6.039-3.045c-2.461-3.333-1.753-8.028,1.579-10.489
		c7.035-5.193,25.154-14.295,34.759-16.845c4.005-1.06,8.111,1.321,9.173,5.324c1.063,4.004-1.321,8.111-5.325,9.174
		c-7.518,1.996-24.12,10.296-29.699,14.415C142.736,257.524,141.175,258.001,139.627,258.001z"/>
	<path style="fill:#495059;" d="M382.124,221.731c-0.603,0-1.214-0.073-1.825-0.225c-6.728-1.683-25.242-3.028-32.951-2.012
		c-4.11,0.547-7.875-2.346-8.418-6.453c-0.543-4.106,2.347-7.875,6.454-8.418c9.849-1.304,30.071,0.209,38.554,2.33
		c4.018,1.005,6.461,5.077,5.457,9.096C388.542,219.456,385.484,221.731,382.124,221.731z"/>
	<path style="fill:#495059;" d="M372.373,258.001c-1.548,0-3.108-0.477-4.449-1.466c-5.579-4.119-22.181-12.419-29.699-14.415
		c-4.003-1.063-6.387-5.17-5.325-9.174c1.063-4.003,5.174-6.386,9.173-5.324c9.605,2.55,27.725,11.651,34.759,16.845
		c3.332,2.461,4.04,7.156,1.579,10.489C376.942,256.947,374.672,258.001,372.373,258.001z"/>
	<path style="fill:#495059;" d="M101.69,106.329c-2.597,0-5.231-0.608-7.694-1.89c-8.173-4.258-11.347-14.334-7.09-22.507
		c14.373-27.591,38.176-48.82,70.75-63.098C185.766,6.513,219.774,0,256,0s70.233,6.513,98.344,18.833
		c32.574,14.277,56.377,35.506,70.75,63.098c4.258,8.174,1.083,18.25-7.09,22.507s-18.249,1.083-22.506-7.09
		c-10.769-20.673-29.122-36.807-54.55-47.951C317.027,38.913,287.652,33.371,256,33.371s-61.027,5.542-84.948,16.026
		c-25.428,11.144-43.781,27.278-54.55,47.951C113.528,103.058,107.712,106.329,101.69,106.329z"/>
</g>
<g>
	<path style="fill:#7694E4;" d="M82.733,179.741L82.733,179.741c-31.48-11.458-47.711-46.266-36.254-77.746l2.068-5.683
		c11.458-31.48,46.266-47.711,77.746-36.253l0,0c9.662,3.517,14.643,14.2,11.127,23.861l-30.826,84.694
		C103.078,178.276,92.395,183.257,82.733,179.741z"/>
	<path style="fill:#7694E4;" d="M429.267,179.741L429.267,179.741c31.48-11.458,47.711-46.266,36.254-77.746l-2.068-5.683
		c-11.458-31.48-46.266-47.711-77.746-36.253l0,0c-9.662,3.517-14.643,14.2-11.127,23.861l30.826,84.694
		C408.922,178.276,419.605,183.257,429.267,179.741z"/>
</g>
<g>
</g>
<g>
</g>
<g>
</g>
<g>
</g>
<g>
</g>
<g>
</g>
<g>
</g>
<g>
</g>
<g>
</g>
<g>
</g>
<g>
</g>
<g>
</g>
<g>
</g>
<g>
</g>
<g>
</g>
</svg>
