<?xml version="1.0" encoding="iso-8859-1"?>
<!-- Generator: Adobe Illustrator 19.0.0, SVG Export Plug-In . SVG Version: 6.00 Build 0)  -->
<svg version="1.1" id="Capa_1" xmlns="http://www.w3.org/2000/svg" xmlns:xlink="http://www.w3.org/1999/xlink" x="0px" y="0px"
	 viewBox="0 0 512.002 512.002" style="enable-background:new 0 0 512.002 512.002;" xml:space="preserve">
<path style="fill:#78CFC0;" d="M281.597,491.732l144.541-24.437c9.633-1.629,13.07-13.702,5.739-20.159l-9.638-8.49
	c-2.855-2.515-2.758-6.996,0.204-9.384l72.948-58.836c7.664-6.181,4.638-18.496-5.018-20.422l-51.799-10.331
	c-4.432-0.884-6.422-6.091-3.709-9.705l74.795-99.646c5.582-7.437,0.593-18.09-8.693-18.564l-66.373-3.387
	c-4.511-0.23-7.237-5.088-5.083-9.058L496.079,76.62c4.679-8.624-2.786-18.804-12.418-16.933L329.499,89.628
	c-2.384,0.463-4.817-0.523-6.206-2.516l-56.97-81.724c-5.007-7.183-15.637-7.183-20.644,0L188.71,87.112
	c-1.389,1.992-3.822,2.979-6.206,2.516L28.342,59.684c-9.632-1.871-17.097,8.309-12.418,16.933L82.492,199.31
	c2.154,3.97-0.572,8.828-5.083,9.058l-66.373,3.387c-9.286,0.474-14.276,11.128-8.694,18.564l74.795,99.646
	c2.713,3.614,0.723,8.821-3.709,9.705l-51.799,10.331c-9.656,1.926-12.681,14.241-5.018,20.422l72.948,58.836
	c2.962,2.389,3.059,6.869,0.204,9.384l-9.639,8.49c-7.331,6.458-3.894,18.531,5.739,20.159l144.541,24.437
	C247.349,494.596,264.653,494.596,281.597,491.732z"/>
<path style="fill:#EDA751;" d="M41.892,440.176c-2.615,0-5.259-0.722-7.625-2.236c-6.599-4.219-8.528-12.988-4.31-19.587
	c10.016-15.666,24.986-25.537,43.294-28.547c16.959-2.786,37.075,0.186,59.793,8.841c23.718,9.029,35.289-3.447,57.171-30.243
	l0.805-0.986c4.956-6.065,13.89-6.965,19.954-2.011c6.065,4.956,6.965,13.889,2.01,19.954l-0.802,0.982
	c-11.032,13.51-21.452,26.269-34.899,34.644c-16.669,10.38-34.442,11.743-54.337,4.165c-17.973-6.848-33.144-9.325-45.095-7.359
	c-10.432,1.715-18.282,6.896-23.999,15.839C51.147,437.864,46.568,440.176,41.892,440.176z"/>
<path style="fill:#FCD79D;" d="M36.466,409.768c-2.352,2.634-4.531,5.492-6.509,8.586c-4.218,6.599-2.289,15.368,4.31,19.587
	c2.366,1.513,5.01,2.236,7.625,2.236c4.676,0,9.255-2.312,11.961-6.544c1.455-2.276,3.05-4.306,4.789-6.099
	C54.164,418.603,45.385,412.723,36.466,409.768z"/>
<g>
	<path style="fill:#EDA751;" d="M316.285,512.001c-2.51,0-5.061-0.42-7.563-1.304c-11.815-4.177-18.007-17.14-13.83-28.955
		c9.649-27.291-9.276-41.995-10.087-42.608c-9.997-7.556-11.974-21.786-4.417-31.782s21.787-11.974,31.782-4.417
		c23.062,17.433,39.893,53.239,25.507,93.932C334.385,506.18,325.63,512.001,316.285,512.001z"/>
	<path style="fill:#EDA751;" d="M195.717,512.001c-9.346,0-18.099-5.82-21.393-15.133c-14.387-40.694,2.445-76.5,25.507-93.933
		c9.996-7.558,24.225-5.579,31.783,4.417c7.556,9.997,5.579,24.227-4.418,31.782c-0.811,0.613-19.736,15.317-10.087,42.607
		c4.177,11.815-2.015,24.779-13.829,28.956C200.78,511.581,198.226,512.001,195.717,512.001z"/>
	<path style="fill:#EDA751;" d="M375.411,368.748c-15.546,0-31.907-3.284-48.149-9.732c-11.646-4.624-17.339-17.815-12.715-29.462
		c4.626-11.645,17.816-17.335,29.462-12.715c11.375,4.517,49.954,16.974,68.803-12.365c6.775-10.543,20.81-13.597,31.355-6.826
		c10.543,6.774,13.598,20.812,6.826,31.355c-13.45,20.934-33.674,34.196-58.486,38.354
		C386.956,368.286,381.24,368.748,375.411,368.748z"/>
	<path style="fill:#EDA751;" d="M136.591,368.748c-5.831,0-11.544-0.462-17.095-1.392c-24.813-4.158-45.037-17.421-58.486-38.355
		c-6.773-10.543-3.717-24.58,6.826-31.353s24.58-3.717,31.354,6.827c18.848,29.338,57.428,16.882,68.804,12.364
		c11.647-4.62,24.837,1.069,29.461,12.715c4.624,11.647-1.069,24.838-12.715,29.462C168.5,365.464,152.136,368.748,136.591,368.748z
		"/>
</g>
<g>
	<path style="opacity:0.2;fill:#A35F00;enable-background:new    ;" d="M344.009,316.838c-11.646-4.62-24.837,1.07-29.462,12.715
		c-4.623,11.647,1.069,24.838,12.715,29.462c16.242,6.448,32.603,9.732,48.149,9.732c2.157,0,4.292-0.085,6.414-0.212
		c0.997-6.036,1.518-12.219,1.518-18.514c0-9.225-1.114-18.21-3.218-26.843C365.056,324.302,350.331,319.349,344.009,316.838z"/>
	<path style="opacity:0.2;fill:#A35F00;enable-background:new    ;" d="M312.17,402.935c-9.996-7.557-24.225-5.579-31.782,4.417
		c-7.557,9.997-5.579,24.227,4.417,31.782c0.605,0.457,11.29,8.764,12.67,24.286c15.34-4.991,29.361-12.668,41.425-22.434
		C333.592,424.857,323.655,411.617,312.17,402.935z"/>
	<path style="opacity:0.2;fill:#A35F00;enable-background:new    ;" d="M199.832,402.935c-11.485,8.682-21.422,21.922-26.73,38.052
		c12.064,9.766,26.085,17.443,41.425,22.434c1.38-15.522,12.065-23.829,12.67-24.286c9.996-7.556,11.974-21.786,4.418-31.782
		C224.057,397.356,209.828,395.377,199.832,402.935z"/>
	<path style="opacity:0.2;fill:#A35F00;enable-background:new    ;" d="M210.974,365.407c-6.065-4.954-14.999-4.054-19.954,2.011
		l-0.805,0.986c-19.392,23.746-30.692,36.233-49.517,32.487c5.002,10.017,11.426,19.285,19.038,27.561
		c6.005-1.443,11.844-3.913,17.549-7.466c13.447-8.375,23.867-21.134,34.899-34.644l0.802-0.982
		C217.94,379.296,217.04,370.363,210.974,365.407z"/>
	<path style="opacity:0.2;fill:#A35F00;enable-background:new    ;" d="M167.993,316.838c-6.322,2.511-21.047,7.464-36.118,6.342
		c-2.104,8.633-3.218,17.617-3.218,26.842c0,6.295,0.521,12.478,1.518,18.514c2.123,0.127,4.258,0.212,6.415,0.212
		c15.545,0,31.909-3.284,48.148-9.732c11.647-4.624,17.34-17.815,12.715-29.462C192.831,317.907,179.64,312.218,167.993,316.838z"/>
</g>
<ellipse style="fill:#FCD690;" cx="256.001" cy="350.021" rx="104.65" ry="97.25"/>
<path style="opacity:0.15;fill:#C17A00;enable-background:new    ;" d="M240.718,446.233
	c-47.823-31.398-33.002-95.75-24.884-123.892v-62.14c-37.863,14.637-64.487,49.337-64.487,89.82
	C151.348,398.905,190.165,439.358,240.718,446.233z"/>
<path style="fill:#7CC5E6;" d="M160.484,389.811c16.365,33.868,52.975,57.456,95.517,57.456s79.152-23.588,95.517-57.456H160.484z"
	/>
<path style="opacity:0.1;enable-background:new    ;" d="M240.718,446.232c-21.628-14.199-30.442-35.139-32.859-56.421h-47.375
	C174.852,419.546,204.827,441.351,240.718,446.232z"/>
<path style="fill:#EDA751;" d="M192.313,181.398c20.478-17.183,34.151-46.029,5.266-88.671
	c-29.113-42.979-72.457-53.752-106.296-49.766c-8.343,0.983-15.343,6.857-17.759,14.902c-9.802,32.633-6.719,77.189,30.551,113.323
	C141.053,207.037,171.835,198.581,192.313,181.398z"/>
<path style="fill:#FF91AB;" d="M72.162,62.857c-8.036,32.085-3.492,74.004,31.913,108.33c32.052,31.074,59.442,28.854,79.509,16.523
	C169.783,94.023,109.496,69.179,72.162,62.857z"/>
<path style="fill:#EDA751;" d="M319.689,181.398c-20.478-17.183-34.151-46.029-5.266-88.671
	c29.113-42.979,72.457-53.752,106.296-49.765c8.343,0.983,15.343,6.857,17.759,14.902c9.802,32.633,6.719,77.189-30.551,113.323
	C370.949,207.037,340.167,198.581,319.689,181.398z"/>
<path style="fill:#FF91AB;" d="M439.84,62.857c8.036,32.085,3.492,74.004-31.913,108.33c-32.052,31.074-59.442,28.854-79.509,16.523
	C342.219,94.023,402.506,69.179,439.84,62.857z"/>
<path style="fill:#7694E4;" d="M434.171,207.333c0,81.464-79.769,117.145-178.17,117.145s-178.17-35.68-178.17-117.145
	S157.6,59.829,256.001,59.829S434.171,125.869,434.171,207.333z"/>
<g>
	<path style="fill:#F5D141;" d="M88.705,156.479c-7.033,15.853-10.874,32.982-10.874,50.854c0,19.208,4.439,35.868,12.507,50.118
		c14.88-7.214,25.563-26.921,25.563-50.118C115.901,183.295,104.431,163.002,88.705,156.479z"/>
	<path style="fill:#F5D141;" d="M423.297,156.479c7.033,15.853,10.874,32.982,10.874,50.854c0,19.208-4.439,35.868-12.507,50.118
		c-14.88-7.214-25.563-26.921-25.563-50.118C396.101,183.295,407.571,163.002,423.297,156.479z"/>
</g>
<path style="opacity:0.1;enable-background:new    ;" d="M160.867,82.603c-49.899,26.14-83.036,72.229-83.036,124.73
	c0,70.029,58.947,106.225,138.004,115.007C102.351,254.553,117.152,163.374,160.867,82.603z"/>
<g>
	<ellipse style="fill:#FF91AB;" cx="168.571" cy="210.771" rx="32.26" ry="25.69"/>
	<ellipse style="fill:#FF91AB;" cx="343.431" cy="210.771" rx="32.26" ry="25.69"/>
</g>
<g>
	<path style="fill:#FFDC9C;" d="M161.069,174.645c-2.752,15.082,7.731,29.516,23.191,31.357
		c13.247,1.577,25.853-7.138,29.057-20.088c3.739-15.114-6.062-30.019-21.145-32.772l-19.182-3.5
		c-3.866-0.706-7.576,1.846-8.301,5.708L161.069,174.645z"/>
	<path style="fill:#FFDC9C;" d="M350.932,174.645c2.752,15.082-7.731,29.516-23.191,31.357
		c-13.247,1.577-25.853-7.138-29.057-20.088c-3.739-15.114,6.062-30.019,21.145-32.772l19.182-3.5
		c3.866-0.706,7.576,1.846,8.301,5.708L350.932,174.645z"/>
</g>
<g>
	<path style="fill:#495059;" d="M187.373,192.641c-4.142,0-7.5-3.357-7.5-7.5v-11.392c0-4.143,3.358-7.5,7.5-7.5s7.5,3.357,7.5,7.5
		v11.392C194.873,189.283,191.515,192.641,187.373,192.641z"/>
	<path style="fill:#495059;" d="M324.629,192.641c-4.143,0-7.5-3.357-7.5-7.5v-11.392c0-4.143,3.357-7.5,7.5-7.5s7.5,3.357,7.5,7.5
		v11.392C332.129,189.283,328.772,192.641,324.629,192.641z"/>
</g>
<path style="fill:#FF91AB;" d="M228.948,216.821c0,14.941,12.112,21.001,27.053,21.001c14.941,0,27.053-6.06,27.053-21.001
	c0-14.941-12.112-27.053-27.053-27.053C241.06,189.768,228.948,201.88,228.948,216.821z"/>
<g>
	<path style="fill:#495059;" d="M123.082,215.274c-3.361,0-6.418-2.275-7.27-5.684c-1.004-4.019,1.439-8.09,5.458-9.095
		c8.91-2.227,30.14-3.812,40.48-2.446c4.107,0.543,6.995,4.312,6.453,8.418c-0.543,4.107-4.313,6.996-8.418,6.453
		c-8.16-1.078-27.754,0.347-34.878,2.128C124.297,215.201,123.685,215.274,123.082,215.274z"/>
	<path style="fill:#495059;" d="M133.358,253.499c-2.3,0-4.569-1.055-6.04-3.047c-2.46-3.332-1.752-8.028,1.58-10.488
		c7.387-5.453,26.411-15.009,36.495-17.686c4.002-1.061,8.111,1.321,9.174,5.324c1.063,4.004-1.321,8.11-5.324,9.174
		c-7.958,2.113-25.531,10.897-31.436,15.257C136.466,253.022,134.905,253.499,133.358,253.499z"/>
	<path style="fill:#495059;" d="M388.919,215.274c-0.603,0-1.214-0.073-1.824-0.225c-7.122-1.78-26.716-3.204-34.878-2.128
		c-4.091,0.539-7.875-2.346-8.418-6.453c-0.543-4.106,2.347-7.875,6.453-8.418c10.338-1.365,31.571,0.22,40.48,2.446
		c4.018,1.005,6.462,5.076,5.458,9.095C395.338,212.999,392.279,215.274,388.919,215.274z"/>
	<path style="fill:#495059;" d="M378.644,253.499c-1.548,0-3.108-0.478-4.448-1.467c-5.905-4.359-23.477-13.144-31.436-15.257
		c-4.003-1.064-6.387-5.17-5.324-9.174c1.063-4.005,5.168-6.388,9.174-5.324c10.084,2.678,29.108,12.234,36.494,17.686
		c3.333,2.46,4.04,7.156,1.58,10.488C383.213,252.444,380.943,253.499,378.644,253.499z"/>
</g>
<g>
	<path style="fill:#FFFFFF;" d="M187.421,213.691c-1.339,0-2.69-0.079-4.048-0.241c-9.513-1.133-17.874-5.986-23.544-13.667
		c-5.591-7.573-7.828-17.227-6.139-26.484l0.006-0.036l3.62-19.295c1.482-7.896,9.118-13.145,17.02-11.703l19.181,3.5
		c9.258,1.689,17.499,7.192,22.609,15.099c5.183,8.017,6.77,17.554,4.47,26.853C216.793,203.093,202.93,213.691,187.421,213.691z
		 M168.445,176.005c-0.958,5.273,0.268,10.554,3.453,14.869c3.185,4.314,7.89,7.043,13.249,7.681
		c9.435,1.116,18.608-5.221,20.889-14.441c1.296-5.238,0.406-10.604-2.505-15.108c-2.915-4.508-7.427-7.521-12.705-8.485
		l-18.831-3.436L168.445,176.005z"/>
	<path style="fill:#FFFFFF;" d="M324.58,213.691c-15.51,0-29.371-10.597-33.176-25.975c-2.301-9.301-0.713-18.837,4.47-26.854
		c5.11-7.905,13.352-13.408,22.608-15.098l19.182-3.5c7.91-1.445,15.539,3.807,17.02,11.703l3.627,19.332
		c1.689,9.258-0.548,18.911-6.139,26.484c-5.67,7.68-14.031,12.533-23.544,13.666C327.272,213.611,325.918,213.691,324.58,213.691z
		 M340.007,157.084l-18.831,3.436c-5.278,0.964-9.79,3.977-12.705,8.485c-2.911,4.504-3.801,9.87-2.506,15.108
		c2.281,9.221,11.462,15.554,20.89,14.441c5.358-0.638,10.064-3.365,13.249-7.681c3.185-4.314,4.411-9.594,3.454-14.866
		L340.007,157.084z"/>
	<path style="fill:#FFFFFF;" d="M256.001,245.321c-21.313,0-34.553-10.921-34.553-28.501c0-19.053,15.501-34.553,34.553-34.553
		c19.053,0,34.553,15.5,34.553,34.553C290.554,234.4,277.314,245.321,256.001,245.321z M256.001,197.268
		c-10.782,0-19.553,8.771-19.553,19.553c0,8.959,6.579,13.501,19.553,13.501c12.975,0,19.553-4.542,19.553-13.501
		C275.554,206.039,266.782,197.268,256.001,197.268z"/>
</g>
<g>
	<path style="fill:#495059;" d="M256.001,166.715c-4.142,0-7.5-3.357-7.5-7.5v-8.477c0-4.143,3.358-7.5,7.5-7.5
		c4.143,0,7.5,3.357,7.5,7.5v8.477C263.501,163.357,260.144,166.715,256.001,166.715z"/>
	<path style="fill:#495059;" d="M256.001,132.628c-4.142,0-7.5-3.357-7.5-7.5v-8.477c0-4.143,3.358-7.5,7.5-7.5
		c4.143,0,7.5,3.357,7.5,7.5v8.477C263.501,129.271,260.144,132.628,256.001,132.628z"/>
	<path style="fill:#495059;" d="M256.001,98.541c-4.142,0-7.5-3.357-7.5-7.5v-8.476c0-4.143,3.358-7.5,7.5-7.5
		c4.143,0,7.5,3.357,7.5,7.5v8.476C263.501,95.184,260.144,98.541,256.001,98.541z"/>
	<path style="fill:#495059;" d="M164.313,405.503h183.376c5.087,0,9.823-2.745,12.213-7.235c2.342-4.4,4.374-8.969,6.069-13.682
		c1.834-5.098-2.011-10.465-7.428-10.465H153.46c-5.418,0-9.262,5.368-7.428,10.465c1.695,4.712,3.727,9.281,6.069,13.682
		C154.49,402.758,159.226,405.503,164.313,405.503z"/>
</g>
<ellipse style="fill:#B77866;" cx="256.001" cy="389.811" rx="51.39" ry="38.11"/>
<ellipse style="opacity:0.1;enable-background:new    ;" cx="256.001" cy="389.811" rx="26.533" ry="14.26"/>
<g>
	<path style="fill:#78CFC0;" d="M476.551,181.249c-1.941,0-3.882-0.749-5.35-2.244c-2.903-2.954-2.861-7.703,0.094-10.605
		l17.579-17.27c2.954-2.902,7.704-2.862,10.605,0.094c2.903,2.954,2.861,7.703-0.094,10.605L481.806,179.1
		C480.347,180.533,478.448,181.249,476.551,181.249z"/>
	<path style="fill:#78CFC0;" d="M343.424,40.235c-1.284,0-2.585-0.33-3.775-1.023c-3.577-2.089-4.784-6.682-2.696-10.259
		l11.601-19.871c2.089-3.576,6.681-4.782,10.259-2.696c3.577,2.089,4.784,6.682,2.695,10.259l-11.6,19.871
		C348.514,38.903,346.003,40.235,343.424,40.235z"/>
	<path style="fill:#78CFC0;" d="M35.45,181.249c-1.897,0-3.795-0.715-5.256-2.15l-17.578-17.271
		c-2.955-2.902-2.997-7.651-0.094-10.605c2.904-2.956,7.652-2.998,10.606-0.094l17.578,17.27c2.954,2.902,2.996,7.651,0.094,10.605
		C39.333,180.5,37.392,181.249,35.45,181.249z"/>
	<path style="fill:#78CFC0;" d="M168.578,40.235c-2.579,0-5.089-1.331-6.484-3.72l-11.601-19.871
		c-2.088-3.577-0.881-8.17,2.696-10.258c3.575-2.088,8.17-0.883,10.258,2.695l11.601,19.871c2.088,3.577,0.881,8.17-2.696,10.258
		C171.164,39.905,169.862,40.235,168.578,40.235z"/>
</g>
<g>
</g>
<g>
</g>
<g>
</g>
<g>
</g>
<g>
</g>
<g>
</g>
<g>
</g>
<g>
</g>
<g>
</g>
<g>
</g>
<g>
</g>
<g>
</g>
<g>
</g>
<g>
</g>
<g>
</g>
</svg>
