<?xml version="1.0" encoding="iso-8859-1"?>
<!-- Generator: Adobe Illustrator 19.0.0, SVG Export Plug-In . SVG Version: 6.00 Build 0)  -->
<svg version="1.1" id="Capa_1" xmlns="http://www.w3.org/2000/svg" xmlns:xlink="http://www.w3.org/1999/xlink" x="0px" y="0px"
	 viewBox="0 0 512 512" style="enable-background:new 0 0 512 512;" xml:space="preserve">
<path style="fill:#495059;" d="M208.165,106.406c-3.497,0-6.626-2.459-7.344-6.018l-11.463-56.809
	c-0.819-4.06,1.808-8.016,5.868-8.835c4.067-0.817,8.017,1.81,8.835,5.869l11.463,56.809c0.819,4.06-1.808,8.016-5.868,8.835
	C209.155,106.357,208.656,106.406,208.165,106.406z"/>
<circle style="fill:#7CC5E6;" cx="193.881" cy="28.09" r="28.09"/>
<path style="opacity:0.1;enable-background:new    ;" d="M209.839,45.228c-15.206,3.068-30.02-6.771-33.089-21.977
	c-1.404-6.956-0.1-13.826,3.177-19.531c-10.214,5.847-16.031,17.76-13.575,29.929c3.068,15.206,17.882,25.046,33.089,21.977
	c8.25-1.665,14.914-6.791,18.8-13.557C215.693,43.528,212.875,44.615,209.839,45.228z"/>
<path style="fill:#EDA751;" d="M111.172,477.321c-1.911,0-3.852-0.419-5.688-1.306c-6.52-3.146-9.256-10.983-6.109-17.504
	c10.496-21.753,32.792-34.373,68.165-38.582c19.867-2.364,26.931-12.413,40.662-38.416c3.381-6.402,11.311-8.855,17.714-5.471
	c6.402,3.381,8.852,11.312,5.471,17.714c-15.311,28.992-27.81,48.289-60.751,52.208c-25.769,3.066-41.355,10.897-47.648,23.94
	C120.728,474.59,116.046,477.321,111.172,477.321z"/>
<path style="fill:#FCD79D;" d="M129.801,460.787c-6.211-7.099-14.847-12.168-21.755-15.329c-3.472,3.914-6.359,8.262-8.671,13.054
	c-3.146,6.521-0.411,14.358,6.109,17.504c1.836,0.886,3.777,1.306,5.688,1.306c4.874,0,9.556-2.731,11.816-7.416
	C124.624,466.516,126.894,463.481,129.801,460.787z"/>
<path style="opacity:0.2;fill:#A35F00;enable-background:new    ;" d="M231.387,393.758c3.381-6.402,0.931-14.333-5.471-17.714
	c-6.403-3.384-14.333-0.931-17.714,5.471c-13.731,26.003-20.795,36.052-40.662,38.416c-0.643,0.076-1.272,0.162-1.906,0.244
	c5.587,7.079,12.089,13.521,19.43,19.117c1.087,0.828,2.196,1.627,3.313,2.415C208.764,433.789,219.189,416.855,231.387,393.758z"/>
<g>
	<path style="fill:#EDA751;" d="M240.509,512c-11.585,0-20.975-9.391-20.975-20.975v-69.918c0-11.585,9.391-20.975,20.975-20.975
		c11.585,0,20.975,9.391,20.975,20.975v69.918C261.484,502.609,252.094,512,240.509,512z"/>
	<path style="fill:#EDA751;" d="M340.666,492.585c-9.637,1.665-19.43-3.619-23.104-13.088l-25.298-65.18
		c-4.192-10.799,1.165-22.952,11.964-27.144c10.799-4.19,22.952,1.165,27.143,11.965l25.298,65.181
		c4.191,10.8-1.165,22.952-11.964,27.143C343.374,491.979,342.022,492.351,340.666,492.585z"/>
	<path style="fill:#EDA751;" d="M334.559,354.185c-0.86,0-1.708-0.013-2.552-0.04c-11.578-0.375-20.661-10.066-20.285-21.644
		c0.375-11.579,10.091-20.644,21.643-20.285c13.26,0.433,38.198-6.156,62.099-16.386c10.651-4.559,22.979,0.379,27.537,11.03
		c4.559,10.65-0.38,22.978-11.03,27.537C400.919,339.127,363.437,354.185,334.559,354.185z"/>
</g>
<path style="opacity:0.2;fill:#A35F00;enable-background:new    ;" d="M373.797,329.872c-1.639-8.123-4.262-15.973-7.748-23.422
	c-13.191,3.87-24.933,6.018-32.684,5.765c-11.552-0.358-21.268,8.707-21.643,20.285c-0.376,11.579,8.706,21.269,20.285,21.644
	c0.844,0.027,1.692,0.04,2.552,0.04c13.068,0,27.894-3.086,41.24-6.901C375.625,341.515,374.972,335.697,373.797,329.872z"/>
<path style="fill:#EDA751;" d="M113.222,395.003c-0.573,0-1.101-0.002-1.584-0.005c-11.583-0.072-20.917-9.521-20.845-21.105
	c0.072-11.54,9.449-20.845,20.972-20.845c0.045,0,0.088,0,0.133,0.001c26.004,0.16,51.555-3.447,63.596-8.977
	c10.526-4.836,22.979-0.222,27.816,10.305c4.835,10.527,0.221,22.981-10.306,27.816C167.511,393.902,127.31,395.003,113.222,395.003
	z"/>
<path style="opacity:0.2;fill:#A35F00;enable-background:new    ;" d="M203.31,354.377c-4.837-10.527-17.29-15.142-27.816-10.305
	c-7.051,3.238-18.739,5.816-32.435,7.365c-0.301,8.163,0.36,16.4,2.013,24.587c1.163,5.761,2.833,11.38,4.938,16.823
	c14.677-1.769,30.578-4.951,42.993-10.654C203.531,377.357,208.145,364.904,203.31,354.377z"/>
<path style="fill:#7694E4;" d="M72.468,427.179c-9.939,0-18.109-7.939-18.34-17.928c-0.236-10.133,7.789-18.539,17.922-18.774
	c3.789-0.088,7.317-1.646,9.935-4.388c2.617-2.741,4.01-6.337,3.922-10.125c-0.181-7.821-6.727-14.042-14.513-13.855
	c-10.186,0.245-18.54-7.789-18.774-17.923c-0.236-10.133,7.789-18.539,17.922-18.774c0.399-0.009,0.801-0.014,1.197-0.014
	c27.522,0,50.223,22.057,50.864,49.714c0.315,13.59-4.681,26.49-14.068,36.324c-9.388,9.833-22.043,15.422-35.632,15.737
	C72.757,427.177,72.612,427.179,72.468,427.179z"/>
<g>
	<path style="opacity:0.2;fill:#A35F00;enable-background:new    ;" d="M331.372,399.138c-4.191-10.8-16.344-16.154-27.143-11.965
		c-10.799,4.192-16.156,16.344-11.964,27.144l14.76,38.029c13.519-6.026,25.524-14.332,35.571-24.29L331.372,399.138z"/>
	<path style="opacity:0.2;fill:#A35F00;enable-background:new    ;" d="M256.592,463.065c1.628,0,3.26-0.042,4.893-0.108v-41.85
		c0-11.585-9.391-20.975-20.975-20.975c-11.585,0-20.975,9.391-20.975,20.975v36.105
		C231.382,461.044,243.912,463.065,256.592,463.065z"/>
</g>
<ellipse transform="matrix(-0.1978 -0.9802 0.9802 -0.1978 -35.2296 677.0422)" style="fill:#FCD690;" cx="259.418" cy="352.936" rx="89.896" ry="96.746"/>
<path style="opacity:0.15;fill:#C17A00;enable-background:new    ;" d="M263.178,442.926
	c-49.077-19.708-47.413-80.732-45.203-107.718l-11.362-56.309c-31.634,20.187-49.415,56.5-42.013,93.185
	C173.538,416.38,216.11,445.941,263.178,442.926z"/>
<path style="fill:#EDA751;" d="M170.889,211.79c15.415-19.315,22.53-47.955-11.441-81.314c-34.24-33.623-75.488-35.46-105.423-25.66
	c-7.38,2.416-12.649,9.019-13.368,16.751c-2.916,31.363,8.025,71.176,48.406,97.105C129.127,244.396,155.474,231.105,170.889,211.79
	z"/>
<path style="fill:#FF91AB;" d="M40.336,126.34c-1.415,30.544,10.367,67.7,48.727,92.331c34.726,22.298,59.141,15.278,75.07,0.435
	C134.496,136.733,75.323,125.243,40.336,126.34z"/>
<path style="fill:#EDA751;" d="M286.314,188.5c-21.699-11.827-39.363-35.466-20.985-79.389
	c18.523-44.269,55.831-61.957,87.224-64.532c7.74-0.635,15.157,3.408,18.818,10.256c14.849,27.779,20.203,68.719-6.964,108.277
	C337.453,202.36,308.013,200.326,286.314,188.5z"/>
<path style="fill:#FF91AB;" d="M373.517,59.111c13.149,27.605,16.696,66.422-9.111,104.001
	c-23.362,34.019-48.589,37.015-69.028,29.511C290.754,105.203,340.842,71.667,373.517,59.111z"/>
<path style="fill:#FFDC9C;" d="M394.797,191.069c14.896,73.821-50.865,120.739-140.034,138.732
	c-89.168,17.992-167.978,0.245-182.873-73.576c-14.896-73.821,45.314-148.25,134.483-166.243
	C295.541,71.989,379.902,117.248,394.797,191.069z"/>
<path style="opacity:0.15;fill:#C17A00;enable-background:new    ;" d="M124.329,128.014
	C83.892,160.825,62.29,208.649,71.89,256.225c12.805,63.459,72.84,85.48,146.085,78.983
	C102.744,294.531,99.484,209.2,124.329,128.014z"/>
<g>
	<path style="fill:#495059;" d="M112.986,255.85c-2.804,0-5.493-1.58-6.777-4.28c-1.779-3.74-0.189-8.215,3.551-9.995
		c7.709-3.667,26.765-9.016,36.44-9.672c4.133-0.282,7.71,2.843,7.99,6.976s-2.843,7.71-6.975,7.99
		c-7.542,0.511-24.923,5.355-31.013,8.252C115.163,255.616,114.066,255.85,112.986,255.85z"/>
	<path style="fill:#495059;" d="M129.271,288.61c-1.796,0-3.597-0.641-5.032-1.94c-3.07-2.78-3.306-7.523-0.525-10.593
		c5.728-6.328,21.309-18.534,30.006-22.828c3.716-1.835,8.211-0.31,10.045,3.405c1.834,3.714,0.31,8.211-3.404,10.045
		c-6.779,3.347-21.002,14.447-25.527,19.445C133.352,287.779,131.315,288.61,129.271,288.61z"/>
	<path style="fill:#495059;" d="M319.303,212.061c-3.115,0-6.025-1.956-7.093-5.068c-1.345-3.918,0.742-8.184,4.66-9.528
		c9.176-3.147,28.822-5.605,37.34-5.214c4.139,0.19,7.339,3.699,7.148,7.836c-0.189,4.138-3.693,7.341-7.836,7.148
		c-6.732-0.311-24.632,1.964-31.785,4.418C320.932,211.93,320.11,212.061,319.303,212.061z"/>
	<path style="fill:#495059;" d="M351.55,243.76c-1.063,0-2.142-0.227-3.168-0.706c-6.108-2.852-23.522-7.569-31.07-8.025
		c-4.134-0.25-7.283-3.805-7.033-7.939c0.251-4.134,3.8-7.278,7.939-7.034c9.683,0.585,28.777,5.796,36.51,9.406
		c3.753,1.752,5.375,6.216,3.623,9.969C357.077,242.158,354.373,243.76,351.55,243.76z"/>
</g>
<path style="fill:#7CC5E6;" d="M253.198,233.218l-34.444,6.95c-9.5,1.917-18.756-4.231-20.673-13.731l0,0
	c-1.917-9.5,4.231-18.756,13.731-20.673l34.444-6.95c9.5-1.917,18.756,4.231,20.673,13.731l0,0
	C268.846,222.046,262.699,231.301,253.198,233.218z"/>
<g style="opacity:0.1;">
	
		<rect x="226.432" y="209.668" transform="matrix(-0.1978 -0.9802 0.9802 -0.1978 79.3664 499.285)" width="35.099" height="14.998"/>
	
		<rect x="203.484" y="214.298" transform="matrix(-0.1978 -0.9802 0.9802 -0.1978 47.3399 482.3364)" width="35.099" height="14.999"/>
</g>
<g>
	<circle style="fill:#7694E4;" cx="293.311" cy="184.18" r="19.02"/>
	<circle style="fill:#7694E4;" cx="162.761" cy="210.52" r="19.02"/>
	<path style="fill:#7694E4;" d="M441.571,352.574c-20.31,0-39.539-12.24-47.417-32.253c-4.981-12.65-4.736-26.481,0.687-38.947
		c5.424-12.466,15.377-22.073,28.027-27.053c9.437-3.712,20.088,0.924,23.801,10.355c3.713,9.432-0.924,20.088-10.356,23.8
		c-3.526,1.388-6.301,4.066-7.813,7.542c-1.513,3.475-1.58,7.331-0.193,10.856c2.867,7.279,11.117,10.873,18.398,8.005
		c9.43-3.714,20.086,0.922,23.8,10.354s-0.923,20.088-10.355,23.801C454.054,351.436,447.762,352.574,441.571,352.574z"/>
</g>
<g>
</g>
<g>
</g>
<g>
</g>
<g>
</g>
<g>
</g>
<g>
</g>
<g>
</g>
<g>
</g>
<g>
</g>
<g>
</g>
<g>
</g>
<g>
</g>
<g>
</g>
<g>
</g>
<g>
</g>
</svg>
