<?xml version="1.0" encoding="iso-8859-1"?>
<!-- Generator: Adobe Illustrator 19.0.0, SVG Export Plug-In . SVG Version: 6.00 Build 0)  -->
<svg version="1.1" id="Capa_1" xmlns="http://www.w3.org/2000/svg" xmlns:xlink="http://www.w3.org/1999/xlink" x="0px" y="0px"
	 viewBox="0 0 512 512" style="enable-background:new 0 0 512 512;" xml:space="preserve">
<circle style="fill:#7CC5E6;" cx="488.199" cy="23.668" r="23.668"/>
<circle style="opacity:0.4;fill:#FFFFFF;enable-background:new    ;" cx="495.719" cy="16.15" r="7.518"/>
<circle style="fill:#7CC5E6;" cx="257.029" cy="54.941" r="54.941"/>
<circle style="opacity:0.4;fill:#FFFFFF;enable-background:new    ;" cx="243.059" cy="32.709" r="18.09"/>
<path style="fill:#EDA751;" d="M18.243,454.759c-4.759,0-9.389-2.466-11.946-6.88c-10.923-18.856-7.083-40.582,9.556-54.061
	c17.798-14.417,42.879-13.069,60.995,3.28c7.199,6.497,14.121,9.398,21.144,8.861c15.965-1.213,32.501-19.335,43.551-32.861
	c4.818-5.898,13.506-6.774,19.405-1.956c5.898,4.819,6.774,13.507,1.956,19.405c-15.467,18.933-36.585,40.92-62.822,42.913
	c-14.751,1.124-28.788-4.224-41.712-15.887c-9.784-8.829-19.664-6.769-25.154-2.323c-2.226,1.803-9.027,8.49-3.051,18.803
	c3.818,6.591,1.57,15.028-5.021,18.846C22.967,454.16,20.589,454.759,18.243,454.759z"/>
<path style="fill:#FCD79D;" d="M6.297,447.878c2.557,4.415,7.187,6.88,11.946,6.88c2.346,0,4.724-0.599,6.9-1.86
	c6.591-3.818,8.839-12.256,5.021-18.846c-1.634-2.82-2.308-5.367-2.386-7.62c-12.103-0.935-21.307,3.187-26.826,7.462
	C1.896,438.619,3.663,443.332,6.297,447.878z"/>
<g>
	<path style="fill:#EDA751;" d="M93.61,370.409c-28.382,0-65.345-9.608-87.762-39.514c-7.309-9.751-5.329-23.581,4.422-30.891
		c9.752-7.308,23.581-5.328,30.89,4.422c16.217,21.636,50.655,24.089,65.489,20.592c11.863-2.792,23.743,4.554,26.539,16.415
		c2.795,11.861-4.554,23.743-16.416,26.539C110.327,369.491,102.375,370.409,93.61,370.409z"/>
	<path style="fill:#EDA751;" d="M240.922,512c-1.214,0-2.442-0.1-3.679-0.308c-12.019-2.018-20.126-13.396-18.109-25.414
		c4.817-28.696,1.293-43.871-2.437-59.938c-0.401-1.729-0.798-3.438-1.179-5.136c-2.665-11.892,4.814-23.692,16.706-26.357
		c11.889-2.664,23.691,4.815,26.357,16.706c0.356,1.59,0.727,3.189,1.103,4.807c4.12,17.746,9.247,39.831,2.971,77.223
		C260.847,504.366,251.503,512,240.922,512z"/>
	<path style="fill:#EDA751;" d="M164.729,512c-1.214,0-2.442-0.1-3.679-0.308c-12.019-2.018-20.126-13.396-18.109-25.414
		c4.817-28.696,1.294-43.871-2.437-59.938c-0.401-1.729-0.798-3.438-1.179-5.136c-2.665-11.892,4.814-23.692,16.706-26.357
		c11.89-2.664,23.691,4.815,26.357,16.706c0.356,1.59,0.727,3.189,1.103,4.807c4.12,17.746,9.247,39.831,2.971,77.223
		C184.654,504.366,175.31,512,164.729,512z"/>
	<path style="fill:#EDA751;" d="M311.08,374.282c-12.86,0-26.109-2.422-39.273-7.939c-11.24-4.709-16.533-17.639-11.823-28.879
		c4.709-11.24,17.641-16.533,28.878-11.823c20.237,8.479,51.101,5.792,74.433-19.331c8.293-8.93,22.255-9.445,31.184-1.152
		c8.93,8.293,9.445,22.255,1.152,31.184C375.899,357.589,344.835,374.282,311.08,374.282z"/>
</g>
<g>
	<path style="opacity:0.2;fill:#A35F00;enable-background:new    ;" d="M160.947,371.142c-5.899-4.818-14.587-3.942-19.405,1.956
		c-11.049,13.525-27.586,31.647-43.551,32.861c-2.215,0.169-4.419-0.005-6.625-0.524c5.084,9.55,11.542,18.345,19.134,26.149
		c21.456-6.054,39.04-24.679,52.402-41.036C167.72,384.649,166.845,375.96,160.947,371.142z"/>
	<path style="opacity:0.2;fill:#A35F00;enable-background:new    ;" d="M319.208,329.505c-11.111,1.333-21.699-0.241-30.346-3.863
		c-11.237-4.71-24.169,0.583-28.878,11.823c-4.71,11.24,0.583,24.169,11.823,28.878c13.164,5.517,26.413,7.939,39.273,7.939
		c3.1,0,6.177-0.143,9.225-0.416c1.168-6.361,1.784-12.897,1.784-19.567C322.089,345.788,321.089,337.493,319.208,329.505z"/>
	<path style="opacity:0.2;fill:#A35F00;enable-background:new    ;" d="M265.313,451.142c-0.828-14.081-3.376-25.083-5.628-34.782
		c-0.376-1.618-0.747-3.217-1.103-4.807c-2.666-11.891-14.468-19.37-26.357-16.706c-11.892,2.665-19.371,14.465-16.706,26.357
		c0.381,1.699,0.777,3.407,1.179,5.136c2.803,12.072,5.488,23.642,4.607,40.82C237.247,464.545,252.132,459.001,265.313,451.142z"/>
	<path style="opacity:0.2;fill:#A35F00;enable-background:new    ;" d="M182.389,411.554c-2.665-11.891-14.466-19.37-26.357-16.706
		c-11.892,2.665-19.371,14.465-16.706,26.357c0.381,1.699,0.777,3.407,1.179,5.136c2.178,9.381,4.283,18.464,4.701,30.107
		c13.432,6.441,28.297,10.599,44.013,11.941c1.035-22.898-2.63-38.69-5.726-52.029C183.116,414.742,182.745,413.144,182.389,411.554
		z"/>
	<path style="opacity:0.2;fill:#A35F00;enable-background:new    ;" d="M106.65,325.018c-5.82,1.372-14.661,1.82-24.232,0.561
		c-2.528,9.182-3.875,18.806-3.875,28.721c0,5.204,0.378,10.327,1.096,15.349c4.81,0.519,9.497,0.76,13.971,0.76
		c8.765,0,16.718-0.917,23.163-2.437c11.862-2.796,19.211-14.678,16.416-26.539C130.393,329.572,118.512,322.225,106.65,325.018z"/>
</g>
<ellipse style="fill:#FCD690;" cx="200.319" cy="354.3" rx="101.77" ry="94.57"/>
<path style="opacity:0.15;fill:#C17A00;enable-background:new    ;" d="M185.454,447.863
	c-46.507-30.534-32.094-93.115-24.199-120.483v-60.429c-36.821,14.234-62.712,47.98-62.712,87.349
	C98.542,401.838,136.291,441.178,185.454,447.863z"/>
<path style="fill:#EDA751;" d="M138.38,190.316c19.915-16.71,33.211-44.762,5.121-86.231C115.19,62.289,73.038,51.812,40.13,55.689
	c-8.113,0.956-14.92,6.668-17.271,14.492c-9.532,31.735-6.534,75.065,29.71,110.205C88.531,215.25,118.466,207.026,138.38,190.316z"
	/>
<path style="fill:#FF91AB;" d="M21.535,75.037c-7.815,31.202-3.396,71.968,31.035,105.349c31.17,30.219,57.806,28.06,77.321,16.068
	C116.47,105.345,57.842,81.185,21.535,75.037z"/>
<path style="fill:#EDA751;" d="M262.251,190.316c-19.915-16.71-33.211-44.762-5.121-86.231
	c28.312-41.796,70.464-52.273,103.372-48.396c8.113,0.956,14.92,6.668,17.271,14.492c9.532,31.735,6.534,75.065-29.711,110.205
	C312.101,215.25,282.166,207.026,262.251,190.316z"/>
<path style="fill:#FF91AB;" d="M379.096,75.037c7.815,31.202,3.396,71.968-31.035,105.349c-31.17,30.219-57.806,28.06-77.321,16.068
	C284.162,105.345,342.789,81.185,379.096,75.037z"/>
<path style="fill:#FFDC9C;" d="M373.583,215.537c0,79.223-77.574,113.921-173.267,113.921S27.048,294.76,27.048,215.537
	S104.622,72.092,200.315,72.092S373.583,136.315,373.583,215.537z"/>
<path style="opacity:0.15;fill:#C17A00;enable-background:new    ;" d="M107.799,94.239C59.274,119.66,27.048,164.48,27.048,215.538
	c0,68.102,57.325,103.302,134.207,111.843C50.894,261.459,65.287,172.788,107.799,94.239z"/>
<g>
	<ellipse style="fill:#FF91AB;" cx="145.959" cy="218.88" rx="31.372" ry="24.983"/>
	<ellipse style="fill:#FF91AB;" cx="316.009" cy="218.88" rx="31.372" ry="24.983"/>
</g>
<g>
	<path style="fill:#495059;" d="M164.245,201.456c-4.142,0-7.5-3.358-7.5-7.5v-11.078c0-4.142,3.358-7.5,7.5-7.5s7.5,3.358,7.5,7.5
		v11.078C171.745,198.098,168.387,201.456,164.245,201.456z"/>
	<path style="fill:#495059;" d="M297.725,201.456c-4.142,0-7.5-3.358-7.5-7.5v-11.078c0-4.142,3.358-7.5,7.5-7.5s7.5,3.358,7.5,7.5
		v11.078C305.225,198.098,301.867,201.456,297.725,201.456z"/>
	<path style="fill:#495059;" d="M101.724,223.467c-3.36,0-6.419-2.275-7.27-5.683c-1.005-4.019,1.438-8.09,5.457-9.095
		c8.68-2.169,29.367-3.713,39.444-2.384c4.106,0.543,6.996,4.311,6.453,8.418s-4.312,6.998-8.418,6.453
		c-7.918-1.047-26.931,0.338-33.841,2.065C102.938,223.394,102.326,223.467,101.724,223.467z"/>
	<path style="fill:#495059;" d="M111.717,260.639c-2.3,0-4.569-1.054-6.04-3.046c-2.46-3.333-1.752-8.029,1.581-10.488
		c7.198-5.313,25.735-14.624,35.56-17.233c3.999-1.063,8.111,1.32,9.173,5.324c1.064,4.003-1.32,8.11-5.324,9.173
		c-7.72,2.05-24.77,10.574-30.502,14.804C114.825,260.162,113.264,260.639,111.717,260.639z"/>
	<path style="fill:#495059;" d="M360.246,223.467c-0.603,0-1.214-0.073-1.825-0.226c-6.911-1.727-25.923-3.112-33.841-2.065
		c-4.107,0.546-7.875-2.347-8.418-6.453s2.347-7.875,6.453-8.418c10.076-1.329,30.764,0.215,39.444,2.384
		c4.019,1.005,6.462,5.077,5.457,9.095C366.664,221.192,363.606,223.467,360.246,223.467z"/>
	<path style="fill:#495059;" d="M350.253,260.639c-1.547,0-3.108-0.477-4.448-1.466c-5.731-4.23-22.782-12.754-30.502-14.804
		c-4.003-1.063-6.387-5.17-5.324-9.173s5.169-6.386,9.173-5.324c9.825,2.609,28.361,11.92,35.56,17.233
		c3.333,2.459,4.041,7.155,1.581,10.488C354.823,259.585,352.553,260.639,350.253,260.639z"/>
</g>
<path style="fill:#B77866;" d="M405.084,280.112h-26.723v43.421c0,7.38,5.982,13.362,13.362,13.362l0,0
	c7.38,0,13.362-5.982,13.362-13.362v-43.421H405.084z"/>
<circle style="fill:#7CC5E6;" cx="391.719" cy="255.56" r="31.482"/>
<path style="fill:#7694E4;" d="M391.722,294.542c-21.495,0-38.982-17.487-38.982-38.982s17.487-38.982,38.982-38.982
	s38.982,17.487,38.982,38.982C430.704,277.054,413.217,294.542,391.722,294.542z M391.722,231.578
	c-13.224,0-23.982,10.758-23.982,23.982s10.758,23.982,23.982,23.982s23.982-10.758,23.982-23.982S404.946,231.578,391.722,231.578z
	"/>
<circle style="fill:#7CC5E6;" cx="464.529" cy="182.88" r="41.2"/>
<circle style="opacity:0.4;fill:#FFFFFF;enable-background:new    ;" cx="477.039" cy="168.4" r="13.596"/>
<circle style="fill:#7CC5E6;" cx="402.119" cy="81.34" r="54.941"/>
<circle style="opacity:0.4;fill:#FFFFFF;enable-background:new    ;" cx="416.559" cy="63.12" r="18.09"/>
<ellipse style="fill:#FF91AB;" cx="230.989" cy="202.46" rx="14.05" ry="18.999"/>
<g>
</g>
<g>
</g>
<g>
</g>
<g>
</g>
<g>
</g>
<g>
</g>
<g>
</g>
<g>
</g>
<g>
</g>
<g>
</g>
<g>
</g>
<g>
</g>
<g>
</g>
<g>
</g>
<g>
</g>
</svg>
