<?xml version="1.0" encoding="iso-8859-1"?>
<!-- Generator: Adobe Illustrator 19.0.0, SVG Export Plug-In . SVG Version: 6.00 Build 0)  -->
<svg version="1.1" id="Capa_1" xmlns="http://www.w3.org/2000/svg" xmlns:xlink="http://www.w3.org/1999/xlink" x="0px" y="0px"
	 viewBox="0 0 512.001 512.001" style="enable-background:new 0 0 512.001 512.001;" xml:space="preserve">
<g>
	<path style="fill:#EDA751;" d="M58.923,452.375c-5.986,0-11.682-3.499-14.198-9.346c-3.372-7.838,0.248-16.925,8.085-20.297
		c9.202-3.959,18.625-7.936,27.736-11.781c44.763-18.892,91.05-38.426,111.353-56.355c6.396-5.645,16.158-5.039,21.806,1.354
		c5.648,6.396,5.041,16.158-1.354,21.807c-24.088,21.271-70.575,40.89-119.791,61.66c-9.063,3.825-18.435,7.78-27.538,11.698
		C63.031,451.97,60.96,452.375,58.923,452.375z"/>
	<path style="fill:#EDA751;" d="M208.326,512.001c-13.054,0-23.965-10.225-24.662-23.414c-2.404-45.492,1.161-77.556,10.596-95.302
		c6.408-12.055,21.375-16.63,33.429-10.221s16.629,21.376,10.22,33.428c-2.888,5.435-7.167,26.183-4.878,69.485
		c0.721,13.632-9.747,25.267-23.379,25.988C209.208,511.989,208.765,512.001,208.326,512.001z"/>
	<path style="fill:#EDA751;" d="M303.674,512.001c-0.441,0-0.882-0.012-1.327-0.036c-13.632-0.72-24.1-12.355-23.378-25.988
		c2.288-43.301-1.99-64.051-4.88-69.484c-6.409-12.054-1.833-27.02,10.22-33.429c12.055-6.405,27.021-1.833,33.43,10.22
		c9.436,17.747,13.001,49.811,10.596,95.303C327.638,501.775,316.727,512.001,303.674,512.001z"/>
	<path style="fill:#EDA751;" d="M75.584,374.306c-8.828,0-17.367-4.74-21.82-13.069c-6.436-12.039-1.894-27.016,10.144-33.453
		c38.587-20.629,75.431-27.081,99.788-30.139c13.539-1.704,25.904,7.899,27.605,21.445c1.701,13.545-7.9,25.904-21.446,27.605
		c-20.459,2.569-51.285,7.923-82.639,24.686C83.506,373.365,79.515,374.306,75.584,374.306z"/>
	<path style="fill:#EDA751;" d="M436.415,374.306c-3.932,0-7.922-0.94-11.632-2.924c-31.352-16.763-62.179-22.117-82.638-24.686
		c-13.544-1.701-23.147-14.06-21.445-27.605c1.701-13.544,14.05-23.142,27.605-21.445c24.357,3.058,61.202,9.511,99.787,30.139
		c12.039,6.437,16.581,21.413,10.144,33.453C453.783,369.565,445.243,374.306,436.415,374.306z"/>
</g>
<g>
	<path style="opacity:0.2;fill:#A35F00;enable-background:new    ;" d="M163.696,297.645c-10.497,1.318-23.318,3.271-37.594,6.712
		c-2.68,9.917-4.109,20.298-4.109,30.988c0,7.113,0.641,14.088,1.853,20.883c17.658-5.433,33.709-7.988,46.01-9.533
		c13.545-1.701,23.146-14.06,21.446-27.605C189.6,305.545,177.235,295.941,163.696,297.645z"/>
	<path style="opacity:0.2;fill:#A35F00;enable-background:new    ;" d="M191.899,354.596c-12.035,10.627-33.2,21.819-57.765,33.106
		c4.583,9.384,10.358,18.148,17.142,26.126c25.37-11.833,47.032-23.671,61.075-36.072c6.396-5.648,7.002-15.411,1.354-21.807
		C208.057,349.557,198.295,348.951,191.899,354.596z"/>
	<path style="opacity:0.2;fill:#A35F00;enable-background:new    ;" d="M227.689,383.063c-12.054-6.409-27.021-1.833-33.429,10.221
		c-5.73,10.778-9.291,26.847-10.669,47.988c14.585,8.836,31.101,15.087,48.812,18.056c0.259-25.468,3.29-38.668,5.506-42.837
		C244.318,404.439,239.743,389.472,227.689,383.063z"/>
	<path style="opacity:0.2;fill:#A35F00;enable-background:new    ;" d="M317.74,393.284c-6.409-12.054-21.375-16.625-33.43-10.22
		c-12.054,6.41-16.629,21.376-10.22,33.43c2.217,4.169,5.248,17.368,5.507,42.836c17.711-2.969,34.227-9.22,48.812-18.056
		C327.031,420.132,323.47,404.062,317.74,393.284z"/>
	<path style="opacity:0.2;fill:#A35F00;enable-background:new    ;" d="M320.701,319.09c-1.702,13.545,7.9,25.904,21.445,27.605
		c12.301,1.545,28.353,4.101,46.011,9.533c1.212-6.795,1.852-13.769,1.852-20.883c0-10.69-1.429-21.071-4.109-30.988
		c-14.276-3.442-27.096-5.394-37.594-6.712C334.75,295.948,322.4,305.546,320.701,319.09z"/>
</g>
<ellipse style="fill:#FCD690;" cx="256" cy="335.351" rx="114.01" ry="105.94"/>
<path style="opacity:0.15;fill:#C17A00;enable-background:new    ;" d="M239.351,440.157
	c-52.098-34.205-35.952-104.309-27.108-134.967v-67.693c-41.247,15.945-70.251,53.747-70.251,97.849
	C141.992,388.599,184.279,432.668,239.351,440.157z"/>
<path style="fill:#EDA751;" d="M186.619,151.649c22.309-18.719,37.204-50.143,5.737-96.597
	C160.641,8.232,113.422-3.504,76.558,0.839C67.47,1.91,59.844,8.308,57.212,17.073c-10.678,35.55-7.32,84.089,33.282,123.453
	C130.777,179.58,164.311,170.369,186.619,151.649z"/>
<path style="fill:#FF91AB;" d="M55.728,22.512c-8.754,34.953-3.804,80.619,34.766,118.013c34.917,33.852,64.755,31.433,86.616,18
	C162.075,56.465,96.399,29.4,55.728,22.512z"/>
<path style="fill:#EDA751;" d="M325.38,151.649c-22.309-18.719-37.204-50.143-5.737-96.597
	c31.715-46.82,78.934-58.557,115.798-54.214c9.088,1.071,16.714,7.469,19.347,16.234c10.678,35.55,7.32,84.089-33.282,123.453
	C381.223,179.58,347.689,170.369,325.38,151.649z"/>
<path style="fill:#FF91AB;" d="M456.272,22.512c8.754,34.953,3.804,80.619-34.766,118.013c-34.917,33.852-64.755,31.433-86.616,18
	C349.925,56.465,415.6,29.4,456.272,22.512z"/>
<path style="fill:#FFDC9C;" d="M450.096,179.903c0,88.746-86.9,127.616-194.096,127.616S61.904,268.649,61.904,179.903
	S148.803,19.214,256,19.214C363.197,19.214,450.096,91.157,450.096,179.903z"/>
<path style="opacity:0.15;fill:#C17A00;enable-background:new    ;" d="M152.362,44.023
	c-54.359,28.476-90.458,78.685-90.458,135.879c0,76.289,64.216,115.721,150.34,125.288
	C88.616,231.344,104.739,132.014,152.362,44.023z"/>
<g>
	<ellipse style="fill:#FF91AB;" cx="160.75" cy="183.651" rx="35.14" ry="27.986"/>
	<ellipse style="fill:#FF91AB;" cx="351.24" cy="183.651" rx="35.14" ry="27.986"/>
</g>
<g>
	<path style="fill:#495059;" d="M111.201,187.884c-3.36,0-6.419-2.275-7.27-5.684c-1.005-4.018,1.438-8.09,5.457-9.095
		c9.652-2.412,32.649-4.129,43.849-2.65c4.106,0.543,6.995,4.311,6.453,8.418c-0.543,4.107-4.309,6.999-8.418,6.453
		c-9.133-1.207-30.26,0.336-38.246,2.332C112.415,187.811,111.803,187.884,111.201,187.884z"/>
	<path style="fill:#495059;" d="M122.394,229.524c-2.3,0-4.569-1.054-6.039-3.046c-2.461-3.332-1.753-8.028,1.579-10.488
		c8.002-5.907,28.61-16.259,39.531-19.159c4.004-1.061,8.11,1.32,9.174,5.324c1.063,4.004-1.321,8.11-5.324,9.174
		c-8.905,2.364-27.851,11.842-34.472,16.73C125.502,229.048,123.941,229.524,122.394,229.524z"/>
	<path style="fill:#495059;" d="M400.799,187.884c-0.603,0-1.214-0.073-1.824-0.226c-7.985-1.997-29.115-3.539-38.247-2.332
		c-4.095,0.541-7.875-2.346-8.418-6.453c-0.543-4.107,2.347-7.875,6.453-8.418c11.2-1.479,34.198,0.239,43.849,2.65
		c4.019,1.005,6.462,5.077,5.458,9.095C407.217,185.608,404.159,187.884,400.799,187.884z"/>
	<path style="fill:#495059;" d="M389.605,229.524c-1.548,0-3.108-0.477-4.448-1.466c-6.621-4.888-25.566-14.365-34.472-16.73
		c-4.003-1.063-6.387-5.17-5.324-9.174s5.17-6.385,9.174-5.324c10.922,2.9,31.528,13.252,39.53,19.159
		c3.333,2.46,4.04,7.156,1.58,10.488C394.175,228.471,391.905,229.524,389.605,229.524z"/>
</g>
<path style="fill:#FF91AB;" d="M270.495,310.141L270.495,310.141c10.656-5.445,17.362-16.402,17.362-28.369V172
	c0-7.536-3.916-14.575-10.402-18.411c-6.287-3.718-13.62-5.853-21.455-5.853c-7.834,0-15.167,2.135-21.455,5.853
	c-6.486,3.836-10.402,10.876-10.402,18.411v109.771c0,11.967,6.706,22.924,17.362,28.369l0,0
	C250.608,314.792,261.391,314.792,270.495,310.141z"/>
<path style="opacity:0.1;enable-background:new    ;" d="M277.454,153.589c-6.287-3.718-13.62-5.853-21.455-5.853
	s-15.168,2.135-21.455,5.853c-6.486,3.836-10.402,10.875-10.402,18.411v25.318c0-7.536,3.916-14.575,10.402-18.411
	c6.287-3.718,13.62-5.853,21.455-5.853c7.834,0,15.167,2.135,21.455,5.853c6.486,3.836,10.402,10.875,10.402,18.411v-25.317
	C287.857,164.465,283.941,157.425,277.454,153.589z"/>
<circle style="fill:#FFFFFF;" cx="181.24" cy="143.321" r="28.17"/>
<circle style="fill:#495059;" cx="181.24" cy="143.321" r="8.472"/>
<circle style="fill:#FFFFFF;" cx="330.76" cy="143.321" r="28.17"/>
<circle style="fill:#495059;" cx="330.76" cy="143.321" r="8.472"/>
<path style="fill:#FCD79D;" d="M62.607,418.544c-3.277,1.394-6.551,2.791-9.797,4.187c-7.837,3.372-11.457,12.459-8.085,20.297
	c2.516,5.848,8.212,9.346,14.198,9.346c2.037,0,4.108-0.406,6.099-1.261c3.33-1.433,6.698-2.87,10.071-4.305
	C74.162,434.234,67.613,422.978,62.607,418.544z"/>
<g>
	<path style="fill:#DEE2E5;" d="M27.633,308.42c-2.796,0-5.479-1.57-6.769-4.26c-1.79-3.735-0.214-8.215,3.521-10.005l47.465-22.753
		c3.736-1.793,8.214-0.214,10.005,3.52c1.791,3.735,0.214,8.215-3.521,10.005L30.87,307.681
		C29.824,308.183,28.72,308.42,27.633,308.42z"/>
	<path style="fill:#DEE2E5;" d="M37.36,102.635c-1.194,0-2.405-0.286-3.531-0.889L12.791,90.493
		c-3.653-1.953-5.03-6.498-3.076-10.15s6.499-5.03,10.15-3.076L40.904,88.52c3.653,1.953,5.03,6.498,3.076,10.15
		C42.629,101.196,40.038,102.635,37.36,102.635z"/>
	<path style="fill:#DEE2E5;" d="M22.346,225.581c-3.5,0-6.63-2.462-7.346-6.025c-0.815-4.062,1.816-8.014,5.878-8.829l21.109-4.236
		c4.064-0.813,8.014,1.816,8.829,5.878c0.815,4.061-1.816,8.014-5.878,8.829l-21.109,4.236
		C23.331,225.533,22.834,225.581,22.346,225.581z"/>
	<path style="fill:#DEE2E5;" d="M484.367,308.42c-1.088,0-2.191-0.237-3.237-0.739l-47.465-22.753
		c-3.735-1.79-5.312-6.27-3.521-10.005c1.791-3.736,6.272-5.313,10.005-3.52l47.465,22.753c3.735,1.79,5.312,6.27,3.521,10.005
		C489.846,306.85,487.162,308.42,484.367,308.42z"/>
	<path style="fill:#DEE2E5;" d="M474.641,102.635c-2.679,0-5.268-1.438-6.62-3.965c-1.954-3.652-0.576-8.197,3.076-10.15
		l21.039-11.253c3.653-1.955,8.196-0.575,10.15,3.076c1.954,3.652,0.576,8.197-3.076,10.15l-21.039,11.253
		C477.044,102.349,475.833,102.635,474.641,102.635z"/>
	<path style="fill:#DEE2E5;" d="M489.654,225.581c-0.489,0-0.985-0.048-1.483-0.148l-21.109-4.236
		c-4.061-0.815-6.692-4.768-5.878-8.829c0.814-4.062,4.77-6.69,8.829-5.878l21.109,4.236c4.062,0.815,6.692,4.768,5.878,8.829
		C496.285,223.119,493.154,225.581,489.654,225.581z"/>
</g>
<g>
</g>
<g>
</g>
<g>
</g>
<g>
</g>
<g>
</g>
<g>
</g>
<g>
</g>
<g>
</g>
<g>
</g>
<g>
</g>
<g>
</g>
<g>
</g>
<g>
</g>
<g>
</g>
<g>
</g>
</svg>
