<?xml version="1.0" encoding="iso-8859-1"?>
<!-- Generator: Adobe Illustrator 19.0.0, SVG Export Plug-In . SVG Version: 6.00 Build 0)  -->
<svg version="1.1" id="Capa_1" xmlns="http://www.w3.org/2000/svg" xmlns:xlink="http://www.w3.org/1999/xlink" x="0px" y="0px"
	 viewBox="0 0 512 512" style="enable-background:new 0 0 512 512;" xml:space="preserve">
<path style="fill:#EDA751;" d="M129.075,285.215c7.143-19.626,5.126-44.485-31.076-62.054c-36.488-17.708-70.025-8.065-91.364,7.852
	c-5.261,3.924-7.703,10.633-6.195,17.02c6.116,25.909,25.608,54.853,64.941,64.743C104.407,322.588,121.931,304.841,129.075,285.215
	z"/>
<path style="fill:#FF91AB;" d="M1.469,251.944c7.097,24.849,26.547,51.437,63.912,60.832c33.826,8.505,51.492-3.698,60.252-19.88
	C79.697,234.896,29.2,241.637,1.469,251.944z"/>
<path style="fill:#EDA751;" d="M215.261,235.455c-20.569-3.627-41.089-17.803-38.203-57.94
	c2.909-40.453,28.028-64.675,52.482-75.197c6.029-2.594,13.06-1.354,17.838,3.145c19.38,18.251,34.7,49.604,23.598,88.612
	C259.96,232.779,235.829,239.082,215.261,235.455z"/>
<path style="fill:#FF91AB;" d="M250.25,108.31c17.971,18.57,31.273,48.709,20.726,85.766c-9.548,33.547-28.948,42.744-47.343,42.24
	C196.372,167.534,227.459,127.173,250.25,108.31z"/>
<path style="fill:#FFDC9C;" d="M302.854,208.281c31.824,55.121-8.212,110.425-74.792,148.865s-134.493,45.46-166.317-9.661
	s-3.648-130.967,62.932-169.407S271.03,153.16,302.854,208.281z"/>
<path style="opacity:0.15;fill:#C17A00;enable-background:new    ;" d="M69.203,230.652c-23.551,37.18-27.968,81.31-7.458,116.834
	c27.357,47.384,81.382,48.847,138.305,23.906C96.783,369.857,71.177,302.381,69.203,230.652z"/>
<g>
	
		<ellipse transform="matrix(-0.5 -0.866 0.866 -0.5 -85.5174 579.3393)" style="fill:#FF91AB;" cx="124.48" cy="314.356" rx="20.07" ry="25.199"/>
	
		<ellipse transform="matrix(0.5 0.866 -0.866 0.5 334.4959 -87.2504)" style="fill:#FF91AB;" cx="242.81" cy="246.061" rx="20.07" ry="25.199"/>
</g>
<g>
	<path style="fill:#495059;" d="M117.229,296.835c-0.485,0-0.97-0.016-1.454-0.047c-4.133-0.268-7.267-3.836-7-7.969
		c0.268-4.133,3.84-7.27,7.969-7c1.644,0.106,3.473-0.366,5.145-1.331c1.671-0.964,2.994-2.311,3.724-3.789
		c1.834-3.714,6.334-5.237,10.046-3.402c3.714,1.835,5.237,6.333,3.402,10.046c-2.058,4.165-5.403,7.67-9.673,10.135
		C125.565,295.687,121.389,296.835,117.229,296.835z"/>
	<path style="fill:#495059;" d="M210.103,243.216c-0.486,0-0.972-0.016-1.458-0.047c-4.133-0.269-7.267-3.837-6.998-7.971
		c0.269-4.134,3.832-7.262,7.971-6.998c1.645,0.111,3.471-0.366,5.143-1.331c1.671-0.965,2.994-2.311,3.724-3.788
		c1.834-3.713,6.333-5.236,10.046-3.403c3.714,1.835,5.237,6.333,3.403,10.046c-2.058,4.166-5.402,7.67-9.673,10.136
		C218.437,242.067,214.263,243.216,210.103,243.216z"/>
	<path style="fill:#495059;" d="M92.54,337.603c-1.962,0-3.921-0.765-5.393-2.287c-2.879-2.978-2.799-7.726,0.179-10.605
		c5.256-5.082,19.268-14.629,26.947-17.806c3.828-1.582,8.214,0.236,9.797,4.064s-0.236,8.214-4.064,9.797
		c-5.807,2.401-18.221,10.829-22.255,14.729C96.296,336.903,94.416,337.603,92.54,337.603z"/>
	<path style="fill:#495059;" d="M114.413,359.46c-1.001,0-2.018-0.202-2.994-0.627c-3.797-1.656-5.532-6.076-3.876-9.873
		c2.922-6.701,12.24-20.868,18.131-26.731c2.935-2.922,7.684-2.912,10.606,0.024c2.922,2.936,2.911,7.685-0.024,10.607
		c-4.455,4.434-12.722,16.956-14.964,22.097C120.061,357.777,117.305,359.46,114.413,359.46z"/>
	<path style="fill:#495059;" d="M246.02,246.931c-2.251,0-4.476-1.009-5.953-2.932c-2.523-3.285-1.906-7.994,1.379-10.517
		c6.592-5.063,21.866-12.424,28.895-14.435c3.979-1.136,8.134,1.167,9.273,5.148c1.139,3.982-1.166,8.134-5.148,9.274
		c-5.393,1.542-18.898,8.081-23.882,11.909C249.221,246.425,247.614,246.931,246.02,246.931z"/>
	<path style="fill:#495059;" d="M250.97,265.758c-3.305,0-6.331-2.201-7.236-5.544c-1.081-3.999,1.284-8.116,5.283-9.198
		c8.025-2.168,24.95-3.153,32.215-2.335c4.116,0.464,7.076,4.177,6.612,8.293c-0.465,4.117-4.184,7.072-8.294,6.612
		c-5.573-0.629-20.552,0.269-26.619,1.911C252.277,265.673,251.618,265.758,250.97,265.758z"/>
</g>
<circle style="fill:#FF91AB;" cx="180.4" cy="274.59" r="7.553"/>
<path style="fill:#7694E4;" d="M377.591,252.105c155.476,10.639,149.781,90.997,112.224,131.349
	c-10.022,10.768-23.286,17.976-37.683,20.996c-74.265,15.576-203.51-0.239-238.163-9.415c0,0-2.833-38.829,45.723-86.005
	C313.168,257.074,343.75,251.405,377.591,252.105z"/>
<path style="fill:#7CC5E6;" d="M159.413,379.808c26.831-35.02,106.698-130.844,173.124-147.24
	c6.648-1.641,13.588-1.845,20.263-0.315c8.053,1.846,14.431,4.79,19.607,8.505c6.314,4.532,6.287,13.913-0.094,18.349
	C336.458,284.036,250.497,359.2,223.49,390.729c-2.553,2.981-5.905,5.186-9.693,6.213c-14.611,3.958-32.431,5.013-48.44,0.702
	C157.602,395.555,154.529,386.183,159.413,379.808z"/>
<g>
	<path style="fill:#495059;" d="M385.287,209.926h-40.119c-4.613,0-8.729-2.928-10.241-7.286s-0.096-9.206,3.525-12.063
		l30.337-23.95h-28.137c-4.142,0-7.5-3.358-7.5-7.5s3.358-7.5,7.5-7.5h40.118c4.612,0,8.729,2.928,10.24,7.286
		c1.513,4.357,0.097,9.206-3.524,12.064l-30.336,23.95h28.137c4.143,0,7.5,3.358,7.5,7.5S389.43,209.926,385.287,209.926z
		 M380.77,166.626h0.01H380.77z"/>
	<path style="fill:#495059;" d="M461.022,177.311h-40.118c-4.613,0-8.729-2.928-10.241-7.286c-1.513-4.358-0.097-9.206,3.524-12.064
		l30.337-23.95h-28.137c-4.143,0-7.5-3.358-7.5-7.5s3.357-7.5,7.5-7.5h40.118c4.612,0,8.728,2.928,10.24,7.285
		c1.514,4.357,0.098,9.206-3.522,12.064l-30.339,23.951h28.137c4.142,0,7.5,3.358,7.5,7.5
		C468.522,173.953,465.165,177.311,461.022,177.311z M456.506,134.011h0.01H456.506z"/>
</g>
<g>
</g>
<g>
</g>
<g>
</g>
<g>
</g>
<g>
</g>
<g>
</g>
<g>
</g>
<g>
</g>
<g>
</g>
<g>
</g>
<g>
</g>
<g>
</g>
<g>
</g>
<g>
</g>
<g>
</g>
</svg>
