<?xml version="1.0" encoding="iso-8859-1"?>
<!-- Generator: Adobe Illustrator 19.0.0, SVG Export Plug-In . SVG Version: 6.00 Build 0)  -->
<svg version="1.1" id="Capa_1" xmlns="http://www.w3.org/2000/svg" xmlns:xlink="http://www.w3.org/1999/xlink" x="0px" y="0px"
	 viewBox="0 0 512 512" style="enable-background:new 0 0 512 512;" xml:space="preserve">
<path style="fill:#EDA751;" d="M407.943,472.213c-6.874,0-13.607-0.987-19.742-2.648c-31.203-8.443-44.845-31.371-55.807-49.794
	c-9.719-16.332-16.326-26.552-29.164-30.7c-8.072-2.608-12.502-11.268-9.894-19.341c2.609-8.075,11.267-12.501,19.342-9.895
	c24.518,7.922,35.994,27.209,46.119,44.224c9.787,16.449,18.24,30.655,37.429,35.848c14.66,3.965,27.202,0.745,33.559-8.616
	c5.097-7.507,4.853-17.089-0.622-24.411c-5.08-6.795-3.692-16.422,3.104-21.502c6.798-5.08,16.422-3.691,21.502,3.104
	c13.442,17.977,14.004,41.556,1.433,60.069C443.362,465.988,425.203,472.213,407.943,472.213z"/>
<path style="fill:#FCD79D;" d="M453.768,388.483c-5.08-6.795-14.704-8.184-21.502-3.104c-6.795,5.08-8.184,14.707-3.103,21.502
	c2.149,2.874,3.479,6.097,4.01,9.405c9.925-1.148,18.321-2.098,28.944-11.299C460.384,399.195,457.603,393.611,453.768,388.483z"/>
<g>
	<path style="fill:#EDA751;" d="M208.441,512c-12.577,0-23.3-9.604-24.451-22.374c-3.924-43.526-0.734-71.648,10.666-94.034
		c6.16-12.098,20.958-16.909,33.057-10.749c12.096,6.16,16.909,20.96,10.748,33.056c-6.804,13.361-8.504,34.121-5.512,67.314
		c1.219,13.52-8.753,25.468-22.272,26.687C209.926,511.966,209.18,512,208.441,512z"/>
	<path style="fill:#EDA751;" d="M292.722,512c-0.741,0-1.485-0.034-2.236-0.101c-13.52-1.219-23.492-13.167-22.272-26.687
		c2.992-33.193,1.291-53.953-5.512-67.314c-6.16-12.096-1.348-26.896,10.749-33.056c12.094-6.16,26.895-1.349,33.057,10.749
		c11.4,22.386,14.59,50.508,10.666,94.034C316.022,502.395,305.3,512,292.722,512z"/>
	<path style="fill:#EDA751;" d="M132.34,440.293c-2.04,0-4.114-0.256-6.181-0.791c-13.141-3.404-21.034-16.817-17.63-29.958
		c4.973-19.196,8.496-36.489,11.604-51.747c3.771-18.509,6.748-33.128,10.969-44.73c4.641-12.757,18.746-19.337,31.502-14.695
		s19.336,18.745,14.695,31.502c-2.975,8.178-5.766,21.875-8.996,37.735c-3.23,15.85-6.889,33.816-12.185,54.263
		C153.248,432.946,143.272,440.293,132.34,440.293z"/>
</g>
<g>
	<path style="opacity:0.2;fill:#A35F00;enable-background:new    ;" d="M312.677,359.836c-8.074-2.606-16.732,1.82-19.342,9.895
		c-2.608,8.074,1.822,16.733,9.894,19.341c12.838,4.148,19.445,14.368,29.164,30.7c0.838,1.409,1.695,2.846,2.572,4.299
		c8.319-6.818,15.697-14.622,21.918-23.219C347.189,384.682,335.666,367.264,312.677,359.836z"/>
	<path style="opacity:0.2;fill:#A35F00;enable-background:new    ;" d="M306.507,395.591c-6.162-12.098-20.963-16.909-33.057-10.749
		c-12.096,6.16-16.909,20.96-10.749,33.056c4.218,8.284,6.473,19.416,6.866,34.588c17.435-2.434,33.735-8.167,48.156-16.498
		C316.054,420.134,312.368,407.1,306.507,395.591z"/>
	<path style="opacity:0.2;fill:#A35F00;enable-background:new    ;" d="M227.713,384.842c-12.099-6.16-26.896-1.348-33.057,10.749
		c-5.861,11.509-9.547,24.543-11.216,40.398c14.421,8.331,30.721,14.064,48.156,16.497c0.393-15.172,2.648-26.304,6.866-34.588
		C244.622,405.802,239.809,391.003,227.713,384.842z"/>
	<path style="opacity:0.2;fill:#A35F00;enable-background:new    ;" d="M162.605,298.373c-12.755-4.642-26.861,1.938-31.502,14.695
		c-3.186,8.756-5.664,19.235-8.308,31.804c2.776,27.543,15.49,52.414,34.743,71.414c4.543-18.149,7.834-34.287,10.765-48.676
		c3.231-15.86,6.021-29.557,8.996-37.735C181.94,317.118,175.361,303.015,162.605,298.373z"/>
</g>
<ellipse style="fill:#FCD690;" cx="250.579" cy="333.46" rx="113.37" ry="105.34"/>
<g>
	<path style="opacity:0.15;fill:#C17A00;enable-background:new    ;" d="M363.772,339.303c-6.325,1.306-12.27,1.966-17.123,1.514
		c-22.147-2.063-60.005-24.367-68.429-43.583c-4.408,20.204,6.849,76.771,72.288,86.015
		C358.148,370.036,362.841,355.135,363.772,339.303z"/>
	<path style="opacity:0.15;fill:#C17A00;enable-background:new    ;" d="M362.188,314.871
		c-9.449-49.313-55.822-86.754-111.607-86.754c-62.611,0-113.367,47.164-113.367,105.344c0,52.954,42.049,96.776,96.812,104.222l0,0
		c-9.143-6.002-16.166-13.119-21.492-20.934c-1.287-1.889,0.661-4.287,2.78-3.431c7.978,3.225,16.694,5.005,25.829,5.005
		c29.786,0,55.154-18.861,64.844-45.288c1.91-5.208,6.005-9.362,11.274-11.096C339.034,354.773,356.015,337.074,362.188,314.871z"/>
</g>
<path style="fill:#EDA751;" d="M181.591,150.797c22.183-18.614,36.995-49.862,5.705-96.054
	C155.758,8.185,108.805-3.485,72.148,0.833c-9.037,1.065-16.62,7.428-19.238,16.143c-10.618,35.35-7.279,83.617,33.095,122.759
	C126.062,178.571,159.407,169.411,181.591,150.797z"/>
<path style="fill:#FF91AB;" d="M51.434,22.385c-8.705,34.757-3.783,80.166,34.57,117.35c34.721,33.662,64.392,31.256,86.129,17.899
	C157.184,56.146,91.877,29.234,51.434,22.385z"/>
<path style="fill:#EDA751;" d="M319.572,150.797c-22.183-18.614-36.995-49.862-5.705-96.054
	c31.538-46.558,78.491-58.228,115.148-53.91c9.037,1.065,16.62,7.428,19.238,16.143c10.618,35.35,7.279,83.617-33.095,122.759
	C375.101,178.571,341.756,169.411,319.572,150.797z"/>
<path style="fill:#FF91AB;" d="M449.729,22.385c8.705,34.757,3.783,80.166-34.57,117.35c-34.72,33.662-64.392,31.256-86.129,17.899
	C343.979,56.146,409.285,29.234,449.729,22.385z"/>
<path style="fill:#FFDC9C;" d="M443.587,178.891c0,88.248-86.412,126.899-193.006,126.899S57.575,267.139,57.575,178.891
	S143.987,19.105,250.581,19.105C357.176,19.105,443.587,90.644,443.587,178.891z"/>
<path style="opacity:0.15;fill:#C17A00;enable-background:new    ;" d="M147.526,43.775c-54.054,28.316-89.95,78.243-89.95,135.116
	c0,75.861,63.856,115.07,149.495,124.584C84.138,230.044,100.171,131.272,147.526,43.775z"/>
<g>
	<ellipse style="fill:#FF91AB;" cx="155.869" cy="182.61" rx="34.946" ry="27.829"/>
	<ellipse style="fill:#FF91AB;" cx="345.289" cy="182.61" rx="34.946" ry="27.829"/>
</g>
<g>
	<path style="fill:#495059;" d="M176.238,162.352c-4.143,0-7.5-3.358-7.5-7.5v-12.34c0-4.142,3.357-7.5,7.5-7.5s7.5,3.358,7.5,7.5
		v12.34C183.738,158.994,180.381,162.352,176.238,162.352z"/>
	<path style="fill:#495059;" d="M324.925,162.352c-4.143,0-7.5-3.358-7.5-7.5v-12.34c0-4.142,3.357-7.5,7.5-7.5s7.5,3.358,7.5,7.5
		v12.34C332.425,158.994,329.067,162.352,324.925,162.352z"/>
	<path style="fill:#495059;" d="M106.596,186.87c-3.36,0-6.418-2.275-7.271-5.683c-1.004-4.018,1.438-8.09,5.457-9.095
		c9.601-2.4,32.478-4.11,43.618-2.638c4.106,0.543,6.996,4.312,6.453,8.418c-0.543,4.107-4.322,6.992-8.418,6.453
		c-9.077-1.201-30.078,0.334-38.015,2.318C107.811,186.797,107.198,186.87,106.596,186.87z"/>
	<path style="fill:#495059;" d="M117.726,228.277c-2.3,0-4.569-1.054-6.04-3.046c-2.46-3.333-1.752-8.029,1.58-10.488
		c7.963-5.877,28.462-16.174,39.323-19.058c4.003-1.06,8.111,1.321,9.174,5.325s-1.321,8.11-5.324,9.173
		c-8.85,2.349-27.682,11.77-34.265,16.628C120.834,227.8,119.272,228.277,117.726,228.277z"/>
	<path style="fill:#495059;" d="M394.567,186.87c-0.603,0-1.214-0.073-1.825-0.226c-7.936-1.983-28.936-3.52-38.016-2.318
		c-4.09,0.539-7.874-2.346-8.418-6.453c-0.543-4.106,2.347-7.875,6.453-8.418c11.144-1.47,34.019,0.237,43.619,2.638
		c4.019,1.004,6.461,5.077,5.457,9.095C400.985,184.595,397.928,186.87,394.567,186.87z"/>
	<path style="fill:#495059;" d="M383.437,228.277c-1.548,0-3.108-0.477-4.448-1.466c-6.582-4.859-25.413-14.279-34.264-16.628
		c-4.003-1.063-6.387-5.17-5.324-9.173s5.164-6.384,9.174-5.325c10.862,2.884,31.361,13.182,39.322,19.058
		c3.333,2.46,4.04,7.156,1.58,10.488C388.006,227.223,385.736,228.277,383.437,228.277z"/>
	<path style="fill:#495059;" d="M374.153,286.248c0-29.562-18.576-54.776-44.69-64.628c-5.735-2.163-9.874-7.209-10.986-13.237
		c-5.925-32.121-34.06-56.456-67.896-56.456c-33.835,0-61.971,24.335-67.896,56.456c-1.112,6.028-5.251,11.073-10.986,13.237
		c-26.114,9.852-44.69,35.066-44.69,64.628c0,30.594,19.897,56.527,47.454,65.598c5.225,1.72,9.325,5.733,11.203,10.903
		c9.637,26.528,35.056,45.48,64.915,45.48c29.858,0,55.277-18.953,64.915-45.481c1.878-5.17,5.978-9.183,11.203-10.903
		C354.256,342.775,374.153,316.841,374.153,286.248z"/>
</g>
<path style="opacity:0.15;enable-background:new    ;" d="M326.699,351.846c7.537-2.481,14.496-6.231,20.637-10.986
	c-0.228-0.016-0.464-0.023-0.687-0.043c-22.147-2.063-60.005-24.367-68.429-43.583c-3.359,15.399,2.386,51.918,34.28,72.512
	c1.121-2.266,2.125-4.599,2.996-6.997C317.374,357.579,321.475,353.565,326.699,351.846z"/>
<path style="fill:#FFFFFF;" d="M250.581,210.433c-9.679,0-18.884-4.192-25.254-11.502c-2.722-3.123-2.395-7.86,0.727-10.582
	c3.122-2.721,7.859-2.396,10.582,0.727c3.52,4.04,8.603,6.357,13.945,6.357c5.343,0,10.426-2.317,13.946-6.357
	c2.721-3.124,7.457-3.448,10.582-0.727c3.122,2.721,3.448,7.459,0.727,10.582C269.466,206.241,260.261,210.433,250.581,210.433z"/>
<path style="fill:#EDA751;" d="M356.047,364.691c-8.906,0-18.071-1.747-27.21-5.268c-24.215-9.327-45.503-30.232-50.615-49.707
	c-3.447-13.13,4.402-26.568,17.533-30.015c12.99-3.414,26.293,4.245,29.907,17.133c1.674,3.717,11.247,13.835,23.072,17.49
	c8.519,2.631,13.325,0.439,16.2-1.44c11.363-7.424,26.597-4.232,34.021,7.133c7.425,11.364,4.232,26.595-7.133,34.021
	C380.989,361.116,368.783,364.691,356.047,364.691z M325.767,297.225c0.001,0.003,0.001,0.005,0.002,0.008
	C325.769,297.231,325.767,297.228,325.767,297.225z"/>
<g>
</g>
<g>
</g>
<g>
</g>
<g>
</g>
<g>
</g>
<g>
</g>
<g>
</g>
<g>
</g>
<g>
</g>
<g>
</g>
<g>
</g>
<g>
</g>
<g>
</g>
<g>
</g>
<g>
</g>
</svg>
