<?xml version="1.0" encoding="iso-8859-1"?>
<!-- Generator: Adobe Illustrator 19.0.0, SVG Export Plug-In . SVG Version: 6.00 Build 0)  -->
<svg version="1.1" id="Capa_1" xmlns="http://www.w3.org/2000/svg" xmlns:xlink="http://www.w3.org/1999/xlink" x="0px" y="0px"
	 viewBox="0 0 512 512" style="enable-background:new 0 0 512 512;" xml:space="preserve">
<g>
	<path style="fill:#EDA751;" d="M240.246,512c-1.505,0-3.032-0.162-4.562-0.5c-11.367-2.508-18.548-13.756-16.04-25.123
		c4.819-21.84,4.646-40.463-0.562-60.381c-2.945-11.262,3.797-22.778,15.059-25.723c11.261-2.945,22.778,3.797,25.723,15.059
		c6.891,26.354,7.191,51.815,0.943,80.128C258.636,505.297,249.92,512,240.246,512z"/>
	<path style="fill:#EDA751;" d="M303.454,512c-1.505,0-3.031-0.162-4.562-0.5c-11.367-2.508-18.547-13.757-16.039-25.123
		c4.82-21.841,4.647-40.462-0.562-60.38c-2.945-11.261,3.796-22.778,15.058-25.723c11.26-2.945,22.778,3.796,25.723,15.058
		c6.892,26.354,7.192,51.815,0.944,80.129C321.844,505.297,313.127,512,303.454,512z"/>
	<path style="fill:#EDA751;" d="M86.676,443.371c-2.765,0-5.552-0.867-7.928-2.661c-5.806-4.384-6.959-12.644-2.575-18.451
		c17.684-23.42,53.399-26.914,90.986-8.903c14.346,6.873,28.001,4.046,48.027-32.086c3.527-6.362,11.545-8.663,17.907-5.136
		c6.363,3.526,8.663,11.544,5.136,17.907c-7.344,13.25-27.009,48.727-59.428,48.73c-7.069,0-14.74-1.686-23.027-5.657
		c-25.389-12.165-48.929-11.756-58.577,1.02C94.608,441.565,90.666,443.371,86.676,443.371z"/>
</g>
<path style="fill:#FCD79D;" d="M88.48,410.843c-4.707,3.042-8.855,6.844-12.307,11.416c-4.384,5.806-3.231,14.066,2.575,18.451
	c2.376,1.794,5.163,2.661,7.928,2.661c3.99,0,7.932-1.806,10.522-5.236c2.127-2.817,4.931-5.03,8.28-6.643
	C102.524,422.264,94.873,414.395,88.48,410.843z"/>
<path style="fill:#EDA751;" d="M154.729,377.138c-19.992,0-42.124-4.416-60.891-19.695c-9.026-7.349-10.386-20.625-3.037-29.651
	c7.349-9.027,20.626-10.386,29.651-3.038c20.636,16.802,54.841,8.739,71.279,4.865c11.33-2.672,22.679,4.349,25.349,15.679
	c2.671,11.33-4.348,22.679-15.679,25.349C191.036,373.09,173.862,377.138,154.729,377.138z"/>
<path style="fill:#7694E4;" d="M65.513,188.767l-52.478,20.487c-4.956,1.935-7.226,7.672-4.934,12.474l24.953,52.278
	c2.052,4.299,7.074,6.286,11.512,4.553l6.266-2.446c2.577-1.006,5.471,0.349,6.349,2.973l26.456,79.094
	c2.958,8.844,12.596,13.847,21.37,10.685c9.077-3.271,13.399-13.543,9.477-22.289l-34.297-76.471
	c-1.132-2.524,0.079-5.482,2.655-6.488l6.437-2.513c4.438-1.732,6.786-6.596,5.382-11.148l-17.067-55.357
	C76.026,189.514,70.469,186.832,65.513,188.767z"/>
<g style="opacity:0.1;">
	<path d="M48.202,260.621c-2.932,0-5.717-1.73-6.921-4.604l-12.393-29.591c-1.6-3.821,0.2-8.215,4.021-9.815
		c3.821-1.599,8.214,0.199,9.815,4.02l12.393,29.591c1.6,3.821-0.2,8.215-4.021,9.815C50.149,260.433,49.168,260.621,48.202,260.621
		z"/>
	<path d="M69.37,252.356c-3.067,0-5.946-1.896-7.051-4.946l-10.934-30.16c-1.412-3.894,0.601-8.195,4.495-9.607
		c3.895-1.413,8.196,0.601,9.607,4.495l10.934,30.161c1.412,3.894-0.601,8.195-4.495,9.607
		C71.082,252.211,70.218,252.356,69.37,252.356z"/>
</g>
<path style="fill:#EDA751;" d="M377.84,385.088c-14.22,0-27.142-2.419-36.34-5.775c-10.935-3.991-16.564-16.09-12.574-27.025
	c3.991-10.935,16.092-16.564,27.025-12.574c15.374,5.61,46.266,5.078,61.91-10.566c8.231-8.231,21.576-8.231,29.806,0
	c8.231,8.231,8.231,21.575,0,29.806C428.059,378.562,401.198,385.088,377.84,385.088z"/>
<path style="fill:#78CFC0;" d="M501.065,258.8c7.41-20.822,3.704-46.669-10.424-51.697c-14.128-5.028-33.329,12.667-40.739,33.489
	c-3.639,10.226-2.249,20.856,2.842,28.558c1.218,1.842,1.47,4.157,0.628,6.199l-32.716,79.297c-3.557,8.621,0.45,18.713,9.151,22.07
	c9.002,3.473,18.995-1.459,21.759-10.637l24.851-82.529c0.637-2.115,2.294-3.75,4.403-4.409
	C489.633,276.389,497.426,269.026,501.065,258.8z"/>
<g>
	<path style="opacity:0.2;fill:#A35F00;enable-background:new    ;" d="M388.088,342.229c-12.026,1.643-24.167,0.394-32.138-2.515
		c-10.932-3.99-23.034,1.639-27.025,12.574c-3.99,10.934,1.639,23.034,12.574,27.025c9.198,3.356,22.12,5.775,36.34,5.775
		c3.069,0,6.199-0.116,9.364-0.356c1.733-7.534,2.654-15.349,2.654-23.364C389.857,354.841,389.248,348.447,388.088,342.229z"/>
	<path style="opacity:0.2;fill:#A35F00;enable-background:new    ;" d="M233.094,376.134c-6.362-3.527-14.38-1.227-17.907,5.136
		c-18.701,33.743-31.847,38.437-45.187,33.313c5.734,9.761,12.992,18.623,21.472,26.297c24.926-7.488,40.426-35.414,46.758-46.839
		C241.756,387.678,239.456,379.66,233.094,376.134z"/>
	<path style="opacity:0.2;fill:#A35F00;enable-background:new    ;" d="M191.731,329.619c-7.971,1.879-20.123,4.736-32.876,5.271
		c-2.229,8.486-3.42,17.353-3.42,26.477c0,5.346,0.414,10.601,1.199,15.746c18.362-0.255,34.749-4.104,44.768-6.467
		c11.33-2.671,18.349-14.02,15.679-25.349C214.41,333.968,203.061,326.947,191.731,329.619z"/>
</g>
<ellipse style="fill:#FCD690;" cx="272.65" cy="361.37" rx="97.21" ry="90.33"/>
<path style="opacity:0.15;fill:#C17A00;enable-background:new    ;" d="M258.45,450.737
	c-44.423-29.165-30.655-88.941-23.114-115.083v-57.72c-35.171,13.596-59.901,45.829-59.901,83.434
	C175.434,406.775,211.491,444.352,258.45,450.737z"/>
<g>
	<path style="fill:#7CC5E6;" d="M232.583,370.545c-5.422-3.673-32.564-33.064-40.31-49.483l13.566-6.399
		c6.373,13.509,31.299,40.628,35.204,43.498L232.583,370.545z"/>
	<path style="fill:#7CC5E6;" d="M312.708,370.545l-8.412-12.419l-0.048,0.034c3.904-2.869,28.831-29.989,35.204-43.498l13.566,6.399
		C345.272,337.48,318.13,366.872,312.708,370.545z"/>
	<path style="fill:#7CC5E6;" d="M328.596,458.44c3.289-16.894,4.67-49.358-7.004-95.749c-1.015-4.033-4.664-6.849-8.823-6.849
		h-80.247c-4.159,0-7.808,2.815-8.823,6.849c-11.673,46.391-10.293,78.855-7.004,95.749c1.36,6.985,7.425,12.049,14.541,12.049
		c21.619,0,61.199,0,82.817,0C321.17,470.49,327.236,465.425,328.596,458.44z"/>
</g>
<path style="opacity:0.1;enable-background:new    ;" d="M328.596,458.44c1.768-9.078,2.98-22.66,1.916-40.475
	c-14.07,2.031-35.655,3.895-57.866,3.895s-43.796-1.864-57.866-3.895c-1.064,17.816,0.148,31.397,1.916,40.475
	c1.36,6.985,7.425,12.049,14.541,12.049c21.619,0,61.199,0,82.817,0C321.17,470.49,327.236,465.425,328.596,458.44z"/>
<path style="fill:#EDA751;" d="M213.486,204.734c19.022-15.961,31.723-42.756,4.892-82.366
	c-27.043-39.923-67.305-49.93-98.738-46.227c-7.749,0.913-14.252,6.369-16.496,13.842c-9.105,30.312-6.241,71.701,28.379,105.265
	C165.871,228.55,194.464,220.695,213.486,204.734z"/>
<path style="fill:#FF91AB;" d="M101.879,94.622c-7.465,29.804-3.244,68.742,29.644,100.627
	c29.773,28.865,55.215,26.802,73.855,15.348C192.558,123.572,136.558,100.495,101.879,94.622z"/>
<path style="fill:#EDA751;" d="M331.805,204.734c-19.022-15.961-31.722-42.756-4.892-82.366
	c27.043-39.923,67.305-49.93,98.738-46.227c7.749,0.913,14.252,6.369,16.496,13.842c9.105,30.312,6.241,71.701-28.379,105.265
	C379.42,228.55,350.827,220.695,331.805,204.734z"/>
<path style="fill:#FF91AB;" d="M443.413,94.622c7.465,29.804,3.244,68.742-29.644,100.627
	c-29.773,28.865-55.215,26.802-73.855,15.348C352.733,123.572,408.733,100.495,443.413,94.622z"/>
<path style="fill:#FFDC9C;" d="M438.146,228.825c0,75.671-74.097,108.815-165.501,108.815s-165.501-33.143-165.501-108.815
	S181.241,91.809,272.645,91.809C364.049,91.809,438.146,153.153,438.146,228.825z"/>
<path style="opacity:0.15;fill:#C17A00;enable-background:new    ;" d="M184.276,112.964
	c-46.35,24.281-77.132,67.093-77.132,115.861c0,65.05,54.756,98.672,128.191,106.829
	C129.922,272.688,143.67,187.991,184.276,112.964z"/>
<g>
	<ellipse style="fill:#FF91AB;" cx="191.43" cy="232.02" rx="29.966" ry="23.863"/>
	<ellipse style="fill:#FF91AB;" cx="353.86" cy="232.02" rx="29.966" ry="23.863"/>
</g>
<g>
	<path style="fill:#495059;" d="M272.646,223.837c-8.608,0-16.795-3.728-22.461-10.229c-2.722-3.122-2.396-7.86,0.726-10.581
		c3.122-2.722,7.86-2.397,10.582,0.726c2.816,3.231,6.882,5.085,11.153,5.085c4.272,0,8.337-1.854,11.153-5.085
		c2.722-3.124,7.46-3.448,10.582-0.726s3.448,7.459,0.726,10.581C289.44,220.109,281.254,223.837,272.646,223.837z"/>
	<path style="fill:#495059;" d="M223.607,214.038c-4.142,0-7.5-3.358-7.5-7.5c0-3.976-3.234-7.21-7.21-7.21
		c-3.976,0-7.21,3.234-7.21,7.21c0,4.142-3.358,7.5-7.5,7.5s-7.5-3.358-7.5-7.5c0-12.247,9.963-22.21,22.21-22.21
		s22.21,9.963,22.21,22.21C231.107,210.68,227.749,214.038,223.607,214.038z"/>
	<path style="fill:#495059;" d="M351.104,214.038c-4.142,0-7.5-3.358-7.5-7.5c0-3.976-3.234-7.21-7.21-7.21
		c-3.976,0-7.21,3.234-7.21,7.21c0,4.142-3.358,7.5-7.5,7.5s-7.5-3.358-7.5-7.5c0-12.247,9.963-22.21,22.21-22.21
		c12.247,0,22.21,9.963,22.21,22.21C358.604,210.68,355.246,214.038,351.104,214.038z"/>
	<path style="fill:#495059;" d="M149.178,236.735c-3.36,0-6.418-2.275-7.27-5.683c-1.005-4.018,1.439-8.09,5.457-9.095
		c8.318-2.08,28.144-3.56,37.802-2.284c4.106,0.543,6.995,4.312,6.453,8.419c-0.543,4.107-4.309,6.995-8.418,6.453
		c-7.534-0.997-25.623,0.321-32.198,1.965C150.393,236.662,149.78,236.735,149.178,236.735z"/>
	<path style="fill:#495059;" d="M158.724,272.241c-2.3,0-4.569-1.054-6.04-3.046c-2.46-3.332-1.752-8.028,1.58-10.488
		c6.897-5.091,24.663-14.015,34.08-16.516c4.003-1.061,8.11,1.321,9.174,5.324c1.063,4.003-1.321,8.111-5.324,9.174
		c-7.346,1.95-23.568,10.061-29.021,14.086C161.833,271.764,160.271,272.241,158.724,272.241z"/>
	<path style="fill:#495059;" d="M396.113,236.735c-0.603,0-1.214-0.073-1.825-0.226c-6.576-1.644-24.663-2.96-32.198-1.965
		c-4.106,0.541-7.875-2.346-8.418-6.453c-0.542-4.106,2.346-7.876,6.453-8.419c9.657-1.276,29.483,0.205,37.802,2.284
		c4.018,1.004,6.462,5.076,5.457,9.095C402.531,234.46,399.473,236.735,396.113,236.735z"/>
	<path style="fill:#495059;" d="M386.567,272.241c-1.547,0-3.108-0.477-4.448-1.466c-5.453-4.025-21.674-12.136-29.021-14.086
		c-4.003-1.063-6.387-5.17-5.324-9.174c1.064-4.003,5.171-6.385,9.174-5.324c9.417,2.501,27.182,11.424,34.079,16.516
		c3.332,2.46,4.04,7.156,1.58,10.488C391.136,271.187,388.866,272.241,386.567,272.241z"/>
</g>
<path style="fill:#DEE2E5;" d="M387.799,54.717c0-23.527-21.439-42.599-47.885-42.599c-7.517,0-14.627,1.543-20.956,4.29
	c-3.624,1.573-7.809,0.607-10.608-2.18C299.583,5.499,286.839,0,272.646,0s-26.937,5.499-35.704,14.228
	c-2.799,2.787-6.985,3.753-10.608,2.18c-6.329-2.747-13.44-4.29-20.956-4.29c-26.446,0-47.885,19.072-47.885,42.599
	c0,19.354,14.51,35.689,34.379,40.876c3.512,0.917,5.933,4.133,5.933,7.762v33.629h149.684v-33.629c0-3.63,2.421-6.846,5.933-7.762
	C373.289,90.406,387.799,74.071,387.799,54.717z"/>
<g style="opacity:0.1;">
	<path d="M246.096,144.106c-4.142,0-7.5-3.358-7.5-7.5v-36.525c0-4.142,3.358-7.5,7.5-7.5s7.5,3.358,7.5,7.5v36.525
		C253.596,140.748,250.238,144.106,246.096,144.106z"/>
	<path d="M299.195,144.106c-4.142,0-7.5-3.358-7.5-7.5v-36.525c0-4.142,3.358-7.5,7.5-7.5s7.5,3.358,7.5,7.5v36.525
		C306.695,140.748,303.337,144.106,299.195,144.106z"/>
</g>
<path style="fill:#7694E4;" d="M347.488,118.343c0,0-17.447,10.427-74.842,10.427s-74.842-10.427-74.842-10.427v20.468
	c0,4.02,2.559,7.597,6.374,8.864c9.294,3.088,29.828,7.814,68.468,7.814s59.175-4.726,68.468-7.814
	c3.815-1.268,6.374-4.845,6.374-8.864V118.343z"/>
<g>
</g>
<g>
</g>
<g>
</g>
<g>
</g>
<g>
</g>
<g>
</g>
<g>
</g>
<g>
</g>
<g>
</g>
<g>
</g>
<g>
</g>
<g>
</g>
<g>
</g>
<g>
</g>
<g>
</g>
</svg>
