<?xml version="1.0" encoding="iso-8859-1"?>
<!-- Generator: Adobe Illustrator 19.0.0, SVG Export Plug-In . SVG Version: 6.00 Build 0)  -->
<svg version="1.1" id="Capa_1" xmlns="http://www.w3.org/2000/svg" xmlns:xlink="http://www.w3.org/1999/xlink" x="0px" y="0px"
	 viewBox="0 0 512 512" style="enable-background:new 0 0 512 512;" xml:space="preserve">
<path style="fill:#EDA751;" d="M284.205,485.028c-2.798,0-5.747-0.175-8.871-0.549c-17.4-2.084-31.827-12.39-42.879-30.628
	c-8.521-14.064-14.161-31.165-19.137-46.255c-1.343-4.072-2.611-7.917-3.892-11.587c-2.598-7.44,1.326-15.576,8.765-18.174
	c7.441-2.597,15.577,1.329,18.174,8.766c1.363,3.906,2.669,7.866,4.052,12.059c10.29,31.204,19.645,55.251,38.312,57.488
	c16.953,2.031,22.041-4.681,31.28-16.868c8.657-11.417,19.431-25.626,41.642-30.383c7.707-1.657,15.288,3.258,16.939,10.962
	c1.651,7.705-3.258,15.289-10.962,16.939c-11.852,2.538-17.602,10.122-24.88,19.722
	C323.489,468.729,311.127,485.028,284.205,485.028z"/>
<path style="fill:#FCD79D;" d="M368.589,419.858c-1.651-7.704-9.231-12.62-16.939-10.962c-6.129,1.313-11.384,3.348-15.967,5.843
	c0.062,7.598,2.776,19.865,12.297,25.883c2.768-1.714,5.901-3.023,9.647-3.825C365.331,435.147,370.24,427.563,368.589,419.858z"/>
<path id="SVGCleanerId_0" style="fill:#EDA751;" d="M170.804,512c-8.47,0-16.605-4.734-20.552-12.864
	c-9.465-19.499-8.964-42.085,1.374-61.968c10.249-19.708,28.854-33.487,49.768-36.859c12.451-2.005,24.163,6.456,26.17,18.903
	c2.006,12.447-6.457,24.163-18.902,26.17c-6.731,1.085-12.91,5.889-16.53,12.849c-1.709,3.286-5.207,11.906-0.809,20.967
	c5.505,11.342,0.775,24.999-10.566,30.504C177.545,511.261,174.148,512,170.804,512z"/>
<g>
	<path id="SVGCleanerId_0_1_" style="fill:#EDA751;" d="M170.804,512c-8.47,0-16.605-4.734-20.552-12.864
		c-9.465-19.499-8.964-42.085,1.374-61.968c10.249-19.708,28.854-33.487,49.768-36.859c12.451-2.005,24.163,6.456,26.17,18.903
		c2.006,12.447-6.457,24.163-18.902,26.17c-6.731,1.085-12.91,5.889-16.53,12.849c-1.709,3.286-5.207,11.906-0.809,20.967
		c5.505,11.342,0.775,24.999-10.566,30.504C177.545,511.261,174.148,512,170.804,512z"/>
</g>
<path style="fill:#EDA751;" d="M75.878,470.731c-0.072,0-0.143,0-0.215-0.001c-12.606-0.116-22.732-10.43-22.615-23.037
	c0.427-46.331,34.583-73.315,56.012-79.441c12.122-3.467,24.757,3.552,28.222,15.674c3.465,12.121-3.552,24.756-15.674,28.222
	c-3.724,1.064-22.683,11.599-22.908,35.967C98.583,460.648,88.386,470.731,75.878,470.731z"/>
<g>
	<path style="opacity:0.2;fill:#A35F00;enable-background:new    ;" d="M260.943,444.974c-8.114-10.35-14.141-26.951-20.527-46.315
		c-1.382-4.193-2.689-8.153-4.051-12.059c-2.597-7.438-10.733-11.363-18.174-8.766c-7.439,2.598-11.364,10.733-8.765,18.174
		c1.281,3.67,2.549,7.516,3.892,11.587c4.975,15.089,10.615,32.191,19.136,46.255c0.935,1.542,1.902,3.007,2.885,4.436
		c8.318-3.129,16.271-7.149,23.726-12.03C259.702,445.84,260.317,445.401,260.943,444.974z"/>
	<path style="opacity:0.2;fill:#A35F00;enable-background:new    ;" d="M201.394,400.31c-20.914,3.372-39.519,17.15-49.768,36.859
		c-3.468,6.67-5.824,13.645-7.073,20.706c0.342,0.128,0.681,0.261,1.025,0.386c14.234,5.18,28.998,7.871,43.906,8.019
		c0.562-3.571,1.815-6.446,2.648-8.048c3.619-6.961,9.799-11.765,16.53-12.849c12.446-2.006,20.909-13.723,18.902-26.17
		C225.558,406.766,213.846,398.305,201.394,400.31z"/>
	<path style="opacity:0.2;fill:#A35F00;enable-background:new    ;" d="M109.059,368.252c-10.784,3.083-24.788,11.454-36.098,24.909
		c0.484,1.013,0.98,2.023,1.495,3.028c6.959,13.598,16.302,25.702,27.524,35.885c5.645-13.088,16.855-19.133,19.627-19.926
		c12.121-3.465,19.139-16.1,15.674-28.222C133.817,371.804,121.182,364.784,109.059,368.252z"/>
</g>
<ellipse transform="matrix(0.342 -0.9397 0.9397 0.342 -204.2601 403.3512)" style="fill:#FCD690;" cx="185.886" cy="347.529" rx="97.83" ry="105.29"/>
<path style="opacity:0.15;fill:#C17A00;enable-background:new    ;" d="M138.327,433.23
	c-34.407-46.139,1.747-101.875,19.105-125.687l21.381-58.745c-40.831,0.809-77.941,24.453-91.871,62.725
	C70.123,357.736,92.9,409.336,138.327,433.23z"/>
<path style="fill:#EDA751;" d="M183.693,166.205c25.272-9.198,48.124-31.764,35.489-82.016
	C206.448,33.54,169.178,8.441,135.815,0.566c-8.225-1.941-16.864,1.203-21.917,7.977c-20.495,27.478-32.912,70.661-10.111,117.646
	C126.41,172.805,158.42,175.403,183.693,166.205z"/>
<path style="fill:#FF91AB;" d="M110.893,12.795c-18.637,27.568-28.766,68.76-7.105,113.394
	c19.609,40.405,46.267,47.731,69.48,42.979C192.458,75.85,144.012,31.619,110.893,12.795z"/>
<path style="fill:#EDA751;" d="M304.111,210.033c-13.447-23.291-16.447-55.266,25.532-85.64
	c42.311-30.614,86.995-25.884,117.614-10.472c7.549,3.8,12.145,11.761,11.662,20.199c-1.962,34.223-20.208,75.285-67.876,96.621
	C343.749,251.91,317.558,233.324,304.111,210.033z"/>
<path style="fill:#FF91AB;" d="M458.488,139.31c-3.443,33.098-22.163,71.164-67.445,91.432
	c-40.993,18.348-66.124,6.824-80.851-11.738C355.476,135.184,421.018,132.441,458.488,139.31z"/>
<path style="fill:#FFDC9C;" d="M403.416,273.944c-28.031,77.015-115.721,83.298-208.747,49.44
	c-93.026-33.859-156.161-95.038-128.13-172.053C94.571,74.316,192.707,39.332,285.733,73.19
	C378.758,107.049,431.447,196.929,403.416,273.944z"/>
<path style="opacity:0.15;fill:#C17A00;enable-background:new    ;" d="M187.959,61.986
	c-56.167,7.542-103.354,39.711-121.419,89.345c-24.096,66.204,19.177,120.706,90.893,156.211
	C73.473,204.41,118.839,123.303,187.959,61.986z"/>
<g>
	
		<ellipse transform="matrix(0.342 -0.9397 0.9397 0.342 -75.143 264.2839)" style="fill:#FF91AB;" cx="151.142" cy="185.798" rx="25.846" ry="32.455"/>
	
		<ellipse transform="matrix(-0.342 0.9397 -0.9397 -0.342 655.811 32.7384)" style="fill:#FF91AB;" cx="316.443" cy="245.976" rx="25.846" ry="32.455"/>
</g>
<g>
	<path style="fill:#495059;" d="M145.576,185.624c-1.168,0-2.354-0.274-3.461-0.851c-7.349-3.83-26.372-9.227-33.721-9.994
		c-4.12-0.43-7.11-4.118-6.68-8.238c0.43-4.12,4.126-7.119,8.238-6.68c9.184,0.959,29.792,6.762,39.096,11.611
		c3.673,1.914,5.099,6.443,3.184,10.117C150.896,184.154,148.282,185.624,145.576,185.624z"/>
	<path style="fill:#495059;" d="M105.721,214.49c-3.24,0-6.228-2.115-7.19-5.381c-1.172-3.973,1.099-8.144,5.072-9.314
		c8.856-2.612,30.121-5.101,40.57-4.161c4.125,0.37,7.169,4.015,6.799,8.141c-0.37,4.125-4.007,7.165-8.141,6.799
		c-8.253-0.733-27.898,1.519-34.986,3.608C107.138,214.391,106.423,214.49,105.721,214.49z"/>
	<path style="fill:#495059;" d="M360.473,266.288c-1.444,0-2.903-0.416-4.19-1.285c-6.125-4.137-24.168-12.231-32.258-14.02
		c-4.044-0.895-6.598-4.898-5.703-8.943c0.895-4.043,4.892-6.595,8.943-5.703c10.24,2.266,29.758,11.066,37.412,16.235
		c3.433,2.318,4.336,6.98,2.018,10.413C365.246,265.13,362.881,266.288,360.473,266.288z"/>
	<path style="fill:#495059;" d="M337.63,298.894c-2.429,0-4.813-1.179-6.256-3.354c-4.086-6.157-17.683-20.516-24.481-25.253
		c-3.398-2.368-4.233-7.043-1.865-10.441c2.368-3.397,7.043-4.233,10.441-1.865c8.605,5.997,23.297,21.57,28.403,29.265
		c2.29,3.451,1.35,8.107-2.102,10.397C340.494,298.488,339.055,298.894,337.63,298.894z"/>
</g>
<path style="fill:#FF91AB;" d="M205.197,257.146c0.185,0.151,0.369,0.3,0.553,0.448c6.45,5.202,14.437,8.109,22.721,8.27
	c0.236,0.005,0.473,0.009,0.712,0.012c13.666,0.192,25.927-8.382,30.602-21.226l9.802-26.932c1.623-4.459-0.195-9.44-4.309-11.805
	l0,0c-15.24-8.761-31.882-14.818-49.188-17.903l0,0c-4.672-0.833-9.266,1.814-10.889,6.273l-9.802,26.932
	C190.723,234.059,194.605,248.508,205.197,257.146z"/>
<g>
	<path style="fill:#495059;" d="M188.275,179.316c-0.852,0-1.717-0.146-2.564-0.454c-3.893-1.417-5.899-5.721-4.483-9.612
		c0.506-1.392,0.44-2.896-0.185-4.236c-0.625-1.341-1.735-2.357-3.125-2.863c-1.393-0.507-2.895-0.441-4.235,0.185
		c-1.341,0.625-2.357,1.735-2.863,3.125c-1.416,3.892-5.721,5.898-9.612,4.483c-3.893-1.417-5.899-5.721-4.483-9.612
		c1.876-5.156,5.648-9.273,10.62-11.591c4.971-2.318,10.547-2.562,15.704-0.686c10.642,3.873,16.148,15.682,12.275,26.324
		C194.216,177.425,191.339,179.316,188.275,179.316z"/>
	<path style="fill:#495059;" d="M321.497,227.805c-0.852,0-1.718-0.146-2.564-0.454c-3.893-1.417-5.899-5.721-4.482-9.613
		c0.506-1.39,0.44-2.895-0.185-4.235c-0.625-1.341-1.735-2.357-3.125-2.863c-2.874-1.046-6.056,0.441-7.099,3.311
		c-1.416,3.891-5.716,5.895-9.613,4.482c-3.892-1.417-5.899-5.721-4.482-9.613c3.873-10.643,15.683-16.146,26.324-12.275
		c5.155,1.876,9.272,5.648,11.59,10.62c2.318,4.973,2.561,10.55,0.686,15.705C327.438,225.913,324.561,227.805,321.497,227.805z"/>
</g>
<g>
	<path style="fill:#7CC5E6;" d="M97.236,134.273c17.892-3.094,28.259,1.417,35.175,7.212c5.035,4.219,12.76,0.001,11.971-6.52
		c-3.664-30.301-28.968-49.752-55.111-45.174c-13.483,2.361-22.067,16.222-17.434,29.737
		C75.42,129.975,86.354,136.154,97.236,134.273z"/>
	<path style="fill:#7CC5E6;" d="M390.866,241.145c-11.718-13.87-22.558-17.079-31.582-17.086c-6.569-0.005-9.776-8.201-4.98-12.689
		c22.284-20.856,54.171-19.492,71.255,0.819c8.811,10.476,6.477,26.611-5.76,33.986
		C410.341,251.876,397.993,249.582,390.866,241.145z"/>
</g>
<path style="fill:#EDA751;" d="M237.919,437.923c-13.061,0-29.23-4.525-48.343-18.109c-10.275-7.304-12.685-21.555-5.381-31.831
	s21.556-12.684,31.831-5.381c13.129,9.332,21.619,10.745,25.176,8.95c4.251-2.137,7.564-10.264,7.687-16.105
	c0.265-12.603,10.701-22.635,23.302-22.341c12.604,0.264,22.606,10.697,22.341,23.302c-0.417,19.836-10.727,44.823-32.819,55.932
	C255.523,435.452,247.569,437.923,237.919,437.923z"/>
<path style="opacity:0.1;fill:#C18F00;enable-background:new    ;" d="M237.919,437.923c-13.061,0-29.23-4.525-48.343-18.109
	c-10.275-7.304-12.685-21.555-5.381-31.831s21.556-12.684,31.831-5.381c13.129,9.332,21.619,10.745,25.176,8.95
	c4.251-2.137,7.564-10.264,7.687-16.105c0.265-12.603,10.701-22.635,23.302-22.341c12.604,0.264,22.606,10.697,22.341,23.302
	c-0.417,19.836-10.727,44.823-32.819,55.932C255.523,435.452,247.569,437.923,237.919,437.923z"/>
<path style="fill:#EDA751;" d="M110.573,385.16c-1.29,0-2.596-0.109-3.91-0.336c-18.184-3.139-33.784-15.378-41.73-32.74
	c-8.406-18.367-7.2-39.685,3.227-57.025c6.497-10.806,20.525-14.296,31.326-7.799c10.804,6.497,14.296,20.522,7.799,31.326
	c-2.657,4.419-2.971,9.84-0.839,14.498c0.804,1.754,3.188,5.924,7.984,6.751c12.423,2.145,20.755,13.955,18.612,26.378
	C131.123,377.323,121.476,385.16,110.573,385.16z"/>
<path style="opacity:0.15;fill:#C18F00;enable-background:new    ;" d="M110.573,385.16c-1.29,0-2.596-0.109-3.91-0.336
	c-18.184-3.139-33.784-15.378-41.73-32.74c-8.406-18.367-7.2-39.685,3.227-57.025c6.497-10.806,20.525-14.296,31.326-7.799
	c10.804,6.497,14.296,20.522,7.799,31.326c-2.657,4.419-2.971,9.84-0.839,14.498c0.804,1.754,3.188,5.924,7.984,6.751
	c12.423,2.145,20.755,13.955,18.612,26.378C131.123,377.323,121.476,385.16,110.573,385.16z"/>
<g>
</g>
<g>
</g>
<g>
</g>
<g>
</g>
<g>
</g>
<g>
</g>
<g>
</g>
<g>
</g>
<g>
</g>
<g>
</g>
<g>
</g>
<g>
</g>
<g>
</g>
<g>
</g>
<g>
</g>
</svg>
