<?xml version="1.0" encoding="iso-8859-1"?>
<!-- Generator: Adobe Illustrator 19.0.0, SVG Export Plug-In . SVG Version: 6.00 Build 0)  -->
<svg version="1.1" id="Capa_1" xmlns="http://www.w3.org/2000/svg" xmlns:xlink="http://www.w3.org/1999/xlink" x="0px" y="0px"
	 viewBox="0 0 512.001 512.001" style="enable-background:new 0 0 512.001 512.001;" xml:space="preserve">
<path style="fill:#B77866;" d="M208.316,506.311c-0.665,0-1.341-0.089-2.014-0.276c-3.99-1.109-6.326-5.244-5.216-9.235
	l11.817-42.494c1.109-3.99,5.241-6.329,9.235-5.216c3.99,1.109,6.326,5.244,5.216,9.235l-11.817,42.494
	C214.615,504.137,211.601,506.311,208.316,506.311z"/>
<g>
	<path style="fill:#EDA751;" d="M220.142,478.098c-1.931,0-3.895-0.258-5.848-0.802c-11.588-3.223-18.369-15.229-15.146-26.817
		l11.208-40.303c3.222-11.587,15.224-18.373,26.818-15.146c11.588,3.223,18.37,15.229,15.146,26.817l-11.208,40.303
		C238.433,471.786,229.679,478.098,220.142,478.098z"/>
	<path style="fill:#EDA751;" d="M370.765,430.583c-10.125,0-19.707-2.867-28.938-8.615c-12.907-8.037-22.909-20.285-33.498-33.251
		l-0.772-0.945c-4.756-5.821-3.892-14.397,1.93-19.153c5.822-4.757,14.397-3.891,19.153,1.93l0.774,0.949
		c21.005,25.719,32.11,37.703,54.876,29.026c45.398-17.292,74.768-17.564,101.373-0.937c6.375,3.984,8.313,12.382,4.328,18.757
		c-3.983,6.375-12.38,8.315-18.757,4.328c-18.697-11.684-40.355-10.763-77.254,3.293
		C385.903,429.041,378.188,430.583,370.765,430.583z"/>
</g>
<path style="fill:#FCD79D;" d="M485.663,399.587c-3.272-2.045-6.586-3.831-9.966-5.364c-5.621,3.824-12.457,12.31-13.462,23.909
	c3.102,1.206,6.087,2.72,8.999,4.54c6.377,3.987,14.773,2.047,18.757-4.328C493.976,411.968,492.038,403.57,485.663,399.587z"/>
<g>
	<path style="fill:#EDA751;" d="M313.987,512.001c-0.34,0-0.683-0.007-1.027-0.023c-12.014-0.557-21.302-10.75-20.745-22.766
		c0.942-20.303-1.721-48.58-7.81-60.758c-5.379-10.759-1.019-23.841,9.74-29.22c10.761-5.379,23.841-1.018,29.22,9.74
		c11.687,23.374,13.268,62.704,12.361,82.258C335.184,502.903,325.55,512.001,313.987,512.001z"/>
	<path style="fill:#EDA751;" d="M132.313,392.269c-15.646,0-30.858-5.284-45.45-15.819c-9.752-7.041-11.949-20.655-4.908-30.406
		s20.654-11.949,30.406-4.908c20.632,14.896,36.269,7.049,65.712-17.482c9.239-7.698,22.973-6.451,30.673,2.793
		c7.699,9.241,6.449,22.974-2.792,30.673c-14.706,12.252-30.643,24.743-49.514,31.063
		C148.303,390.908,140.252,392.269,132.313,392.269z"/>
	<path style="fill:#EDA751;" d="M382.83,369.176c-16.647,0-32.495-3.544-43.809-9.559c-10.62-5.647-14.653-18.833-9.006-29.454
		c5.647-10.619,18.83-14.654,29.454-9.006c14.114,7.505,48.909,6.086,58.294-8.52c6.502-10.12,19.976-13.05,30.096-6.55
		c10.119,6.503,13.051,19.977,6.55,30.096C439.274,359.736,409.992,369.176,382.83,369.176z"/>
</g>
<g>
	<path style="opacity:0.2;fill:#A35F00;enable-background:new    ;" d="M237.175,395.03c-11.594-3.226-23.596,3.559-26.818,15.146
		l-9.5,34.16c12,8.052,25.63,14.083,40.324,17.57l11.141-40.059C255.544,410.259,248.763,398.253,237.175,395.03z"/>
	<path style="opacity:0.2;fill:#A35F00;enable-background:new    ;" d="M323.364,408.974c-5.379-10.758-18.459-15.119-29.22-9.74
		c-10.759,5.379-15.119,18.461-9.74,29.22c3.745,7.49,6.192,21.074,7.303,35.145c15.234-2.54,29.485-7.789,42.177-15.189
		C332.057,434.21,328.808,419.862,323.364,408.974z"/>
	<path style="opacity:0.2;fill:#A35F00;enable-background:new    ;" d="M378.529,402.333c-19.036,4.637-29.962-7.385-49.114-30.836
		l-0.774-0.948c-4.757-5.821-13.331-6.687-19.153-1.93c-5.822,4.757-6.685,13.332-1.93,19.153l0.772,0.945
		c10.589,12.966,20.591,25.214,33.498,33.251c5.504,3.427,11.135,5.822,16.93,7.204
		C366.641,421.206,373.322,412.174,378.529,402.333z"/>
	<path style="opacity:0.2;fill:#A35F00;enable-background:new    ;" d="M387.729,325.419c-10.804,0.763-21.739-0.794-28.259-4.262
		c-10.624-5.648-23.807-1.613-29.454,9.006c-5.647,10.621-1.614,23.807,9.006,29.454c11.314,6.015,27.162,9.559,43.809,9.559
		c2.288,0,4.592-0.073,6.9-0.21c0.887-5.537,1.351-11.204,1.351-16.97C391.081,342.845,389.915,333.947,387.729,325.419z"/>
	<path style="opacity:0.2;fill:#A35F00;enable-background:new    ;" d="M178.074,323.654c-10.714,8.926-19.595,15.631-27.558,19.847
		c-0.222,2.805-0.337,5.638-0.337,8.495c0,12.644,2.213,24.81,6.292,36.176c18.859-6.323,34.786-18.807,49.485-31.052
		c9.241-7.699,10.492-21.432,2.793-30.673C201.047,317.203,187.313,315.956,178.074,323.654z"/>
</g>
<ellipse style="fill:#FCD690;" cx="270.631" cy="352.001" rx="100.45" ry="93.34"/>
<path style="opacity:0.15;fill:#C17A00;enable-background:new    ;" d="M255.961,444.345
	c-45.903-30.138-31.677-91.906-23.885-118.919v-59.644c-36.343,14.049-61.898,47.357-61.898,86.215
	C170.178,398.917,207.437,437.746,255.961,444.345z"/>
<path style="fill:#EDA751;" d="M209.499,190.142c19.656-16.493,32.78-44.181,5.055-85.111
	c-27.944-41.253-69.548-51.594-102.029-47.767c-8.008,0.943-14.727,6.581-17.046,14.304c-9.409,31.323-6.45,74.091,29.325,108.774
	C160.296,214.751,189.843,206.635,209.499,190.142z"/>
<path style="fill:#FF91AB;" d="M94.171,76.359c-7.714,30.797-3.352,71.033,30.632,103.981c30.765,29.827,57.056,27.695,76.317,15.86
	C187.873,106.274,130.006,82.428,94.171,76.359z"/>
<path style="fill:#EDA751;" d="M331.761,190.142c-19.656-16.493-32.78-44.181-5.055-85.111
	c27.944-41.253,69.548-51.594,102.029-47.767c8.008,0.943,14.727,6.581,17.046,14.304c9.409,31.323,6.449,74.091-29.325,108.774
	C380.963,214.751,351.417,206.635,331.761,190.142z"/>
<path style="fill:#FF91AB;" d="M447.089,76.359c7.713,30.797,3.352,71.033-30.632,103.981
	c-30.765,29.827-57.056,27.695-76.317,15.86C353.387,106.274,411.253,82.428,447.089,76.359z"/>
<path style="fill:#FFDC9C;" d="M441.647,215.036c0,78.194-76.567,112.442-171.017,112.442S99.612,293.229,99.612,215.036
	S176.179,73.453,270.63,73.453S441.647,136.842,441.647,215.036z"/>
<path style="opacity:0.15;fill:#C17A00;enable-background:new    ;" d="M179.315,95.313c-47.895,25.09-79.703,69.329-79.703,119.723
	c0,67.218,56.581,101.961,132.464,110.39C123.148,260.36,137.355,172.841,179.315,95.313z"/>
<g>
	<ellipse style="fill:#FF91AB;" cx="186.711" cy="218.331" rx="30.965" ry="24.659"/>
	<ellipse style="fill:#FF91AB;" cx="354.551" cy="218.331" rx="30.965" ry="24.659"/>
</g>
<g>
	<path style="fill:#495059;" d="M204.757,201.234c-4.143,0-7.5-3.357-7.5-7.5v-10.935c0-4.143,3.357-7.5,7.5-7.5s7.5,3.357,7.5,7.5
		v10.935C212.257,197.877,208.899,201.234,204.757,201.234z"/>
	<path style="fill:#495059;" d="M336.503,201.234c-4.143,0-7.5-3.357-7.5-7.5v-10.935c0-4.143,3.357-7.5,7.5-7.5
		c4.142,0,7.5,3.357,7.5,7.5v10.935C344.003,197.877,340.645,201.234,336.503,201.234z"/>
	<path style="fill:#495059;" d="M270.63,209.632c-8.824,0-17.215-3.821-23.021-10.484c-2.722-3.123-2.395-7.86,0.727-10.582
		c3.122-2.721,7.86-2.396,10.582,0.727c2.957,3.394,7.227,5.34,11.713,5.34s8.756-1.946,11.713-5.34
		c2.72-3.123,7.457-3.447,10.582-0.727c3.122,2.722,3.448,7.459,0.727,10.582C287.845,205.811,279.454,209.632,270.63,209.632z"/>
	<path style="fill:#495059;" d="M143.047,222.96c-3.36,0-6.418-2.275-7.271-5.683c-1.004-4.019,1.439-8.091,5.457-9.096
		c8.576-2.144,29.013-3.67,38.97-2.355c4.105,0.543,6.995,4.313,6.452,8.418c-0.543,4.108-4.318,6.995-8.419,6.453
		c-7.805-1.034-26.552,0.332-33.364,2.036C144.262,222.887,143.649,222.96,143.047,222.96z"/>
	<path style="fill:#495059;" d="M152.911,259.648c-2.3,0-4.569-1.054-6.04-3.046c-2.46-3.332-1.753-8.028,1.58-10.488
		c7.11-5.249,25.423-14.447,35.131-17.025c4.004-1.061,8.111,1.321,9.174,5.324c1.063,4.003-1.321,8.11-5.324,9.174
		c-7.612,2.021-24.423,10.425-30.072,14.596C156.02,259.172,154.458,259.648,152.911,259.648z"/>
	<path style="fill:#495059;" d="M398.213,222.96c-0.603,0-1.214-0.073-1.825-0.226c-6.814-1.704-25.559-3.07-33.364-2.036
		c-4.103,0.541-7.875-2.345-8.419-6.452c-0.543-4.106,2.346-7.876,6.452-8.419c9.955-1.315,30.394,0.211,38.97,2.355
		c4.018,1.005,6.461,5.077,5.457,9.096C404.631,220.685,401.573,222.96,398.213,222.96z"/>
	<path style="fill:#495059;" d="M388.349,259.648c-1.548,0-3.108-0.477-4.448-1.466c-5.649-4.17-22.459-12.574-30.072-14.596
		c-4.004-1.063-6.387-5.171-5.324-9.174c1.065-4.004,5.176-6.386,9.174-5.324c9.708,2.578,28.021,11.777,35.131,17.025
		c3.333,2.46,4.04,7.156,1.58,10.488C392.918,258.595,390.648,259.648,388.349,259.648z"/>
	<path style="fill:#495059;" d="M383.041,184.054c-44.952,0-86.485-6.149-116.741-12.287
		c-49.255-9.992-96.236-25.393-128.898-42.253c-3.681-1.899-5.124-6.424-3.224-10.105c1.899-3.682,6.426-5.124,10.105-3.224
		c51.397,26.53,175.322,63.562,289.045,49.999c4.103-0.485,7.846,2.444,8.336,6.559c0.49,4.113-2.446,7.845-6.559,8.336
		C417.547,183.174,400.048,184.054,383.041,184.054z"/>
	<path style="fill:#495059;" d="M315.622,163.281L315.622,163.281c-2.781,0.932-4.655,3.536-4.655,6.469v17.883
		c0,13.847,10.767,25.64,24.605,26.132c14.528,0.516,26.468-11.107,26.468-25.52V169.75c0-2.933-1.874-5.537-4.655-6.469l0,0
		C343.834,158.741,329.173,158.741,315.622,163.281z"/>
	<path style="fill:#495059;" d="M217.265,118.177c-14.931,0-28.6-8.377-35.377-21.682l-6.156-12.085
		c-5.971-11.723,4.753-24.983,17.466-21.595l10.643,2.836c7.671,2.044,15.185-3.839,14.976-11.775
		c-0.066-2.498,0.035-5.039,0.316-7.611c0.435-3.987,1.298-7.848,2.54-11.537c15.598-46.304,82.317-46.304,97.914,0
		c1.243,3.689,2.105,7.55,2.54,11.537c0.281,2.572,0.382,5.113,0.316,7.611c-0.209,7.936,7.305,13.819,14.976,11.775l10.643-2.836
		c12.713-3.388,23.437,9.872,17.466,21.595l-6.156,12.085c-6.777,13.304-20.446,21.682-35.377,21.682H217.265z"/>
</g>
<g>
	<path style="fill:#FFFFFF;" d="M255.884,79.859c-1.92,0-3.839-0.732-5.304-2.197c-2.929-2.929-2.929-7.677,0.001-10.606
		l29.492-29.491c2.929-2.928,7.678-2.929,10.606,0.001c2.929,2.929,2.929,7.677-0.001,10.606l-29.492,29.491
		C259.723,79.127,257.803,79.859,255.884,79.859z"/>
	<path style="fill:#FFFFFF;" d="M285.376,79.859c-1.919,0-3.839-0.732-5.303-2.196l-29.492-29.491
		c-2.93-2.93-2.93-7.678-0.001-10.606c2.93-2.93,7.679-2.929,10.606-0.001l29.492,29.491c2.93,2.93,2.93,7.678,0.001,10.606
		C289.215,79.127,287.295,79.859,285.376,79.859z"/>
</g>
<path style="fill:#B77866;" d="M98.747,337.666l-27.178,7.282l8.995,33.568c2.011,7.505,9.725,11.959,17.23,9.948l0,0
	c7.505-2.011,11.959-9.725,9.948-17.23L98.747,337.666z"/>
<path style="fill:#DEE2E5;" d="M28.394,134.136L28.394,134.136c-14.495,45.812-10.231,95.503,11.858,138.175l24.66,47.64
	l27.104-7.263L44.267,134.49C42.128,126.505,30.888,126.254,28.394,134.136z"/>
<path style="fill:#BD4568;" d="M119.776,332.031l-69.235,18.551c-3.61,0.967-7.32-1.175-8.287-4.785l-3.193-11.915
	c-0.967-3.61,1.175-7.32,4.785-8.287l69.235-18.552c3.61-0.967,7.32,1.175,8.287,4.785l3.193,11.915
	C125.528,327.353,123.386,331.064,119.776,332.031z"/>
<g>
</g>
<g>
</g>
<g>
</g>
<g>
</g>
<g>
</g>
<g>
</g>
<g>
</g>
<g>
</g>
<g>
</g>
<g>
</g>
<g>
</g>
<g>
</g>
<g>
</g>
<g>
</g>
<g>
</g>
</svg>
