<?xml version="1.0" encoding="iso-8859-1"?>
<!-- Generator: Adobe Illustrator 19.0.0, SVG Export Plug-In . SVG Version: 6.00 Build 0)  -->
<svg version="1.1" id="Capa_1" xmlns="http://www.w3.org/2000/svg" xmlns:xlink="http://www.w3.org/1999/xlink" x="0px" y="0px"
	 viewBox="0 0 512 512" style="enable-background:new 0 0 512 512;" xml:space="preserve">
<path style="fill:#EDA751;" d="M185.169,432.654c-7.921,0-16.125-1.518-24.579-4.557c-35.12-12.623-53.489-17.109-70.157-3.759
	c-6.659,5.336-16.381,4.259-21.715-2.399c-5.334-6.66-4.259-16.381,2.4-21.715c31.988-25.624,66.526-13.207,99.924-1.201
	c25.15,9.041,37.99-5.449,58.527-31.835c2.762-3.549,5.618-7.219,8.536-10.79c5.397-6.608,15.13-7.588,21.737-2.19
	c6.607,5.398,7.588,15.131,2.19,21.738c-2.687,3.289-5.307,6.656-8.081,10.22c-10.383,13.339-21.119,27.133-35.234,36.293
	C208.249,429.251,197.027,432.654,185.169,432.654z"/>
<path style="fill:#FCD79D;" d="M82.686,392.616c-3.888,2.041-7.748,4.545-11.57,7.607c-6.659,5.333-7.734,15.055-2.4,21.715
	c5.334,6.659,15.056,7.735,21.715,2.399c2.709-2.17,5.466-3.861,8.329-5.13C97.625,407.157,90.036,397.664,82.686,392.616z"/>
<g>
	<path style="fill:#EDA751;" d="M253.502,512c-2.735,0-5.514-0.457-8.239-1.421c-12.87-4.55-19.615-18.672-15.065-31.543
		c8.395-23.745,16.08-49.811,9.435-63.1c-6.105-12.21-1.156-27.058,11.054-33.162c12.212-6.104,27.058-1.155,33.162,11.054
		c14.053,28.108,7.348,60.978-7.043,101.685C273.219,505.659,263.682,512,253.502,512z"/>
	<path style="fill:#EDA751;" d="M167.483,367.004c-28.486,0-57.122-10.787-75.113-28.78c-9.653-9.653-9.653-25.303,0-34.956
		c9.653-9.653,25.304-9.654,34.956,0.001c9.854,9.853,28.679,15.632,45.758,14.044c10.029-0.929,17.97-4.337,21.24-9.112
		c7.714-11.263,23.098-14.141,34.36-6.429c11.263,7.713,14.141,23.097,6.428,34.36c-11.824,17.269-32.232,28.067-57.463,30.406
		C174.276,366.849,170.879,367.004,167.483,367.004z"/>
	<path style="fill:#EDA751;" d="M387.68,491.704c-2.735,0-5.514-0.457-8.24-1.421c-12.87-4.551-19.615-18.673-15.065-31.544
		c2.862-8.092,2.337-14.691-1.651-20.767c-4.009-6.109-9.809-9.316-11.03-9.782c-12.88-4.521-19.637-18.62-15.115-31.502
		c4.52-12.88,18.648-19.648,31.528-15.129c12.557,4.406,30.756,16.934,40.72,37.737c8.254,17.231,8.999,36.568,2.157,55.922
		C407.398,485.365,397.861,491.704,387.68,491.704z"/>
</g>
<g>
	<path style="opacity:0.2;fill:#A35F00;enable-background:new    ;" d="M406.998,415.748c-10.243-18.681-27.065-30.038-38.89-34.188
		c-12.88-4.52-27.008,2.248-31.528,15.129c-4.521,12.881,2.235,26.98,15.115,31.502c1.221,0.466,7.021,3.673,11.03,9.782
		c1.859,2.832,2.955,5.781,3.317,8.938C381.794,439.136,395.709,428.505,406.998,415.748z"/>
	<path style="opacity:0.2;fill:#A35F00;enable-background:new    ;" d="M250.687,382.774c-12.21,6.104-17.159,20.952-11.054,33.162
		c3.565,7.129,3.003,17.935,0.423,30.086c14.416,7.378,30.426,12.337,47.407,14.303c5.888-25.149,6.148-46.973-3.614-66.497
		C277.745,381.619,262.898,376.67,250.687,382.774z"/>
	<path style="opacity:0.2;fill:#A35F00;enable-background:new    ;" d="M259.841,354.207c-6.607-5.397-16.34-4.417-21.737,2.19
		c-2.918,3.571-5.774,7.24-8.536,10.79c-14.742,18.939-25.518,31.748-39.727,34.127c6.081,9.254,13.394,17.721,21.732,25.186
		c2.417-1.181,4.8-2.522,7.143-4.042c14.114-9.16,24.85-22.954,35.234-36.293c2.773-3.564,5.394-6.931,8.081-10.22
		C267.429,369.338,266.448,359.605,259.841,354.207z"/>
	<path style="opacity:0.2;fill:#A35F00;enable-background:new    ;" d="M228.684,301.771c-11.262-7.712-26.646-4.834-34.36,6.429
		c-3.27,4.776-11.21,8.183-21.24,9.112c-0.592,0.055-1.191,0.08-1.787,0.118c-0.891,5.852-1.361,11.83-1.361,17.91
		c0,10.857,1.47,21.397,4.232,31.455c1.163-0.07,2.324-0.152,3.482-0.259c25.231-2.339,45.639-13.137,57.463-30.406
		C242.825,324.868,239.947,309.484,228.684,301.771z"/>
</g>
<ellipse style="fill:#FCD690;" cx="303.94" cy="335.34" rx="114.01" ry="105.94"/>
<path style="opacity:0.15;fill:#C17A00;enable-background:new    ;" d="M287.293,440.15
	c-52.097-34.204-35.952-104.307-27.108-134.965v-67.693c-41.247,15.945-70.25,53.747-70.25,97.848
	C189.935,388.593,232.222,432.662,287.293,440.15z"/>
<path style="fill:#EDA751;" d="M234.562,151.647c22.308-18.719,37.203-50.143,5.737-96.596
	C208.584,8.231,161.365-3.505,124.502,0.838c-9.088,1.071-16.714,7.469-19.346,16.234c-10.678,35.549-7.32,84.088,33.282,123.451
	C178.72,179.577,212.253,170.366,234.562,151.647z"/>
<path style="fill:#FF91AB;" d="M103.672,22.511c-8.754,34.953-3.804,80.618,34.765,118.012c34.916,33.851,64.755,31.432,86.614,18
	C210.017,56.463,144.343,29.399,103.672,22.511z"/>
<path style="fill:#EDA751;" d="M373.321,151.647c-22.308-18.719-37.203-50.143-5.737-96.596
	C399.299,8.231,446.517-3.505,483.38,0.838c9.088,1.071,16.714,7.469,19.346,16.234c10.678,35.549,7.32,84.088-33.282,123.451
	C429.163,179.577,395.63,170.366,373.321,151.647z"/>
<path style="fill:#FF91AB;" d="M504.211,22.511c8.754,34.953,3.804,80.618-34.765,118.012c-34.916,33.851-64.755,31.432-86.615,18
	C397.865,56.463,463.54,29.399,504.211,22.511z"/>
<path style="fill:#FFDC9C;" d="M498.035,179.9c0,88.745-86.899,127.614-194.094,127.614S109.848,268.645,109.848,179.9
	S196.747,19.213,303.942,19.213S498.035,91.155,498.035,179.9z"/>
<path style="opacity:0.15;fill:#C17A00;enable-background:new    ;" d="M200.305,44.022
	c-54.358,28.476-90.457,78.684-90.457,135.878c0,76.288,64.216,115.719,150.338,125.286
	C136.56,231.34,152.683,132.012,200.305,44.022z"/>
<path style="fill:#FF91AB;" d="M303.941,165.254c-7.635,0-14.495-3.284-19.274-8.504c-0.712,2.076-1.118,4.295-1.118,6.613
	c0,7.267-4.566,8.868-6.067,9.395c-10.628,3.727-16.221,15.364-12.495,25.992c2.944,8.395,10.823,13.649,19.242,13.649
	c2.239,0,4.517-0.372,6.749-1.155c24.593-8.625,33.355-30.389,33.355-47.881c0-2.318-0.405-4.537-1.118-6.614
	C318.437,161.97,311.577,165.254,303.941,165.254z"/>
<path style="opacity:0.1;enable-background:new    ;" d="M284.231,199.503c-3.097,0-5.995-1.933-7.077-5.021
	c-1.371-3.908,0.686-8.188,4.596-9.559c11.968-4.197,14.315-14.4,14.649-20.108c0.242-4.135,3.775-7.286,7.926-7.049
	c4.135,0.242,7.291,3.79,7.049,7.926c-0.926,15.814-10.145,28.296-24.661,33.386C285.892,199.366,285.054,199.503,284.231,199.503z"
	/>
<g>
	<ellipse style="fill:#FF91AB;" cx="208.7" cy="183.64" rx="35.14" ry="27.986"/>
	<ellipse style="fill:#FF91AB;" cx="399.19" cy="183.64" rx="35.14" ry="27.986"/>
</g>
<g>
	<path style="fill:#495059;" d="M303.941,172.754c-9.723,0-18.968-4.211-25.365-11.552c-2.722-3.123-2.395-7.86,0.727-10.582
		c3.122-2.721,7.859-2.396,10.582,0.727c3.548,4.072,8.672,6.407,14.057,6.407s10.509-2.335,14.057-6.407
		c2.723-3.123,7.457-3.448,10.582-0.727c3.122,2.722,3.448,7.459,0.727,10.582C322.909,168.543,313.664,172.754,303.941,172.754z"/>
	<path style="fill:#495059;" d="M245.473,160.727c-4.142,0-7.5-3.357-7.5-7.5c0-4.193-3.411-7.604-7.604-7.604
		c-4.193,0-7.605,3.411-7.605,7.604c0,4.143-3.358,7.5-7.5,7.5s-7.5-3.357-7.5-7.5c0-12.464,10.141-22.604,22.605-22.604
		c12.464,0,22.604,10.141,22.604,22.604C252.973,157.369,249.615,160.727,245.473,160.727z"/>
	<path style="fill:#495059;" d="M392.619,160.727c-4.142,0-7.5-3.357-7.5-7.5c0-4.193-3.411-7.604-7.604-7.604
		s-7.604,3.411-7.604,7.604c0,4.143-3.358,7.5-7.5,7.5c-4.143,0-7.5-3.357-7.5-7.5c0-12.464,10.141-22.604,22.604-22.604
		c12.464,0,22.604,10.141,22.604,22.604C400.119,157.369,396.762,160.727,392.619,160.727z"/>
	<path style="fill:#495059;" d="M159.144,187.881c-3.36,0-6.418-2.275-7.27-5.684c-1.005-4.018,1.438-8.09,5.457-9.095
		c9.65-2.411,32.648-4.13,43.848-2.651c4.107,0.543,6.996,4.311,6.454,8.418c-0.543,4.107-4.308,7.002-8.418,6.453
		c-9.135-1.207-30.261,0.337-38.246,2.333C160.358,187.808,159.746,187.881,159.144,187.881z"/>
	<path style="fill:#495059;" d="M170.337,229.521c-2.3,0-4.569-1.054-6.039-3.046c-2.461-3.332-1.753-8.028,1.579-10.488
		c8.002-5.907,28.609-16.259,39.531-19.159c4.004-1.061,8.11,1.32,9.174,5.324c1.063,4.004-1.321,8.11-5.324,9.174
		c-8.905,2.364-27.85,11.842-34.471,16.729C173.445,229.044,171.884,229.521,170.337,229.521z"/>
	<path style="fill:#495059;" d="M448.738,187.881c-0.603,0-1.214-0.073-1.825-0.226c-7.983-1.996-29.114-3.539-38.245-2.333
		c-4.108,0.541-7.875-2.347-8.418-6.453c-0.542-4.106,2.347-7.875,6.453-8.418c11.204-1.481,34.2,0.24,43.849,2.651
		c4.018,1.005,6.461,5.077,5.457,9.096C455.156,185.606,452.099,187.881,448.738,187.881z"/>
	<path style="fill:#495059;" d="M437.546,229.521c-1.548,0-3.108-0.477-4.448-1.466c-6.621-4.888-25.566-14.365-34.472-16.729
		c-4.003-1.064-6.387-5.17-5.324-9.174s5.169-6.384,9.174-5.324c10.922,2.9,31.528,13.252,39.53,19.159
		c3.333,2.46,4.04,7.156,1.58,10.488C442.115,228.467,439.846,229.521,437.546,229.521z"/>
</g>
<path style="fill:#7694E4;" d="M510.156,271.929c-6.429-17.662-28.484-27.132-56.13-26.676c-3.094,0.051-5.96,1.755-7.451,4.468
	c-3.005,5.466-7.926,9.909-14.248,12.211c-1.121,0.408-2.252,0.734-3.387,0.984c-1.732,0.381-3.097,1.668-3.701,3.335
	c-3.4,9.393-10.775,17.269-20.897,20.953c-11.528,4.196-23.826,1.943-32.956-4.911c-3.445-2.586-8.29-2.133-11.386,0.862
	c-6.899,6.672-12.271,13.758-15.796,20.879c-0.57,1.151-1.911,1.697-3.128,1.284c-9.506-3.228-21.904-5.705-36.514-5.517
	c-13.15,0.168-22.213,13.258-17.715,25.617l17.864,49.081c4.498,12.358,19.855,16.56,30.037,8.236
	c11.312-9.248,19.218-19.114,24.425-27.697c0.665-1.097,2.042-1.543,3.217-1.029c19.907,8.723,50.231,8.372,80.966-2.815
	C490.002,334.214,519.909,298.727,510.156,271.929z"/>
<path style="opacity:0.1;enable-background:new    ;" d="M321.223,325.615c-1.416-3.892-5.72-5.897-9.613-4.482l-23.242,8.46l0,0
	l5.13,14.096c0,0,0,0,0.001,0l23.242-8.46C320.633,333.812,322.64,329.508,321.223,325.615z M330.915,352.246
	c-1.417-3.893-5.721-5.898-9.613-4.482l-23.242,8.46l5.13,14.096l0,0l23.242-8.46C330.325,360.442,332.332,356.139,330.915,352.246z
	"/>
<g>
	<path style="fill:#495059;" d="M474.938,295.361c-1.061,0-2.14-0.227-3.165-0.705l-17.004-7.93
		c-3.754-1.75-5.378-6.213-3.627-9.967c1.751-3.754,6.215-5.378,9.967-3.627l17.004,7.93c3.754,1.75,5.378,6.213,3.627,9.967
		C480.467,293.758,477.762,295.361,474.938,295.361z"/>
	<path style="fill:#495059;" d="M462.471,299.898c-1.061,0-2.14-0.227-3.165-0.705c-3.754-1.75-5.378-6.213-3.627-9.967l7.93-17.004
		c1.751-3.754,6.215-5.377,9.967-3.627c3.754,1.75,5.378,6.213,3.627,9.967l-7.93,17.004
		C468,298.295,465.295,299.898,462.471,299.898z"/>
</g>
<path style="fill:#7694E4;" d="M147.96,295.538c-10.193-10.457-20.704-17.471-29.705-21.91c-1.161-0.572-1.728-1.916-1.314-3.142
	c3.55-10.524,4.482-23.557,2.714-37.737c-0.459-3.685-3.834-6.361-7.512-5.843c-14.347,2.021-28.929-5.399-35.37-19.213
	c-6.66-14.282-2.489-30.832,9.139-40.404c2.87-2.362,3.166-6.68,0.777-9.528c-20.416-24.343-45.608-36.069-64.399-27.306
	c-25.846,12.052-29.791,58.293-8.812,103.282c13.819,29.636,35.006,51.323,55.245,59.236c1.204,0.471,1.867,1.77,1.56,3.026
	c-2.385,9.749-3.769,22.309-2.31,36.839c1.314,13.086,15.144,20.973,27.063,15.415l47.337-22.074
	C154.292,320.62,157.14,304.956,147.96,295.538z"/>
<path style="opacity:0.1;enable-background:new    ;" d="M102.206,317.617c-1.751-3.754-6.213-5.38-9.967-3.627
	c-3.754,1.75-5.378,6.213-3.628,9.967l10.453,22.416l13.595-6.34l0,0L102.206,317.617z M138.344,328.057l-10.453-22.417
	c-1.751-3.754-6.214-5.38-9.967-3.627c-3.754,1.75-5.378,6.213-3.628,9.967l10.453,22.417L138.344,328.057L138.344,328.057z"/>
<g>
	<path style="fill:#495059;" d="M34.811,189.277c-0.852,0-1.718-0.146-2.565-0.454c-3.892-1.417-5.899-5.721-4.482-9.613
		l6.417-17.63c1.417-3.892,5.718-5.897,9.613-4.482c3.892,1.417,5.899,5.721,4.482,9.613l-6.417,17.63
		C40.751,187.386,37.874,189.277,34.811,189.277z"/>
	<path style="fill:#495059;" d="M46.835,183.671c-0.852,0-1.718-0.146-2.565-0.454L26.64,176.8
		c-3.892-1.417-5.899-5.721-4.483-9.613c1.417-3.892,5.722-5.895,9.613-4.482l17.63,6.417c3.893,1.417,5.899,5.721,4.483,9.613
		C52.775,181.779,49.898,183.671,46.835,183.671z"/>
</g>
<path style="fill:#EDA751;" d="M437.65,384.188c-11.948,0-22.457-8.684-24.383-20.858c-1.085-6.858-3.439-14.272-6.993-22.039
	c-5.681-12.412-0.224-27.081,12.189-32.762c12.414-5.68,27.081-0.223,32.762,12.189c5.425,11.853,9.082,23.59,10.87,34.886
	c2.134,13.484-7.066,26.144-20.55,28.277C440.236,384.088,438.934,384.188,437.65,384.188z"/>
<g>
</g>
<g>
</g>
<g>
</g>
<g>
</g>
<g>
</g>
<g>
</g>
<g>
</g>
<g>
</g>
<g>
</g>
<g>
</g>
<g>
</g>
<g>
</g>
<g>
</g>
<g>
</g>
<g>
</g>
</svg>
