<?xml version="1.0" encoding="iso-8859-1"?>
<!-- Generator: Adobe Illustrator 19.0.0, SVG Export Plug-In . SVG Version: 6.00 Build 0)  -->
<svg version="1.1" id="Capa_1" xmlns="http://www.w3.org/2000/svg" xmlns:xlink="http://www.w3.org/1999/xlink" x="0px" y="0px"
	 viewBox="0 0 512 512" style="enable-background:new 0 0 512 512;" xml:space="preserve">
<path style="fill:#EDA751;" d="M144.366,442.522c-25.174,0-46.603-7.718-63.692-22.94c-14.016-12.484-25.347-30.144-34.641-53.986
	c-3.099-7.949,0.833-16.906,8.783-20.005c7.949-3.1,16.906,0.833,20.005,8.783c15.642,40.129,36.441,57.251,69.546,57.251
	c33.946,0,54.779-26.316,74.926-51.767c2.653-3.352,5.159-6.517,7.716-9.646c5.397-6.607,15.13-7.589,21.737-2.19
	c6.607,5.397,7.588,15.13,2.19,21.737c-2.406,2.946-4.84,6.021-7.418,9.277C222.307,405.828,193.259,442.522,144.366,442.522z"/>
<path style="fill:#FCD79D;" d="M74.82,354.374c-3.099-7.949-12.056-11.883-20.005-8.783c-7.949,3.099-11.882,12.055-8.783,20.005
	c2.089,5.359,4.287,10.388,6.589,15.133c8.961-2.019,19.225-6.394,27.99-13.064C78.601,363.547,76.673,359.127,74.82,354.374z"/>
<path style="opacity:0.2;fill:#A35F00;enable-background:new    ;" d="M248.562,347.874c-6.676-5.29-16.484-3.884-21.866,2.719
	c-2.449,3.006-4.859,6.049-7.404,9.265c-19.008,24.011-38.631,48.782-69.296,51.508c6.811,7.241,15.128,12.925,24.595,16.723
	c3.198,1.283,6.193,3.005,8.843,5.207c0.132,0.109,0.263,0.218,0.395,0.327c26.379-12.536,44.934-35.951,59.688-54.587
	c2.577-3.256,5.012-6.331,7.418-9.277C256.383,363.091,255.334,353.24,248.562,347.874z"/>
<g>
	<path style="fill:#EDA751;" d="M209.87,512c-5.19,0-10.422-1.628-14.883-4.998c-10.892-8.23-13.049-23.731-4.82-34.623
		c8.108-10.73,13.95-23.057,16.45-34.71c2.284-10.647,1.216-18.205-0.546-21.728c-6.105-12.21-1.156-27.058,11.054-33.163
		c12.211-6.104,27.058-1.156,33.163,11.054c14.574,29.149,6.264,72.691-20.679,108.349C224.75,508.614,217.354,512,209.87,512z"/>
	<path style="fill:#EDA751;" d="M370.385,486.886c-2.735,0.001-5.514-0.457-8.239-1.42c-12.871-4.551-19.616-18.673-15.065-31.544
		c1.672-4.728,1.381-8.757-0.945-13.062c-3.201-5.927-9.064-9.984-12.172-11.412c-10.858,1.258-21.614-4.828-25.825-15.464
		c-5.023-12.693,1.194-27.056,13.887-32.08c18.736-7.418,40.567,4.583,53.568,17.113c20.239,19.503,27.004,46.188,18.096,71.383
		C390.103,480.546,380.566,486.885,370.385,486.886z"/>
	<path style="fill:#EDA751;" d="M414.145,393.527c-14.218,0-28.313-3.809-40.744-11.424c-22.227-13.617-35.145-37.141-33.711-61.392
		c0.806-13.628,12.512-24,26.134-23.216c13.627,0.806,24.022,12.506,23.216,26.134c-0.424,7.173,4.983,13.134,10.186,16.321
		c3.505,2.147,16.116,8.466,31.211-0.39c11.776-6.907,26.92-2.962,33.827,8.812c6.908,11.775,2.962,26.92-8.812,33.827
		C442.578,389.751,428.302,393.526,414.145,393.527z"/>
</g>
<g>
	<path style="opacity:0.2;fill:#A35F00;enable-background:new    ;" d="M413.546,344.128c-7.03-0.206-12.255-2.915-14.32-4.18
		c-5.203-3.187-10.61-9.148-10.186-16.321c0.805-13.627-9.589-25.328-23.216-26.134c-13.621-0.784-25.327,9.589-26.134,23.216
		c-1.433,24.251,11.484,47.775,33.711,61.392c8.281,5.073,17.302,8.446,26.604,10.14
		C407.596,377.526,412.331,361.274,413.546,344.128z"/>
	<path style="opacity:0.2;fill:#A35F00;enable-background:new    ;" d="M386.875,412.69c-3.107-4.838-6.874-9.426-11.281-13.673
		c-13.001-12.529-34.832-24.531-53.568-17.113c-12.693,5.023-18.91,19.386-13.887,32.08c4.21,10.636,14.967,16.721,25.825,15.464
		c3.108,1.428,8.971,5.485,12.172,11.412c1.025,1.898,1.632,3.744,1.872,5.618C363.14,437.645,376.343,426.15,386.875,412.69z"/>
	<path style="opacity:0.2;fill:#A35F00;enable-background:new    ;" d="M217.126,382.779c-12.21,6.105-17.159,20.953-11.054,33.163
		c1.762,3.523,2.83,11.081,0.546,21.728c-0.686,3.198-1.633,6.447-2.8,9.699c14.118,8.003,29.861,13.71,46.647,16.56
		c9.088-25.366,9.44-50.864-0.176-70.096C244.184,381.623,229.337,376.675,217.126,382.779z"/>
</g>
<ellipse style="fill:#FCD690;" cx="275.139" cy="335.35" rx="114.01" ry="105.94"/>
<path style="opacity:0.15;fill:#C17A00;enable-background:new    ;" d="M258.492,440.156
	c-52.098-34.205-35.952-104.309-27.108-134.967v-67.693c-41.247,15.945-70.251,53.747-70.251,97.849
	C161.133,388.598,203.42,432.667,258.492,440.156z"/>
<path style="fill:#7694E4;" d="M161.372,333.515c-11.799-4.559-22.355-10.873-32.564-16.979
	c-22.577-13.503-37.53-21.55-57.981-17.471c-5.377,1.073-10.724-1.98-12.512-7.163l-11.056-32.05
	c-2.112-6.123,1.528-12.713,7.822-14.241c45.158-10.963,77.877,8.605,102.274,23.196c8.584,5.134,16.693,9.983,24.064,12.831
	L161.372,333.515z"/>
<path style="opacity:0.1;enable-background:new    ;" d="M155.986,267.989l-19.662,45.797c-0.883,2.12-1.28,4.307-1.279,6.455
	c8.29,4.877,16.91,9.636,26.327,13.275l20.046-51.877c-7.371-2.848-15.479-7.698-24.064-12.832
	C156.903,268.536,156.443,268.262,155.986,267.989z"/>
<path style="fill:#7CC5E6;" d="M55.08,245.61c-6.294,1.528-9.934,8.118-7.822,14.241l11.056,32.05
	c1.788,5.183,7.135,8.236,12.512,7.163c10.484-2.091,19.523-0.989,28.885,2.394c3.187-26.055-3.177-45.988-10.029-58.689
	C79.035,241.894,67.533,242.586,55.08,245.61z"/>
<path style="fill:#EDA751;" d="M203.819,421.183c-33.133,0.002-57.042-21.353-60.948-54.468
	c-3.373-28.598,9.685-62.079,37.376-68.605c13.287-3.126,26.597,5.102,29.729,18.389c2.888,12.254-3.89,24.528-15.384,28.818
	c-2.357,3.819-4.312,14.072-1.208,21.156c0.921,2.102,2.311,5.274,10.424,5.274c0.063,0.001,0.127,0.001,0.19,0
	c13.614,0,24.67,11.011,24.716,24.635c0.046,13.651-10.984,24.755-24.635,24.801C203.992,421.183,203.904,421.183,203.819,421.183z
	 M191.602,346.225c-0.005,0.001-0.011,0.002-0.016,0.004C191.592,346.227,191.597,346.226,191.602,346.225z"/>
<path style="fill:#7694E4;" d="M384.222,277.888c-30.455,12.299-67.592,18.722-109.081,18.722s-78.626-6.423-109.081-18.722
	l-16.683,40.067c-3.787,9.095,1.031,19.441,10.401,22.485c33.473,10.873,72.507,16.514,115.363,16.514s81.89-5.641,115.363-16.514
	c9.37-3.044,14.188-13.39,10.401-22.485L384.222,277.888z"/>
<g>
	<path style="fill:#7CC5E6;" d="M250.423,295.805V356.3c8.086,0.43,16.326,0.653,24.718,0.653s16.632-0.224,24.718-0.653v-60.495
		c-8.05,0.526-16.289,0.805-24.718,0.805S258.473,296.331,250.423,295.805z"/>
	<path style="fill:#7CC5E6;" d="M200.449,288.611c-12.211-2.843-23.718-6.414-34.389-10.723l-16.683,40.067
		c-3.787,9.095,1.031,19.441,10.401,22.485c6.893,2.239,14.034,4.243,21.383,6.035L200.449,288.611z"/>
	<path style="fill:#7CC5E6;" d="M349.833,288.611c12.211-2.843,23.718-6.414,34.389-10.723l16.683,40.067
		c3.787,9.095-1.031,19.441-10.401,22.485c-6.893,2.239-14.034,4.243-21.383,6.035L349.833,288.611z"/>
</g>
<path style="fill:#EDA751;" d="M205.76,151.648c22.309-18.719,37.203-50.143,5.737-96.597C179.782,8.231,132.563-3.505,95.699,0.838
	c-9.088,1.071-16.714,7.469-19.347,16.234c-10.678,35.55-7.32,84.089,33.282,123.453
	C149.918,179.579,183.452,170.368,205.76,151.648z"/>
<path style="fill:#FF91AB;" d="M74.869,22.511c-8.754,34.953-3.804,80.619,34.766,118.013c34.917,33.852,64.755,31.433,86.616,18
	C181.216,56.464,115.54,29.399,74.869,22.511z"/>
<path style="fill:#EDA751;" d="M344.522,151.648c-22.309-18.719-37.203-50.143-5.737-96.597
	C370.5,8.231,417.719-3.505,454.583,0.838c9.088,1.071,16.714,7.469,19.347,16.234c10.678,35.55,7.32,84.089-33.282,123.453
	C400.364,179.579,366.83,170.368,344.522,151.648z"/>
<path style="fill:#FF91AB;" d="M475.413,22.511c8.754,34.953,3.804,80.619-34.766,118.013c-34.917,33.852-64.755,31.433-86.616,18
	C369.066,56.464,434.741,29.399,475.413,22.511z"/>
<path style="fill:#FFDC9C;" d="M469.237,179.902c0,88.746-86.9,127.616-194.096,127.616S81.045,268.648,81.045,179.902
	s86.9-160.689,194.096-160.689S469.237,91.156,469.237,179.902z"/>
<path style="opacity:0.15;fill:#C17A00;enable-background:new    ;" d="M171.503,44.022
	c-54.359,28.476-90.458,78.685-90.458,135.879c0,76.289,64.216,115.721,150.34,125.287
	C107.757,231.343,123.88,132.013,171.503,44.022z"/>
<g>
	<ellipse style="fill:#FF91AB;" cx="179.899" cy="183.65" rx="35.14" ry="27.986"/>
	<ellipse style="fill:#FF91AB;" cx="370.389" cy="183.65" rx="35.14" ry="27.986"/>
</g>
<g>
	<path style="fill:#495059;" d="M200.378,163.227c-4.142,0-7.5-3.358-7.5-7.5v-12.411c0-4.142,3.358-7.5,7.5-7.5s7.5,3.358,7.5,7.5
		v12.411C207.878,159.869,204.52,163.227,200.378,163.227z"/>
	<path style="fill:#495059;" d="M349.904,163.227c-4.142,0-7.5-3.358-7.5-7.5v-12.411c0-4.142,3.358-7.5,7.5-7.5s7.5,3.358,7.5,7.5
		v12.411C357.404,159.869,354.046,163.227,349.904,163.227z"/>
	<path style="fill:#495059;" d="M130.342,187.883c-3.36,0-6.418-2.275-7.27-5.683c-1.005-4.019,1.438-8.091,5.456-9.095
		c9.65-2.413,32.648-4.132,43.849-2.652c4.107,0.543,6.996,4.311,6.453,8.418c-0.542,4.107-4.311,6.993-8.418,6.453
		c-9.134-1.207-30.261,0.337-38.246,2.333C131.557,187.81,130.944,187.883,130.342,187.883z"/>
	<path style="fill:#495059;" d="M141.535,229.524c-2.3,0-4.569-1.054-6.04-3.046c-2.46-3.333-1.752-8.028,1.58-10.488
		c8.003-5.908,28.61-16.26,39.531-19.159c4.003-1.06,8.11,1.321,9.174,5.324c1.063,4.003-1.321,8.111-5.324,9.174
		c-8.904,2.364-27.85,11.841-34.472,16.729C144.643,229.047,143.082,229.524,141.535,229.524z"/>
	<path style="fill:#495059;" d="M419.94,187.883c-0.603,0-1.214-0.073-1.825-0.226c-7.984-1.996-29.111-3.539-38.246-2.333
		c-4.106,0.544-7.876-2.347-8.418-6.453c-0.542-4.107,2.347-7.875,6.453-8.418c11.202-1.479,34.2,0.239,43.849,2.652
		c4.018,1.005,6.461,5.077,5.456,9.095C426.358,185.608,423.3,187.883,419.94,187.883z"/>
	<path style="fill:#495059;" d="M408.747,229.524c-1.547,0-3.108-0.477-4.448-1.466c-6.622-4.888-25.568-14.366-34.472-16.729
		c-4.003-1.063-6.387-5.17-5.324-9.174c1.063-4.003,5.169-6.383,9.174-5.324c10.921,2.899,31.527,13.251,39.531,19.159
		c3.332,2.46,4.04,7.156,1.58,10.488C413.316,228.47,411.046,229.524,408.747,229.524z"/>
	<path style="fill:#495059;" d="M275.142,183.951c-3.426,0-6.68-1.65-8.705-4.414l-8.525-11.636l-5.885,8.21
		c-2.124,2.963-5.572,4.63-9.208,4.496c-3.642-0.148-6.936-2.101-8.813-5.225l-7.858-13.082c-2.133-3.551-0.983-8.158,2.567-10.291
		c3.551-2.133,8.158-0.983,10.291,2.567l4.56,7.591l5.537-7.725c2.008-2.802,5.266-4.486,8.713-4.504c0.018,0,0.038,0,0.057,0
		c3.427,0,6.678,1.646,8.705,4.413l8.564,11.689l8.563-11.688c2.028-2.767,5.278-4.414,8.705-4.414c0.019,0,0.038,0,0.057,0
		c3.448,0.018,6.705,1.702,8.713,4.504l5.537,7.725l4.559-7.591c2.132-3.551,6.739-4.701,10.291-2.567
		c3.551,2.133,4.7,6.74,2.567,10.291l-7.857,13.081c-1.877,3.126-5.173,5.079-8.815,5.226c-3.63,0.143-7.083-1.533-9.207-4.496
		l-5.885-8.21l-8.526,11.637C281.822,182.301,278.568,183.951,275.142,183.951z"/>
</g>
<g>
	<path style="fill:#7CC5E6;" d="M470.086,369.329c2.395-7.734,1.443-15.903-2.624-22.834c-5.082-8.663-14.486-14.046-24.54-14.046
		c-5.032,0-9.998,1.352-14.361,3.912c-2.566,1.506-5.181,2.598-7.823,3.27c-2.788,0.71-4.8,3.099-4.875,5.976
		c-0.319,12.219,1.777,32.374,13.092,46.619c1.566,1.972,4.133,2.866,6.569,2.227c7.25-1.9,14.281-4.758,20.89-8.528
		C462.849,382.254,467.894,376.407,470.086,369.329z"/>
	<path style="fill:#7CC5E6;" d="M203.997,368.04h-0.19c-1.736,0-3.005-0.145-3.949-0.388c-2.032-0.524-4.173,0.026-5.684,1.482
		c-10.917,10.518-16.85,34.248-8.409,49.507c1.737,3.139,4.894,5.201,8.453,5.651c3.108,0.394,6.31,0.598,9.601,0.598h0.272
		c15.674-0.052,28.382-12.847,28.33-28.521C232.368,380.749,219.617,368.04,203.997,368.04z"/>
</g>
<g>
	<path style="fill:#7694E4;" d="M61.209,183.994c-4.142,0-7.5-3.358-7.5-7.5v-41.671c0-4.142,3.358-7.5,7.5-7.5s7.5,3.358,7.5,7.5
		v41.671C68.709,180.636,65.351,183.994,61.209,183.994z"/>
	<path style="fill:#7694E4;" d="M82.045,163.159H40.374c-4.142,0-7.5-3.358-7.5-7.5s3.358-7.5,7.5-7.5h41.671
		c4.142,0,7.5,3.358,7.5,7.5S86.187,163.159,82.045,163.159z"/>
</g>
<g>
	<path style="fill:#7CC5E6;" d="M465.443,317.038c-1.919,0-3.839-0.732-5.303-2.197l-29.466-29.466
		c-2.929-2.929-2.929-7.678,0-10.607s7.678-2.929,10.606,0l29.466,29.466c2.929,2.929,2.929,7.678,0,10.606
		C469.282,316.306,467.363,317.038,465.443,317.038z"/>
	<path style="fill:#7CC5E6;" d="M435.977,317.038c-1.919,0-3.839-0.732-5.303-2.197c-2.929-2.929-2.929-7.678,0-10.606
		l29.466-29.466c2.929-2.929,7.678-2.929,10.607,0s2.929,7.678,0,10.607l-29.466,29.466
		C439.816,316.306,437.897,317.038,435.977,317.038z"/>
</g>
<g>
</g>
<g>
</g>
<g>
</g>
<g>
</g>
<g>
</g>
<g>
</g>
<g>
</g>
<g>
</g>
<g>
</g>
<g>
</g>
<g>
</g>
<g>
</g>
<g>
</g>
<g>
</g>
<g>
</g>
</svg>
