<?xml version="1.0" encoding="iso-8859-1"?>
<!-- Generator: Adobe Illustrator 19.0.0, SVG Export Plug-In . SVG Version: 6.00 Build 0)  -->
<svg version="1.1" id="Capa_1" xmlns="http://www.w3.org/2000/svg" xmlns:xlink="http://www.w3.org/1999/xlink" x="0px" y="0px"
	 viewBox="0 0 512 512" style="enable-background:new 0 0 512 512;" xml:space="preserve">
<path style="fill:#EDA751;" d="M48.697,423.471c-7.812,0-14.145-6.333-14.145-14.145c0-18.807,10.78-35.232,28.134-42.866
	c19.899-8.755,43.932-4.169,61.224,11.683c7.252,6.646,14.654,9.143,22.633,7.638c14.179-2.679,30.874-18.42,40.598-38.278
	c3.436-7.015,11.908-9.921,18.924-6.483c7.016,3.435,9.919,11.908,6.483,18.924c-10.494,21.43-32.701,48.334-60.753,53.635
	c-16.861,3.184-33.117-1.855-47.001-14.582c-10.953-10.04-23.051-10.015-30.718-6.642c-3.378,1.486-11.235,6.115-11.235,16.971
	C62.842,417.138,56.509,423.471,48.697,423.471z"/>
<path style="fill:#FCD79D;" d="M48.697,423.471c7.812,0,14.145-6.333,14.145-14.145c0-3.208,0.696-5.86,1.75-8.06
	c-8.48-5.299-20.558-5.723-28.303-4.71c-1.134,4.071-1.736,8.353-1.736,12.77C34.552,417.138,40.885,423.471,48.697,423.471z"/>
<g>
	<path style="fill:#EDA751;" d="M205.808,492.068c-2.504,0-5.049-0.418-7.544-1.301c-11.785-4.166-17.96-17.097-13.794-28.882
		c7.47-21.127,15.091-48.88,8.973-61.115c-5.59-11.18-1.059-24.774,10.121-30.364c11.183-5.59,24.773-1.058,30.364,10.121
		c14.101,28.201,4.483,64.579-6.783,96.446C223.862,486.264,215.129,492.068,205.808,492.068z"/>
	<path style="fill:#EDA751;" d="M134.036,346.055c-29.597,0-61.87-12.241-82.523-46.089c-6.51-10.67-3.138-24.597,7.532-31.108
		c10.667-6.509,24.597-3.14,31.108,7.531c21.298,34.906,60.519,23.504,69.855,18.54c11.037-5.867,24.74-1.676,30.607,9.359
		c5.868,11.036,1.678,24.74-9.359,30.607C168.524,341.665,151.758,346.055,134.036,346.055z"/>
	<path style="fill:#EDA751;" d="M302.903,492.068c-2.504,0-5.049-0.418-7.544-1.301c-11.785-4.166-17.96-17.097-13.794-28.882
		c8.666-24.51,4.152-48.618,1.215-54.424c-8.504-7.646-10.03-20.637-3.167-30.099c7.338-10.117,21.49-12.372,31.608-5.033
		c13.86,10.052,18.541,30.519,20.026,45.918c1.902,19.712-0.586,40.568-7.006,58.727
		C320.956,486.264,312.224,492.067,302.903,492.068z M284.629,408.958c0.006,0.004,0.011,0.008,0.017,0.012
		C284.64,408.966,284.635,408.962,284.629,408.958z"/>
	<path style="fill:#EDA751;" d="M386.752,372.986c-16.129,0-31.243-3.717-43.109-9.627c-20.962-10.44-33.44-27.767-34.236-47.536
		c-0.504-12.489,9.213-23.021,21.703-23.524c12.514-0.509,23.022,9.215,23.524,21.703c0.085,2.095,2.997,5.756,9.191,8.84
		c13.732,6.84,36.723,7.461,54.092-4.584c10.272-7.124,24.373-4.571,31.495,5.7c7.123,10.272,4.57,24.372-5.7,31.495
		C425.698,367.944,405.538,372.986,386.752,372.986z"/>
</g>
<g>
	<path style="fill:#78CFC0;" d="M428.962,417.522l-7.437-20.433c-2.264-6.22,0.943-13.098,7.163-15.362l59.787-21.761
		c6.22-2.264,13.098,0.943,15.362,7.163l7.437,20.433c2.264,6.22-0.943,13.098-7.163,15.362l-59.787,21.761
		C438.104,426.95,431.226,423.743,428.962,417.522z"/>
	<path style="fill:#78CFC0;" d="M385.977,299.423l-7.437-20.433c-2.264-6.22,0.943-13.098,7.163-15.362l59.787-21.761
		c6.22-2.264,13.098,0.943,15.362,7.163l7.437,20.433c2.264,6.22-0.943,13.098-7.163,15.362l-59.787,21.761
		C395.119,308.85,388.241,305.643,385.977,299.423z"/>
	
		<rect x="404.936" y="313.761" transform="matrix(0.342 0.9397 -0.9397 0.342 605.9355 -198.7938)" style="fill:#78CFC0;" width="79.964" height="39.03"/>
</g>
<rect x="404.936" y="313.761" transform="matrix(0.342 0.9397 -0.9397 0.342 605.9355 -198.7938)" style="opacity:0.1;enable-background:new    ;" width="79.964" height="39.03"/>
<g>
	<path style="opacity:0.2;fill:#A35F00;enable-background:new    ;" d="M206.066,341.02c-7.016-3.438-15.489-0.533-18.924,6.483
		c-9.723,19.858-26.419,35.599-40.598,38.278c-0.523,0.099-1.043,0.178-1.561,0.242c5.395,8.643,11.928,16.585,19.417,23.631
		c22.052-9.589,39.283-31.603,48.15-49.71C215.985,352.928,213.082,344.455,206.066,341.02z"/>
	<path style="opacity:0.2;fill:#A35F00;enable-background:new    ;" d="M376.711,326.895c-4.776-0.813-9.172-2.203-12.886-4.053
		c-6.194-3.085-9.106-6.745-9.191-8.84c-0.502-12.488-11.01-22.212-23.523-21.703c-12.49,0.503-22.206,11.035-21.703,23.524
		c0.796,19.769,13.274,37.096,34.236,47.536c6.973,3.473,15.074,6.181,23.837,7.83c5.944-13.648,9.231-28.575,9.231-44.212
		C376.712,326.949,376.711,326.922,376.711,326.895z"/>
	<path style="opacity:0.2;fill:#A35F00;enable-background:new    ;" d="M160.007,294.93c-4.491,2.388-15.899,6.264-28.9,5.759
		c-2.071,8.453-3.167,17.252-3.167,26.287c0,6.461,0.569,12.798,1.645,18.977c1.489,0.062,2.974,0.102,4.451,0.102
		c17.722,0,34.488-4.39,47.22-11.16c11.036-5.867,15.227-19.571,9.359-30.607C184.748,293.253,171.045,289.062,160.007,294.93z"/>
	<path style="opacity:0.2;fill:#A35F00;enable-background:new    ;" d="M331.161,417.407c-1.574-15.297-6.33-35.207-19.94-45.077
		c-10.118-7.339-24.271-5.084-31.608,5.033c-6.862,9.463-5.336,22.453,3.167,30.099c2.018,3.99,4.78,16.619,3.501,32.082
		C302.915,435.098,318.139,427.469,331.161,417.407z"/>
	<path style="opacity:0.2;fill:#A35F00;enable-background:new    ;" d="M203.565,370.407c-11.18,5.59-15.711,19.184-10.121,30.364
		c3.252,6.503,2.622,17.391,0.196,29.337c13.288,6.717,28.014,11.226,43.623,13.006c4.955-21.993,5.931-44.055-3.334-62.586
		C228.338,369.349,214.748,364.817,203.565,370.407z"/>
</g>
<ellipse style="fill:#FCD690;" cx="252.329" cy="326.98" rx="104.39" ry="97"/>
<path style="opacity:0.15;fill:#C17A00;enable-background:new    ;" d="M237.083,422.942
	c-47.701-31.318-32.918-95.505-24.82-123.576v-61.98c-37.766,14.599-64.322,49.211-64.322,89.591
	C147.94,375.735,186.658,416.085,237.083,422.942z"/>
<path style="fill:#EDA751;" d="M188.801,158.783c20.426-17.139,34.064-45.912,5.253-88.445
	C165.015,27.469,121.781,16.724,88.028,20.7c-8.321,0.98-15.303,6.839-17.714,14.864c-9.777,32.549-6.702,76.992,30.473,113.034
	C137.671,184.357,168.375,175.922,188.801,158.783z"/>
<path style="fill:#FF91AB;" d="M68.956,40.544c-8.016,32.003-3.483,73.815,31.832,108.053c31.97,30.995,59.29,28.78,79.306,16.481
	C166.328,71.631,106.195,46.851,68.956,40.544z"/>
<path style="fill:#EDA751;" d="M315.851,158.783c-20.426-17.139-34.064-45.912-5.253-88.445
	C339.636,27.469,382.87,16.723,416.623,20.7c8.321,0.98,15.303,6.839,17.714,14.864c9.777,32.549,6.702,76.992-30.473,113.034
	C366.98,184.357,336.277,175.922,315.851,158.783z"/>
<path style="fill:#FF91AB;" d="M435.696,40.544c8.016,32.003,3.483,73.815-31.832,108.053c-31.97,30.995-59.29,28.78-79.306,16.481
	C338.324,71.631,398.457,46.851,435.696,40.544z"/>
<path style="fill:#FFDC9C;" d="M430.041,184.652c0,81.256-79.566,116.846-177.715,116.846S74.611,265.908,74.611,184.652
	S154.176,37.524,252.326,37.524S430.041,103.395,430.041,184.652z"/>
<path style="opacity:0.15;fill:#C17A00;enable-background:new    ;" d="M157.435,60.24c-49.771,26.073-82.824,72.044-82.824,124.412
	c0,69.85,58.797,105.954,137.652,114.714C99.069,231.752,113.831,140.805,157.435,60.24z"/>
<g>
	<ellipse style="fill:#FF91AB;" cx="165.119" cy="188.08" rx="32.18" ry="25.625"/>
	<ellipse style="fill:#FF91AB;" cx="339.529" cy="188.08" rx="32.18" ry="25.625"/>
</g>
<g>
	<path style="fill:#495059;" d="M183.873,170.017c-4.142,0-7.5-3.358-7.5-7.5v-11.363c0-4.142,3.358-7.5,7.5-7.5
		c4.143,0,7.5,3.358,7.5,7.5v11.363C191.373,166.659,188.016,170.017,183.873,170.017z"/>
	<path style="fill:#495059;" d="M320.779,170.017c-4.143,0-7.5-3.358-7.5-7.5v-11.363c0-4.142,3.357-7.5,7.5-7.5s7.5,3.358,7.5,7.5
		v11.363C328.279,166.659,324.922,170.017,320.779,170.017z"/>
</g>
<circle style="fill:#FF91AB;" cx="252.329" cy="172.24" r="18.05"/>
<g>
	<path style="fill:#495059;" d="M119.747,192.593c-3.36,0-6.418-2.275-7.271-5.683c-1.004-4.019,1.438-8.091,5.457-9.095
		c8.887-2.222,30.067-3.804,40.385-2.442c4.106,0.543,6.996,4.312,6.453,8.418c-0.543,4.107-4.323,6.994-8.418,6.453
		c-8.143-1.077-27.679,0.347-34.781,2.122C120.962,192.519,120.35,192.593,119.747,192.593z"/>
	<path style="fill:#495059;" d="M129.996,230.719c-2.3,0-4.569-1.054-6.04-3.046c-2.46-3.333-1.753-8.028,1.58-10.488
		c7.37-5.44,26.35-14.974,36.408-17.645c4.005-1.062,8.111,1.322,9.174,5.324c1.063,4.003-1.321,8.111-5.324,9.174
		c-7.936,2.107-25.46,10.867-31.35,15.215C133.104,230.242,131.543,230.719,129.996,230.719z"/>
	<path style="fill:#495059;" d="M384.905,192.593c-0.603,0-1.214-0.073-1.825-0.226c-7.102-1.775-26.642-3.197-34.781-2.122
		c-4.094,0.54-7.875-2.346-8.418-6.453c-0.543-4.106,2.347-7.875,6.453-8.418c10.319-1.364,31.497,0.22,40.385,2.442
		c4.018,1.004,6.461,5.077,5.457,9.095C391.323,190.317,388.266,192.592,384.905,192.593z"/>
	<path style="fill:#495059;" d="M374.655,230.719c-1.548,0-3.107-0.477-4.448-1.466c-5.89-4.348-23.413-13.108-31.349-15.215
		c-4.003-1.063-6.387-5.17-5.324-9.174c1.064-4.004,5.168-6.384,9.174-5.324c10.059,2.671,29.037,12.204,36.407,17.645
		c3.333,2.46,4.04,7.156,1.58,10.488C379.225,229.665,376.955,230.719,374.655,230.719z"/>
</g>
<path style="fill:#DEE2E5;" d="M420.362,134.704H84.289c-11.904,0-19.923-12.179-15.221-23.114l6.668-15.506
	c5.271-12.259,17.334-20.202,30.678-20.202h302.903c6.621,0,12.606,3.941,15.221,10.023l11.045,25.685
	C440.286,122.525,432.266,134.704,420.362,134.704z"/>
<path style="fill:#7694E4;" d="M69.068,111.59c-4.702,10.935,3.317,23.114,15.221,23.114h336.073
	c11.904,0,19.923-12.179,15.221-23.114l-2.708-6.297H71.776L69.068,111.59z"/>
<g>
	<path style="fill:#7CC5E6;" d="M17.127,195.603c-0.312,0-0.626-0.019-0.943-0.059c-4.11-0.513-7.023-4.284-6.511-8.394
		c1.101-8.824,16.074-30.841,28.297-36.143c3.799-1.648,8.216,0.096,9.865,3.896c1.648,3.8-0.096,8.217-3.896,9.865
		c-7.055,3.061-18.559,19.676-19.388,24.285C24.078,192.847,20.852,195.603,17.127,195.603z"/>
	<path style="fill:#7CC5E6;" d="M488.337,187.303c-3.861,0-7.142-2.964-7.466-6.882c-0.852-10.296-9.117-19.881-18.425-21.367
		c-4.09-0.653-6.877-4.498-6.224-8.588c0.652-4.09,4.487-6.878,8.589-6.224c15.978,2.55,29.598,17.899,31.009,34.942
		c0.342,4.128-2.728,7.752-6.856,8.093C488.754,187.294,488.545,187.303,488.337,187.303z"/>
	<path style="fill:#7CC5E6;" d="M467.138,74.412c-1.378,0-2.771-0.379-4.02-1.173c-3.494-2.224-4.525-6.859-2.302-10.353
		c4.729-7.432,18.442-17.408,31.886-16.789c4.138,0.188,7.34,3.695,7.151,7.833c-0.188,4.138-3.692,7.345-7.833,7.151
		c-7.435-0.348-16.527,6.68-18.548,9.856C472.043,73.183,469.616,74.412,467.138,74.412z"/>
	<path style="fill:#7CC5E6;" d="M7.507,81.67c-2.501,0-4.946-1.251-6.368-3.528c-2.194-3.514-1.124-8.14,2.389-10.334
		c5.564-3.475,25.638-4.479,30.391-2.737c3.89,1.424,5.888,5.732,4.464,9.622c-1.366,3.727-5.382,5.716-9.134,4.624
		c-3.151-0.459-15.135,0.365-18.144,1.431C9.967,81.371,8.729,81.67,7.507,81.67z M10.979,80.793L10.979,80.793L10.979,80.793z
		 M11.473,80.531c-0.002,0-0.003,0.001-0.004,0.002C11.47,80.532,11.471,80.531,11.473,80.531z M28.76,79.156
		c0.096,0.035,0.208,0.077,0.338,0.115C28.984,79.235,28.872,79.197,28.76,79.156z"/>
</g>
<g>
</g>
<g>
</g>
<g>
</g>
<g>
</g>
<g>
</g>
<g>
</g>
<g>
</g>
<g>
</g>
<g>
</g>
<g>
</g>
<g>
</g>
<g>
</g>
<g>
</g>
<g>
</g>
<g>
</g>
</svg>
