<?xml version="1.0" encoding="iso-8859-1"?>
<!-- Generator: Adobe Illustrator 19.0.0, SVG Export Plug-In . SVG Version: 6.00 Build 0)  -->
<svg version="1.1" id="Capa_1" xmlns="http://www.w3.org/2000/svg" xmlns:xlink="http://www.w3.org/1999/xlink" x="0px" y="0px"
	 viewBox="0 0 512 512" style="enable-background:new 0 0 512 512;" xml:space="preserve">
<path style="fill:#EDA751;" d="M137.283,447.974c-6.241,0-12.44-0.67-18.465-2.026c-30.011-6.75-50.997-28.783-53.464-56.131
	c-0.649-7.201,4.662-13.565,11.863-14.214c7.186-0.649,13.564,4.662,14.214,11.863c1.425,15.802,14.43,28.731,33.132,32.938
	c22.465,5.055,54.067-2.44,75.387-38.627c3.67-6.229,11.695-8.304,17.924-4.634c6.23,3.671,8.304,11.696,4.634,17.925
	c-12.269,20.824-29.098,36.421-48.667,45.103C162.202,445.336,149.661,447.974,137.283,447.974z"/>
<path style="fill:#FCD79D;" d="M94.953,399.41c-1.924-3.702-3.14-7.718-3.521-11.943c-0.65-7.201-7.028-12.512-14.214-11.863
	c-7.201,0.649-12.512,7.014-11.863,14.214c0.559,6.201,2.08,12.124,4.432,17.662C77.402,407.001,87.825,404.871,94.953,399.41z"/>
<g>
	<path style="fill:#EDA751;" d="M302.132,511.999c-1.405,0-2.83-0.142-4.26-0.437c-11.329-2.341-18.615-13.423-16.274-24.752
		c4.313-20.871,1.076-44.972-4.546-56.214c-5.173-10.347-0.979-22.929,9.367-28.103c10.349-5.173,22.929-0.979,28.103,9.367
		c10.725,21.449,13.981,54.976,8.102,83.427C320.578,505.186,311.859,511.999,302.132,511.999z"/>
	<path style="fill:#EDA751;" d="M211.658,512c-8.628,0-16.708-5.372-19.749-13.97c-13.124-37.121-2.973-65.55,7.337-86.17
		c5.174-10.346,17.756-14.541,28.102-9.367c10.347,5.174,14.541,17.756,9.368,28.103c-7.177,14.354-13.499,30.307-5.31,53.471
		c3.856,10.907-1.86,22.874-12.767,26.73C216.331,511.613,213.974,512,211.658,512z"/>
	<path style="fill:#EDA751;" d="M161.695,374.017c-25.606,0-57.55-6.799-82.869-22.526c-9.827-6.104-12.845-19.018-6.741-28.845
		c6.103-9.827,19.017-12.846,28.845-6.741c24.858,15.44,59.839,18.538,75.539,14.838c11.261-2.65,22.539,4.323,25.193,15.582
		c2.654,11.26-4.323,22.539-15.582,25.193C179.152,373.152,170.824,374.017,161.695,374.017z"/>
	<path style="fill:#EDA751;" d="M398.969,422.142c-7.518,0-14.786-4.059-18.541-11.17c-14.179-26.853-39.129-36.245-52.74-39.454
		c-11.26-2.654-18.236-13.933-15.582-25.193c2.655-11.26,13.935-18.235,25.193-15.582c20.535,4.84,58.257,19.158,80.174,60.668
		c5.401,10.23,1.487,22.901-8.743,28.303C405.612,421.361,402.266,422.142,398.969,422.142z"/>
</g>
<g>
	<path style="opacity:0.2;fill:#A35F00;enable-background:new    ;" d="M217.875,377.143c-6.229-3.67-14.255-1.595-17.924,4.634
		c-12.198,20.705-27.762,32.004-43.055,36.947c4.933,7.716,10.84,14.821,17.568,21.155c19.302-8.736,35.908-24.21,48.045-44.811
		C226.179,388.839,224.105,380.814,217.875,377.143z"/>
	<path style="opacity:0.2;fill:#A35F00;enable-background:new    ;" d="M324.843,451.447c-1.388-14.805-4.898-28.741-10.321-39.587
		c-5.174-10.347-17.754-14.54-28.103-9.367c-10.347,5.174-14.541,17.756-9.367,28.103c4.073,8.147,6.892,23.046,6.496,38.576
		C298.649,465.833,312.626,459.724,324.843,451.447z"/>
	<path style="opacity:0.2;fill:#A35F00;enable-background:new    ;" d="M227.349,402.493c-10.347-5.173-22.928-0.979-28.102,9.367
		c-5.286,10.572-10.521,23.202-12.608,37.997c12.116,8.635,26.069,15.1,41.204,18.766c-1.548-15.25,3.412-27.104,8.874-38.028
		C241.889,420.248,237.695,407.666,227.349,402.493z"/>
	<path style="opacity:0.2;fill:#A35F00;enable-background:new    ;" d="M176.469,330.743c-7.279,1.715-18.706,1.966-31.344,0.206
		c-3.151,9.938-4.852,20.458-4.852,31.347c0,3.477,0.181,6.915,0.518,10.311c7.241,0.945,14.286,1.409,20.904,1.409
		c9.129,0,17.457-0.865,24.385-2.499c11.26-2.654,18.236-13.933,15.582-25.193C199.008,335.066,187.73,328.093,176.469,330.743z"/>
	<path style="opacity:0.2;fill:#A35F00;enable-background:new    ;" d="M312.107,346.326c-2.654,11.259,4.322,22.539,15.582,25.193
		c10.289,2.425,27.057,8.391,40.754,22.757c3.281-10.123,5.052-20.859,5.052-31.979c0-6.109-0.542-12.101-1.566-17.942
		c-13.006-7.436-25.512-11.462-34.63-13.611C326.042,328.091,314.761,335.065,312.107,346.326z"/>
</g>
<ellipse style="fill:#FCD690;" cx="256.88" cy="362.3" rx="96.61" ry="89.77"/>
<path style="opacity:0.15;fill:#C17A00;enable-background:new    ;" d="M242.776,451.114
	c-44.148-28.985-30.466-88.392-22.972-114.372v-57.364c-34.953,13.512-59.531,45.546-59.531,82.918
	C160.273,407.423,196.107,444.768,242.776,451.114z"/>
<path style="fill:#EDA751;" d="M198.09,206.63c18.905-15.863,31.527-42.492,4.862-81.857
	c-26.876-39.676-66.889-49.621-98.128-45.941c-7.701,0.907-14.164,6.33-16.394,13.757c-9.049,30.125-6.203,71.258,28.203,104.615
	C150.769,230.299,179.186,222.493,198.09,206.63z"/>
<path style="fill:#FF91AB;" d="M87.172,97.198c-7.419,29.62-3.224,68.317,29.461,100.005c29.589,28.686,54.874,26.636,73.399,15.253
	C177.291,125.97,121.637,103.035,87.172,97.198z"/>
<path style="fill:#EDA751;" d="M315.678,206.63c-18.904-15.863-31.526-42.492-4.861-81.857
	c26.876-39.676,66.889-49.621,98.128-45.941c7.701,0.907,14.164,6.33,16.394,13.757c9.049,30.125,6.203,71.258-28.203,104.615
	C362.999,230.299,334.582,222.493,315.678,206.63z"/>
<path style="fill:#FF91AB;" d="M426.596,97.198c7.419,29.62,3.224,68.317-29.461,100.005
	c-29.589,28.686-54.874,26.636-73.399,15.253C336.477,125.97,392.131,103.035,426.596,97.198z"/>
<path style="fill:#FFDC9C;" d="M421.363,230.572c0,75.204-73.64,108.143-164.479,108.143S92.405,305.776,92.405,230.572
	s73.64-136.169,164.479-136.169C347.723,94.403,421.363,155.368,421.363,230.572z"/>
<path style="opacity:0.15;fill:#C17A00;enable-background:new    ;" d="M169.061,115.427
	c-46.064,24.131-76.655,66.678-76.655,115.146c0,64.648,54.418,98.063,127.399,106.17
	C115.042,274.164,128.704,189.991,169.061,115.427z"/>
<path style="fill:#7694E4;" d="M345.828,283.768c3.455,2.868,4.542,7.721,2.59,11.765c-3.386,7.016-11.025,17.877-27.963,27.656
	c-16.938,9.779-30.163,10.964-37.933,10.389c-4.478-0.332-8.137-3.699-8.894-8.125l-18.552-108.519l6.048-3.492L345.828,283.768z"/>
<g>
	<path style="fill:#82C7E6;" d="M345.828,283.768l-8.269-6.865c-6.838,8.577-16.903,18.057-29.278,25.202
		s-25.618,11.121-36.465,12.754l1.811,10.594c0.757,4.426,4.416,7.794,8.894,8.125c7.769,0.575,20.994-0.61,37.933-10.389
		c16.938-9.779,24.577-20.64,27.963-27.656C350.37,291.489,349.283,286.637,345.828,283.768z"/>
	<path style="fill:#82C7E6;" d="M261.124,213.442l-6.048,3.492l11.187,65.436c7.156-19.908,17.058-34.286,24.927-43.966
		L261.124,213.442z"/>
</g>
<g>
	<ellipse style="fill:#FF91AB;" cx="176.17" cy="233.75" rx="29.781" ry="23.716"/>
	<ellipse style="fill:#FF91AB;" cx="337.6" cy="233.75" rx="29.781" ry="23.716"/>
</g>
<g>
	<path style="fill:#495059;" d="M320.239,217.586c-4.142,0-7.5-3.358-7.5-7.5v-10.517c0-4.142,3.358-7.5,7.5-7.5s7.5,3.358,7.5,7.5
		v10.517C327.739,214.228,324.381,217.586,320.239,217.586z"/>
	<path style="fill:#495059;" d="M256.884,225.662c-8.569,0-16.719-3.711-22.357-10.182c-2.721-3.123-2.396-7.86,0.727-10.582
		c3.123-2.721,7.86-2.396,10.581,0.727c2.79,3.201,6.816,5.037,11.049,5.037c4.232,0,8.259-1.836,11.049-5.037
		c2.72-3.123,7.458-3.448,10.582-0.726c3.123,2.721,3.448,7.459,0.726,10.582C273.602,221.951,265.453,225.662,256.884,225.662z"/>
	<path style="fill:#495059;" d="M134.179,238.481c-3.36,0-6.418-2.275-7.27-5.683c-1.005-4.018,1.438-8.09,5.457-9.095
		c8.27-2.068,27.982-3.54,37.586-2.271c4.107,0.543,6.995,4.312,6.453,8.419c-0.544,4.106-4.306,6.998-8.419,6.453
		c-7.483-0.992-25.451,0.319-31.982,1.952C135.394,238.408,134.782,238.481,134.179,238.481z"/>
	<path style="fill:#495059;" d="M143.666,273.767c-2.3,0-4.569-1.054-6.04-3.046c-2.46-3.332-1.753-8.028,1.58-10.488
		c6.859-5.062,24.522-13.935,33.885-16.421c4.003-1.06,8.11,1.32,9.174,5.324c1.063,4.004-1.321,8.111-5.324,9.174
		c-7.296,1.937-23.41,9.993-28.826,13.991C146.774,273.29,145.213,273.767,143.666,273.767z"/>
	<path style="fill:#495059;" d="M379.589,238.481c-0.603,0-1.214-0.073-1.825-0.226c-6.531-1.633-24.5-2.943-31.982-1.952
		c-4.11,0.542-7.875-2.347-8.418-6.453s2.346-7.876,6.453-8.419c9.604-1.27,29.316,0.204,37.586,2.271
		c4.019,1.005,6.462,5.077,5.457,9.095C386.007,236.206,382.949,238.48,379.589,238.481z"/>
	<path style="fill:#495059;" d="M370.102,273.767c-1.547,0-3.108-0.477-4.448-1.466c-5.417-3.998-21.53-12.054-28.826-13.991
		c-4.003-1.063-6.387-5.17-5.324-9.174c1.063-4.003,5.167-6.384,9.174-5.324c9.362,2.486,27.026,11.358,33.885,16.421
		c3.332,2.46,4.04,7.156,1.58,10.488C374.671,272.713,372.401,273.767,370.102,273.767z"/>
</g>
<path style="fill:#82C7E6;" d="M256.884,148.666c39.549,0,62.128-15.178,71.076-22.924c2.674-2.315,3.081-6.304,0.913-9.097
	l-66.748-86.002c-2.656-3.422-7.825-3.422-10.481,0l-66.748,86.002c-2.168,2.794-1.761,6.783,0.913,9.097
	C194.756,133.488,217.335,148.666,256.884,148.666z"/>
<path style="fill:#7694E4;" d="M262.125,30.642c-2.656-3.422-7.825-3.422-10.481,0l-66.748,86.002
	c-1.719,2.215-1.813,5.179-0.448,7.466c26.459-0.733,73.382-8.35,114.062-46.588L262.125,30.642z"/>
<circle style="fill:#78CFC0;" cx="255.08" cy="28.335" r="28.335"/>
<path style="fill:#495059;" d="M205.954,215.773c-4.142,0-7.5-3.358-7.5-7.5c0-3.864-3.144-7.007-7.008-7.007
	s-7.007,3.144-7.007,7.007c0,4.142-3.358,7.5-7.5,7.5s-7.5-3.358-7.5-7.5c0-12.135,9.872-22.007,22.007-22.007
	c12.135,0,22.008,9.873,22.008,22.007C213.454,212.415,210.096,215.773,205.954,215.773z"/>
<path style="fill:#7694E4;" d="M449.465,349.61c-1.919,0-3.839-0.733-5.303-2.197c-3.875-3.875-6.009-9.026-6.009-14.506
	s2.134-10.631,6.009-14.506c1.042-1.041,1.615-2.426,1.615-3.899s-0.574-2.857-1.615-3.898c-2.929-2.929-2.929-7.678,0-10.607
	s7.677-2.929,10.607,0c3.875,3.875,6.009,9.026,6.009,14.506s-2.134,10.631-6.009,14.506c-1.042,1.042-1.615,2.426-1.615,3.899
	s0.574,2.858,1.615,3.899c2.929,2.929,2.929,7.678,0,10.607C453.304,348.878,451.384,349.61,449.465,349.61z"/>
<path style="fill:#82C7E6;" d="M51.1,269.519c-1.919,0-3.839-0.732-5.304-2.197c-7.998-7.999-7.998-21.013,0-29.011
	c2.15-2.15,2.15-5.648,0-7.799c-2.929-2.929-2.929-7.678,0-10.606c2.929-2.929,7.678-2.929,10.606,0
	c7.999,7.998,7.999,21.013,0,29.012c-2.15,2.15-2.15,5.648,0,7.798c2.929,2.929,2.928,7.678,0,10.607
	C54.939,268.786,53.019,269.519,51.1,269.519z"/>
<path style="fill:#78CFC0;" d="M460.9,211.869c-1.919,0-3.839-0.732-5.303-2.197c-7.999-7.999-7.999-21.013,0-29.012
	c2.15-2.15,2.15-5.648,0-7.798c-2.929-2.929-2.928-7.678,0-10.607c2.929-2.928,7.678-2.928,10.607,0.001
	c7.998,7.999,7.998,21.013-0.001,29.011c-2.15,2.15-2.15,5.648,0,7.799c2.929,2.929,2.929,7.678,0,10.607
	C464.739,211.136,462.82,211.869,460.9,211.869z"/>
<g>
</g>
<g>
</g>
<g>
</g>
<g>
</g>
<g>
</g>
<g>
</g>
<g>
</g>
<g>
</g>
<g>
</g>
<g>
</g>
<g>
</g>
<g>
</g>
<g>
</g>
<g>
</g>
<g>
</g>
</svg>
