<?xml version="1.0" encoding="iso-8859-1"?>
<!-- Generator: Adobe Illustrator 19.0.0, SVG Export Plug-In . SVG Version: 6.00 Build 0)  -->
<svg version="1.1" id="Capa_1" xmlns="http://www.w3.org/2000/svg" xmlns:xlink="http://www.w3.org/1999/xlink" x="0px" y="0px"
	 viewBox="0 0 512 512" style="enable-background:new 0 0 512 512;" xml:space="preserve">
<g>
	<path style="fill:#EDA751;" d="M95.761,370.935c-8.305,0-17.017-0.23-26.135-0.69c-13.374-0.676-23.669-12.066-22.993-25.442
		c0.676-13.376,12.031-23.671,25.442-22.993c35.572,1.798,65.046-0.416,83-6.23c12.741-4.128,26.414,2.858,30.54,15.598
		c4.126,12.74-2.857,26.414-15.598,30.54C151.082,367.85,126.177,370.935,95.761,370.935z"/>
	<path style="fill:#EDA751;" d="M370.485,421.56c-34.15,0-54.042-24.349-71.951-46.271c-5.295-6.481-4.333-16.029,2.149-21.325
		c6.481-5.295,16.028-4.335,21.325,2.149c23.848,29.192,36.254,40.344,63.35,32.92c9.763-2.676,13.44-8.081,20.185-19.078
		c7.329-11.948,16.451-26.819,38.285-37.013c7.583-3.542,16.602-0.265,20.143,7.321c3.541,7.583,0.264,16.602-7.321,20.143
		c-13.582,6.342-18.999,15.172-25.27,25.397c-7.241,11.807-16.255,26.502-38.014,32.463
		C385.072,420.538,377.479,421.56,370.485,421.56z"/>
</g>
<path style="fill:#FCD79D;" d="M463.972,340.263c-3.542-7.586-12.56-10.863-20.144-7.321c-4.013,1.874-7.593,3.906-10.815,6.049
	c1.463,6.961,5.969,19.214,15.49,26.163c2.364-1.703,5.034-3.293,8.148-4.748C464.236,356.865,467.513,347.846,463.972,340.263z"/>
<g>
	<path style="fill:#EDA751;" d="M216.369,512c-12.898,0-23.629-10.162-24.206-23.176c-1.455-32.868,0.379-60.442,2.842-73.188
		c2.541-13.148,15.267-21.75,28.408-19.208c13.148,2.54,21.749,15.259,19.208,28.408c-1.074,5.559-3.528,27.504-2.008,61.843
		c0.592,13.379-9.774,24.705-23.152,25.297C217.095,511.993,216.732,512,216.369,512z"/>
	<path style="fill:#EDA751;" d="M290.137,512c-12.898,0-23.629-10.162-24.206-23.176c-1.454-32.858,0.379-60.433,2.84-73.184
		c2.54-13.151,15.264-21.749,28.405-19.213c13.15,2.54,21.751,15.257,19.213,28.405c-1.074,5.562-3.528,27.517-2.009,61.846
		c0.592,13.379-9.774,24.705-23.152,25.297C290.863,511.993,290.5,512,290.137,512z"/>
</g>
<g>
	<path style="opacity:0.2;fill:#A35F00;enable-background:new    ;" d="M370.273,391.248c-17.595-0.159-29.325-11.952-48.264-35.135
		c-5.297-6.484-14.844-7.444-21.325-2.149c-6.482,5.296-7.444,14.844-2.149,21.325c14.072,17.225,29.372,35.941,51.846,43.174
		C358.228,410.3,364.937,401.154,370.273,391.248z"/>
	<path style="opacity:0.2;fill:#A35F00;enable-background:new    ;" d="M297.177,396.427c-13.141-2.536-25.866,6.062-28.405,19.213
		c-1.661,8.606-3.035,23.971-3.306,43.148c17.546-1.608,34.091-6.465,48.953-13.917c0.558-10.42,1.436-17.266,1.972-20.039
		C318.929,411.684,310.327,398.967,297.177,396.427z"/>
	<path style="opacity:0.2;fill:#A35F00;enable-background:new    ;" d="M223.413,396.428c-13.141-2.542-25.867,6.06-28.408,19.208
		c-1.259,6.516-2.352,16.915-2.927,29.908c14.652,7.142,30.903,11.772,48.103,13.286c0.282-18.349,1.694-30.132,2.44-33.995
		C245.162,411.688,236.561,398.968,223.413,396.428z"/>
	<path style="opacity:0.2;fill:#A35F00;enable-background:new    ;" d="M155.075,315.58c-8.677,2.81-20.051,4.777-33.498,5.858
		c-0.554,4.603-0.848,9.278-0.848,14.018c0,11.902,1.799,23.417,5.147,34.32c17.125-1.406,31.891-4.09,44.141-8.058
		c12.741-4.126,19.724-17.8,15.598-30.54C181.488,318.438,167.816,311.452,155.075,315.58z"/>
</g>
<ellipse style="fill:#FCD690;" cx="252.57" cy="335.46" rx="111.84" ry="103.93"/>
<path style="opacity:0.15;fill:#C17A00;enable-background:new    ;" d="M236.238,438.276
	c-51.108-33.555-35.269-102.327-26.593-132.403v-66.407c-40.464,15.642-68.917,52.726-68.917,95.99
	C140.729,387.697,182.212,430.929,236.238,438.276z"/>
<path style="fill:#EDA751;" d="M184.508,155.249c21.885-18.364,36.497-49.191,5.628-94.762
	C159.023,14.556,112.701,3.042,76.538,7.303c-8.916,1.05-16.397,7.327-18.979,15.925c-10.475,34.874-7.181,82.492,32.65,121.108
	C129.727,182.649,162.623,173.612,184.508,155.249z"/>
<path style="fill:#FF91AB;" d="M56.103,28.565c-8.588,34.289-3.732,79.088,34.105,115.771c34.253,33.209,63.525,30.836,84.97,17.658
	C160.43,61.872,96.002,35.322,56.103,28.565z"/>
<path style="fill:#EDA751;" d="M320.633,155.249c-21.885-18.364-36.497-49.191-5.628-94.762
	C346.118,14.556,392.44,3.042,428.604,7.303c8.916,1.05,16.397,7.327,18.979,15.925c10.475,34.874,7.181,82.492-32.65,121.108
	C375.415,182.649,342.518,173.612,320.633,155.249z"/>
<path style="fill:#FF91AB;" d="M449.038,28.565c8.588,34.289,3.732,79.088-34.105,115.771
	c-34.253,33.209-63.525,30.836-84.97,17.658C344.712,61.872,409.139,35.322,449.038,28.565z"/>
<path style="fill:#FFDC9C;" d="M442.98,182.965c0,87.06-85.249,125.192-190.409,125.192S62.162,270.026,62.162,182.965
	S147.411,25.329,252.571,25.329S442.98,95.905,442.98,182.965z"/>
<path style="opacity:0.15;fill:#C17A00;enable-background:new    ;" d="M150.902,49.667c-53.326,27.936-88.74,77.19-88.74,133.298
	c0,74.84,62.997,113.522,147.484,122.908C88.366,233.43,104.183,135.986,150.902,49.667z"/>
<g>
	<circle style="fill:#78CFC0;" cx="308.92" cy="149.02" r="22.267"/>
	<circle style="fill:#78CFC0;" cx="164.7" cy="149.02" r="22.267"/>
</g>
<path style="fill:#FF91AB;" d="M235.597,153.391c17.455,0,36.896,10.859,39.974,28.832c1.653,9.648-5.737,18.702-15.675,18.702
	c-15.043,0-19.141-10.728-34.381-10.728c-12.903,0-23.188-4.772-23.188-15.826C202.328,166.641,211.449,153.391,235.597,153.391z"/>
<path style="fill:#FFFFFF;" d="M272.853,192.161c-7.343-10.146-27.826-8.158-32.98,3.804c-5.369,12.46,3.231,28.548,7.609,40.213
	c2.111,5.624,7.481,9.349,13.488,9.349l0,0c7.094,0,13.115-5.161,14.234-12.166C277.266,220.448,279.065,200.744,272.853,192.161z"
	/>
<g>
	<path style="fill:#495059;" d="M378.857,189.726c-0.603,0-1.214-0.073-1.825-0.226c-7.82-1.956-28.514-3.469-37.466-2.286
		c-4.107,0.541-7.875-2.347-8.418-6.453c-0.542-4.106,2.347-7.875,6.453-8.418c11.002-1.454,33.592,0.235,43.069,2.604
		c4.019,1.005,6.462,5.077,5.457,9.096C385.275,187.45,382.218,189.726,378.857,189.726z"/>
	<path style="fill:#495059;" d="M367.877,230.574c-1.548,0-3.108-0.477-4.448-1.466c-6.485-4.788-25.046-14.072-33.77-16.389
		c-4.004-1.063-6.387-5.171-5.324-9.174c1.063-4.005,5.177-6.385,9.174-5.324c10.729,2.85,30.97,13.018,38.828,18.818
		c3.333,2.46,4.04,7.156,1.58,10.488C372.446,229.52,370.177,230.574,367.877,230.574z"/>
	<path style="fill:#495059;" d="M94.761,189.726c-3.36,0-6.418-2.274-7.271-5.683c-1.005-4.019,1.439-8.091,5.457-9.096
		c9.478-2.369,32.065-4.059,43.069-2.604c4.106,0.543,6.995,4.311,6.453,8.418c-0.543,4.107-4.323,6.988-8.418,6.453
		c-8.948-1.184-29.646,0.33-37.466,2.286C95.976,189.652,95.363,189.726,94.761,189.726z"/>
	<path style="fill:#495059;" d="M105.741,230.574c-2.3,0-4.569-1.054-6.04-3.046c-2.46-3.332-1.753-8.028,1.58-10.488
		c7.858-5.801,28.099-15.969,38.828-18.818c4.005-1.061,8.11,1.321,9.174,5.324c1.063,4.003-1.32,8.11-5.324,9.174
		c-8.724,2.316-27.284,11.601-33.77,16.389C108.85,230.098,107.288,230.574,105.741,230.574z"/>
</g>
<path style="fill:#FF91AB;" d="M244.211,34.734c1.185-17.667,15.57-32.004,33.24-33.146c5.415-0.35,10.587,0.515,15.28,2.34
	c1.826,0.71,3.838,0.692,5.634-0.091C304.021,1.374,310.261,0,316.825,0c21.847,0,40.149,15.129,45.028,35.479
	c0.454,1.894,1.647,3.503,3.301,4.533c11.326,7.055,18.533,20.098,17.17,34.707c-1.632,17.493-15.831,31.566-33.337,33.059
	c-10.545,0.899-20.254-2.666-27.46-9.009c-4.216-3.712-9.42-6.045-14.901-7.277c-8.37-1.881-15.88-6.026-21.857-11.761
	c-3.985-3.824-8.876-6.649-14.211-8.077C254.587,67.38,243.033,52.308,244.211,34.734z"/>
<path style="fill:#EDA751;" d="M285.699,370.935c-8.305,0-17.018-0.23-26.136-0.69c-13.375-0.676-23.669-12.066-22.993-25.442
	c0.676-13.376,12.05-23.671,25.442-22.993c35.573,1.798,65.046-0.416,83-6.23c12.741-4.128,26.414,2.858,30.54,15.598
	s-2.857,26.414-15.598,30.54C341.019,367.85,316.113,370.935,285.699,370.935z"/>
<g style="opacity:0.1;">
	<path d="M369.039,42.806c-1.232-1.011-2.527-1.947-3.885-2.793c-1.653-1.03-2.846-2.639-3.301-4.533
		c-0.457-1.908-1.033-3.769-1.718-5.577c-12.715,4.435-24.976,12.925-29.443,24.279c-1.517,3.854,0.379,8.209,4.233,9.726
		c0.902,0.355,1.831,0.523,2.744,0.523c2.992,0,5.819-1.803,6.982-4.756C347.149,53.323,357,45.864,369.039,42.806z"/>
	<path d="M292.575,30.434c-3.964,1.2-6.205,5.387-5.006,9.352c1.585,5.232,4.957,22.871-17.26,31.796
		c0.084,0.023,0.166,0.05,0.25,0.073c5.335,1.428,10.226,4.253,14.211,8.077c0.275,0.264,0.57,0.507,0.851,0.764
		c18.24-11.903,20.591-30.893,16.306-45.056C300.726,31.475,296.541,29.235,292.575,30.434z"/>
</g>
<g style="opacity:0.1;">
	<circle cx="326.1" cy="24.281" r="7.619"/>
	<circle cx="269.89" cy="31.9" r="7.619"/>
	<circle cx="350.19" cy="81.15" r="7.619"/>
</g>
<g>
</g>
<g>
</g>
<g>
</g>
<g>
</g>
<g>
</g>
<g>
</g>
<g>
</g>
<g>
</g>
<g>
</g>
<g>
</g>
<g>
</g>
<g>
</g>
<g>
</g>
<g>
</g>
<g>
</g>
</svg>
