<?xml version="1.0" encoding="iso-8859-1"?>
<!-- Generator: Adobe Illustrator 19.0.0, SVG Export Plug-In . SVG Version: 6.00 Build 0)  -->
<svg version="1.1" id="Capa_1" xmlns="http://www.w3.org/2000/svg" xmlns:xlink="http://www.w3.org/1999/xlink" x="0px" y="0px"
	 viewBox="0 0 512.001 512.001" style="enable-background:new 0 0 512.001 512.001;" xml:space="preserve">
<path style="fill:#EDA751;" d="M119.38,424.539c-8.426,0-17.179-1.749-26.349-5.242c-25.305-9.64-34.426-26.096-41.086-38.112
	c-7.083-12.779-10.638-19.194-32.144-20.398c-8.519-0.477-15.038-7.77-14.561-16.288c0.477-8.519,7.794-15.042,16.288-14.561
	c38.534,2.157,49.018,21.071,57.44,36.269c5.759,10.39,10.307,18.597,25.061,24.217c25.835,9.841,38.441-3.753,62.281-32.946
	l0.878-1.075c5.397-6.607,15.13-7.588,21.737-2.19s7.588,15.131,2.19,21.738l-0.874,1.071
	c-12.018,14.717-23.37,28.617-38.018,37.739C141.748,421.284,130.869,424.539,119.38,424.539z"/>
<path style="fill:#FCD79D;" d="M5.24,344.498c-0.477,8.518,6.042,15.811,14.561,16.288c6.217,0.348,10.927,1.134,14.663,2.381
	c4.545-10.087,5.361-21.764,4.709-30.691c-5.133-1.277-10.958-2.165-17.645-2.54C13.035,329.456,5.717,335.979,5.24,344.498z"/>
<g>
	<path style="fill:#EDA751;" d="M290.434,512.001c-0.816,0-1.638-0.04-2.466-0.122c-13.585-1.345-23.507-13.449-22.162-27.033
		c3.29-33.232-0.652-59.376-5.028-71.667c-4.578-12.861,2.136-26.998,14.996-31.577c12.861-4.578,26.997,2.135,31.577,14.997
		c8.265,23.215,11.124,58.026,7.65,93.118C313.739,502.474,302.988,512.001,290.434,512.001z"/>
	<path style="fill:#EDA751;" d="M202.787,512.001c-0.815,0-1.638-0.04-2.466-0.122c-13.585-1.346-23.506-13.449-22.16-27.035
		c3.291-33.229-0.651-59.374-5.028-71.666c-4.578-12.861,2.136-26.998,14.997-31.577c12.857-4.578,26.998,2.135,31.576,14.997
		c8.266,23.218,11.125,58.029,7.649,93.119C226.091,502.474,215.342,512.001,202.787,512.001z"/>
</g>
<g>
	<path style="opacity:0.2;fill:#A35F00;enable-background:new    ;" d="M188.13,381.602c-12.861,4.578-19.575,18.716-14.997,31.577
		c2.727,7.658,5.284,20.695,6.029,37.471c15.275,6.327,32.033,10.05,49.639,10.566c0.058-24.765-3.091-47.75-9.095-64.617
		C215.128,383.737,200.987,377.024,188.13,381.602z"/>
	<path style="opacity:0.2;fill:#A35F00;enable-background:new    ;" d="M307.352,396.599c-4.58-12.862-18.716-19.574-31.577-14.997
		c-12.86,4.578-19.574,18.716-14.996,31.577c3.071,8.624,5.923,24.074,6.218,44.001c17.775-4.38,34.119-12.113,48.22-22.434
		C313.789,420.322,311.14,407.24,307.352,396.599z"/>
</g>
<ellipse style="fill:#FCD690;" cx="233.03" cy="335.351" rx="114.01" ry="105.94"/>
<path style="opacity:0.15;fill:#C17A00;enable-background:new    ;" d="M216.379,440.157
	c-52.098-34.204-35.952-104.308-27.108-134.966v-67.693c-41.247,15.945-70.251,53.747-70.251,97.849
	C119.02,388.598,161.307,432.668,216.379,440.157z"/>
<path style="fill:#EDA751;" d="M163.647,151.649c22.309-18.719,37.203-50.143,5.737-96.597C137.668,8.232,90.45-3.504,53.586,0.839
	C44.498,1.91,36.872,8.308,34.239,17.073c-10.678,35.55-7.32,84.089,33.282,123.453C107.805,179.58,141.338,170.369,163.647,151.649
	z"/>
<path style="fill:#FF91AB;" d="M32.755,22.512c-8.754,34.953-3.804,80.619,34.766,118.013c34.916,33.852,64.755,31.433,86.615,18
	C139.102,56.464,73.427,29.4,32.755,22.512z"/>
<path style="fill:#EDA751;" d="M302.408,151.649c-22.309-18.719-37.203-50.143-5.737-96.597
	c31.715-46.82,78.934-58.557,115.798-54.214c9.088,1.071,16.714,7.469,19.347,16.234c10.678,35.55,7.32,84.089-33.282,123.453
	C358.25,179.58,324.717,170.369,302.408,151.649z"/>
<path style="fill:#FF91AB;" d="M433.299,22.512c8.754,34.953,3.804,80.619-34.766,118.013c-34.917,33.852-64.755,31.433-86.616,18
	C326.952,56.464,392.628,29.4,433.299,22.512z"/>
<path style="fill:#FFDC9C;" d="M427.123,179.903c0,88.746-86.9,127.616-194.096,127.616S38.931,268.649,38.931,179.903
	s86.9-160.689,194.096-160.689C340.224,19.214,427.123,91.157,427.123,179.903z"/>
<path style="opacity:0.15;fill:#C17A00;enable-background:new    ;" d="M129.39,44.023c-54.359,28.476-90.458,78.685-90.458,135.879
	c0,76.289,64.216,115.72,150.339,125.287C65.644,231.344,81.767,132.014,129.39,44.023z"/>
<g>
	<ellipse style="fill:#FF91AB;" cx="137.78" cy="183.651" rx="35.14" ry="27.986"/>
	<ellipse style="fill:#FF91AB;" cx="328.27" cy="183.651" rx="35.14" ry="27.986"/>
</g>
<g>
	<path style="fill:#495059;" d="M167.502,159.004c-4.142,0-7.5-3.358-7.5-7.5c0-3.49-2.839-6.329-6.329-6.329
		c-3.49,0-6.329,2.839-6.329,6.329c0,4.142-3.358,7.5-7.5,7.5s-7.5-3.358-7.5-7.5c0-11.761,9.568-21.329,21.329-21.329
		s21.329,9.568,21.329,21.329C175.002,155.646,171.644,159.004,167.502,159.004z"/>
	<path style="fill:#495059;" d="M326.211,159.004c-4.142,0-7.5-3.358-7.5-7.5c0-3.49-2.839-6.329-6.329-6.329
		c-3.49,0-6.33,2.839-6.33,6.329c0,4.142-3.358,7.5-7.5,7.5c-4.143,0-7.5-3.358-7.5-7.5c0-11.761,9.568-21.329,21.33-21.329
		c11.761,0,21.329,9.568,21.329,21.329C333.711,155.646,330.354,159.004,326.211,159.004z"/>
	<path style="fill:#495059;" d="M88.228,187.884c-3.36,0-6.418-2.275-7.27-5.683c-1.005-4.019,1.438-8.09,5.457-9.095
		c9.65-2.413,32.645-4.133,43.85-2.652c4.107,0.543,6.995,4.312,6.453,8.419c-0.543,4.106-4.309,6.993-8.419,6.453
		c-9.133-1.209-30.261,0.336-38.245,2.332C89.443,187.811,88.831,187.884,88.228,187.884z"/>
	<path style="fill:#495059;" d="M99.421,229.524c-2.3,0-4.569-1.054-6.04-3.046c-2.46-3.333-1.752-8.028,1.58-10.488
		c8.003-5.907,28.61-16.259,39.531-19.159c4.004-1.062,8.11,1.321,9.174,5.324c1.063,4.003-1.321,8.111-5.324,9.174
		c-8.904,2.364-27.851,11.841-34.472,16.729C102.529,229.047,100.969,229.524,99.421,229.524z"/>
	<path style="fill:#495059;" d="M377.826,187.884c-0.603,0-1.215-0.073-1.825-0.226c-7.984-1.996-29.11-3.541-38.246-2.332
		c-4.094,0.54-7.874-2.346-8.418-6.453c-0.543-4.107,2.347-7.876,6.453-8.419c11.203-1.48,34.199,0.239,43.85,2.652
		c4.019,1.004,6.461,5.077,5.457,9.095C384.244,185.609,381.187,187.884,377.826,187.884z"/>
	<path style="fill:#495059;" d="M366.633,229.524c-1.548,0-3.107-0.477-4.448-1.466c-6.621-4.888-25.567-14.365-34.472-16.729
		c-4.003-1.063-6.387-5.17-5.324-9.174s5.169-6.386,9.174-5.324c10.921,2.9,31.527,13.251,39.53,19.159
		c3.333,2.46,4.04,7.156,1.58,10.488C371.202,228.47,368.933,229.524,366.633,229.524z"/>
</g>
<path style="fill:#FFFFFF;" d="M260.955,150.551H205.1c-12.307,0-22.284,9.977-22.284,22.284v10.268
	c0,27.731,22.48,50.211,50.211,50.211l0,0c27.731,0,50.211-22.48,50.211-50.211v-10.268
	C283.239,160.528,273.262,150.551,260.955,150.551z"/>
<path style="opacity:0.1;enable-background:new    ;" d="M208.79,227.08c4.606,2.544,9.654,4.378,15,5.372v-81.901h-15V227.08z
	 M242.264,150.551v81.901c5.345-0.994,10.394-2.828,14.999-5.372v-76.529H242.264z"/>
<path style="fill:#7CC5E6;" d="M451.422,216.498l-95.728,34.842c-11.921,4.339-25.276,1.362-34.225-7.63l0,0
	c-6.754-6.786-10.181-16.2-9.369-25.74l0,0c1.076-12.64,9.393-23.506,21.314-27.844l58.459-21.277
	c15.895-5.785,30.103-15.428,41.349-28.063l0,0c10.725-12.05,30.609-6.614,33.712,9.216l1.419,7.238
	c2.238,11.415,2.872,23.087,1.886,34.677l0,0C469.288,203.076,461.946,212.668,451.422,216.498z"/>
<g style="opacity:0.3;">
	<circle style="fill:#FFFFFF;" cx="437.38" cy="167.761" r="7.329"/>
	<circle style="fill:#FFFFFF;" cx="339.7" cy="208.521" r="7.329"/>
	<circle style="fill:#FFFFFF;" cx="391.34" cy="201.191" r="7.329"/>
</g>
<path style="opacity:0.1;enable-background:new    ;" d="M344.821,185.975l-11.407,4.152c-11.921,4.339-20.238,15.204-21.314,27.844
	l0,0c-0.812,9.54,2.614,18.954,9.369,25.74l0,0c8.949,8.991,22.305,11.968,34.225,7.63l17.048-6.205
	C335.278,243.184,338.112,204.563,344.821,185.975z"/>
<path style="fill:#7694E4;" d="M209.593,363.495L209.593,363.495c4.865,3.759,11.317,4.762,17.094,2.66l99.932-36.372
	c5.777-2.103,10.074-7.019,11.385-13.025l2.773-12.705l150.225-54.678l14.26,39.18c4.748,13.045-1.978,27.469-15.023,32.217
	L47.944,481.753c-13.045,4.748-27.469-1.978-32.217-15.023l-5.663-15.56c-4.748-13.045,1.978-27.469,15.023-32.217l161.995-58.961
	C194.69,357.223,203.186,358.545,209.593,363.495z"/>
<path style="fill:#DEE2E5;" d="M459.632,200.394l-17.289-1.937c-8.148-0.913-16.254,2.038-21.91,7.975l-12.821,13.459
	c-5.655,5.937-13.762,8.887-21.91,7.975l-18.473-2.069c-8.148-0.913-16.255,2.038-21.91,7.974l-11.999,12.597
	c-6.002,6.3-7.915,15.457-4.939,23.634l12.393,34.051l150.225-54.678l-12.394-34.051
	C475.631,207.147,468.28,201.362,459.632,200.394z"/>
<g style="opacity:0.1;">
	<path d="M437.383,248.435c-3.064,0-5.94-1.891-7.049-4.937l-4.124-11.331c-1.417-3.892,0.591-8.196,4.482-9.613
		c3.893-1.416,8.196,0.591,9.613,4.483l4.124,11.331c1.417,3.892-0.591,8.196-4.482,9.613
		C439.101,248.289,438.234,248.435,437.383,248.435z"/>
	<path d="M382.295,272.448c-3.064,0-5.94-1.891-7.049-4.937l-2.869-7.883c-1.417-3.892,0.591-8.196,4.482-9.613
		c3.892-1.418,8.196,0.59,9.613,4.483l2.869,7.883c1.417,3.892-0.591,8.196-4.482,9.613
		C384.013,272.302,383.147,272.448,382.295,272.448z"/>
</g>
<path style="fill:#7CC5E6;" d="M80.257,434.118l99.852-36.343c10.107-3.679,15.318-14.854,11.64-24.961l-4.667-12.822
	L50.629,409.657l4.667,12.822C58.974,432.586,70.15,437.797,80.257,434.118z"/>
<g>
	<path style="fill:#EDA751;" d="M174.927,406.051c-19.066,0-38.567-9.383-51.32-24.813c-14.23-17.218-19.07-39.809-13.628-63.614
		c3.042-13.308,16.297-21.626,29.605-18.587c13.308,3.043,21.629,16.297,18.587,29.605c-1.999,8.741-0.807,15.84,3.541,21.101
		c4.052,4.903,9.838,6.987,13.503,6.867c13.652-0.501,25.094,10.186,25.575,23.829c0.483,13.643-10.186,25.093-23.829,25.576
		C176.285,406.039,175.606,406.051,174.927,406.051z"/>
	<path style="fill:#EDA751;" d="M388.305,389.839c-3.591,0-7.237-0.786-10.691-2.446c-12.303-5.914-17.482-20.683-11.568-32.986
		c1.579-3.286,2.141-5.554,3.531-11.628c0.222-0.97,0.454-1.981,0.701-3.043c3.108-13.292,16.408-21.547,29.695-18.444
		c13.293,3.107,21.551,16.402,18.444,29.695c-0.23,0.986-0.445,1.924-0.652,2.826c-1.598,6.978-3.108,13.57-7.165,22.011
		C406.347,384.674,397.509,389.839,388.305,389.839z"/>
</g>
<g>
</g>
<g>
</g>
<g>
</g>
<g>
</g>
<g>
</g>
<g>
</g>
<g>
</g>
<g>
</g>
<g>
</g>
<g>
</g>
<g>
</g>
<g>
</g>
<g>
</g>
<g>
</g>
<g>
</g>
</svg>
