<?xml version="1.0" encoding="iso-8859-1"?>
<!-- Generator: Adobe Illustrator 19.0.0, SVG Export Plug-In . SVG Version: 6.00 Build 0)  -->
<svg version="1.1" id="Capa_1" xmlns="http://www.w3.org/2000/svg" xmlns:xlink="http://www.w3.org/1999/xlink" x="0px" y="0px"
	 viewBox="0 0 512 512" style="enable-background:new 0 0 512 512;" xml:space="preserve">
<path style="fill:#495059;" d="M143.609,51.681c-4.142,0-7.5-3.357-7.5-7.5V7.5c0-4.143,3.358-7.5,7.5-7.5s7.5,3.357,7.5,7.5v36.681
	C151.109,48.323,147.751,51.681,143.609,51.681z"/>
<circle style="fill:#DEE2E5;" cx="143.61" cy="146.37" r="102.19"/>
<path style="opacity:0.05;enable-background:new    ;" d="M143.609,248.553c28.308,0,53.925-11.512,72.431-30.108
	C65.312,239.442,70.188,106.132,96.356,55.746c-32.647,17.058-54.934,51.235-54.934,90.621
	C41.423,202.803,87.173,248.553,143.609,248.553z"/>
<path style="fill:#7CC5E6;" d="M66.51,219.633L66.51,219.633c-1.486,3.028-5.802,3.028-7.288,0l0,0
	c-4.558-9.288-12.07-16.8-21.357-21.357l0,0c-3.028-1.486-3.028-5.802,0-7.288l0,0c9.288-4.558,16.8-12.07,21.357-21.357l0,0
	c1.486-3.028,5.802-3.028,7.288,0l0,0c4.558,9.288,12.07,16.8,21.357,21.357l0,0c3.028,1.486,3.028,5.802,0,7.288l0,0
	C78.579,202.833,71.067,210.345,66.51,219.633z"/>
<path style="fill:#BD4568;" d="M246.755,132.339L246.755,132.339c-2.371,4.832-9.259,4.832-11.631,0l0,0
	c-7.274-14.823-19.262-26.811-34.085-34.085l0,0c-4.832-2.371-4.832-9.259,0-11.631l0,0c14.823-7.274,26.811-19.262,34.085-34.085
	l0,0c2.371-4.832,9.259-4.832,11.631,0l0,0c7.274,14.823,19.262,26.811,34.085,34.085l0,0c4.832,2.371,4.832,9.259,0,11.631l0,0
	C266.018,105.527,254.029,117.516,246.755,132.339z"/>
<circle style="fill:#7694E4;" cx="115.61" cy="120.95" r="28.515"/>
<circle style="fill:#78CFC0;" cx="130.89" cy="248.55" r="28.515"/>
<path style="fill:#EDA751;" d="M120.892,456.975c-2.036,0-4.102-0.493-6.017-1.533c-6.129-3.33-8.398-10.997-5.069-17.126
	c9.351-17.215,20.9-27.717,35.305-32.107c14.392-4.385,30.955-2.674,52.123,5.39c21.121,8.042,31.426-3.069,50.914-26.933
	l0.717-0.878c4.412-5.401,12.369-6.202,17.77-1.791c5.401,4.413,6.203,12.368,1.791,17.77l-0.714,0.874
	c-9.824,12.031-19.104,23.394-31.079,30.852c-14.845,9.244-30.672,10.457-48.389,3.709c-33.435-12.736-45.56-4.495-56.243,15.171
	C129.712,454.587,125.372,456.975,120.892,456.975z"/>
<path style="fill:#FCD79D;" d="M115.053,429.712c-1.821,2.658-3.571,5.519-5.247,8.604c-3.329,6.129-1.06,13.796,5.069,17.126
	c1.915,1.04,3.981,1.533,6.017,1.533c4.48,0,8.82-2.389,11.109-6.603c1.483-2.729,2.996-5.229,4.587-7.493
	C130.708,433.664,121.726,430.81,115.053,429.712z"/>
<path style="opacity:0.2;fill:#A35F00;enable-background:new    ;" d="M266.635,381.997c-5.401-4.411-13.357-3.61-17.77,1.791
	l-0.717,0.878c-18.407,22.54-28.626,33.694-47.501,28.086c0.21,0.41,0.411,0.822,0.626,1.231
	c4.803,9.102,10.825,17.344,17.828,24.59c6.021-1.189,11.849-3.541,17.531-7.079c11.975-7.458,21.255-18.821,31.079-30.852
	l0.714-0.874C272.838,394.366,272.037,386.41,266.635,381.997z"/>
<path style="fill:#495059;" d="M253.182,512c-2.236,0-4.508-0.374-6.735-1.161c-10.521-3.72-16.035-15.264-12.316-25.786
	c6.047-17.105,13.426-41.167,7.713-52.592c-4.99-9.982-0.945-22.119,9.036-27.11c9.984-4.989,22.119-0.944,27.11,9.037
	c12.349,24.698,4.531,55.033-5.758,84.135C269.3,506.816,261.504,512,253.182,512z"/>
<path style="fill:#EDA751;" d="M193.704,389.45c-18.256,0-37.613-6.086-55.779-18.267c-9.269-6.216-11.744-18.768-5.529-28.036
	c6.216-9.268,18.769-11.742,28.036-5.529c20.956,14.052,42.341,15.261,55.808,3.157c8.299-7.46,21.073-6.781,28.535,1.519
	c7.46,8.299,6.78,21.074-1.519,28.535C229.452,383.239,212.14,389.45,193.704,389.45z"/>
<path style="fill:#7694E4;" d="M216.24,340.776c-11.476,10.314-28.702,10.954-46.512,2.224
	c-1.268,20.383-12.34,30.225-19.841,35.229c14.548,7.471,29.519,11.221,43.817,11.221c18.435,0,35.748-6.211,49.552-18.62
	c8.299-7.461,8.979-20.236,1.519-28.535C237.313,333.994,224.539,333.316,216.24,340.776z"/>
<path style="opacity:0.2;enable-background:new    ;" d="M216.24,340.776c-6.756,6.072-15.512,8.764-25.199,8.192
	c-1.016,5.73-1.552,11.609-1.552,17.606c0,7.783,0.879,15.413,2.603,22.85c0.538,0.01,1.077,0.026,1.613,0.026
	c18.435,0,35.748-6.211,49.552-18.62c8.299-7.461,8.979-20.236,1.519-28.535C237.313,333.994,224.539,333.316,216.24,340.776z"/>
<path style="fill:#495059;" d="M392.563,510.988c-7.398,0-14.523-4.077-18.071-11.138c-18.955-37.724-33.988-57.061-37.935-60.091
	c-9.035-6.551-11.032-19.174-4.48-28.209c6.551-9.035,19.201-11.035,28.236-4.484c18.665,13.536,43.212,60.552,50.291,74.64
	c5.01,9.971,0.989,22.116-8.983,27.127C398.709,510.295,395.613,510.988,392.563,510.988z"/>
<path style="opacity:0.2;enable-background:new    ;" d="M386.278,438.567c-8.475-13.204-17.785-25.569-25.965-31.501
	c-9.035-6.55-21.684-4.55-28.236,4.484s-4.554,21.658,4.48,28.209c2.297,1.763,8.351,9.059,16.743,22.273
	C365.684,456.226,376.87,448.301,386.278,438.567z"/>
<path style="opacity:0.2;enable-background:new    ;" d="M250.88,405.351c-9.981,4.99-14.027,17.128-9.037,27.11
	c2.883,5.765,2.43,14.747,0.5,24.43c11.602,6.873,24.538,11.73,38.255,14.261c4.837-20.098,5.89-39.766-2.609-56.764
	C273,404.406,260.864,400.361,250.88,405.351z"/>
<path style="fill:#EDA751;" d="M385.18,376.965c-5.01,0-9.774-0.454-14.191-1.495c-10.862-2.56-17.592-13.441-15.031-24.304
	c2.56-10.861,13.438-17.587,24.304-15.031c10.751,2.532,38.573-5.503,55.195-10.306c5.496-1.588,10.685-3.089,15.561-4.381
	c10.791-2.865,21.85,3.568,24.708,14.354c2.859,10.787-3.568,21.85-14.355,24.708c-4.441,1.177-9.421,2.617-14.694,4.141
	C426.443,370.5,404.073,376.965,385.18,376.965z"/>
<path style="fill:#7694E4;" d="M434.479,326.112c-16.714,4.828-43.673,12.507-54.217,10.024
	c-10.866-2.555-21.743,4.171-24.304,15.031c-2.56,10.863,4.169,21.743,15.031,24.304c4.417,1.041,9.181,1.495,14.191,1.495
	c18.307,0,39.872-6.069,59.602-11.766C434.712,351.192,433.526,334.931,434.479,326.112z"/>
<path style="opacity:0.2;enable-background:new    ;" d="M415.885,366.574c0-11.828-2.06-23.211-5.853-33.851
	c-11.978,2.866-23.644,4.855-29.77,3.412c-10.866-2.555-21.743,4.17-24.304,15.031c-2.56,10.863,4.169,21.743,15.031,24.304
	c4.417,1.041,9.181,1.495,14.191,1.495c9.525,0,19.935-1.65,30.507-4.029C415.817,370.827,415.885,368.707,415.885,366.574z"/>
<path style="fill:#FCD690;" d="M302.687,401.442l74.635-86.742c-16.999-21.084-44.102-34.728-74.635-34.728
	s-57.636,13.644-74.635,34.728L302.687,401.442z"/>
<path style="fill:#7694E4;" d="M386.412,404.649c6.064-11.492,9.473-24.412,9.473-38.075c0-28.233-14.542-53.307-37.042-69.116
	c-13.337,18.597-41.01,57.185-51.756,72.169c-2.161,3.013-6.641,3.012-8.802-0.002l-51.755-72.168
	c-22.5,15.81-37.042,40.884-37.042,69.116c0,13.662,3.409,26.583,9.473,38.075h167.451V404.649z"/>
<path style="fill:#495059;" d="M218.962,404.649c15.165,28.739,46.956,48.527,83.725,48.527s68.56-19.788,83.725-48.527H218.962z"/>
<path style="opacity:0.1;enable-background:new    ;" d="M289.077,452.254c-42.589-27.961-29.39-85.269-22.16-110.332v-55.338
	c-33.719,13.035-57.428,43.937-57.428,79.989C209.489,410.107,244.057,446.133,289.077,452.254z"/>
<g>
	<circle style="fill:#7CC5E6;" cx="243.41" cy="381.22" r="7.446"/>
	<circle style="fill:#7CC5E6;" cx="367.93" cy="354.84" r="7.446"/>
	<circle style="fill:#7CC5E6;" cx="353.04" cy="387.45" r="7.446"/>
	<circle style="fill:#7CC5E6;" cx="253.24" cy="345.53" r="7.446"/>
</g>
<path style="fill:#EDA751;" d="M245.97,216.407c18.237-15.302,30.413-40.991,4.69-78.965
	c-25.926-38.275-64.527-47.869-94.662-44.318c-7.43,0.875-13.663,6.106-15.815,13.271c-8.729,29.061-5.984,68.741,27.207,100.92
	C200.32,239.24,227.733,231.71,245.97,216.407z"/>
<path style="fill:#FF91AB;" d="M138.969,110.841c-7.156,28.573-3.11,65.904,28.42,96.473c28.543,27.673,52.936,25.695,70.806,14.714
	C225.905,138.596,172.217,116.471,138.969,110.841z"/>
<path style="fill:#EDA751;" d="M359.404,216.407c-18.237-15.302-30.413-40.991-4.69-78.965
	c25.926-38.275,64.527-47.869,94.662-44.318c7.43,0.875,13.663,6.106,15.815,13.271c8.729,29.061,5.984,68.741-27.207,100.92
	C405.053,239.24,377.641,231.71,359.404,216.407z"/>
<path style="fill:#FF91AB;" d="M466.404,110.841c7.156,28.573,3.11,65.904-28.42,96.473c-28.543,27.673-52.936,25.695-70.806,14.714
	C379.468,138.596,433.156,116.471,466.404,110.841z"/>
<path style="fill:#FFDC9C;" d="M461.355,239.503c0,72.548-71.038,104.323-158.669,104.323s-158.669-31.775-158.669-104.323
	s71.038-131.359,158.669-131.359S461.355,166.956,461.355,239.503z"/>
<path style="opacity:0.15;fill:#C17A00;enable-background:new    ;" d="M217.966,128.426
	c-44.437,23.279-73.947,64.323-73.947,111.078c0,62.364,52.495,94.598,122.899,102.419
	C165.855,281.556,179.035,200.356,217.966,128.426z"/>
<g>
	<ellipse style="fill:#FF91AB;" cx="240.94" cy="235.97" rx="28.729" ry="22.878"/>
	<ellipse style="fill:#FF91AB;" cx="396.66" cy="235.97" rx="28.729" ry="22.878"/>
	<path style="fill:#FF91AB;" d="M339.993,247.206c0,6.192-3.477,11.918-9.059,14.598c-3.673,1.763-7.787,2.751-12.134,2.751
		s-8.461-0.988-12.134-2.751c-5.582-2.679-9.059-8.406-9.059-14.598v-19.409c0-2.5,1.84-4.62,4.315-4.972l0,0
		c11.195-1.591,22.56-1.591,33.755,0l0,0c2.476,0.352,4.315,2.472,4.315,4.972L339.993,247.206L339.993,247.206z"/>
</g>
<g>
	<path style="fill:#495059;" d="M271.381,217.894c-4.143,0-7.5-3.357-7.5-7.5c0-3.417-2.78-6.197-6.197-6.197
		c-3.417,0-6.198,2.78-6.198,6.197c0,4.143-3.358,7.5-7.5,7.5s-7.5-3.357-7.5-7.5c0-11.689,9.509-21.197,21.198-21.197
		s21.197,9.509,21.197,21.197C278.881,214.536,275.523,217.894,271.381,217.894z"/>
	<path style="fill:#495059;" d="M393.614,217.894c-4.143,0-7.5-3.357-7.5-7.5c0-3.417-2.78-6.197-6.197-6.197
		s-6.197,2.78-6.197,6.197c0,4.143-3.357,7.5-7.5,7.5s-7.5-3.357-7.5-7.5c0-11.689,9.509-21.197,21.197-21.197
		s21.197,9.509,21.197,21.197C401.114,214.536,397.757,217.894,393.614,217.894z"/>
	<path style="fill:#495059;" d="M200.43,240.806c-3.36,0-6.418-2.274-7.27-5.683c-1.005-4.018,1.438-8.091,5.456-9.096
		c8-2,27.069-3.424,36.358-2.196c4.107,0.543,6.995,4.313,6.452,8.419s-4.308,6.996-8.419,6.452
		c-7.196-0.952-24.472,0.307-30.752,1.878C201.644,240.732,201.032,240.806,200.43,240.806z"/>
	<path style="fill:#495059;" d="M209.581,274.845c-2.3,0-4.569-1.054-6.04-3.046c-2.46-3.333-1.752-8.028,1.58-10.488
		c6.633-4.896,23.72-13.478,32.777-15.884c3.999-1.064,8.111,1.32,9.173,5.324c1.063,4.003-1.32,8.11-5.324,9.174
		c-7.016,1.863-22.51,9.609-27.719,13.454C212.689,274.368,211.129,274.845,209.581,274.845z"/>
	<path style="fill:#495059;" d="M437.171,240.806c-0.603,0-1.214-0.073-1.825-0.226c-6.282-1.572-23.56-2.831-30.753-1.878
		c-4.108,0.539-7.876-2.346-8.419-6.452s2.346-7.876,6.452-8.419c9.291-1.228,28.357,0.196,36.358,2.196
		c4.019,1.005,6.461,5.077,5.457,9.096C443.589,238.53,440.531,240.805,437.171,240.806z"/>
	<path style="fill:#495059;" d="M428.019,274.845c-1.547,0-3.108-0.477-4.448-1.466c-5.209-3.845-20.704-11.592-27.719-13.454
		c-4.004-1.064-6.387-5.171-5.324-9.174c1.063-4.004,5.175-6.386,9.174-5.324c9.057,2.405,26.143,10.987,32.777,15.884
		c3.332,2.46,4.04,7.155,1.58,10.488C432.588,273.791,430.318,274.845,428.019,274.845z"/>
</g>
<g>
</g>
<g>
</g>
<g>
</g>
<g>
</g>
<g>
</g>
<g>
</g>
<g>
</g>
<g>
</g>
<g>
</g>
<g>
</g>
<g>
</g>
<g>
</g>
<g>
</g>
<g>
</g>
<g>
</g>
</svg>
