<?xml version="1.0" encoding="iso-8859-1"?>
<!-- Generator: Adobe Illustrator 19.0.0, SVG Export Plug-In . SVG Version: 6.00 Build 0)  -->
<svg version="1.1" id="Capa_1" xmlns="http://www.w3.org/2000/svg" xmlns:xlink="http://www.w3.org/1999/xlink" x="0px" y="0px"
	 viewBox="0 0 512 512" style="enable-background:new 0 0 512 512;" xml:space="preserve">
<path id="SVGCleanerId_0" style="fill:#EDA751;" d="M19.67,424.562c-3.096,0-6.22-0.943-8.917-2.903
	c-6.789-4.932-8.295-14.434-3.363-21.223c11.942-16.438,28.188-26.019,46.981-27.709c16.492-1.483,34.298,3.25,51.498,13.685
	c8.683,5.269,16.805,6.608,24.837,4.094c12.358-3.871,24.579-17.075,32.691-35.321c3.409-7.668,12.386-11.121,20.056-7.712
	c7.667,3.409,11.12,12.389,7.711,20.056c-11.778,26.494-30.504,45.438-51.375,51.976c-16.38,5.132-33.559,2.67-49.684-7.113
	c-32.512-19.725-50.375-4.769-58.128,5.904C29.003,422.389,24.368,424.562,19.67,424.562z"/>
<g>
	<path id="SVGCleanerId_0_1_" style="fill:#EDA751;" d="M19.67,424.562c-3.096,0-6.22-0.943-8.917-2.903
		c-6.789-4.932-8.295-14.434-3.363-21.223c11.942-16.438,28.188-26.019,46.981-27.709c16.492-1.483,34.298,3.25,51.498,13.685
		c8.683,5.269,16.805,6.608,24.837,4.094c12.358-3.871,24.579-17.075,32.691-35.321c3.409-7.668,12.386-11.121,20.056-7.712
		c7.667,3.409,11.12,12.389,7.711,20.056c-11.778,26.494-30.504,45.438-51.375,51.976c-16.38,5.132-33.559,2.67-49.684-7.113
		c-32.512-19.725-50.375-4.769-58.128,5.904C29.003,422.389,24.368,424.562,19.67,424.562z"/>
</g>
<path style="fill:#FCD79D;" d="M15.779,390.723c-2.984,2.914-5.793,6.142-8.389,9.714c-4.932,6.789-3.426,16.291,3.363,21.223
	c2.697,1.96,5.821,2.903,8.917,2.903c4.698,0,9.332-2.173,12.306-6.265c1.607-2.212,3.657-4.606,6.173-6.84
	C34.558,399.234,23.956,393.06,15.779,390.723z"/>
<g>
	<path style="fill:#EDA751;" d="M196.853,512c-0.757,0-1.519-0.035-2.289-0.107c-13.368-1.248-23.194-13.097-21.945-26.466
		c2.784-29.822,4.717-57.898-2.112-73.7c-5.326-12.324,0.348-26.634,12.672-31.96c12.325-5.326,26.634,0.348,31.961,12.672
		c11.402,26.384,9.413,59.77,5.889,97.509C219.853,502.547,209.26,512,196.853,512z"/>
	<path style="fill:#EDA751;" d="M280.076,512c-0.757,0-1.519-0.035-2.289-0.107c-13.368-1.248-23.194-13.097-21.945-26.466
		c2.784-29.822,4.717-57.898-2.112-73.7c-5.326-12.324,0.348-26.634,12.673-31.96c12.325-5.326,26.633,0.348,31.96,12.672
		c11.402,26.384,9.413,59.77,5.889,97.509C303.076,502.547,292.483,512,280.076,512z"/>
	<path style="fill:#EDA751;" d="M117.251,349.77c-17.051,0-35.011-5.045-51.2-15.084c-30.528-18.93-46.074-50.738-40.572-83.013
		c2.258-13.236,14.812-22.141,28.051-19.879c13.236,2.257,22.136,14.815,19.879,28.051c-3.089,18.116,11.743,29.476,18.264,33.52
		c14,8.68,31.268,10.334,40.173,3.847c10.853-7.906,26.058-5.516,33.964,5.337c7.905,10.853,5.516,26.059-5.337,33.964
		C148.321,345.364,133.182,349.77,117.251,349.77z"/>
	<path style="fill:#EDA751;" d="M379.64,355.818c-28.976,0-55.478-10.803-67.643-18.138c-11.499-6.932-15.2-21.873-8.268-33.371
		c6.932-11.498,21.877-15.198,33.371-8.268c11.319,6.823,37.083,14.56,56.438,9.493c9.05-2.369,15.359-7.161,19.856-15.084
		c6.627-11.676,21.468-15.769,33.142-9.142c11.677,6.628,15.77,21.466,9.143,33.143c-10.937,19.269-28.167,32.451-49.83,38.121
		C397.104,354.861,388.262,355.818,379.64,355.818z"/>
</g>
<g>
	<path style="opacity:0.2;fill:#A35F00;enable-background:new    ;" d="M303.73,304.309c-6.933,11.498-3.231,26.439,8.268,33.371
		c9.839,5.932,29.057,14.13,51.375,17.05c1.751-8.05,2.671-16.381,2.671-24.91c0-8.328-0.883-16.465-2.554-24.337
		c-10.743-2.116-20.513-5.899-26.388-9.441C325.607,289.112,310.662,292.812,303.73,304.309z"/>
	<path style="opacity:0.2;fill:#A35F00;enable-background:new    ;" d="M306.764,433.377c-0.712-14.974-3.117-28.709-8.401-40.938
		c-5.328-12.324-19.635-17.997-31.96-12.672c-12.325,5.326-17.999,19.635-12.673,31.96c4.16,9.626,5.066,23.812,4.511,40.168
		C275.894,448.794,292.32,442.384,306.764,433.377z"/>
	<path style="opacity:0.2;fill:#A35F00;enable-background:new    ;" d="M183.18,379.767c-12.324,5.326-17.998,19.635-12.672,31.96
		c3.208,7.423,4.482,17.555,4.643,29.304c14.798,6.936,31.162,11.345,48.453,12.605c0.779-22.979-0.876-43.64-8.463-61.198
		C209.813,380.115,195.505,374.442,183.18,379.767z"/>
	<path style="opacity:0.2;fill:#A35F00;enable-background:new    ;" d="M183.453,347.474c-7.671-3.409-16.647,0.044-20.056,7.712
		c-8.112,18.246-20.333,31.45-32.691,35.321c-3.782,1.184-7.585,1.502-11.457,0.969c6.162,10.086,13.792,19.281,22.606,27.338
		c20.038-7.111,37.921-25.667,49.309-51.284C194.573,359.862,191.12,350.883,183.453,347.474z"/>
	<path style="opacity:0.2;fill:#A35F00;enable-background:new    ;" d="M131.847,297.211c-6.048,4.406-15.954,5.047-26.073,2.292
		c-2.6,9.707-3.989,19.862-3.989,30.317c0,6.402,0.519,12.692,1.517,18.836c4.681,0.734,9.348,1.114,13.949,1.114
		c15.931,0,31.07-4.406,43.223-13.258c10.853-7.905,13.242-23.111,5.337-33.964C157.905,291.695,142.7,289.305,131.847,297.211z"/>
</g>
<ellipse style="fill:#FCD690;" cx="233.91" cy="329.82" rx="112.13" ry="104.19"/>
<path style="opacity:0.15;fill:#C17A00;enable-background:new    ;" d="M217.54,432.904c-51.24-33.641-35.36-102.59-26.661-132.743
	v-66.578c-40.568,15.682-69.094,52.862-69.094,96.237C121.785,382.195,163.375,425.539,217.54,432.904z"/>
<path style="fill:#EDA751;" d="M165.677,149.15c21.941-18.411,36.59-49.317,5.642-95.005C140.127,8.095,93.686-3.447,57.429,0.824
	C48.491,1.877,40.991,8.17,38.401,16.79c-10.502,34.964-7.199,82.704,32.734,121.419
	C110.755,176.621,143.736,167.561,165.677,149.15z"/>
<path style="fill:#FF91AB;" d="M36.942,22.14c-8.61,34.377-3.742,79.291,34.193,116.069c34.341,33.294,63.688,30.915,85.188,17.703
	C141.537,55.533,76.943,28.915,36.942,22.14z"/>
<path style="fill:#EDA751;" d="M302.152,149.15c-21.941-18.411-36.591-49.317-5.643-95.005
	c31.193-46.049,77.634-57.592,113.89-53.32c8.939,1.053,16.439,7.346,19.028,15.966c10.502,34.964,7.199,82.704-32.734,121.419
	C357.074,176.621,324.093,167.561,302.152,149.15z"/>
<path style="fill:#FF91AB;" d="M430.887,22.14c8.61,34.377,3.742,79.291-34.193,116.069c-34.341,33.294-63.689,30.915-85.189,17.703
	C326.292,55.533,390.885,28.915,430.887,22.14z"/>
<path style="fill:#FFDC9C;" d="M424.813,176.938c0,87.284-85.468,125.513-190.898,125.513S43.016,264.222,43.016,176.938
	S128.484,18.896,233.914,18.896S424.813,89.654,424.813,176.938z"/>
<path style="opacity:0.15;fill:#C17A00;enable-background:new    ;" d="M131.984,43.297
	c-53.463,28.007-88.968,77.389-88.968,133.641c0,75.032,63.159,113.814,147.863,123.223
	C69.288,227.532,85.146,129.838,131.984,43.297z"/>
<g>
	<ellipse style="fill:#FF91AB;" cx="149.96" cy="179.4" rx="34.564" ry="27.525"/>
	<ellipse style="fill:#FF91AB;" cx="337.31" cy="179.4" rx="34.564" ry="27.525"/>
</g>
<g>
	<path style="fill:#495059;" d="M170.107,159.445c-4.143,0-7.5-3.358-7.5-7.5V139.74c0-4.142,3.357-7.5,7.5-7.5s7.5,3.358,7.5,7.5
		v12.205C177.607,156.087,174.25,159.445,170.107,159.445z"/>
	<path style="fill:#495059;" d="M317.17,159.445c-4.143,0-7.5-3.358-7.5-7.5V139.74c0-4.142,3.357-7.5,7.5-7.5s7.5,3.358,7.5,7.5
		v12.205C324.67,156.087,321.312,159.445,317.17,159.445z"/>
	<path style="fill:#495059;" d="M251.058,191.392c-1.565,0-3.16-0.211-4.753-0.648l-12.918-3.543
		c-3.994-1.096-6.344-5.222-5.248-9.217c1.095-3.994,5.218-6.344,9.217-5.249l12.918,3.543c1.169,0.321,2.067-0.055,2.656-1.121
		c0.588-1.065,0.432-2.022-0.466-2.845c-3.256-2.983-5.123-7.225-5.123-11.64c0-4.414,1.867-8.656,5.122-11.638
		c0.898-0.823,1.055-1.78,0.467-2.846c-0.59-1.066-1.485-1.441-2.656-1.121l-12.918,3.544c-4,1.095-8.122-1.255-9.217-5.249
		c-1.096-3.995,1.254-8.121,5.248-9.217l12.918-3.544c7.872-2.158,15.809,1.189,19.755,8.333c3.945,7.144,2.554,15.647-3.465,21.159
		c-0.168,0.154-0.254,0.349-0.254,0.578c0,0.23,0.086,0.424,0.255,0.579c6.018,5.511,7.409,14.014,3.464,21.158
		C262.912,188.108,257.224,191.392,251.058,191.392z"/>
	<path style="fill:#495059;" d="M101.226,183.696c-3.36,0-6.418-2.275-7.271-5.683c-1.004-4.018,1.438-8.09,5.457-9.095
		c9.501-2.375,32.143-4.066,43.173-2.611c4.106,0.542,6.995,4.312,6.453,8.418c-0.543,4.107-4.326,6.996-8.418,6.453
		c-8.972-1.185-29.727,0.331-37.569,2.292C102.44,183.623,101.828,183.696,101.226,183.696z"/>
	<path style="fill:#495059;" d="M112.234,224.65c-2.3,0-4.569-1.054-6.04-3.046c-2.46-3.332-1.753-8.028,1.58-10.488
		c7.878-5.816,28.167-16.009,38.921-18.864c4.003-1.062,8.111,1.321,9.174,5.324s-1.321,8.11-5.324,9.174
		c-8.747,2.323-27.358,11.632-33.862,16.434C115.343,224.173,113.781,224.65,112.234,224.65z"/>
	<path style="fill:#495059;" d="M386.052,183.696c-0.603,0-1.214-0.073-1.825-0.226c-7.843-1.96-28.595-3.475-37.569-2.292
		c-4.103,0.537-7.875-2.347-8.418-6.453c-0.542-4.106,2.347-7.876,6.453-8.418c11.03-1.455,33.671,0.235,43.173,2.611
		c4.019,1.004,6.461,5.077,5.457,9.095C392.47,181.42,389.412,183.695,386.052,183.696z"/>
	<path style="fill:#495059;" d="M375.043,224.65c-1.548,0-3.108-0.477-4.448-1.467c-6.504-4.801-25.115-14.111-33.862-16.434
		c-4.003-1.064-6.387-5.17-5.324-9.174s5.168-6.386,9.174-5.324c10.754,2.855,31.043,13.048,38.921,18.864
		c3.333,2.46,4.04,7.156,1.58,10.488C379.612,223.596,377.343,224.65,375.043,224.65z"/>
</g>
<path style="fill:#7694E4;" d="M455.575,312.304l-43.428-4.775c-9.694-1.066-16.688-9.789-15.622-19.482l9.813-89.245
	c1.066-9.694,9.789-16.688,19.482-15.622l43.428,4.775c9.694,1.066,16.688,9.788,15.622,19.482l-9.813,89.245
	C473.991,306.375,465.269,313.37,455.575,312.304z"/>
<circle style="opacity:0.1;enable-background:new    ;" cx="427.12" cy="205.93" r="7.354"/>
<circle style="fill:#FFFFFF;" cx="441.7" cy="238.64" r="12.532"/>
<rect x="397.587" y="273.011" transform="matrix(-0.994 -0.1093 0.1093 -0.994 840.9037 607.1164)" style="opacity:0.1;enable-background:new    ;" width="79.009" height="15"/>
<path style="fill:#DEE2E5;" d="M137.027,382.289c19.445,30.936,55.551,51.724,96.887,51.724s77.443-20.788,96.887-51.724H137.027z"
	/>
<path style="opacity:0.1;enable-background:new    ;" d="M226.603,382.289c-4.762,14.138-16.003,34.89-28.143,46.392
	c5.439,1.684,11.058,2.999,16.832,3.896c5.418-6.401,10.442-13.881,14.72-21.525c3.42,1.206,8.077,3.337,12.426,6.806
	c5.129,4.093,8.474,9.024,10.021,14.73c5.014-0.776,9.916-1.857,14.682-3.23c-2.263-9.026-7.422-16.9-15.348-23.225
	c-4.9-3.911-10.321-6.723-15.059-8.577c2.369-5.416,4.24-10.62,5.494-15.268h-15.625V382.289z"/>
<path style="fill:#7694E4;" d="M137.027,382.289h193.775c5.413-8.612,9.532-18.009,12.115-27.965H124.912
	C127.495,364.28,131.614,373.678,137.027,382.289z"/>
<g>
	<path style="fill:#7CC5E6;" d="M455.44,169.067c-0.347,0-0.698-0.024-1.051-0.074c-4.102-0.575-6.962-4.367-6.387-8.469
		l2.995-21.363c0.576-4.102,4.372-6.965,8.469-6.386c4.103,0.575,6.962,4.367,6.387,8.469l-2.995,21.363
		C462.332,166.356,459.12,169.067,455.44,169.067z"/>
	<path style="fill:#7CC5E6;" d="M486.766,181.039c-1.583,0-3.18-0.5-4.536-1.533c-3.297-2.508-3.935-7.214-1.426-10.51l13.24-17.396
		c2.509-3.295,7.215-3.934,10.51-1.425c3.297,2.508,3.935,7.214,1.426,10.51l-13.24,17.395
		C491.264,180.019,489.027,181.039,486.766,181.039z"/>
	<path style="fill:#7CC5E6;" d="M401.553,164.402c-2.047,0-4.087-0.833-5.567-2.473L383.15,147.72
		c-2.776-3.073-2.536-7.816,0.538-10.593c3.072-2.775,7.815-2.538,10.593,0.538l12.836,14.209c2.776,3.073,2.536,7.816-0.538,10.593
		C405.144,163.764,403.346,164.402,401.553,164.402z"/>
</g>
<path style="opacity:0.1;enable-background:new    ;" d="M124.912,354.324c2.583,9.956,6.702,19.353,12.115,27.965
	c16.826,26.769,46.131,45.927,80.501,50.606c-29.321-19.258-36.652-50.079-35.933-78.571L124.912,354.324L124.912,354.324z"/>
<g>
</g>
<g>
</g>
<g>
</g>
<g>
</g>
<g>
</g>
<g>
</g>
<g>
</g>
<g>
</g>
<g>
</g>
<g>
</g>
<g>
</g>
<g>
</g>
<g>
</g>
<g>
</g>
<g>
</g>
</svg>
