<?xml version="1.0" encoding="iso-8859-1"?>
<!-- Generator: Adobe Illustrator 19.0.0, SVG Export Plug-In . SVG Version: 6.00 Build 0)  -->
<svg version="1.1" id="Capa_1" xmlns="http://www.w3.org/2000/svg" xmlns:xlink="http://www.w3.org/1999/xlink" x="0px" y="0px"
	 viewBox="0 0 511.999 511.999" style="enable-background:new 0 0 511.999 511.999;" xml:space="preserve">
<path style="fill:#EDA751;" d="M174.875,436.766c-0.726,0-1.453-0.016-2.179-0.051c-21.63-1.018-40.737-17.034-48.678-40.802
	c-6.388-19.122-17.949-22.829-22.622-23.536c-6.622-0.994-12.787,1.485-16.493,6.649c-4.435,6.179-13.039,7.595-19.219,3.159
	c-6.18-4.434-7.594-13.039-3.16-19.219c9.713-13.534,26.185-20.367,42.988-17.824c20.17,3.048,36.854,18.766,44.631,42.042
	c4.242,12.697,13.826,21.545,23.848,22.016c12.817,0.605,25.783-11.78,35.602-33.975c3.077-6.957,11.208-10.104,18.167-7.024
	c6.956,3.077,10.1,11.21,7.023,18.166c-7.423,16.781-16.641,29.653-27.399,38.257C197.421,432.594,186.226,436.766,174.875,436.766z
	"/>
<path style="fill:#FCD79D;" d="M62.523,362.967c-4.434,6.179-3.02,14.784,3.16,19.219c6.18,4.436,14.784,3.02,19.219-3.159
	c1.79-2.495,4.158-4.356,6.871-5.509c-2.168-10.007-9.458-17.684-17.236-21.905C69.923,354.56,65.826,358.365,62.523,362.967z"/>
<g>
	<path style="fill:#EDA751;" d="M308.281,511.999c-0.685,0-1.375-0.031-2.07-0.096c-12.117-1.13-21.025-11.868-19.896-23.985
		c2.882-30.936,3.245-50.099-3.083-62.755c-5.442-10.885-1.03-24.121,9.854-29.564c10.886-5.441,24.122-1.03,29.564,9.855
		c11.061,22.122,11.185,47.487,7.545,86.553C329.131,503.429,319.528,511.999,308.281,511.999z"/>
	<path style="fill:#EDA751;" d="M236.547,511.999c-0.685,0-1.375-0.031-2.07-0.096c-12.117-1.13-21.025-11.868-19.896-23.985
		c2.882-30.936,3.245-50.099-3.083-62.755c-5.442-10.885-1.03-24.121,9.855-29.564c10.887-5.441,24.121-1.03,29.564,9.855
		c11.061,22.122,11.186,47.487,7.545,86.553C257.397,503.429,247.794,511.999,236.547,511.999z"/>
</g>
<g>
	<path style="opacity:0.2;fill:#A35F00;enable-background:new    ;" d="M227.759,368.203c-6.959-3.08-15.09,0.067-18.167,7.024
		c-9.818,22.194-22.785,34.58-35.602,33.975c-4.553-0.214-9.009-2.171-12.922-5.418c6.229,11.876,14.583,22.595,24.593,31.715
		c7.585-1.787,14.939-5.448,21.72-10.872c10.758-8.604,19.976-21.476,27.399-38.257C237.859,379.413,234.715,371.28,227.759,368.203
		z"/>
	<path style="opacity:0.2;fill:#A35F00;enable-background:new    ;" d="M221.353,395.599c-10.885,5.442-15.297,18.678-9.855,29.564
		c3.786,7.573,5.176,17.478,5.065,30.837c13.377,6.212,28.132,10.178,43.71,11.37c1.204-25.789-0.81-44.824-9.357-61.917
		C245.474,394.57,232.24,390.158,221.353,395.599z"/>
	<path style="opacity:0.2;fill:#A35F00;enable-background:new    ;" d="M332.303,451.684c-0.258-18.164-2.937-32.798-9.653-46.23
		c-5.442-10.884-18.678-15.296-29.564-9.855c-10.885,5.442-15.297,18.678-9.855,29.564c4.72,9.44,5.717,22.505,4.723,41.371
		C303.955,464.324,318.95,459.173,332.303,451.684z"/>
</g>
<ellipse style="fill:#FCD690;" cx="270.21" cy="353.31" rx="101.63" ry="94.44"/>
<path style="opacity:0.15;fill:#C17A00;enable-background:new    ;" d="M255.373,446.749
	c-46.444-30.492-32.05-92.988-24.166-120.319v-60.347c-36.771,14.214-62.627,47.914-62.627,87.229
	C168.581,400.787,206.278,440.073,255.373,446.749z"/>
<g>
	<path style="fill:#EDA751;" d="M306.203,394.794c-14.46,0-28.302-2.815-39.534-8.195c-10.975-5.259-15.609-18.419-10.351-29.394
		c5.258-10.976,18.417-15.609,29.393-10.352c14.364,6.885,45.191,5.695,62.76-11.873c8.604-8.605,22.557-8.607,31.162-0.001
		c8.605,8.605,8.605,22.557,0,31.162c-14.363,14.364-34.51,24.098-56.728,27.411C317.322,394.385,311.717,394.794,306.203,394.794z"
		/>
	<path style="fill:#EDA751;" d="M234.227,394.794c-5.515,0-11.118-0.41-16.702-1.242c-22.218-3.313-42.365-13.047-56.729-27.41
		c-8.605-8.605-8.605-22.558,0-31.163c8.605-8.605,22.557-8.605,31.162,0c17.57,17.569,48.395,18.758,62.76,11.874
		c10.975-5.256,24.135-0.624,29.393,10.352c5.259,10.975,0.624,24.134-10.351,29.394
		C262.529,391.98,248.685,394.794,234.227,394.794z"/>
</g>
<path style="opacity:0.2;fill:#A35F00;enable-background:new    ;" d="M234.227,394.794c-5.515,0-11.118-0.41-16.702-1.242
	c-22.218-3.313-42.365-13.047-56.729-27.41c-8.605-8.605-8.605-22.558,0-31.163c8.605-8.605,22.557-8.605,31.162,0
	c17.57,17.569,48.395,18.758,62.76,11.874c10.975-5.256,24.135-0.624,29.393,10.352c5.259,10.975,0.624,24.134-10.351,29.394
	C262.529,391.98,248.685,394.794,234.227,394.794z"/>
<path style="fill:#EDA751;" d="M208.364,189.554c19.888-16.688,33.166-44.701,5.114-86.113
	c-28.273-41.739-70.367-52.202-103.23-48.33c-8.102,0.954-14.9,6.659-17.247,14.472c-9.519,31.691-6.525,74.963,29.67,110.054
	C158.583,214.453,188.477,206.241,208.364,189.554z"/>
<path style="fill:#FF91AB;" d="M91.678,74.432c-7.804,31.16-3.391,71.869,30.993,105.205c31.127,30.178,57.728,28.021,77.215,16.046
	C186.483,104.699,127.936,80.572,91.678,74.432z"/>
<path style="fill:#EDA751;" d="M332.065,189.554c-19.887-16.688-33.166-44.701-5.114-86.113
	c28.273-41.739,70.367-52.202,103.23-48.33c8.102,0.954,14.9,6.659,17.247,14.472c9.519,31.691,6.525,74.963-29.67,110.054
	C381.847,214.453,351.953,206.241,332.065,189.554z"/>
<path style="fill:#FF91AB;" d="M448.751,74.432c7.804,31.16,3.391,71.869-30.993,105.205
	c-31.127,30.178-57.727,28.021-77.215,16.046C353.946,104.699,412.494,80.572,448.751,74.432z"/>
<path style="fill:#FFDC9C;" d="M443.245,214.741c0,79.114-77.468,113.766-173.031,113.766s-173.03-34.652-173.03-113.766
	s77.469-143.25,173.031-143.25S443.245,135.626,443.245,214.741z"/>
<path style="opacity:0.15;fill:#C17A00;enable-background:new    ;" d="M177.825,93.608
	c-48.459,25.386-80.641,70.145-80.641,121.132c0,68.009,57.247,103.161,134.023,111.69
	C120.997,260.599,135.371,172.05,177.825,93.608z"/>
<g>
	<path style="fill:#495059;" d="M203.566,200.689c-4.142,0-7.5-3.357-7.5-7.5v-11.063c0-4.143,3.358-7.5,7.5-7.5s7.5,3.357,7.5,7.5
		v11.063C211.066,197.332,207.708,200.689,203.566,200.689z"/>
	<path style="fill:#495059;" d="M336.864,200.689c-4.142,0-7.5-3.357-7.5-7.5v-11.063c0-4.143,3.358-7.5,7.5-7.5s7.5,3.357,7.5,7.5
		v11.063C344.364,197.332,341.006,200.689,336.864,200.689z"/>
	<path style="fill:#495059;" d="M252.64,219.415c-1.748,0-3.503-0.607-4.925-1.846c-3.122-2.722-3.448-7.459-0.727-10.582
		c5.858-6.722,14.324-10.577,23.226-10.577c8.901,0,17.367,3.855,23.226,10.577c2.722,3.122,2.397,7.86-0.726,10.581
		c-3.123,2.724-7.86,2.398-10.582-0.725c-3.009-3.452-7.354-5.433-11.918-5.433c-4.565,0-8.909,1.98-11.917,5.433
		C256.814,218.544,254.732,219.415,252.64,219.415z"/>
	<path style="fill:#495059;" d="M141.13,222.67c-3.361,0-6.419-2.275-7.27-5.684c-1.004-4.018,1.439-8.09,5.458-9.095
		c8.67-2.167,29.331-3.71,39.393-2.381c4.106,0.543,6.996,4.312,6.453,8.418c-0.543,4.107-4.314,6.997-8.418,6.453
		c-7.905-1.045-26.889,0.337-33.791,2.063C142.344,222.597,141.732,222.67,141.13,222.67z"/>
	<path style="fill:#495059;" d="M151.11,259.791c-2.3,0-4.569-1.054-6.04-3.046c-2.46-3.332-1.752-8.028,1.58-10.488
		c7.189-5.307,25.702-14.606,35.515-17.212c4.005-1.06,8.111,1.321,9.174,5.324c1.063,4.004-1.321,8.11-5.324,9.174
		c-7.709,2.047-24.734,10.559-30.457,14.782C154.218,259.314,152.657,259.791,151.11,259.791z"/>
	<path style="fill:#495059;" d="M399.299,222.67c-0.602,0-1.214-0.073-1.824-0.226c-6.902-1.726-25.885-3.108-33.792-2.063
		c-4.102,0.544-7.874-2.346-8.418-6.453c-0.542-4.106,2.347-7.875,6.453-8.418c10.06-1.33,30.723,0.214,39.393,2.381
		c4.019,1.005,6.462,5.076,5.458,9.095C405.718,220.394,402.66,222.67,399.299,222.67z"/>
	<path style="fill:#495059;" d="M389.32,259.791c-1.547,0-3.108-0.477-4.448-1.466c-5.722-4.224-22.747-12.735-30.457-14.782
		c-4.003-1.063-6.387-5.17-5.324-9.174c1.064-4.003,5.172-6.383,9.174-5.324c9.813,2.605,28.327,11.905,35.515,17.212
		c3.333,2.46,4.04,7.156,1.58,10.488C393.889,258.737,391.619,259.791,389.32,259.791z"/>
	<path style="fill:#495059;" d="M270.215,186.148c-34.017,0-53.181-3.638-75.372-7.85c-1.828-0.348-3.676-0.698-5.554-1.051
		c-4.071-0.765-6.751-4.684-5.987-8.756c0.765-4.069,4.683-6.748,8.755-5.986c1.888,0.355,3.745,0.707,5.583,1.056
		c21.446,4.071,39.968,7.587,72.574,7.587s51.128-3.516,72.575-7.587c1.837-0.349,3.694-0.701,5.582-1.056
		c4.07-0.765,7.991,1.916,8.755,5.986c0.765,4.071-1.916,7.991-5.987,8.756c-1.877,0.353-3.725,0.703-5.553,1.051
		C323.396,182.511,304.232,186.148,270.215,186.148z"/>
	<path style="fill:#495059;" d="M270.215,156.351c-15.313,0-28.523-0.727-41.576-2.287c-4.113-0.492-7.048-4.225-6.557-8.338
		c0.492-4.113,4.229-7.052,8.337-6.557c12.448,1.488,25.093,2.182,39.796,2.182c14.702,0,27.348-0.693,39.796-2.182
		c4.114-0.488,7.846,2.444,8.337,6.557c0.492,4.113-2.444,7.846-6.557,8.338C298.738,155.625,285.527,156.351,270.215,156.351z"/>
	<path style="fill:#495059;" d="M270.209,63.963c-1.101,0-2.218-0.243-3.274-0.757c-3.725-1.812-5.277-6.299-3.466-10.024
		l5.476-11.264l-10.13,0.49c-2.794,0.137-5.443-1.303-6.85-3.729c-1.407-2.426-1.343-5.435,0.166-7.798l8.701-13.632l-13.671,1.965
		c-4.099,0.583-7.901-2.257-8.491-6.356c-0.589-4.101,2.257-7.901,6.357-8.491l29.859-4.292c2.901-0.412,5.781,0.896,7.37,3.359
		c1.589,2.464,1.596,5.628,0.019,8.1l-9.696,15.19l8.282-0.4c2.637-0.129,5.163,1.149,6.622,3.36s1.643,5.027,0.485,7.41
		L276.96,59.74C275.663,62.409,272.99,63.963,270.209,63.963z"/>
</g>
<g>
</g>
<g>
</g>
<g>
</g>
<g>
</g>
<g>
</g>
<g>
</g>
<g>
</g>
<g>
</g>
<g>
</g>
<g>
</g>
<g>
</g>
<g>
</g>
<g>
</g>
<g>
</g>
<g>
</g>
</svg>
