<?xml version="1.0" encoding="iso-8859-1"?>
<!-- Generator: Adobe Illustrator 19.0.0, SVG Export Plug-In . SVG Version: 6.00 Build 0)  -->
<svg version="1.1" id="Capa_1" xmlns="http://www.w3.org/2000/svg" xmlns:xlink="http://www.w3.org/1999/xlink" x="0px" y="0px"
	 viewBox="0 0 512 512" style="enable-background:new 0 0 512 512;" xml:space="preserve">
<path style="fill:#EDA751;" d="M393.883,478.338c-3.142,0-6.33-0.736-9.309-2.29c-33.538-17.492-47.792-33.733-63.547-72.408
	c-4.203-10.314,0.752-22.082,11.066-26.284c10.315-4.201,22.082,0.753,26.283,11.067c12.253,30.074,19.797,38.799,44.849,51.865
	c9.874,5.15,13.704,17.33,8.555,27.205C408.183,474.39,401.158,478.338,393.883,478.338z"/>
<path style="opacity:0.2;fill:#A35F00;enable-background:new    ;" d="M358.377,388.424c-4.201-10.314-15.968-15.267-26.283-11.067
	c-10.314,4.202-15.269,15.969-11.066,26.284c11.973,29.389,23.087,45.822,42.447,59.695c7.42-12.357,12.299-26.238,13.958-41.012
	C370.156,414.517,364.941,404.535,358.377,388.424z"/>
<g>
	<path style="fill:#EDA751;" d="M386.274,509.346c-5.216,0-10.428-2.011-14.375-6.023c-10.737-10.913-37.392-17.103-50.989-8.722
		c-9.479,5.844-21.901,2.897-27.747-6.585c-5.844-9.481-2.896-21.904,6.585-27.748c31.685-19.531,78.604-7.891,100.898,14.769
		c7.811,7.939,7.708,20.706-0.23,28.517C396.489,507.419,391.38,509.346,386.274,509.346z"/>
	<path style="fill:#EDA751;" d="M161.405,498.844c-3.23,0-6.505-0.177-9.814-0.532c-17.99-1.933-35.337-9.05-48.842-20.04
		c-15.298-12.449-24.455-28.623-26.478-46.771c-0.771-6.918,4.211-13.151,11.129-13.922c6.9-0.778,13.152,4.21,13.922,11.129
		c2.179,19.54,21.07,41.115,52.962,44.541c9.386,1.008,40.825,1.883,51.301-29.2c2.223-6.595,9.37-10.141,15.969-7.917
		c6.596,2.223,10.141,9.373,7.919,15.969c-5.723,16.976-16.774,30.187-31.96,38.203C186.823,495.945,174.49,498.844,161.405,498.844
		z"/>
</g>
<path style="fill:#FCD79D;" d="M103.873,438.742c-1.316-3.338-2.181-6.715-2.551-10.035c-0.77-6.919-7.021-11.907-13.922-11.129
	c-6.918,0.771-11.9,7.004-11.129,13.922c0.528,4.734,1.552,9.329,3.033,13.763C85.344,445.064,94.98,443.895,103.873,438.742z"/>
<path style="opacity:0.2;fill:#A35F00;enable-background:new    ;" d="M299.749,460.269c-9.481,5.844-12.429,18.267-6.585,27.748
	c5.846,9.482,18.268,12.429,27.747,6.585c6.289-3.876,15.371-4.631,24.38-3.247c11.228-9.577,20.406-21.245,26.849-34.341
	C349.188,448.108,321.035,447.148,299.749,460.269z"/>
<ellipse style="fill:#FCD690;" cx="269.389" cy="412.35" rx="93.01" ry="86.43"/>
<path style="opacity:0.15;fill:#C17A00;enable-background:new    ;" d="M255.809,497.86
	c-42.503-27.905-29.331-85.097-22.115-110.109v-55.226c-33.651,13.008-57.313,43.848-57.313,79.828
	C176.381,455.798,210.88,491.751,255.809,497.86z"/>
<path style="fill:#EDA751;" d="M212.789,262.489c18.2-15.272,30.352-40.908,4.68-78.806c-25.874-38.197-64.396-47.772-94.471-44.229
	c-7.414,0.874-13.636,6.094-15.783,13.244c-8.712,29.002-5.972,68.602,27.152,100.716
	C167.231,285.276,194.589,277.76,212.789,262.489z"/>
<path style="fill:#FF91AB;" d="M106.004,157.136c-7.142,28.516-3.104,65.771,28.363,96.278
	c28.486,27.617,52.829,25.644,70.663,14.685C192.765,184.835,139.185,162.755,106.004,157.136z"/>
<path style="fill:#EDA751;" d="M325.994,262.489c-18.2-15.272-30.352-40.908-4.68-78.806c25.874-38.197,64.396-47.772,94.471-44.229
	c7.415,0.874,13.636,6.094,15.783,13.244c8.712,29.002,5.972,68.602-27.152,100.716C371.551,285.276,344.194,277.76,325.994,262.489
	z"/>
<path style="fill:#FF91AB;" d="M432.778,157.136c7.142,28.516,3.104,65.771-28.363,96.278
	c-28.486,27.617-52.829,25.644-70.663,14.685C346.018,184.835,399.597,162.755,432.778,157.136z"/>
<path style="fill:#FFDC9C;" d="M427.739,285.539c0,72.401-70.895,104.112-158.348,104.112S111.043,357.94,111.043,285.539
	s70.895-131.094,158.348-131.094S427.739,213.137,427.739,285.539z"/>
<path style="opacity:0.15;fill:#C17A00;enable-background:new    ;" d="M184.841,174.685
	c-44.347,23.232-73.798,64.193-73.798,110.854c0,62.238,52.389,94.408,122.651,102.213
	C132.835,327.506,145.989,246.47,184.841,174.685z"/>
<g>
	<ellipse style="fill:#FF91AB;" cx="198.069" cy="265.34" rx="28.671" ry="22.832"/>
	<ellipse style="fill:#FF91AB;" cx="353.479" cy="265.34" rx="28.671" ry="22.832"/>
</g>
<g>
	<path style="fill:#495059;" d="M214.781,250.063c-4.143,0-7.5-3.358-7.5-7.5v-10.125c0-4.142,3.357-7.5,7.5-7.5s7.5,3.358,7.5,7.5
		v10.125C222.281,246.705,218.924,250.063,214.781,250.063z"/>
	<path style="fill:#495059;" d="M336.768,250.063c-4.143,0-7.5-3.358-7.5-7.5v-10.125c0-4.142,3.357-7.5,7.5-7.5
		c4.142,0,7.5,3.358,7.5,7.5v10.125C344.268,246.705,340.91,250.063,336.768,250.063z"/>
	<path style="fill:#495059;" d="M291.855,255.114h-32.161c-4.143,0-7.5-3.358-7.5-7.5s3.357-7.5,7.5-7.5h32.161
		c4.143,0,7.5,3.358,7.5,7.5S295.998,255.114,291.855,255.114z"/>
	<path style="fill:#495059;" d="M157.643,270.178c-3.36,0-6.418-2.275-7.271-5.683c-1.004-4.018,1.438-8.09,5.457-9.095
		c7.984-1.996,27.014-3.416,36.289-2.193c4.107,0.543,6.995,4.312,6.453,8.418c-0.543,4.107-4.321,6.995-8.418,6.453
		c-7.179-0.948-24.42,0.307-30.686,1.874C158.857,270.105,158.245,270.178,157.643,270.178z"/>
	<path style="fill:#495059;" d="M166.776,304.149c-2.3,0-4.569-1.054-6.04-3.046c-2.46-3.332-1.753-8.028,1.58-10.488
		c6.621-4.888,23.676-13.454,32.716-15.854c4.004-1.061,8.111,1.322,9.174,5.324c1.063,4.003-1.321,8.111-5.324,9.174
		c-7,1.858-22.46,9.588-27.657,13.424C169.885,303.672,168.323,304.149,166.776,304.149z"/>
	<path style="fill:#495059;" d="M393.906,270.178c-0.603,0-1.214-0.073-1.825-0.226c-6.265-1.566-23.502-2.822-30.685-1.874
		c-4.109,0.54-7.875-2.347-8.418-6.453c-0.542-4.107,2.347-7.876,6.453-8.418c9.275-1.223,28.305,0.197,36.289,2.193
		c4.019,1.004,6.461,5.077,5.457,9.095C400.324,267.903,397.267,270.178,393.906,270.178z"/>
	<path style="fill:#495059;" d="M384.772,304.149c-1.548,0-3.107-0.477-4.448-1.466c-5.197-3.836-20.658-11.566-27.657-13.424
		c-4.003-1.063-6.387-5.17-5.324-9.173s5.165-6.385,9.174-5.325c9.039,2.4,26.094,10.966,32.716,15.854
		c3.333,2.46,4.04,7.156,1.58,10.488C389.342,303.095,387.072,304.149,384.772,304.149z"/>
</g>
<path style="fill:#DEE2E5;" d="M310.05,0.001c-12.972-0.058-24.966,4.088-34.722,11.141c-1.06,0.766-2.404,0.993-3.671,0.672
	c-2.358-0.598-4.827-0.919-7.372-0.919c-10.711,0-20.108,5.613-25.419,14.056c-0.546,0.868-1.464,1.447-2.488,1.519
	c-24.824,1.732-44.427,22.406-44.427,47.67c0,25.052,19.276,45.591,43.803,47.623c2.059,0.17,3.959,1.152,5.386,2.646
	c6.213,6.503,14.964,10.557,24.668,10.557c11.631,0,21.898-5.822,28.057-14.709c1.629-2.35,4.447-3.526,7.275-3.104
	c2.819,0.42,5.702,0.641,8.638,0.641c32.987,0,59.64-27.119,58.881-60.278C367.935,25.817,341.757,0.143,310.05,0.001z"/>
<g>
	<circle style="fill:#FFFFFF;" cx="233.909" cy="67.62" r="12.135"/>
	<circle style="fill:#FFFFFF;" cx="281.249" cy="67.62" r="12.135"/>
	<circle style="fill:#FFFFFF;" cx="328.589" cy="67.62" r="12.135"/>
</g>
<g>
	<path style="fill:#EDA751;" d="M198.755,434.285c-7.32,0-14.742-1.377-21.929-4.196c-10.367-4.068-15.475-15.77-11.407-26.137
		c4.068-10.369,15.769-15.474,26.137-11.408c8.192,3.214,15.419,0.257,19.451-3.582c2.986-2.842,7.482-9.128,4.06-19.291
		c-3.555-10.554,2.12-21.992,12.674-25.547c10.558-3.554,21.994,2.121,25.548,12.675c7.486,22.229,1.942,45.745-14.47,61.371
		C227.72,428.736,213.447,434.284,198.755,434.285z"/>
	<path style="fill:#EDA751;" d="M312.329,512c-3.827,0-7.696-1.087-11.125-3.361c-11.454-7.594-28.038-10.565-59.06-10.565
		c-0.162,0-0.304,0.008-0.485,0c-11.129,0-20.155-9.015-20.165-20.146c-0.011-11.137,9.009-20.174,20.147-20.185
		c0.177,0,0.355,0,0.533,0c33.188,0,59.733,2.972,81.318,17.283c9.282,6.155,11.818,18.668,5.664,27.95
		C325.273,508.829,318.863,512,312.329,512z"/>
</g>
<path style="opacity:0.15;fill:#C18F00;enable-background:new    ;" d="M312.329,512c-3.827,0-7.696-1.087-11.125-3.361
	c-11.454-7.594-28.038-10.565-59.06-10.565c-0.162,0-0.304,0.008-0.485,0c-11.129,0-20.155-9.015-20.165-20.146
	c-0.011-11.137,9.009-20.174,20.147-20.185c0.177,0,0.355,0,0.533,0c33.188,0,59.733,2.972,81.318,17.283
	c9.282,6.155,11.818,18.668,5.664,27.95C325.273,508.829,318.863,512,312.329,512z"/>
<g>
</g>
<g>
</g>
<g>
</g>
<g>
</g>
<g>
</g>
<g>
</g>
<g>
</g>
<g>
</g>
<g>
</g>
<g>
</g>
<g>
</g>
<g>
</g>
<g>
</g>
<g>
</g>
<g>
</g>
</svg>
