<?xml version="1.0" encoding="iso-8859-1"?>
<!-- Generator: Adobe Illustrator 19.0.0, SVG Export Plug-In . SVG Version: 6.00 Build 0)  -->
<svg version="1.1" id="Capa_1" xmlns="http://www.w3.org/2000/svg" xmlns:xlink="http://www.w3.org/1999/xlink" x="0px" y="0px"
	 viewBox="0 0 512 512" style="enable-background:new 0 0 512 512;" xml:space="preserve">
<path style="fill:#EDA751;" d="M105.135,494.888c-5.386,0-10.482-3.227-12.605-8.534c-6.244-15.61-5.361-32.664,2.363-45.621
	c5.683-9.534,17.801-21.517,43.261-24.462c29.146-3.373,37.927-14.394,53.867-34.4c1.968-2.47,4-5.02,6.143-7.643
	c4.741-5.805,13.291-6.666,19.095-1.924c5.804,4.742,6.666,13.291,1.924,19.096c-2.07,2.534-4.033,4.998-5.934,7.385
	c-17.01,21.351-31.701,39.79-71.976,44.449c-11.597,1.342-19.358,5.177-23.067,11.398c-4.029,6.76-2.888,15.613-0.476,21.643
	c2.784,6.96-0.601,14.857-7.561,17.641C108.518,494.575,106.812,494.888,105.135,494.888z"/>
<path style="fill:#FCD79D;" d="M110.171,493.914c6.959-2.784,10.344-10.682,7.561-17.641c-0.689-1.723-1.268-3.681-1.659-5.75
	c-10.036-0.492-20.151,2.194-26.515,5.864c0.685,3.352,1.663,6.691,2.973,9.967c2.123,5.306,7.219,8.534,12.605,8.534
	C106.812,494.888,108.518,494.575,110.171,493.914z"/>
<path style="opacity:0.2;fill:#A35F00;enable-background:new    ;" d="M217.26,372.303c-5.805-4.742-14.354-3.881-19.095,1.924
	c-2.143,2.623-4.175,5.173-6.143,7.643c-12.908,16.201-21.125,26.508-39.26,31.635c5.141,8.104,11.323,15.559,18.381,22.191
	c19.338-8.357,30.156-21.912,42.107-36.913c1.902-2.386,3.865-4.85,5.934-7.384C223.926,385.594,223.064,377.045,217.26,372.303z"/>
<g>
	<path style="fill:#7CC5E6;" d="M211.385,285.984L56.133,272.401c-19.941-1.745-38.035,12.697-39.862,32.631
		c-1.487,16.22,7.982,30.889,22.291,36.741c2.172,0.888,3.273,3.38,2.47,5.585c-4.278,11.738-2.346,25.375,6.262,35.633
		c9.928,11.831,25.822,15.698,39.588,10.897c2.134-0.744,4.453,0.178,5.522,2.17c5.559,10.355,16.173,17.421,28.78,19.108
		c43.68,5.847,67.927-4.514,93.582-50.518C240.422,318.642,211.385,285.984,211.385,285.984z"/>
	<path style="fill:#7CC5E6;" d="M300.615,285.984l155.251-13.583c19.941-1.745,38.035,12.697,39.862,32.631
		c1.487,16.22-7.982,30.889-22.291,36.741c-2.172,0.888-3.273,3.38-2.47,5.585c4.278,11.738,2.346,25.375-6.262,35.633
		c-9.928,11.831-25.822,15.698-39.588,10.897c-2.134-0.744-4.453,0.178-5.522,2.17c-5.559,10.355-16.173,17.421-28.78,19.108
		c-43.68,5.847-67.927-4.514-93.582-50.518C271.579,318.642,300.615,285.984,300.615,285.984z"/>
</g>
<path style="opacity:0.1;enable-background:new    ;" d="M438.727,285.191c2.337-3.836,4.436-7.789,6.315-11.843l-144.427,12.636
	c0,0-29.036,32.658-3.381,78.662c21.052,37.749,41.164,51.488,71.834,51.977c10.865-17.967,17.083-38.756,17.083-60.893
	c0-7.229-0.669-14.312-1.939-21.202c2.612-1.369,5.166-2.781,7.646-4.251C412.007,318.339,427.776,303.17,438.727,285.191z"/>
<path style="opacity:0.1;enable-background:new    ;" d="M66.959,273.348c1.879,4.055,3.978,8.007,6.315,11.843
	c10.951,17.978,26.721,33.147,46.87,45.085c2.48,1.469,5.034,2.882,7.646,4.251c-1.271,6.89-1.939,13.974-1.939,21.202
	c0,22.137,6.217,42.926,17.083,60.893c30.67-0.488,50.782-14.228,71.834-51.977c25.655-46.004-3.381-78.662-3.381-78.662
	L66.959,273.348z"/>
<g>
	<path style="fill:#EDA751;" d="M220.868,512c-10.82,0-20.185-8.076-21.527-19.089c-3.112-25.53-0.217-59.459,1.785-77.412
		c1.33-11.919,12.069-20.506,23.987-19.173c11.918,1.329,20.502,12.069,19.173,23.987c-3.006,26.946-3.692,52.121-1.837,67.344
		c1.451,11.903-7.022,22.73-18.926,24.182C222.632,511.947,221.745,512,220.868,512z"/>
	<path style="fill:#EDA751;" d="M291.132,512c-0.876,0-1.762-0.053-2.655-0.161c-11.904-1.451-20.377-12.279-18.926-24.182
		c1.855-15.223,1.169-40.398-1.837-67.344c-1.329-11.918,7.255-22.657,19.173-23.987c11.915-1.338,22.657,7.254,23.987,19.173
		c2.002,17.953,4.897,51.883,1.785,77.412C311.317,503.923,301.951,512,291.132,512z"/>
	<path style="fill:#EDA751;" d="M147.124,369.261c-22.54,0-50.772-5.015-71.437-25.682c-8.48-8.48-8.48-22.228,0-30.708
		c8.479-8.479,22.229-8.48,30.708,0.001c7.212,7.211,30.337,18.611,66.245,10.147c11.672-2.748,23.365,4.482,26.116,16.153
		c2.751,11.673-4.481,23.366-16.153,26.117C177.674,366.451,163.993,369.261,147.124,369.261z"/>
	<path style="fill:#EDA751;" d="M364.876,369.261c-16.872,0-30.549-2.81-35.478-3.972c-11.672-2.751-18.904-14.444-16.153-26.117
		c2.751-11.671,14.442-18.898,26.116-16.153c15.703,3.701,49.755,6.343,66.245-10.147c8.48-8.48,22.229-8.48,30.708-0.001
		c8.48,8.48,8.48,22.228,0,30.708C415.65,364.244,387.415,369.261,364.876,369.261z"/>
</g>
<g>
	<path style="opacity:0.2;fill:#A35F00;enable-background:new    ;" d="M313.814,454.816c-0.513-15.208-1.856-29.602-2.939-39.317
		c-1.33-11.919-12.072-20.512-23.987-19.173c-11.918,1.329-20.502,12.069-19.173,23.987c1.935,17.345,2.907,33.951,2.86,47.646
		C286.086,466.186,300.693,461.622,313.814,454.816z"/>
	<path style="opacity:0.2;fill:#A35F00;enable-background:new    ;" d="M225.114,396.326c-11.919-1.333-22.657,7.254-23.987,19.173
		c-1.083,9.714-2.427,24.109-2.94,39.317c13.12,6.806,27.728,11.37,43.239,13.143c-0.046-13.695,0.926-30.302,2.86-47.646
		C245.616,408.395,237.032,397.655,225.114,396.326z"/>
	<path style="opacity:0.2;fill:#A35F00;enable-background:new    ;" d="M371.796,325.543c-12.403,0.876-24.665-0.692-32.434-2.523
		c-11.674-2.745-23.365,4.482-26.116,16.153c-2.751,11.673,4.481,23.366,16.153,26.117c4.929,1.162,18.607,3.972,35.478,3.972
		c3.372,0,6.874-0.115,10.456-0.376c0.534-4.318,0.818-8.706,0.818-13.156C376.151,345.278,374.629,335.156,371.796,325.543z"/>
	<path style="opacity:0.2;fill:#A35F00;enable-background:new    ;" d="M172.64,323.02c-12.389,2.92-23.255,3.474-32.472,2.653
		c-2.809,9.575-4.318,19.652-4.318,30.056c0,4.45,0.284,8.839,0.818,13.156c3.583,0.26,7.084,0.376,10.456,0.376
		c16.868,0,30.55-2.811,35.478-3.972c11.672-2.751,18.904-14.444,16.153-26.117C196.005,327.501,184.312,320.272,172.64,323.02z"/>
</g>
<ellipse style="fill:#FCD690;" cx="256" cy="355.73" rx="100.15" ry="93.06"/>
<path style="opacity:0.15;fill:#C17A00;enable-background:new    ;" d="M241.376,447.802
	c-45.766-30.047-31.582-91.631-23.813-118.563v-59.466c-36.234,14.007-61.713,47.215-61.713,85.956
	C155.85,402.51,192.997,441.223,241.376,447.802z"/>
<path style="fill:#EDA751;" d="M195.053,194.36c19.597-16.444,32.682-44.049,5.04-84.856c-27.86-41.13-69.34-51.44-101.724-47.625
	c-7.984,0.941-14.683,6.562-16.995,14.261c-9.381,31.229-6.43,73.869,29.237,108.448
	C145.997,218.896,175.456,210.804,195.053,194.36z"/>
<path style="fill:#FF91AB;" d="M80.07,80.918c-7.69,30.705-3.342,70.821,30.54,103.67c30.673,29.737,56.885,27.612,76.088,15.812
	C173.492,110.744,115.799,86.969,80.07,80.918z"/>
<path style="fill:#EDA751;" d="M316.948,194.36c-19.597-16.444-32.682-44.049-5.04-84.856c27.86-41.13,69.34-51.44,101.724-47.625
	c7.984,0.941,14.683,6.562,16.995,14.261c9.38,31.229,6.43,73.869-29.237,108.448C366.003,218.896,336.546,210.804,316.948,194.36z"
	/>
<path style="fill:#FF91AB;" d="M431.931,80.918c7.69,30.705,3.342,70.821-30.54,103.67c-30.673,29.737-56.885,27.612-76.088,15.812
	C338.509,110.744,396.202,86.969,431.931,80.918z"/>
<path style="fill:#FFDC9C;" d="M426.505,219.179c0,77.96-76.338,112.105-170.505,112.105S85.496,297.139,85.496,219.179
	S161.833,78.021,256,78.021S426.505,141.219,426.505,219.179z"/>
<path style="opacity:0.15;fill:#C17A00;enable-background:new    ;" d="M164.958,99.815
	c-47.752,25.015-79.464,69.121-79.464,119.365c0,67.017,56.412,101.656,132.067,110.06
	C108.961,264.368,123.125,177.111,164.958,99.815z"/>
<g>
	<ellipse style="fill:#FF91AB;" cx="172.331" cy="222.47" rx="30.872" ry="24.585"/>
	<ellipse style="fill:#FF91AB;" cx="339.671" cy="222.47" rx="30.872" ry="24.585"/>
</g>
<g>
	<path style="fill:#495059;" d="M190.325,200.179c-9.001,0-13.759-3.685-16.909-6.122c-3.275-2.536-3.875-7.246-1.339-10.521
		s7.246-3.875,10.522-1.34c2.403,1.86,3.854,2.983,7.726,2.983c3.873,0,5.323-1.123,7.727-2.983
		c3.276-2.536,7.986-1.936,10.521,1.34c2.536,3.275,1.936,7.986-1.34,10.521C204.083,196.495,199.324,200.179,190.325,200.179z"/>
	<path style="fill:#495059;" d="M321.676,200.179c-9,0-13.759-3.684-16.909-6.122c-3.275-2.535-3.876-7.246-1.34-10.521
		c2.535-3.275,7.246-3.876,10.521-1.34c2.404,1.86,3.855,2.983,7.727,2.983c3.872,0,5.323-1.123,7.726-2.983
		c3.275-2.536,7.986-1.936,10.522,1.34c2.536,3.275,1.936,7.985-1.339,10.521C335.435,196.494,330.677,200.179,321.676,200.179z"/>
	<path style="fill:#495059;" d="M128.799,227.102c-3.36,0-6.418-2.275-7.27-5.683c-1.005-4.019,1.438-8.091,5.457-9.096
		c8.551-2.137,28.929-3.662,38.86-2.349c4.106,0.543,6.995,4.311,6.453,8.418c-0.543,4.107-4.305,6.993-8.418,6.453
		c-7.779-1.029-26.464,0.332-33.257,2.03C130.015,227.029,129.402,227.102,128.799,227.102z"/>
	<path style="fill:#495059;" d="M138.633,263.683c-2.299,0-4.569-1.055-6.04-3.046c-2.46-3.333-1.753-8.028,1.579-10.489
		c7.091-5.234,25.354-14.408,35.035-16.979c4.005-1.059,8.111,1.321,9.173,5.325c1.063,4.003-1.321,8.11-5.325,9.173
		c-7.588,2.015-24.343,10.391-29.974,14.549C141.743,263.205,140.182,263.683,138.633,263.683z"/>
	<path style="fill:#495059;" d="M383.201,227.102c-0.603,0-1.214-0.073-1.825-0.225c-6.792-1.698-25.477-3.061-33.257-2.03
		c-4.106,0.546-7.875-2.347-8.418-6.453c-0.542-4.107,2.346-7.875,6.453-8.418c9.928-1.314,30.309,0.21,38.86,2.349
		c4.018,1.005,6.462,5.077,5.457,9.096C389.619,224.827,386.561,227.102,383.201,227.102z"/>
	<path style="fill:#495059;" d="M373.367,263.683c-1.548,0-3.108-0.477-4.449-1.467c-5.631-4.158-22.386-12.534-29.974-14.549
		c-4.003-1.063-6.387-5.17-5.325-9.173c1.063-4.004,5.169-6.386,9.173-5.325c9.681,2.57,27.944,11.744,35.035,16.979
		c3.333,2.461,4.04,7.156,1.579,10.489C377.935,262.628,375.666,263.683,373.367,263.683z"/>
</g>
<path style="fill:#7694E4;" d="M256,56.447c-9.454,0-92.368-0.792-92.368-28.224c0-9.739,10.003-16.915,30.578-21.939
	C210.805,2.231,232.749,0,256,0c9.454,0,92.368,0.792,92.368,28.224c0,9.739-10.003,16.915-30.578,21.94
	C301.195,54.216,279.251,56.447,256,56.447z M179.217,28.224c2.068,1.794,8.288,5.226,22.412,8.251
	c14.97,3.207,34.279,4.973,54.371,4.973s39.4-1.766,54.371-4.973c14.124-3.025,20.344-6.457,22.412-8.251
	c-2.068-1.794-8.288-5.226-22.412-8.251C295.4,16.766,276.091,15,256,15s-39.4,1.766-54.371,4.973
	C187.506,22.998,181.286,26.43,179.217,28.224z M333.538,29.055h0.01H333.538z"/>
<ellipse style="fill:#FF91AB;" cx="256" cy="211.52" rx="17.315" ry="20.464"/>
<g>
</g>
<g>
</g>
<g>
</g>
<g>
</g>
<g>
</g>
<g>
</g>
<g>
</g>
<g>
</g>
<g>
</g>
<g>
</g>
<g>
</g>
<g>
</g>
<g>
</g>
<g>
</g>
<g>
</g>
</svg>
