<?xml version="1.0" encoding="iso-8859-1"?>
<!-- Generator: Adobe Illustrator 19.0.0, SVG Export Plug-In . SVG Version: 6.00 Build 0)  -->
<svg version="1.1" id="Capa_1" xmlns="http://www.w3.org/2000/svg" xmlns:xlink="http://www.w3.org/1999/xlink" x="0px" y="0px"
	 viewBox="0 0 512 512" style="enable-background:new 0 0 512 512;" xml:space="preserve">
<path style="fill:#DEE2E5;" d="M122.436,511.881c-6.833,0.92-13.311-3.593-14.729-10.448c-3.969-19.19,0.719-37.757,12.861-50.941
	c12.976-14.09,33.278-20.599,55.7-17.855c31.946,3.909,38.048-12.373,46.078-41.488c1.029-3.731,2.093-7.589,3.246-11.287
	c2.179-6.985,9.607-10.88,16.591-8.703c6.985,2.178,10.881,9.607,8.703,16.591c-1.023,3.278-1.982,6.758-2.998,10.443
	c-3.917,14.203-8.357,30.302-18.835,42.661c-12.709,14.99-31.55,21.074-56.003,18.082c-14.049-1.718-25.765,1.658-32.992,9.504
	c-6.381,6.929-8.655,16.739-6.404,27.625c1.482,7.165-3.125,14.174-10.29,15.656C123.055,511.787,122.744,511.84,122.436,511.881z"
	/>
<path style="fill:#7694E4;" d="M122.436,511.881c0.308-0.042,0.619-0.094,0.928-0.158c7.165-1.482,11.772-8.491,10.29-15.656
	c-0.627-3.03-0.89-5.972-0.824-8.796c-8.611-1.895-19.144-0.443-26.473,1.669c0.05,4.103,0.479,8.281,1.351,12.494
	C109.125,508.288,115.603,512.802,122.436,511.881z"/>
<path style="fill:#DEE2E5;" d="M284.042,509.517c-2.324,0.313-4.738,0.243-7.165-0.264c-11.459-2.394-18.808-13.624-16.415-25.083
	c5.276-25.258-6.692-45.989-15.475-53.123c-9.087-7.38-10.471-20.73-3.09-29.817c7.381-9.088,20.73-10.469,29.817-3.089
	c11.418,9.273,20.826,23.123,26.491,38.998c6.35,17.798,7.65,37.059,3.756,55.7C300.074,501.872,292.694,508.352,284.042,509.517z"
	/>
<path style="opacity:0.1;enable-background:new    ;" d="M284.042,509.517c-2.324,0.313-4.738,0.243-7.165-0.264
	c-11.459-2.394-18.808-13.624-16.415-25.083c5.276-25.258-6.692-45.989-15.475-53.123c-9.087-7.38-10.471-20.73-3.09-29.817
	c7.381-9.088,20.73-10.469,29.817-3.089c11.418,9.273,20.826,23.123,26.491,38.998c6.35,17.798,7.65,37.059,3.756,55.7
	C300.074,501.872,292.694,508.352,284.042,509.517z"/>
<g>
	<path style="fill:#DEE2E5;" d="M110.385,398.754c-7.074,0.953-14.461-1.69-19.295-7.633c-7.387-9.082-6.012-22.433,3.07-29.819
		c27.911-22.699,81.425-26.226,108.805-21.463c11.533,2.007,19.256,12.983,17.25,24.517c-2.007,11.533-12.981,19.257-24.516,17.25
		c-22.132-3.85-60.427,0.905-74.79,12.586C117.771,396.744,114.121,398.25,110.385,398.754z"/>
	<path style="fill:#DEE2E5;" d="M375.195,481.118c-1.216,0.164-2.462,0.224-3.729,0.171c-11.697-0.483-20.788-10.357-20.305-22.053
		c0.855-20.694-11.684-29.198-24.601-36.134l-0.569-0.306c-10.309-5.546-14.17-18.4-8.624-28.709
		c5.546-10.309,18.401-14.17,28.71-8.624l0.538,0.289c12.101,6.498,48.926,26.272,46.904,75.232
		C393.088,471.414,385.192,479.771,375.195,481.118z"/>
</g>
<path style="opacity:0.1;enable-background:new    ;" d="M375.195,481.118c-1.216,0.164-2.462,0.224-3.729,0.171
	c-11.697-0.483-20.788-10.357-20.305-22.053c0.855-20.694-11.684-29.198-24.601-36.134l-0.569-0.306
	c-10.309-5.546-14.17-18.4-8.624-28.709c5.546-10.309,18.401-14.17,28.71-8.624l0.538,0.289
	c12.101,6.498,48.926,26.272,46.904,75.232C393.088,471.414,385.192,479.771,375.195,481.118z"/>
<path style="fill:#DEE2E5;" d="M457.508,355.277c-2.777,0.375-5.672,0.201-8.542-0.603c-32.125-9.004-58.17-6.912-81.966,6.588
	c-10.186,5.776-23.12,2.203-28.896-7.978c-5.777-10.182-2.205-23.119,7.978-28.896c33.806-19.176,71.201-22.622,114.327-10.534
	c11.272,3.16,17.848,14.859,14.688,26.132C472.743,348.388,465.64,354.181,457.508,355.277z"/>
<path style="opacity:0.2;enable-background:new    ;" d="M229.053,440.855c10.478-12.36,14.918-28.458,18.835-42.661
	c1.016-3.684,1.976-7.165,2.998-10.443c2.178-6.985-1.718-14.413-8.703-16.592c-6.985-2.177-14.413,1.719-16.591,8.703
	c-1.153,3.698-2.217,7.556-3.246,11.287c-5.796,21.016-10.592,35.341-24.824,40.217c1.709,1.577,3.47,3.111,5.291,4.592
	c5.773,4.696,12.005,8.789,18.567,12.288C224.144,446.086,226.704,443.624,229.053,440.855z"/>
<path style="opacity:0.1;enable-background:new    ;" d="M373.033,418.574c1.948-2.368,3.781-4.795,5.51-7.269
	c-11.052-14.338-25.252-21.968-31.928-25.553l-0.538-0.289c-10.309-5.546-23.164-1.685-28.71,8.624s-1.685,23.163,8.624,28.709
	l0.569,0.306c8.403,4.512,16.641,9.691,21.141,18.453C357.172,435.187,365.711,427.478,373.033,418.574z"/>
<path style="opacity:0.1;enable-background:new    ;" d="M295.294,461.292c2.756-0.371,5.485-0.834,8.185-1.378
	c-0.885-7.744-2.637-15.386-5.273-22.775c-5.665-15.875-15.073-29.725-26.491-38.998c-9.087-7.38-22.436-5.998-29.817,3.09
	c-7.381,9.087-5.997,22.437,3.09,29.817c5.905,4.796,13.243,15.744,15.819,30.077c5.816,0.844,11.718,1.3,17.67,1.3
	C284.06,462.424,289.718,462.043,295.294,461.292z"/>
<path style="opacity:0.2;enable-background:new    ;" d="M338.105,353.283c5.776,10.181,18.711,13.754,28.896,7.978
	c9.903-5.618,20.198-9.253,31.156-10.943c0.018-4.846-0.29-9.721-0.948-14.603c-1.261-9.362-3.773-18.431-7.421-27.017
	c-15.275,2.578-29.795,7.798-43.706,15.689C335.9,330.164,332.328,343.101,338.105,353.283z"/>
<path style="opacity:0.2;enable-background:new    ;" d="M220.216,364.355c2.007-11.534-5.717-22.51-17.25-24.517
	c-10.266-1.786-24.207-2.406-39.094-1.287c-1.314,9.308-1.396,18.902-0.089,28.606c0.622,4.621,1.556,9.168,2.773,13.624
	c10.573-0.844,20.962-0.6,29.143,0.824C207.235,383.612,218.209,375.888,220.216,364.355z"/>
<ellipse transform="matrix(-0.1335 -0.991 0.991 -0.1335 -30.3337 676.3188)" style="fill:#DEE2E5;" cx="280.493" cy="351.42" rx="90.846" ry="97.765"/>
<path style="opacity:0.1;enable-background:new    ;" d="M278.346,442.418c-48.192-23.105-42.496-84.533-38.489-111.601
	l-7.749-57.531c-33.23,18.273-53.551,53.721-48.503,91.201C189.701,409.746,230.684,442.358,278.346,442.418z"/>
<path style="fill:#7CC5E6;" d="M484.679,139.613c13.503,100.244-81.532,168.21-207.767,185.214
	C150.677,341.832,41.045,301.434,27.542,201.19C14.04,100.946,92.368,22.782,233.663,3.75S471.176,39.369,484.679,139.613z"/>
<path style="fill:#7694E4;" d="M277.311,327.787c-40.215,5.417-77.93,3.939-108.397-5.884l-4.155,18.818
	c-1.56,7.067,2.857,14.07,9.906,15.71c30.903,7.188,67.233,8.209,106.89,2.867c39.657-5.342,74.422-15.94,102.322-31.048
	c6.364-3.446,8.771-11.369,5.396-17.771l-8.986-17.048C353.505,310.965,317.525,322.37,277.311,327.787z"/>
<path style="fill:#EDA751;" d="M200.502,203.261c16.817-18.463,25.878-46.874-6.183-82.752
	C162.006,84.348,120.533,79.78,89.7,87.691c-7.601,1.95-13.35,8.261-14.584,16.011c-5.006,31.435,3.405,72.303,42.418,101.109
	C156.241,233.391,183.686,221.723,200.502,203.261z"/>
<path style="fill:#FF91AB;" d="M74.478,108.495c-3.439,30.708,5.996,68.951,43.056,96.316c33.55,24.772,58.632,19.301,75.673,5.382
	C168.746,125.176,109.832,109.693,74.478,108.495z"/>
<path style="fill:#EDA751;" d="M318.432,187.376c-21.102-13.355-37.359-38.356-15.934-81.438
	c21.594-43.422,60.38-58.802,92.207-59.331c7.846-0.13,15.06,4.435,18.301,11.582c13.145,28.99,15.847,70.627-14.153,108.729
	C369.088,204.721,339.534,200.731,318.432,187.376z"/>
<path style="fill:#FF91AB;" d="M414.889,62.641c11.441,28.704,12.462,68.08-16.036,104.276
	c-25.799,32.767-51.435,34.127-71.551,25.213C328.395,103.671,381.112,73.151,414.889,62.641z"/>
<path style="fill:#FFDC9C;" d="M427.658,197.11c10.159,75.423-59.244,118.405-150.348,130.677
	c-91.103,12.272-169.406-10.814-179.566-86.237S153.203,95.036,244.306,82.765C335.409,70.493,417.499,121.687,427.658,197.11z"/>
<g>
	
		<ellipse transform="matrix(-0.1335 -0.991 0.991 -0.1335 -24.8158 445.0991)" style="fill:#FF91AB;" cx="182.172" cy="233.398" rx="23.999" ry="30.139"/>
	
		<ellipse transform="matrix(0.1335 0.991 -0.991 0.1335 507.8736 -157.6402)" style="fill:#FF91AB;" cx="344.087" cy="211.619" rx="23.999" ry="30.139"/>
</g>
<g>
	<path style="fill:#495059;" d="M196.386,214.844c-3.698,0-6.917-2.734-7.423-6.5l-1.421-10.547
		c-0.553-4.105,2.326-7.881,6.431-8.434c4.111-0.559,7.881,2.326,8.434,6.431l1.421,10.547c0.553,4.105-2.326,7.881-6.431,8.435
		C197.057,214.821,196.719,214.844,196.386,214.844z"/>
	<path style="fill:#495059;" d="M323.463,197.726c-3.697,0-6.916-2.734-7.423-6.5l-1.421-10.547
		c-0.554-4.105,2.326-7.881,6.432-8.435c4.092-0.546,7.881,2.326,8.434,6.432l1.421,10.547c0.554,4.105-2.326,7.881-6.432,8.434
		C324.135,197.704,323.797,197.726,323.463,197.726z"/>
	<path style="fill:#495059;" d="M258.036,214.583c-7.214,0-14.238-2.614-19.737-7.438c-3.114-2.732-3.424-7.47-0.692-10.584
		c2.733-3.113,7.471-3.423,10.584-0.692c3.249,2.851,7.564,4.157,11.833,3.581c4.27-0.575,8.084-2.975,10.465-6.584
		c2.28-3.459,6.933-4.412,10.391-2.131c3.457,2.28,4.411,6.933,2.131,10.39c-4.768,7.229-12.416,12.037-20.984,13.191
		C260.695,214.495,259.362,214.583,258.036,214.583z"/>
	<path style="fill:#495059;" d="M139.703,243.815c-2.981,0-5.801-1.789-6.971-4.728c-1.532-3.848,0.346-8.21,4.194-9.742
		c8.007-3.188,27.56-7.324,37.355-7.349c0.006,0,0.013,0,0.02,0c4.133,0,7.489,3.345,7.5,7.481c0.01,4.142-3.339,7.508-7.481,7.519
		c-7.648,0.02-25.509,3.763-31.845,6.285C141.565,243.644,140.626,243.815,139.703,243.815z"/>
	<path style="fill:#495059;" d="M153.972,277.923c-1.959,0-3.915-0.763-5.386-2.28c-2.883-2.974-2.809-7.722,0.166-10.605
		c6.189-5.999,22.691-17.273,31.737-21.027c3.826-1.588,8.214,0.226,9.802,4.052c1.587,3.826-0.227,8.214-4.052,9.802
		c-7.063,2.931-22.15,13.197-27.047,17.944C157.734,277.221,155.852,277.923,153.972,277.923z"/>
	<path style="fill:#495059;" d="M350.637,213.245c-3.301,0-6.326-2.197-7.232-5.536c-1.086-3.998,1.273-8.118,5.272-9.204
		c9.452-2.567,29.405-3.753,37.967-2.797c4.117,0.459,7.082,4.169,6.623,8.285c-0.459,4.117-4.179,7.088-8.285,6.622
		c-6.78-0.756-24.993,0.36-32.373,2.365C351.949,213.159,351.288,213.245,350.637,213.245z"/>
	<path style="fill:#495059;" d="M381.069,247.333c-1.22,0-2.457-0.298-3.603-0.927c-5.978-3.282-23.244-9.19-30.831-10.148
		c-4.109-0.519-7.021-4.271-6.502-8.38c0.521-4.11,4.274-7.021,8.381-6.501c9.718,1.227,28.615,7.733,36.171,11.88
		c3.631,1.993,4.958,6.553,2.965,10.184C386.286,245.927,383.719,247.333,381.069,247.333z"/>
</g>
<circle style="fill:#BD4568;" cx="293.7" cy="397.02" r="19.852"/>
<path style="fill:#7694E4;" d="M267.621,418.199c-2.699,0-5.308-1.462-6.648-4.018c-1.923-3.668-0.509-8.202,3.159-10.125
	l52.164-27.354c3.67-1.923,8.202-0.509,10.126,3.159c1.923,3.668,0.509,8.202-3.159,10.125l-52.164,27.354
	C269.986,417.923,268.795,418.199,267.621,418.199z"/>
<circle style="fill:#7CC5E6;" cx="441.02" cy="409.1" r="15.703"/>
<circle style="fill:#7694E4;" cx="52.659" cy="330.9" r="15.703"/>
<circle style="fill:#FF91AB;" cx="82" cy="437.93" r="15.703"/>
<path style="opacity:0.1;enable-background:new    ;" d="M192.013,11.491C77.205,39.144,15.432,111.281,27.542,201.19
	c10.23,75.943,75.637,117.528,161.632,125.839c26.274,5.011,56.428,5.03,88.136,0.758c0.033-0.004,0.066-0.01,0.099-0.014
	C90.65,303.166,135.509,91.392,192.013,11.491z"/>
<g>
</g>
<g>
</g>
<g>
</g>
<g>
</g>
<g>
</g>
<g>
</g>
<g>
</g>
<g>
</g>
<g>
</g>
<g>
</g>
<g>
</g>
<g>
</g>
<g>
</g>
<g>
</g>
<g>
</g>
</svg>
