<?xml version="1.0" encoding="iso-8859-1"?>
<!-- Generator: Adobe Illustrator 19.0.0, SVG Export Plug-In . SVG Version: 6.00 Build 0)  -->
<svg version="1.1" id="Capa_1" xmlns="http://www.w3.org/2000/svg" xmlns:xlink="http://www.w3.org/1999/xlink" x="0px" y="0px"
	 viewBox="0 0 512.001 512.001" style="enable-background:new 0 0 512.001 512.001;" xml:space="preserve">
<path style="fill:#EDA751;" d="M50.626,446.213c-1.714,0-3.456-0.286-5.162-0.892c-8.042-2.851-12.249-11.681-9.398-19.722
	c6.109-17.232,17.381-30.059,32.598-37.094c18.47-8.541,40.9-7.895,66.664,1.918c25.839,9.84,38.442-3.752,62.281-32.943
	l0.879-1.077c5.399-6.607,15.13-7.59,21.738-2.191s7.588,15.13,2.191,21.738l-0.876,1.073
	c-12.017,14.716-23.37,28.616-38.018,37.738c-18.156,11.308-37.517,12.793-59.192,4.536c-17.446-6.646-32.213-7.595-42.7-2.747
	c-9.465,4.375-14.166,12.95-16.443,19.372C62.94,442.257,56.984,446.213,50.626,446.213z"/>
<path style="opacity:0.2;fill:#A35F00;enable-background:new    ;" d="M219.781,379.173v-25.288
	c-6.594-5.011-16.014-3.946-21.295,2.517l-0.879,1.077c-23.839,29.191-36.442,42.783-62.281,32.943
	c-0.877-0.334-1.741-0.631-2.61-0.944c-0.38,12.247-0.555,23.379-0.636,32.38c18.58,5.191,35.477,2.845,51.44-7.097
	C197.453,406.085,208.405,393.085,219.781,379.173z"/>
<path style="fill:#FCD79D;" d="M40.833,414.921c-1.825,3.342-3.428,6.897-4.768,10.678c-2.851,8.042,1.357,16.872,9.398,19.722
	c1.707,0.606,3.448,0.892,5.162,0.892c6.358,0,12.314-3.955,14.561-10.29c0.715-2.015,1.668-4.242,2.933-6.485
	C61.123,421.823,48.194,417.085,40.833,414.921z"/>
<path style="fill:#EDA751;" d="M127.524,361.571c-9.932,0-19.598-1.547-28.7-4.689c-21.571-7.447-37.725-23.188-45.486-44.326
	c-4.705-12.814,1.87-27.017,14.685-31.722c12.81-4.706,27.017,1.868,31.722,14.685c2.618,7.129,7.735,12.052,15.211,14.633
	c13.1,4.52,30.722,1.159,47.138-9c11.608-7.181,26.841-3.597,34.026,8.012c7.184,11.608,3.597,26.842-8.012,34.026
	C168.513,355.315,147.487,361.571,127.524,361.571z"/>
<path style="fill:#7CC5E6;" d="M196.12,309.163c-7.185-11.608-22.417-15.193-34.026-8.012c-16.415,10.159-34.038,13.52-47.138,9
	c-3.641-1.257-6.717-3.073-9.223-5.425c-10.881,14.412-28.739,24.298-41.426,27.695c8.641,11.154,20.41,19.591,34.517,24.461
	c9.101,3.142,18.768,4.689,28.699,4.689c19.963,0,40.989-6.255,60.584-18.381C199.717,336.005,203.304,320.772,196.12,309.163z"/>
<g>
	<path style="fill:#EDA751;" d="M306.771,512.001c-0.553,0-1.109-0.018-1.67-0.055c-13.62-0.91-23.926-12.689-23.017-26.31
		c2.553-38.244-1.622-60.899-5.574-73.17c-4.184-12.995,2.957-26.921,15.951-31.105c12.997-4.187,26.921,2.956,31.105,15.951
		c7.673,23.825,10.312,54.65,7.845,91.617C330.538,501.988,319.672,512.001,306.771,512.001z"/>
	<path style="fill:#EDA751;" d="M221.881,512.001c-12.902,0-23.767-10.011-24.639-23.073c-2.467-36.967,0.173-67.792,7.845-91.617
		c4.186-12.994,18.114-20.132,31.105-15.951c12.994,4.184,20.135,18.11,15.951,31.105c-3.952,12.271-8.126,34.926-5.574,73.17
		c0.909,13.621-9.397,25.4-23.017,26.31C222.991,511.982,222.433,512.001,221.881,512.001z"/>
	<path style="fill:#EDA751;" d="M386.016,354.304c-14.708,0-29.252-3.278-43.023-9.783c-12.343-5.832-17.622-20.565-11.792-32.908
		c5.831-12.343,20.564-17.624,32.908-11.792c23.424,11.069,50.931,3.277,68.44-19.389c8.342-10.803,23.866-12.796,34.671-4.451
		c10.803,8.346,12.796,23.87,4.451,34.673c-14.923,19.318-35.493,33.439-57.923,39.763
		C404.542,353.012,395.246,354.304,386.016,354.304z"/>
</g>
<path style="fill:#7CC5E6;" d="M422.949,290.558c-17.033,14.613-39.348,18.474-58.84,9.263
	c-12.345-5.832-27.078-0.551-32.908,11.792c-5.831,12.343-0.552,27.076,11.792,32.908c13.771,6.505,28.316,9.784,43.023,9.784
	c9.231,0,18.526-1.291,27.733-3.888c16.226-4.575,31.467-13.248,44.313-25C435.958,320.001,426.248,302.921,422.949,290.558z"/>
<g>
	<path style="opacity:0.2;fill:#A35F00;enable-background:new    ;" d="M323.566,397.311c-4.184-12.995-18.108-20.138-31.105-15.951
		c-12.994,4.185-20.135,18.11-15.951,31.105c2.976,9.24,6.076,24.372,6.337,47.611c17.612-2.299,34.139-7.823,48.883-15.92
		C330.618,426.418,327.893,410.75,323.566,397.311z"/>
	<path style="opacity:0.2;fill:#A35F00;enable-background:new    ;" d="M236.191,381.36c-12.992-4.181-26.919,2.957-31.105,15.951
		c-4.328,13.439-7.053,29.106-8.165,46.845c14.744,8.098,31.271,13.622,48.883,15.92c0.261-23.239,3.362-38.371,6.337-47.611
		C256.326,399.471,249.185,385.545,236.191,381.36z"/>
</g>
<ellipse style="fill:#FCD690;" cx="264.321" cy="335.351" rx="114.01" ry="105.94"/>
<path style="opacity:0.15;fill:#C17A00;enable-background:new    ;" d="M247.677,440.157
	c-52.098-34.205-35.952-104.309-27.108-134.967v-67.693c-41.247,15.945-70.251,53.747-70.251,97.849
	C150.318,388.599,192.605,432.668,247.677,440.157z"/>
<path style="opacity:0.1;enable-background:new    ;" d="M162.094,301.152c-10.808,6.689-22.132,10.409-32.351,10.894
	c-1.395,14.675-2.472,31.377-3.204,49.505c0.329,0.004,0.656,0.019,0.985,0.019c19.963,0,40.989-6.255,60.584-18.381
	c11.608-7.184,15.195-22.418,8.012-34.026C188.935,297.555,173.702,293.97,162.094,301.152z"/>
<path style="fill:#7CC5E6;" d="M233.169,222.024v219.415c0,9.781-9.777,16.528-18.927,13.073
	c-16.648-6.286-39.287-16.395-54.231-23.389c-8.952-4.19-14.636-13.197-14.558-23.08c0.356-45.243,3.06-149.85,23.628-170.546
	L233.169,222.024z"/>
<path style="opacity:0.1;enable-background:new    ;" d="M364.109,299.82c-12.345-5.832-27.078-0.551-32.908,11.792
	c-5.831,12.343-0.552,27.076,11.792,32.908c13.771,6.505,28.316,9.784,43.023,9.784c5.229,0,10.478-0.43,15.721-1.261
	c-0.715-15.012-1.673-28.939-2.864-41.384c-0.272-2.84-0.554-5.586-0.845-8.244C386.784,306.03,375.005,304.969,364.109,299.82z"/>
<path style="fill:#7CC5E6;" d="M295.483,222.024v219.415c0,9.781,9.776,16.528,18.927,13.073
	c16.648-6.286,39.287-16.395,54.231-23.389c8.952-4.19,14.636-13.197,14.558-23.08c-0.355-45.243-3.06-149.85-23.628-170.546
	L295.483,222.024z"/>
<path style="fill:#FFFFFF;" d="M348.91,346.327h-21.4c-4.143,0-7.5-3.357-7.5-7.5s3.357-7.5,7.5-7.5h21.4c4.143,0,7.5,3.357,7.5,7.5
	S353.053,346.327,348.91,346.327z"/>
<g>
	<path style="fill:#7694E4;" d="M233.171,435.107c-2.011,0-4.015-0.803-5.492-2.391c-2.822-3.031-2.651-7.777,0.381-10.6
		c11.896-11.071,20.185-24.635,24.638-40.313c3.639-12.809,4.129-24.456,4.129-34.16c0-4.143,3.357-7.5,7.5-7.5s7.5,3.357,7.5,7.5
		c0,14.832,0,54.23-33.548,85.453C236.834,434.441,235,435.107,233.171,435.107z"/>
	<path style="fill:#7694E4;" d="M264.326,356.16l-3.554-1.912c-1.713-0.921-42.092-23.08-54.107-67.36
		c-1.085-3.997,1.276-8.117,5.274-9.202c3.994-1.088,8.117,1.276,9.202,5.274c8.404,30.97,33.76,49.822,43.173,55.911
		c9.402-6.114,34.827-25.074,43.195-55.911c1.085-3.998,5.207-6.362,9.202-5.274c3.998,1.085,6.359,5.205,5.275,9.202
		c-12.016,44.28-52.394,66.439-54.107,67.36L264.326,356.16z"/>
</g>
<circle style="fill:#DEE2E5;" cx="233.171" cy="427.611" r="22.718"/>
<circle style="opacity:0.1;enable-background:new    ;" cx="233.171" cy="427.611" r="8.256"/>
<path style="fill:#EDA751;" d="M194.945,151.649c22.309-18.719,37.204-50.143,5.737-96.597
	C168.967,8.232,121.748-3.504,84.884,0.839C75.796,1.91,68.17,8.308,65.537,17.073c-10.678,35.55-7.32,84.089,33.282,123.453
	C139.103,179.58,172.637,170.369,194.945,151.649z"/>
<path style="fill:#FF91AB;" d="M64.054,22.512C55.3,57.465,60.25,103.131,98.82,140.525c34.916,33.852,64.755,31.433,86.616,18
	C170.401,56.465,104.725,29.4,64.054,22.512z"/>
<path style="fill:#EDA751;" d="M333.707,151.649c-22.309-18.719-37.203-50.143-5.737-96.597
	c31.715-46.82,78.934-58.557,115.798-54.214c9.088,1.071,16.714,7.469,19.347,16.234c10.678,35.55,7.32,84.089-33.282,123.453
	C389.549,179.58,356.015,170.369,333.707,151.649z"/>
<path style="fill:#FF91AB;" d="M464.598,22.512c8.754,34.953,3.804,80.619-34.766,118.013c-34.917,33.852-64.755,31.433-86.616,18
	C358.251,56.465,423.926,29.4,464.598,22.512z"/>
<path style="fill:#FFDC9C;" d="M458.422,179.903c0,88.746-86.9,127.616-194.096,127.616S70.23,268.649,70.23,179.903
	s86.9-160.689,194.096-160.689S458.422,91.157,458.422,179.903z"/>
<path style="opacity:0.15;fill:#C17A00;enable-background:new    ;" d="M160.688,44.023C106.329,72.499,70.23,122.708,70.23,179.902
	c0,76.289,64.216,115.721,150.34,125.288C96.942,231.344,113.065,132.014,160.688,44.023z"/>
<path style="fill:#495059;" d="M427.266,92.566c-11.021-14.063-24.624-26.609-40.256-37.178H141.642
	c-15.632,10.569-29.235,23.115-40.256,37.178H427.266z"/>
<g>
	<ellipse style="fill:#FF91AB;" cx="169.081" cy="183.651" rx="35.14" ry="27.986"/>
	<ellipse style="fill:#FF91AB;" cx="359.571" cy="183.651" rx="35.14" ry="27.986"/>
</g>
<g>
	<path style="fill:#495059;" d="M189.563,163.228c-4.143,0-7.5-3.358-7.5-7.5v-12.41c0-4.143,3.357-7.5,7.5-7.5s7.5,3.357,7.5,7.5
		v12.41C197.063,159.87,193.705,163.228,189.563,163.228z"/>
	<path style="fill:#495059;" d="M339.089,163.228c-4.143,0-7.5-3.358-7.5-7.5v-12.41c0-4.143,3.357-7.5,7.5-7.5s7.5,3.357,7.5,7.5
		v12.41C346.589,159.87,343.231,163.228,339.089,163.228z"/>
	<path style="fill:#495059;" d="M264.326,172.757c-9.724,0-18.969-4.211-25.365-11.553c-2.722-3.123-2.395-7.86,0.728-10.581
		c3.123-2.723,7.86-2.396,10.581,0.728c3.548,4.071,8.671,6.406,14.057,6.406c5.385,0,10.509-2.335,14.057-6.407
		c2.722-3.122,7.458-3.448,10.582-0.727c3.122,2.722,3.448,7.459,0.727,10.582C283.294,168.546,274.049,172.757,264.326,172.757z"/>
	<path style="fill:#495059;" d="M119.526,187.884c-3.36,0-6.418-2.275-7.271-5.684c-1.004-4.018,1.439-8.09,5.458-9.095
		c9.649-2.411,32.646-4.13,43.849-2.65c4.107,0.543,6.996,4.311,6.453,8.418s-4.32,6.99-8.418,6.453
		c-9.134-1.207-30.261,0.336-38.247,2.332C120.74,187.811,120.129,187.884,119.526,187.884z"/>
	<path style="fill:#495059;" d="M130.72,229.524c-2.3,0-4.569-1.054-6.04-3.046c-2.46-3.332-1.753-8.028,1.58-10.488
		c8.002-5.907,28.609-16.26,39.531-19.159c4.006-1.059,8.111,1.322,9.174,5.324c1.063,4.004-1.321,8.11-5.324,9.174
		c-8.905,2.364-27.852,11.842-34.473,16.73C133.828,229.048,132.267,229.524,130.72,229.524z"/>
	<path style="fill:#495059;" d="M409.125,187.884c-0.603,0-1.214-0.073-1.824-0.226c-7.986-1.997-29.115-3.539-38.247-2.332
		c-4.095,0.536-7.875-2.346-8.418-6.453c-0.543-4.107,2.347-7.875,6.453-8.418c11.201-1.48,34.199,0.238,43.849,2.65
		c4.019,1.005,6.462,5.077,5.458,9.095C415.543,185.608,412.485,187.884,409.125,187.884z"/>
	<path style="fill:#495059;" d="M397.932,229.524c-1.548,0-3.108-0.477-4.448-1.466c-6.621-4.888-25.566-14.365-34.472-16.73
		c-4.003-1.063-6.387-5.17-5.324-9.174s5.17-6.383,9.174-5.324c10.922,2.9,31.528,13.252,39.53,19.159
		c3.333,2.46,4.04,7.156,1.58,10.488C402.501,228.471,400.231,229.524,397.932,229.524z"/>
</g>
<circle style="fill:#DEE2E5;" cx="264.321" cy="59.823" r="49.13"/>
<circle style="opacity:0.1;enable-background:new    ;" cx="264.321" cy="59.823" r="19.229"/>
<g>
</g>
<g>
</g>
<g>
</g>
<g>
</g>
<g>
</g>
<g>
</g>
<g>
</g>
<g>
</g>
<g>
</g>
<g>
</g>
<g>
</g>
<g>
</g>
<g>
</g>
<g>
</g>
<g>
</g>
</svg>
