<?xml version="1.0" encoding="iso-8859-1"?>
<!-- Generator: Adobe Illustrator 19.0.0, SVG Export Plug-In . SVG Version: 6.00 Build 0)  -->
<svg version="1.1" id="Capa_1" xmlns="http://www.w3.org/2000/svg" xmlns:xlink="http://www.w3.org/1999/xlink" x="0px" y="0px"
	 viewBox="0 0 512 512" style="enable-background:new 0 0 512 512;" xml:space="preserve">
<path style="fill:#EDA751;" d="M486.492,428.924c4.16,0,8.311-1.652,11.385-4.924c5.908-6.285,5.6-16.17-0.686-22.077
	c-30.072-28.26-69.721-32.461-121.216-12.846c-26.122,9.951-38.866-3.795-62.967-33.308l-0.887-1.086
	c-5.457-6.681-15.297-7.672-21.977-2.215c-6.68,5.458-7.671,15.296-2.215,21.977l0.883,1.081
	c12.15,14.879,23.627,28.932,38.437,38.156c18.359,11.431,37.935,12.933,59.845,4.587c40.291-15.348,67.649-13.369,88.705,6.418
	C478.814,427.521,482.658,428.924,486.492,428.924z"/>
<path style="fill:#FCD79D;" d="M497.191,401.924c-3.446-3.238-7.024-6.145-10.725-8.752c-8.81,5.16-16.431,16.475-19.728,24.378
	c3.149,2.048,6.167,4.419,9.061,7.138c3.015,2.833,6.858,4.237,10.693,4.237c4.16,0,8.311-1.652,11.385-4.924
	C503.784,417.716,503.477,407.831,497.191,401.924z"/>
<g>
	<path style="fill:#EDA751;" d="M300.535,512c2.765,0,5.574-0.462,8.33-1.436c13.012-4.6,19.832-18.878,15.231-31.89
		c-8.487-24.007-16.257-50.359-9.539-63.795c6.172-12.345,1.168-27.356-11.176-33.528c-12.347-6.171-27.356-1.168-33.528,11.176
		c-14.208,28.416-7.429,61.65,7.121,102.805C280.601,505.589,290.242,512,300.535,512z"/>
	<path style="fill:#EDA751;" d="M172.586,502.459c2.765,0,5.575-0.462,8.33-1.436c13.012-4.6,19.831-18.878,15.231-31.89
		c-8.109-22.936,9.353-36.034,12.125-37.088c13.137-4.232,20.316-18.298,16.085-31.435c-4.232-13.138-18.353-20.34-31.488-16.112
		c-16.096,5.185-31.637,19.6-40.559,37.622c-6.865,13.868-13.008,36.171-3.286,63.672
		C152.651,496.048,162.293,502.459,172.586,502.459z"/>
	<path style="fill:#EDA751;" d="M142.526,346.251c6.903,0,13.178-0.586,18.559-1.854c13.433-3.166,21.756-16.623,18.59-30.057
		c-3.166-13.432-16.624-21.749-30.056-18.59c-15.035,3.541-68.024-7.214-102.453-26.649c-12.019-6.787-27.262-2.542-34.047,9.476
		c-6.785,12.019-2.542,27.262,9.477,34.046C54.434,330.597,106.845,346.251,142.526,346.251z"/>
</g>
<g>
	<path style="opacity:0.2;fill:#A35F00;enable-background:new    ;" d="M303.382,381.351c-12.347-6.171-27.356-1.168-33.528,11.176
		c-9.777,19.554-9.616,41.39-3.823,66.518c17.153-2.458,33.252-7.959,47.663-15.889c-2.224-11.409-2.53-21.492,0.864-28.277
		C320.729,402.534,315.726,387.523,303.382,381.351z"/>
	<path style="opacity:0.2;fill:#A35F00;enable-background:new    ;" d="M192.869,384.498c-16.096,5.185-31.637,19.6-40.559,37.622
		c-0.363,0.734-0.724,1.497-1.081,2.277c12.42,11.37,27.148,20.52,43.457,26.763c2.543-11.751,11.648-18.378,13.586-19.115
		c13.137-4.232,20.316-18.298,16.085-31.435C220.125,387.471,206.004,380.27,192.869,384.498z"/>
	<path style="opacity:0.2;fill:#A35F00;enable-background:new    ;" d="M149.618,295.75c-5.993,1.411-18.024,0.545-32.498-2.23
		c-4.423,12.547-6.825,25.951-6.825,39.874c0,3.258,0.132,6.488,0.39,9.686c11.342,2.021,22.204,3.171,31.841,3.171
		c6.903,0,13.178-0.586,18.559-1.854c13.433-3.166,21.756-16.623,18.59-30.057C176.509,300.908,163.05,292.591,149.618,295.75z"/>
	<path style="opacity:0.2;fill:#A35F00;enable-background:new    ;" d="M313.008,355.769l-0.887-1.086
		c-5.457-6.681-15.297-7.671-21.977-2.215c-6.68,5.458-7.671,15.296-2.215,21.977l0.883,1.081
		c12.15,14.879,23.627,28.932,38.437,38.156c5.273,3.283,10.648,5.743,16.149,7.39c8.791-8.658,16.291-18.481,22.222-29.188
		C346.023,394.803,333.696,381.103,313.008,355.769z"/>
</g>
<ellipse style="fill:#FCD690;" cx="245.56" cy="333.39" rx="115.26" ry="107.11"/>
<path style="opacity:0.15;fill:#C17A00;enable-background:new    ;" d="M228.726,439.359
	c-52.671-34.581-36.374-105.964-9.935-130.811l-17.471-74.079c-41.701,16.121-71.024,54.339-71.024,98.926
	C130.295,387.234,173.048,431.788,228.726,439.359z"/>
<g>
	<path style="fill:#EDA751;" d="M291.52,425.101c19.98,0,37.643-8.142,49.563-20.016c24.568-24.474,25.554-61.875,2.398-90.952
		c-8.596-10.798-24.318-12.579-35.116-3.982c-10.796,8.598-12.579,24.32-3.981,35.117c10.352,12.999,4.445,21.4,1.426,24.408
		c-9.862,9.823-25.848,4.932-37.317-4.274c-10.763-8.638-26.492-6.917-35.131,3.847c-8.639,10.762-6.917,26.492,3.846,35.131
		C255.572,419.119,274.398,425.1,291.52,425.101z"/>
	<path style="fill:#EDA751;" d="M298.231,153.317c-22.554-18.925-37.613-50.695-5.8-97.66
		c32.064-47.336,79.803-59.201,117.072-54.81c9.188,1.082,16.898,7.552,19.56,16.412c10.796,35.941,7.4,85.015-33.648,124.811
		C354.687,181.556,320.785,172.243,298.231,153.317z"/>
</g>
<path style="fill:#FF91AB;" d="M430.563,22.759c8.851,35.338,3.846,81.506-35.148,119.312
	c-35.301,34.224-65.468,31.779-87.569,18.198C323.045,57.085,389.443,29.723,430.563,22.759z"/>
<path style="fill:#EDA751;" d="M157.942,153.317c22.554-18.925,37.613-50.695,5.8-97.66C131.678,8.322,83.94-3.544,46.67,0.847
	C37.482,1.93,29.772,8.399,27.111,17.259c-10.796,35.941-7.4,85.015,33.648,124.811
	C101.486,181.556,135.388,172.243,157.942,153.317z"/>
<path style="fill:#FF91AB;" d="M25.61,22.759c-8.851,35.338-3.846,81.506,35.148,119.312c35.301,34.224,65.468,31.779,87.569,18.198
	C133.128,57.085,66.73,29.723,25.61,22.759z"/>
<path style="fill:#FFDC9C;" d="M31.854,181.882c0,89.723,87.856,129.02,196.232,129.02s196.232-39.298,196.232-129.02
	c0-89.723-87.856-162.457-196.232-162.457S31.854,92.159,31.854,181.882z"/>
<path style="opacity:0.15;fill:#C17A00;enable-background:new    ;" d="M123.308,44.507c-54.957,28.79-91.454,79.551-91.454,137.375
	c0,77.129,64.923,116.994,151.994,126.666C58.861,233.889,75.161,133.466,123.308,44.507z"/>
<g>
	<path style="fill:#495059;" d="M267.977,184.864c-1.919,0-3.839-0.732-5.303-2.196c-2.929-2.93-2.929-7.678,0-10.608l17.396-17.396
		c2.929-2.928,7.678-2.928,10.607,0c2.929,2.93,2.929,7.678,0,10.607l-17.396,17.396
		C271.816,184.132,269.897,184.864,267.977,184.864z"/>
	<path style="fill:#495059;" d="M285.374,184.864c-1.919,0-3.839-0.732-5.303-2.196l-17.396-17.396
		c-2.929-2.93-2.929-7.678,0-10.607c2.929-2.928,7.678-2.928,10.607,0l17.396,17.396c2.929,2.93,2.929,7.678,0,10.608
		C289.212,184.132,287.293,184.864,285.374,184.864z"/>
	<path style="fill:#495059;" d="M134.202,184.864c-1.919,0-3.839-0.732-5.303-2.196l-17.397-17.396
		c-2.929-2.93-2.929-7.678,0-10.607c2.929-2.928,7.678-2.928,10.606,0l17.396,17.396c2.929,2.93,2.929,7.678,0,10.608
		C138.041,184.132,136.122,184.864,134.202,184.864z"/>
	<path style="fill:#495059;" d="M116.806,184.864c-1.919,0-3.839-0.732-5.303-2.196c-2.929-2.93-2.929-7.678,0-10.608l17.397-17.396
		c2.929-2.928,7.678-2.928,10.606,0c2.929,2.93,2.929,7.678,0,10.607l-17.396,17.396
		C120.645,184.132,118.725,184.864,116.806,184.864z"/>
	<path style="fill:#495059;" d="M347.482,207.367c-0.603,0-1.214-0.073-1.825-0.226c-8.079-2.02-29.457-3.585-38.698-2.36
		c-4.103,0.545-7.874-2.348-8.417-6.453c-0.542-4.107,2.347-7.876,6.454-8.418c11.317-1.492,34.552,0.242,44.3,2.679
		c4.019,1.005,6.462,5.077,5.457,9.095C353.9,205.092,350.842,207.367,347.482,207.367z"/>
	<path style="fill:#495059;" d="M336.166,249.467c-1.547,0-3.108-0.478-4.448-1.467c-6.701-4.945-25.872-14.535-34.88-16.927
		c-4.003-1.063-6.387-5.17-5.324-9.174c1.063-4.003,5.17-6.384,9.174-5.324c11.032,2.93,31.851,13.388,39.938,19.356
		c3.333,2.46,4.04,7.155,1.581,10.488C340.736,248.412,338.466,249.467,336.166,249.467z"/>
	<path style="fill:#495059;" d="M54.697,207.367c-3.36,0-6.418-2.275-7.271-5.684c-1.004-4.019,1.439-8.09,5.458-9.095
		c9.75-2.436,32.984-4.173,44.3-2.679c4.106,0.542,6.996,4.311,6.454,8.417c-0.542,4.107-4.308,6.998-8.417,6.454
		c-9.244-1.219-30.62,0.341-38.699,2.36C55.911,207.294,55.299,207.367,54.697,207.367z"/>
	<path style="fill:#495059;" d="M66.013,249.467c-2.3,0-4.569-1.055-6.04-3.047c-2.46-3.333-1.752-8.028,1.581-10.488
		c8.086-5.969,28.906-16.428,39.938-19.356c4.003-1.061,8.11,1.321,9.174,5.324c1.063,4.004-1.321,8.11-5.324,9.174
		c-9.008,2.392-28.179,11.98-34.88,16.927C69.121,248.989,67.56,249.467,66.013,249.467z"/>
</g>
<circle style="fill:#FF91AB;" cx="201.09" cy="188.04" r="28.503"/>
<g>
	<path style="fill:#78CFC0;" d="M106.584,254.571c26.184-49.63,105.051-69.279,123.009-66.536
		c1.535,34.14-12.528,134.696-51.878,145.359c-30.452,8.252-44.29-16.745-40.633-30.794
		C121.073,313.354,79.401,306.096,106.584,254.571z"/>
	<path style="fill:#78CFC0;" d="M47.153,344.268c0,11.737,10.737,21.251,23.981,21.251s23.981-9.514,23.981-21.251
		s-6.419-24.319-19.664-24.319S47.153,332.531,47.153,344.268z"/>
	<path style="fill:#78CFC0;" d="M82.774,413.738c0,9.336,8.285,16.904,18.505,16.904s19.754-8.818,19.754-18.154
		s-7.707-16.52-17.927-16.52S82.774,404.403,82.774,413.738z"/>
</g>
<g style="opacity:0.1;">
	<circle cx="130.29" cy="268.76" r="7.352"/>
	<circle cx="196.89" cy="245.75" r="7.352"/>
	<circle cx="173" cy="300.87" r="7.352"/>
	<circle cx="70.39" cy="348.1" r="7.352"/>
</g>
<g>
</g>
<g>
</g>
<g>
</g>
<g>
</g>
<g>
</g>
<g>
</g>
<g>
</g>
<g>
</g>
<g>
</g>
<g>
</g>
<g>
</g>
<g>
</g>
<g>
</g>
<g>
</g>
<g>
</g>
</svg>
