<?xml version="1.0" encoding="iso-8859-1"?>
<!-- Generator: Adobe Illustrator 19.0.0, SVG Export Plug-In . SVG Version: 6.00 Build 0)  -->
<svg version="1.1" id="Capa_1" xmlns="http://www.w3.org/2000/svg" xmlns:xlink="http://www.w3.org/1999/xlink" x="0px" y="0px"
	 viewBox="0 0 512 512" style="enable-background:new 0 0 512 512;" xml:space="preserve">
<path style="fill:#EDA751;" d="M375.895,426.176c-29.825,0-46.449-20.953-62.604-41.315c-2.302-2.903-4.682-5.903-7.145-8.917
	c-5.397-6.608-4.417-16.339,2.191-21.738c6.607-5.397,16.34-4.419,21.738,2.191c2.602,3.185,5.052,6.273,7.421,9.261
	c19.637,24.751,27.484,33.072,48.16,28.425c6.53-1.469,8.898-6.38,13.651-22.513c5.232-17.757,13.139-44.591,46.305-51.365
	c8.358-1.709,16.52,3.685,18.228,12.045c1.707,8.359-3.685,16.519-12.044,18.227c-13.61,2.78-17.246,10.803-22.851,29.825
	c-4.756,16.143-11.27,38.251-36.513,43.924C386.491,425.563,380.998,426.176,375.895,426.176z"/>
<path style="fill:#FCD79D;" d="M445.612,320.205c-5.384,1.1-10.093,2.735-14.243,4.768c0.678,7.039,3.43,19.899,12.956,28.062
	c2.113-1.128,4.563-1.964,7.47-2.558c8.359-1.708,13.752-9.868,12.044-18.227C462.132,323.89,453.97,318.496,445.612,320.205z"/>
<g>
	<path style="fill:#EDA751;" d="M210.265,512c-10.182,0-19.717-6.34-23.304-16.485c-15.385-43.519,1.058-85.762,24.179-108.323
		c9.771-9.532,25.421-9.341,34.954,0.428c9.534,9.771,9.341,25.42-0.429,34.954c-6.63,6.469-21.726,29.223-12.095,56.462
		c4.55,12.871-2.195,26.994-15.065,31.544C215.78,511.543,212.998,512,210.265,512z"/>
	<path style="fill:#EDA751;" d="M281.625,512c-10.181,0-19.717-6.34-23.304-16.487c-15.385-43.517,1.058-85.761,24.179-108.322
		c9.77-9.535,25.419-9.343,34.953,0.428c9.533,9.77,9.342,25.419-0.428,34.954c-6.629,6.469-21.725,29.223-12.095,56.463
		c4.55,12.871-2.195,26.993-15.065,31.543C287.139,511.543,284.358,512,281.625,512z"/>
	<path style="fill:#EDA751;" d="M140.297,350.745c-25.657,0-57.794-5.709-81.32-29.234c-9.653-9.653-9.653-25.303,0-34.956
		c9.652-9.653,25.303-9.654,34.956-0.001c8.209,8.209,34.531,21.186,75.409,11.553c13.288-3.123,26.597,5.102,29.729,18.387
		c3.132,13.287-5.1,26.598-18.387,29.73C175.072,347.546,159.498,350.745,140.297,350.745z"/>
</g>
<g>
	<path style="opacity:0.2;fill:#A35F00;enable-background:new    ;" d="M337.495,365.658c-2.37-2.987-4.82-6.075-7.421-9.26
		c-5.398-6.609-15.13-7.588-21.738-2.191c-6.607,5.399-7.588,15.13-2.191,21.738c2.463,3.014,4.843,6.014,7.145,8.917
		c12.925,16.291,26.158,32.949,46.204,38.963c9.031-8.586,16.76-18.381,22.886-29.103
		C364.092,397.763,356.059,389.056,337.495,365.658z"/>
	<path style="opacity:0.2;fill:#A35F00;enable-background:new    ;" d="M282.499,387.192
		c-16.854,16.445-30.142,43.353-30.159,73.585c3.92,0.326,7.886,0.502,11.895,0.502c13.125,0,25.811-1.79,37.807-5.111
		c1.524-16.495,10.331-29.055,14.982-33.594c9.771-9.534,9.962-25.183,0.428-34.953C307.918,377.849,292.27,377.657,282.499,387.192
		z"/>
	<path style="opacity:0.2;fill:#A35F00;enable-background:new    ;" d="M211.139,387.192
		c-12.092,11.799-22.347,28.988-27.188,48.922c13.746,9.696,29.531,16.97,46.632,21.142c1.224-17.032,10.327-30.044,15.081-34.682
		c9.77-9.533,9.962-25.182,0.428-34.953C236.56,377.85,220.91,377.659,211.139,387.192z"/>
	<path style="opacity:0.2;fill:#A35F00;enable-background:new    ;" d="M169.341,298.107c-12.86,3.031-24.276,3.821-34.144,3.229
		c-3.233,10.822-4.967,22.226-4.967,34.005c0,5.129,0.336,10.185,0.973,15.155c3.101,0.169,6.142,0.249,9.094,0.249
		c19.201,0,34.775-3.199,40.386-4.521c13.287-3.132,21.519-16.443,18.387-29.73C195.938,303.208,182.629,294.983,169.341,298.107z"
		/>
</g>
<ellipse style="fill:#FCD690;" cx="264.24" cy="335.34" rx="114.01" ry="105.94"/>
<path style="opacity:0.15;fill:#C17A00;enable-background:new    ;" d="M247.587,440.151
	c-52.097-34.204-35.952-104.307-27.108-134.965v-67.693c-41.247,15.945-70.25,53.747-70.25,97.848
	C150.229,388.593,192.516,432.662,247.587,440.151z"/>
<path style="fill:#EDA751;" d="M194.855,151.647c22.308-18.719,37.203-50.143,5.737-96.596
	C168.878,8.231,121.659-3.505,84.796,0.838C75.708,1.909,68.082,8.307,65.45,17.072c-10.678,35.549-7.32,84.088,33.282,123.451
	C139.014,179.577,172.547,170.366,194.855,151.647z"/>
<path style="fill:#FF91AB;" d="M63.966,22.511c-8.754,34.953-3.804,80.618,34.765,118.012c34.916,33.851,64.755,31.432,86.615,18
	C170.311,56.463,104.637,29.399,63.966,22.511z"/>
<path style="fill:#EDA751;" d="M333.615,151.647c-22.308-18.719-37.203-50.143-5.737-96.596
	c31.715-46.82,78.933-58.556,115.797-54.213c9.088,1.071,16.714,7.469,19.346,16.234c10.678,35.549,7.32,84.088-33.282,123.451
	C389.457,179.577,355.924,170.366,333.615,151.647z"/>
<path style="fill:#FF91AB;" d="M464.505,22.511c8.754,34.953,3.804,80.618-34.765,118.012c-34.916,33.851-64.755,31.432-86.615,18
	C358.159,56.463,423.835,29.399,464.505,22.511z"/>
<path style="fill:#FFDC9C;" d="M458.329,179.9c0,88.745-86.899,127.614-194.094,127.614S70.142,268.645,70.142,179.9
	S157.041,19.213,264.236,19.213S458.329,91.155,458.329,179.9z"/>
<path style="opacity:0.15;fill:#C17A00;enable-background:new    ;" d="M160.599,44.022C106.241,72.498,70.141,122.706,70.141,179.9
	c0,76.288,64.216,115.719,150.338,125.286C96.854,231.341,112.977,132.012,160.599,44.022z"/>
<g>
	<path style="fill:#7694E4;" d="M230.813,155.657h-29.397v91.312c0,8.118,6.581,14.698,14.698,14.698l0,0
		c8.118,0,14.698-6.581,14.698-14.698v-91.312H230.813z"/>
	<path style="fill:#7694E4;" d="M380.337,155.657H350.94v91.312c0,8.118,6.581,14.698,14.698,14.698l0,0
		c8.118,0,14.698-6.581,14.698-14.698v-91.312H380.337z"/>
</g>
<g>
	<circle style="fill:#FFFFFF;" cx="216.12" cy="149.52" r="20.836"/>
	<circle style="fill:#FFFFFF;" cx="365.641" cy="149.52" r="20.836"/>
</g>
<path style="fill:#FF91AB;" d="M290.876,210.435c14.099,0,24.169,10.592,28.295-10.874c5.116-26.615-7.664-50.042-28.295-50.042
	c-20.632,0-33.411,23.427-28.295,50.042C266.707,221.028,276.777,210.435,290.876,210.435z"/>
<g>
	<path style="fill:#495059;" d="M146.08,187.881c-3.36,0-6.419-2.275-7.27-5.683c-1.005-4.019,1.438-8.091,5.457-9.096
		c9.649-2.411,32.646-4.131,43.848-2.651c4.107,0.543,6.996,4.312,6.454,8.418c-0.542,4.105-4.31,6.994-8.417,6.453
		c-9.136-1.208-30.262,0.337-38.246,2.333C147.294,187.808,146.682,187.881,146.08,187.881z"/>
	<path style="fill:#495059;" d="M157.273,229.52c-2.3,0-4.569-1.054-6.04-3.046c-2.46-3.333-1.752-8.028,1.58-10.488
		c8.004-5.907,28.611-16.259,39.53-19.158c4.002-1.059,8.111,1.321,9.174,5.324c1.063,4.004-1.321,8.11-5.324,9.174
		c-8.903,2.363-27.85,11.841-34.472,16.729C160.381,229.044,158.82,229.52,157.273,229.52z"/>
	<path style="fill:#495059;" d="M435.675,187.881c-0.603,0-1.214-0.073-1.825-0.226c-7.984-1.997-29.11-3.539-38.247-2.333
		c-4.106,0.542-7.875-2.347-8.417-6.453s2.347-7.875,6.454-8.418c11.203-1.479,34.199,0.239,43.848,2.651
		c4.018,1.005,6.462,5.077,5.457,9.095C442.093,185.605,439.035,187.881,435.675,187.881z"/>
	<path style="fill:#495059;" d="M424.482,229.52c-1.547,0-3.108-0.477-4.448-1.466c-6.622-4.888-25.568-14.364-34.472-16.729
		c-4.003-1.063-6.387-5.17-5.324-9.174c1.063-4.003,5.171-6.383,9.174-5.324c10.92,2.899,31.527,13.251,39.531,19.158
		c3.332,2.46,4.04,7.155,1.58,10.488C429.052,228.467,426.781,229.52,424.482,229.52z"/>
</g>
<path style="fill:#EDA751;" d="M318.612,366.278c-15.382,0-31.241-3.945-45.625-11.677c-23.402-12.577-39.801-33.568-44.993-57.588
	c-2.884-13.344,5.595-26.498,18.938-29.382c13.344-2.883,26.498,5.594,29.382,18.938c2.128,9.85,9.447,18.775,20.077,24.488
	c11.331,6.09,24.413,7.517,34.144,3.726c12.717-4.957,27.048,1.336,32.006,14.056c4.956,12.72-1.337,27.048-14.056,32.005
	C339.145,364.483,328.986,366.278,318.612,366.278z"/>
<g>
	<path style="fill:#7694E4;" d="M122.133,134.081c-4.142,0-7.5-3.358-7.5-7.5V89.427c0-4.143,3.358-7.5,7.5-7.5s7.5,3.357,7.5,7.5
		v37.154C129.633,130.724,126.275,134.081,122.133,134.081z"/>
	<path style="fill:#7694E4;" d="M145.31,129.138c-4.142,0-7.5-3.357-7.5-7.5V80.749c0-4.143,3.358-7.5,7.5-7.5s7.5,3.357,7.5,7.5
		v40.889C152.81,125.78,149.452,129.138,145.31,129.138z"/>
	<path style="fill:#7694E4;" d="M168.488,131.609c-4.142,0-7.5-3.357-7.5-7.5V75.657c0-4.143,3.358-7.5,7.5-7.5s7.5,3.357,7.5,7.5
		v48.452C175.988,128.252,172.63,131.609,168.488,131.609z"/>
</g>
<g>
	<path style="fill:#495059;" d="M453.376,283.644c-4.142,0-7.5-3.357-7.5-7.5v-16.558c0-3.521,2.45-6.568,5.889-7.325l9.854-2.167
		l-0.872-9.651c-0.27-2.99,1.27-5.855,3.913-7.278l13.509-7.275c3.646-1.964,8.194-0.6,10.159,3.047
		c1.964,3.647,0.6,8.195-3.046,10.16l-9.15,4.928l1.021,11.302c0.34,3.762-2.17,7.189-5.859,8l-10.418,2.291v10.527
		C460.876,280.286,457.518,283.644,453.376,283.644z"/>
	<path style="fill:#495059;" d="M52.966,264.17c-0.254,0-0.511-0.014-0.769-0.04c-4.121-0.419-7.122-4.1-6.702-8.221l0.995-9.77
		l-9.32-1.209c-2.324-0.301-4.373-1.671-5.54-3.703c-1.167-2.031-1.317-4.492-0.406-6.65l5.948-14.095l-11.27-8.083
		c-3.051-2.189-4.014-6.297-2.252-9.613l9.464-17.813c1.944-3.658,6.485-5.047,10.143-3.104s5.048,6.483,3.104,10.142l-6.388,12.022
		l10.81,7.753c2.847,2.042,3.9,5.783,2.538,9.011l-4.443,10.527l6.776,0.879c4.028,0.523,6.909,4.156,6.497,8.197l-1.734,17.029
		C60.025,261.291,56.766,264.17,52.966,264.17z"/>
	<path style="fill:#495059;" d="M155.644,464.756c-1.921,0-3.841-0.733-5.306-2.199l-11.161-11.173
		c-1.779-1.781-2.546-4.336-2.042-6.802l2.215-10.846l-14.16-6.132c-2.034-0.881-3.574-2.616-4.207-4.739
		c-0.633-2.124-0.295-4.419,0.924-6.27l6.71-10.185l-8.274-8.558c-2.879-2.977-2.799-7.726,0.179-10.604
		c2.978-2.881,7.725-2.801,10.605,0.179l12.451,12.878c2.441,2.524,2.803,6.406,0.871,9.339l-5.102,7.744l11.55,5.001
		c3.255,1.41,5.078,4.908,4.368,8.384l-2.627,12.861l8.312,8.32c2.927,2.931,2.925,7.68-0.006,10.606
		C159.481,464.024,157.562,464.756,155.644,464.756z"/>
	<path style="fill:#495059;" d="M345.086,494.316c-2.56,0-5.054-1.311-6.456-3.672l-5.868-9.883
		c-2.024-3.408-1.046-7.803,2.232-10.031l8.197-5.573l-6.147-6.573c-1.542-1.648-2.26-3.904-1.953-6.142
		c0.307-2.236,1.604-4.216,3.533-5.39l12.132-7.379c3.541-2.152,8.153-1.028,10.305,2.511c2.153,3.539,1.029,8.153-2.51,10.306
		l-4.251,2.585l5.831,6.234c1.497,1.601,2.219,3.775,1.977,5.953c-0.243,2.177-1.425,4.14-3.237,5.372l-9.609,6.534l2.267,3.817
		c2.115,3.562,0.942,8.163-2.62,10.278C347.707,493.978,346.388,494.316,345.086,494.316z"/>
</g>
<g>
</g>
<g>
</g>
<g>
</g>
<g>
</g>
<g>
</g>
<g>
</g>
<g>
</g>
<g>
</g>
<g>
</g>
<g>
</g>
<g>
</g>
<g>
</g>
<g>
</g>
<g>
</g>
<g>
</g>
</svg>
