<?xml version="1.0" encoding="iso-8859-1"?>
<!-- Generator: Adobe Illustrator 19.0.0, SVG Export Plug-In . SVG Version: 6.00 Build 0)  -->
<svg version="1.1" id="Capa_1" xmlns="http://www.w3.org/2000/svg" xmlns:xlink="http://www.w3.org/1999/xlink" x="0px" y="0px"
	 viewBox="0 0 512 512" style="enable-background:new 0 0 512 512;" xml:space="preserve">
<path style="fill:#EDA751;" d="M125.707,406.377c-3.08,0-6.154-1.221-8.433-3.641c-4.385-4.656-4.166-11.986,0.49-16.371
	c35.117-33.074,67.564-23.444,91.252-16.411c10.739,3.188,20.013,5.942,26.684,4.14c24.403-6.586,35.405-31.648,33.365-51.885
	c-0.641-6.364,3.998-12.043,10.363-12.684c6.378-0.648,12.044,3.999,12.684,10.362c1.617,16.054-2.131,32.515-10.553,46.352
	c-9.144,15.022-23.287,25.754-39.825,30.218c-13.009,3.511-26.38-0.46-39.311-4.298c-22.301-6.62-43.362-12.872-68.78,11.068
	C131.409,405.333,128.556,406.377,125.707,406.377z"/>
<path style="fill:#FCD79D;" d="M117.275,402.736c2.279,2.419,5.353,3.641,8.433,3.641c2.848,0,5.702-1.044,7.939-3.151
	c2.825-2.66,5.593-4.928,8.317-6.884c-2.399-9.549-9.219-14.936-15.108-17.656c-3.007,2.259-6.039,4.804-9.09,7.678
	C113.109,390.75,112.889,398.08,117.275,402.736z"/>
<path style="fill:#EDA751;" d="M158.651,215.548c1.903-21.749-6.859-46.302-48.164-54.247
	c-41.631-8.007-72.883,10.802-90.122,32.646c-4.25,5.385-4.901,12.82-1.65,18.861c13.184,24.505,40.695,48.456,83.085,47.799
	C143.855,259.955,156.748,237.296,158.651,215.548z"/>
<path style="fill:#FF91AB;" d="M20.811,216.477c13.888,23.169,40.719,44.753,80.987,44.129
	c36.454-0.564,50.989-17.664,55.456-36.373C95.183,178.101,46.022,198.569,20.811,216.477z"/>
<path style="fill:#EDA751;" d="M232.208,141.991c-21.749,1.903-46.302-6.859-54.247-48.165
	c-8.007-41.631,10.802-72.883,32.646-90.122c5.385-4.25,12.819-4.901,18.861-1.65c24.505,13.184,48.456,40.695,47.799,83.084
	C276.616,127.195,253.956,140.088,232.208,141.991z"/>
<path style="fill:#FF91AB;" d="M233.138,4.151c23.169,13.888,44.753,40.719,44.129,80.987
	c-0.564,36.454-17.664,50.989-36.373,55.456C194.762,78.523,215.229,29.362,233.138,4.151z"/>
<path style="fill:#FFDC9C;" d="M313.296,90.857c47.044,47.044,21.583,113.714-35.241,170.538s-123.494,82.285-170.538,35.241
	s-39.115-131.246,17.709-188.07C182.05,51.741,266.252,43.813,313.296,90.857z"/>
<path style="opacity:0.15;fill:#C17A00;enable-background:new    ;" d="M83.439,176.655c-13.72,43.911-6.241,89.662,24.077,119.981
	c40.44,40.44,95.384,27.302,146.109-13.28C148.946,309.745,104.838,248.543,83.439,176.655z"/>
<path style="fill:#FF91AB;" d="M202.643,185.983c-2.893,2.893-6.465,4.687-10.203,5.392l16.121,16.121
	c4.306,4.306,11.288,4.306,15.594,0s4.306-11.288,0-15.594l-16.121-16.121C207.33,179.518,205.535,183.09,202.643,185.983z"/>
<path style="opacity:0.05;enable-background:new    ;" d="M202.643,185.983c-2.893,2.893-6.465,4.687-10.203,5.392l9.635,9.635
	c3.738-0.704,7.31-2.499,10.203-5.392s4.687-6.465,5.392-10.203l-9.635-9.635C207.33,179.518,205.535,183.09,202.643,185.983z"/>
<g>
	
		<ellipse transform="matrix(-0.7071 -0.7071 0.7071 -0.7071 102.2766 534.8096)" style="fill:#FF91AB;" cx="161.901" cy="246.223" rx="20.981" ry="26.346"/>
	
		<ellipse transform="matrix(0.7071 0.7071 -0.7071 0.7071 179.7004 -143.3489)" style="fill:#FF91AB;" cx="262.888" cy="145.243" rx="20.981" ry="26.346"/>
</g>
<g>
	<path style="fill:#495059;" d="M157.959,228.063c-1.92,0-3.839-0.732-5.304-2.197l-6.578-6.579
		c-2.929-2.929-2.929-7.678,0.001-10.607c2.928-2.929,7.677-2.927,10.606,0.001l6.578,6.579c2.929,2.929,2.929,7.678-0.001,10.607
		C161.798,227.33,159.878,228.063,157.959,228.063z"/>
	<path style="fill:#495059;" d="M237.223,148.799c-1.919,0-3.839-0.732-5.303-2.196l-6.579-6.579
		c-2.93-2.929-2.93-7.678-0.001-10.607c2.93-2.929,7.679-2.929,10.607-0.001l6.579,6.579c2.93,2.929,2.93,7.678,0.001,10.607
		C241.062,148.067,239.142,148.799,237.223,148.799z"/>
	<path style="fill:#495059;" d="M188.783,199.218c-0.619,0-1.24-0.021-1.863-0.064c-4.133-0.284-7.252-3.864-6.969-7.996
		c0.283-4.133,3.873-7.264,7.996-6.969c3.489,0.24,6.922-1.039,9.393-3.51c2.47-2.47,3.749-5.894,3.509-9.391
		c-0.284-4.132,2.836-7.712,6.968-7.997c4.133-0.279,7.712,2.836,7.997,6.968c0.538,7.825-2.33,15.489-7.867,21.026
		C202.849,196.383,195.95,199.218,188.783,199.218z"/>
	<path style="fill:#495059;" d="M133.899,278.256c-1.313,0-2.644-0.345-3.852-1.069c-3.552-2.131-4.704-6.738-2.573-10.29
		c3.916-6.528,15.437-19.909,22.308-25.175c3.287-2.521,7.996-1.896,10.515,1.39c2.52,3.287,1.898,7.995-1.39,10.515
		c-5.239,4.016-15.54,15.937-18.569,20.986C138.932,276.957,136.447,278.256,133.899,278.256z"/>
	<path style="fill:#495059;" d="M161.917,294.403c-0.372,0-0.748-0.028-1.127-0.084c-4.096-0.617-6.916-4.438-6.299-8.534
		c1.134-7.528,6.688-24.289,11.032-31.774c2.079-3.583,6.669-4.801,10.251-2.721c3.583,2.079,4.801,6.669,2.722,10.251
		c-3.313,5.708-8.295,20.655-9.173,26.478C168.764,291.736,165.564,294.403,161.917,294.403z"/>
	<path style="fill:#495059;" d="M264.329,145.185c-1.592,0-3.195-0.505-4.557-1.548c-3.288-2.52-3.91-7.228-1.39-10.515
		c5.265-6.87,18.645-18.39,25.174-22.307c3.552-2.131,8.158-0.98,10.29,2.573c2.131,3.552,0.978,8.159-2.573,10.289
		c-5.05,3.03-16.971,13.331-20.986,18.569C268.81,144.173,266.583,145.185,264.329,145.185z"/>
	<path style="fill:#495059;" d="M274.442,162.851c-2.586,0-5.102-1.339-6.493-3.737c-2.079-3.583-0.861-8.172,2.722-10.251
		c7.484-4.344,24.245-9.897,31.773-11.032c4.094-0.614,7.917,2.203,8.533,6.299c0.617,4.096-2.203,7.917-6.299,8.534
		c-5.823,0.877-20.771,5.859-26.479,9.172C277.016,162.524,275.721,162.851,274.442,162.851z"/>
</g>
<path style="fill:#78CFC0;" d="M460.145,179.216L460.145,179.216c-46.925-46.925-123.004-46.925-169.929,0L159.88,309.551
	c-12.384,12.384-12.384,32.463,0,44.847L284.962,479.48c12.384,12.384,32.463,12.384,44.847,0l130.335-130.335
	C507.069,302.22,507.069,226.14,460.145,179.216z"/>
<path style="opacity:0.05;enable-background:new    ;" d="M204.489,264.943l-44.608,44.608c-12.384,12.384-12.384,32.463,0,44.847
	L284.962,479.48c12.384,12.384,32.463,12.384,44.847,0l101.372-101.372C316.348,436.132,217.246,305.246,204.489,264.943z"/>
<path style="opacity:0.1;enable-background:new    ;" d="M151.965,322.74c0.028,0.028,0.05,0.059,0.078,0.087l16.28,16.279
	c3.978,3.978,9.191,5.967,14.405,5.967c5.213,0,10.428-1.989,14.406-5.967c7.956-7.956,7.955-20.855-0.001-28.811l-16.28-16.279
	c-0.93-0.93-1.933-1.741-2.983-2.454l-17.989,17.989C156.065,313.367,153.429,317.914,151.965,322.74z"/>
<path style="opacity:0.1;enable-background:new    ;" d="M339.564,185.166c11.691-1.151,20.236-11.562,19.084-23.254l-1.626-16.511
	c-14.352,2.182-28.383,6.968-41.335,14.358l0.623,6.322c1.081,10.983,10.334,19.189,21.143,19.189
	C338.152,185.27,338.856,185.236,339.564,185.166z"/>
<path style="fill:#B77866;" d="M245.323,439.841l-45.804-45.804l-62.672,62.672c-12.648,12.648-12.648,33.156,0,45.804l0,0
	c12.648,12.649,33.156,12.649,45.804,0L245.323,439.841z"/>
<g style="opacity:0.1;">
	<path d="M225.055,350.927L225.055,350.927c-8.852-8.852-8.852-23.204,0-32.056L334.857,209.07c8.852-8.852,23.204-8.852,32.056,0
		l0,0c8.852,8.852,8.852,23.204,0,32.056L257.111,350.927C248.259,359.779,233.907,359.779,225.055,350.927z"/>
	<path d="M288.433,414.305L288.433,414.305c8.852,8.852,23.204,8.852,32.056,0l109.802-109.802c8.852-8.852,8.852-23.204,0-32.056
		l0,0c-8.852-8.852-23.204-8.852-32.056,0L288.433,382.249C279.581,391.101,279.581,405.453,288.433,414.305z"/>
</g>
<rect x="177.539" y="411.748" transform="matrix(-0.7071 -0.7071 0.7071 -0.7071 54.6987 881.5027)" style="opacity:0.1;enable-background:new    ;" width="64.751" height="35.35"/>
<g>
	<path style="fill:#EDA751;" d="M184.569,333.009c-4.742,0-9.484-1.809-13.102-5.427l-14.808-14.807
		c-7.237-7.237-7.238-18.97-0.001-26.206c7.236-7.237,18.969-7.236,26.206,0l14.808,14.807c7.237,7.237,7.237,18.97,0.001,26.206
		C194.054,331.199,189.311,333.009,184.569,333.009z"/>
	<path style="fill:#EDA751;" d="M339.518,173.881c-9.416,0-17.476-7.148-18.418-16.716l-1.707-17.339
		c-1.003-10.185,6.44-19.254,16.625-20.257c10.178-0.997,19.253,6.44,20.257,16.625l1.707,17.34
		c1.003,10.185-6.44,19.254-16.625,20.257C340.74,173.852,340.126,173.881,339.518,173.881z"/>
</g>
<g>
</g>
<g>
</g>
<g>
</g>
<g>
</g>
<g>
</g>
<g>
</g>
<g>
</g>
<g>
</g>
<g>
</g>
<g>
</g>
<g>
</g>
<g>
</g>
<g>
</g>
<g>
</g>
<g>
</g>
</svg>
