<?xml version="1.0" encoding="iso-8859-1"?>
<!-- Generator: Adobe Illustrator 19.0.0, SVG Export Plug-In . SVG Version: 6.00 Build 0)  -->
<svg version="1.1" id="Capa_1" xmlns="http://www.w3.org/2000/svg" xmlns:xlink="http://www.w3.org/1999/xlink" x="0px" y="0px"
	 viewBox="0 0 512 512" style="enable-background:new 0 0 512 512;" xml:space="preserve">
<path style="fill:#EDA751;" d="M189.731,364.195c21.308-17.751,35.535-47.549,5.48-91.599
	c-30.292-44.398-75.393-55.527-110.604-51.409c-8.681,1.015-15.964,7.083-18.479,15.394c-10.199,33.71-6.992,79.739,31.789,117.066
	C136.394,390.681,168.423,381.946,189.731,364.195z"/>
<path style="fill:#FF91AB;" d="M64.711,241.739c-8.362,33.145-3.634,76.448,33.206,111.908c33.35,32.1,61.851,29.806,82.73,17.069
	C166.288,273.934,103.558,248.27,64.711,241.739z"/>
<path style="fill:#EDA751;" d="M322.269,364.195c-21.308-17.751-35.535-47.549-5.48-91.599
	c30.292-44.398,75.393-55.527,110.604-51.409c8.681,1.015,15.964,7.083,18.479,15.394c10.199,33.71,6.991,79.739-31.789,117.066
	C375.606,390.681,343.577,381.946,322.269,364.195z"/>
<path style="fill:#FF91AB;" d="M447.289,241.739c8.362,33.145,3.634,76.448-33.206,111.908c-33.35,32.1-61.851,29.806-82.73,17.069
	C345.712,273.934,408.442,248.27,447.289,241.739z"/>
<path style="fill:#FFDC9C;" d="M441.39,390.987C441.39,475.141,358.388,512,256,512S70.61,475.141,70.61,390.987
	S153.612,238.611,256,238.611S441.39,306.832,441.39,390.987z"/>
<path style="opacity:0.15;fill:#C17A00;enable-background:new    ;" d="M157.011,262.137c-51.92,27.003-86.401,74.614-86.401,128.85
	c0,72.342,61.336,109.733,143.596,118.806C96.124,439.767,111.524,345.576,157.011,262.137z"/>
<g>
	<ellipse style="fill:#FF91AB;" cx="165.03" cy="394.54" rx="33.567" ry="26.538"/>
	<ellipse style="fill:#FF91AB;" cx="346.97" cy="394.54" rx="33.567" ry="26.538"/>
</g>
<g>
	<path style="fill:#495059;" d="M184.59,375.561c-4.142,0-7.5-3.357-7.5-7.5v-11.768c0-4.143,3.358-7.5,7.5-7.5s7.5,3.357,7.5,7.5
		v11.768C192.09,372.204,188.732,375.561,184.59,375.561z"/>
	<path style="fill:#495059;" d="M327.41,375.561c-4.142,0-7.5-3.357-7.5-7.5v-11.768c0-4.143,3.358-7.5,7.5-7.5s7.5,3.357,7.5,7.5
		v11.768C334.91,372.204,331.552,375.561,327.41,375.561z"/>
	<path style="fill:#495059;" d="M117.696,398.943c-3.365,0-6.426-2.281-7.273-5.695c-0.998-4.02,1.453-8.088,5.473-9.086
		c9.241-2.293,31.264-3.928,41.988-2.521c4.107,0.539,6.999,4.306,6.46,8.412c-0.539,4.107-4.308,6.988-8.412,6.461
		c-8.697-1.145-28.819,0.318-36.424,2.206C118.902,398.871,118.294,398.943,117.696,398.943z"/>
	<path style="fill:#495059;" d="M128.387,438.43c-2.309,0-4.586-1.063-6.056-3.068c-2.448-3.341-1.725-8.034,1.617-10.482
		c7.667-5.618,27.405-15.462,37.863-18.218c4.007-1.056,8.108,1.335,9.164,5.341c1.056,4.005-1.336,8.107-5.341,9.163
		c-8.476,2.234-26.515,11.192-32.82,15.813C131.479,437.957,129.926,438.43,128.387,438.43z"/>
	<path style="fill:#495059;" d="M394.304,398.943c-0.598,0-1.206-0.072-1.813-0.223c-7.605-1.888-27.727-3.35-36.424-2.206
		c-4.104,0.537-7.874-2.353-8.412-6.461c-0.539-4.106,2.354-7.873,6.46-8.412c10.725-1.404,32.748,0.228,41.988,2.521
		c4.02,0.998,6.47,5.065,5.473,9.086C400.73,396.661,397.669,398.943,394.304,398.943z"/>
	<path style="fill:#495059;" d="M383.613,438.43c-1.539,0-3.091-0.472-4.427-1.451c-6.306-4.621-24.344-13.579-32.82-15.813
		c-4.005-1.056-6.396-5.158-5.341-9.163c1.056-4.006,5.158-6.394,9.164-5.341c10.458,2.756,30.197,12.6,37.863,18.218
		c3.341,2.448,4.065,7.142,1.617,10.482C388.199,437.366,385.921,438.43,383.613,438.43z"/>
</g>
<ellipse style="fill:#FF91AB;" cx="256" cy="388.62" rx="26.991" ry="33.18"/>
<path id="SVGCleanerId_0" style="fill:#F5D141;" d="M302.142,91.868c0-25.95-21.422-46.897-47.548-46.121
	c-24.008,0.714-43.712,20.183-44.696,44.181c-0.592,14.438,5.457,27.473,15.34,36.316c6.034,5.4,9.638,12.999,9.638,21.097v5.673
	h42.249v-5.674c0-7.977,3.396-15.591,9.38-20.867C296.092,118.021,302.142,105.654,302.142,91.868z"/>
<g>
	<path id="SVGCleanerId_0_1_" style="fill:#F5D141;" d="M302.142,91.868c0-25.95-21.422-46.897-47.548-46.121
		c-24.008,0.714-43.712,20.183-44.696,44.181c-0.592,14.438,5.457,27.473,15.34,36.316c6.034,5.4,9.638,12.999,9.638,21.097v5.673
		h42.249v-5.674c0-7.977,3.396-15.591,9.38-20.867C296.092,118.021,302.142,105.654,302.142,91.868z"/>
</g>
<path style="opacity:0.2;fill:#C18F00;enable-background:new    ;" d="M250.363,153.014c1.136-14.128-0.451-29.956-11.351-41.254
	c-16.904-17.522-12.524-47.131-0.055-62.734c-16.408,6.598-28.301,22.398-29.06,40.901c-0.592,14.438,5.457,27.473,15.34,36.316
	c6.034,5.4,9.638,13,9.638,21.097v5.673L250.363,153.014L250.363,153.014z"/>
<circle style="fill:#495059;" cx="256" cy="182.82" r="27.21"/>
<path style="fill:#DEE2E5;" d="M283.845,184.806h-55.691c-5.043,0-9.131-4.088-9.131-9.131v-13.53c0-5.043,4.088-9.131,9.131-9.131
	h55.691c5.043,0,9.131,4.088,9.131,9.131v13.53C292.976,180.718,288.888,184.806,283.845,184.806z"/>
<path style="opacity:0.1;enable-background:new    ;" d="M244.61,153.014h-16.456c-5.043,0-9.131,4.088-9.131,9.131v13.53
	c0,5.043,4.088,9.131,9.131,9.131h17.055C239.606,176.563,240.102,159.829,244.61,153.014z"/>
<g>
	<path style="fill:#F5D141;" d="M195.408,62.686c-1.323,0-2.663-0.35-3.877-1.085l-12.681-7.678
		c-3.543-2.146-4.677-6.757-2.531-10.301c2.145-3.543,6.757-4.678,10.3-2.531l12.681,7.678c3.544,2.146,4.677,6.757,2.531,10.301
		C200.421,61.397,197.945,62.686,195.408,62.686z"/>
	<path style="fill:#F5D141;" d="M316.592,62.686c-2.538,0-5.013-1.288-6.423-3.616c-2.146-3.544-1.012-8.155,2.531-10.301
		l12.681-7.678c3.543-2.147,8.155-1.011,10.3,2.531c2.146,3.544,1.012,8.155-2.531,10.301l-12.681,7.678
		C319.255,62.336,317.915,62.686,316.592,62.686z"/>
	<path style="fill:#F5D141;" d="M340.082,115.724c-0.475,0-0.957-0.045-1.44-0.139l-14.552-2.83
		c-4.066-0.791-6.721-4.729-5.931-8.794c0.791-4.065,4.731-6.717,8.794-5.931l14.552,2.83c4.066,0.791,6.721,4.729,5.931,8.794
		C346.739,113.236,343.6,115.724,340.082,115.724z"/>
	<path style="fill:#F5D141;" d="M171.918,115.724c-3.518,0-6.657-2.486-7.354-6.069c-0.791-4.065,1.865-8.003,5.931-8.794
		l14.552-2.83c4.067-0.79,8.003,1.864,8.794,5.931c0.791,4.065-1.865,8.003-5.931,8.794l-14.552,2.83
		C172.874,115.679,172.393,115.724,171.918,115.724z"/>
	<path style="fill:#F5D141;" d="M256,29.567c-4.142,0-7.5-3.357-7.5-7.5V7.5c0-4.143,3.358-7.5,7.5-7.5s7.5,3.357,7.5,7.5v14.567
		C263.5,26.21,260.142,29.567,256,29.567z"/>
</g>
<g>
</g>
<g>
</g>
<g>
</g>
<g>
</g>
<g>
</g>
<g>
</g>
<g>
</g>
<g>
</g>
<g>
</g>
<g>
</g>
<g>
</g>
<g>
</g>
<g>
</g>
<g>
</g>
<g>
</g>
</svg>
