<?xml version="1.0" encoding="iso-8859-1"?>
<!-- Generator: Adobe Illustrator 19.0.0, SVG Export Plug-In . SVG Version: 6.00 Build 0)  -->
<svg version="1.1" id="Capa_1" xmlns="http://www.w3.org/2000/svg" xmlns:xlink="http://www.w3.org/1999/xlink" x="0px" y="0px"
	 viewBox="0 0 512.001 512.001" style="enable-background:new 0 0 512.001 512.001;" xml:space="preserve">
<path id="SVGCleanerId_0" style="fill:#EDA751;" d="M98.945,452.361c-33.484,0-47.07-13.247-58.013-23.916
	c-7.716-7.522-13.811-13.463-28.257-16.102c-8.393-1.534-13.955-9.581-12.421-17.973c1.533-8.394,9.581-13.958,17.973-12.422
	c23.715,4.333,35.114,15.445,44.272,24.374c9.324,9.088,15.534,15.143,36.329,15.143c0.337,0,0.677-0.002,1.021-0.005
	c21.84-0.202,26.181-8.318,35.689-26.101c6.591-12.328,14.795-27.669,31.157-41.119c6.591-5.417,16.326-4.467,21.744,2.127
	c5.417,6.591,4.466,16.326-2.125,21.744c-11.626,9.555-17.677,20.872-23.529,31.817c-10.541,19.713-22.488,42.058-62.65,42.427
	C99.737,452.358,99.338,452.361,98.945,452.361z"/>
<g>
	<path id="SVGCleanerId_0_1_" style="fill:#EDA751;" d="M98.945,452.361c-33.484,0-47.07-13.247-58.013-23.916
		c-7.716-7.522-13.811-13.463-28.257-16.102c-8.393-1.534-13.955-9.581-12.421-17.973c1.533-8.394,9.581-13.958,17.973-12.422
		c23.715,4.333,35.114,15.445,44.272,24.374c9.324,9.088,15.534,15.143,36.329,15.143c0.337,0,0.677-0.002,1.021-0.005
		c21.84-0.202,26.181-8.318,35.689-26.101c6.591-12.328,14.795-27.669,31.157-41.119c6.591-5.417,16.326-4.467,21.744,2.127
		c5.417,6.591,4.466,16.326-2.125,21.744c-11.626,9.555-17.677,20.872-23.529,31.817c-10.541,19.713-22.488,42.058-62.65,42.427
		C99.737,452.358,99.338,452.361,98.945,452.361z"/>
</g>
<path style="fill:#FCD79D;" d="M0.254,394.369c-1.534,8.393,4.027,16.439,12.421,17.973c3.822,0.698,7.048,1.634,9.886,2.762
	c6.563-8.451,9.014-21.377,8.41-29.841c-3.817-1.325-8.035-2.456-12.744-3.317C9.835,380.411,1.787,385.975,0.254,394.369z"/>
<g>
	<path style="fill:#EDA751;" d="M191.779,512.001c-0.995,0-2-0.06-3.013-0.183c-13.551-1.646-23.202-13.968-21.555-27.519
		c3.616-29.748,2.148-56.581-3.741-68.357c-6.105-12.211-1.156-27.058,11.054-33.163c12.213-6.103,27.058-1.155,33.163,11.054
		c14.222,28.445,11.492,72.626,8.599,96.43C214.761,502.802,204.099,512.001,191.779,512.001z"/>
	<path style="fill:#EDA751;" d="M276.111,512.001c-0.995,0-2.001-0.06-3.014-0.183c-13.551-1.647-23.202-13.968-21.555-27.519
		c3.617-29.748,2.148-56.579-3.74-68.357c-6.105-12.211-1.156-27.058,11.054-33.163c12.212-6.103,27.057-1.155,33.163,11.054
		c14.222,28.446,11.492,72.627,8.598,96.43C299.093,502.802,288.43,512.001,276.111,512.001z"/>
	<path style="fill:#EDA751;" d="M95.557,365.686c-29.065,0-59.916-14.086-81.493-49.918c-7.042-11.695-3.271-26.884,8.424-33.927
		c11.695-7.042,26.884-3.271,33.926,8.424c3.985,6.619,25.558,38.738,58.96,21.058c12.067-6.383,27.025-1.783,33.41,10.283
		c6.386,12.066,1.783,27.023-10.282,33.41C125.774,361.753,110.914,365.686,95.557,365.686z"/>
	<path style="fill:#EDA751;" d="M363.391,384.002c-2.609,0-5.058-0.173-7.324-0.454c-23.989-2.979-45.623-19.895-62.563-48.918
		c-6.881-11.79-2.903-26.926,8.887-33.808c11.791-6.877,26.927-2.903,33.808,8.888c10.001,17.135,19.969,24.036,25.962,24.781
		c4.511,0.546,9.848-2.259,15.849-8.38c9.555-9.75,25.206-9.904,34.954-0.348c9.748,9.558,9.903,25.207,0.347,34.955
		C395.141,379.251,377.101,384.002,363.391,384.002z"/>
</g>
<g>
	<path style="opacity:0.2;fill:#A35F00;enable-background:new    ;" d="M362.16,334.49c-5.993-0.745-15.96-7.646-25.962-24.781
		c-6.881-11.79-22.017-15.765-33.808-8.888c-11.79,6.882-15.769,22.018-8.887,33.809c16.289,27.906,36.918,44.613,59.807,48.505
		c6.459-14.745,10.032-30.882,10.032-47.79c0-0.267-0.009-0.531-0.011-0.797C362.936,334.549,362.544,334.536,362.16,334.49z"/>
	<path style="opacity:0.2;fill:#A35F00;enable-background:new    ;" d="M302.587,440.75c-0.93-16.614-3.865-33.512-10.567-46.917
		c-6.105-12.209-20.951-17.157-33.163-11.054c-12.21,6.105-17.159,20.952-11.054,33.163c4.166,8.331,6.116,24.199,5.622,43.3
		C271.292,456.181,287.931,449.776,302.587,440.75z"/>
	<path style="opacity:0.2;fill:#A35F00;enable-background:new    ;" d="M174.524,382.779c-12.21,6.105-17.159,20.952-11.054,33.163
		c3.302,6.604,5.214,17.943,5.618,31.875c15.071,7.159,31.764,11.721,49.414,13.054c0.602-22.223-1.353-48.111-10.816-67.038
		C201.582,381.624,186.737,376.676,174.524,382.779z"/>
	<path style="opacity:0.2;fill:#A35F00;enable-background:new    ;" d="M166.696,354.24c-16.363,13.45-24.566,28.791-31.157,41.119
		c-4.155,7.771-7.324,13.696-11.397,17.922c6.601,7.852,14.171,14.951,22.543,21.134c6.953-7.403,11.656-16.176,16.1-24.487
		c5.852-10.944,11.903-22.262,23.529-31.817c6.592-5.418,7.543-15.153,2.125-21.744C183.022,349.773,173.287,348.823,166.696,354.24
		z"/>
	<path style="opacity:0.2;fill:#A35F00;enable-background:new    ;" d="M115.374,311.324c-6.672,3.532-12.871,5.072-18.554,5.229
		c-0.981,6.132-1.493,12.407-1.493,18.792c0,10.428,1.365,20.561,3.919,30.257c14.04-0.574,27.55-4.39,39.255-10.585
		c12.065-6.387,16.669-21.344,10.282-33.41C142.399,309.542,127.441,304.941,115.374,311.324z"/>
</g>
<ellipse style="fill:#FCD690;" cx="229.34" cy="335.341" rx="114.01" ry="105.94"/>
<path style="opacity:0.15;fill:#C17A00;enable-background:new    ;" d="M212.686,440.156
	c-52.098-34.204-35.952-104.308-27.108-134.966v-67.693c-41.247,15.945-70.251,53.747-70.251,97.849
	C115.327,388.598,157.614,432.667,212.686,440.156z"/>
<path style="fill:#EDA751;" d="M159.954,151.649c22.309-18.719,37.203-50.143,5.737-96.597C133.976,8.232,86.757-3.504,49.894,0.839
	C40.805,1.91,33.18,8.308,30.547,17.073c-10.678,35.55-7.32,84.089,33.282,123.453C104.112,179.58,137.646,170.368,159.954,151.649z
	"/>
<path style="fill:#FF91AB;" d="M29.063,22.512c-8.754,34.953-3.804,80.619,34.766,118.013c34.916,33.852,64.755,31.433,86.615,18
	C135.41,56.464,69.735,29.4,29.063,22.512z"/>
<path style="fill:#EDA751;" d="M298.715,151.649c-22.309-18.719-37.203-50.143-5.737-96.597
	c31.715-46.82,78.934-58.557,115.798-54.214c9.088,1.071,16.714,7.469,19.347,16.234c10.678,35.55,7.32,84.089-33.282,123.453
	C354.557,179.58,321.024,170.368,298.715,151.649z"/>
<path style="fill:#FF91AB;" d="M429.606,22.512c8.754,34.953,3.804,80.619-34.766,118.013c-34.916,33.852-64.755,31.433-86.615,18
	C323.26,56.464,388.935,29.4,429.606,22.512z"/>
<path style="fill:#FFDC9C;" d="M423.43,179.902c0,88.746-86.9,127.616-194.096,127.616S35.239,268.648,35.239,179.902
	s86.9-160.689,194.096-160.689S423.43,91.157,423.43,179.902z"/>
<path style="opacity:0.15;fill:#C17A00;enable-background:new    ;" d="M125.697,44.023
	c-54.359,28.476-90.458,78.685-90.458,135.879c0,76.289,64.216,115.72,150.339,125.287
	C61.951,231.344,78.075,132.014,125.697,44.023z"/>
<ellipse style="opacity:0.2;enable-background:new    ;" cx="134.09" cy="183.651" rx="35.14" ry="27.986"/>
<ellipse style="opacity:0.2;enable-background:new    ;" cx="324.58" cy="183.651" rx="35.14" ry="27.986"/>
<g>
	<path style="fill:#495059;" d="M154.572,159.52c-4.142,0-7.5-3.357-7.5-7.5v-12.41c0-4.143,3.358-7.5,7.5-7.5s7.5,3.357,7.5,7.5
		v12.41C162.072,156.162,158.714,159.52,154.572,159.52z"/>
	<path style="fill:#495059;" d="M304.098,159.52c-4.142,0-7.5-3.357-7.5-7.5v-12.41c0-4.143,3.358-7.5,7.5-7.5s7.5,3.357,7.5,7.5
		v12.41C311.598,156.162,308.24,159.52,304.098,159.52z"/>
	<path style="fill:#495059;" d="M84.536,187.884c-3.36,0-6.418-2.275-7.27-5.683c-1.005-4.019,1.438-8.091,5.457-9.096
		c9.651-2.413,32.648-4.132,43.849-2.651c4.106,0.543,6.995,4.312,6.453,8.418c-0.542,4.107-4.312,6.993-8.418,6.453
		c-9.132-1.208-30.26,0.336-38.246,2.333C85.751,187.811,85.138,187.884,84.536,187.884z"/>
	<path style="fill:#495059;" d="M95.729,229.524c-2.3,0-4.569-1.054-6.04-3.046c-2.46-3.333-1.753-8.028,1.58-10.488
		c8.004-5.907,28.611-16.259,39.531-19.158c4.004-1.061,8.11,1.321,9.174,5.324c1.063,4.004-1.321,8.11-5.324,9.174
		c-8.904,2.364-27.85,11.841-34.472,16.729C98.837,229.047,97.276,229.524,95.729,229.524z"/>
	<path style="fill:#495059;" d="M374.133,187.884c-0.603,0-1.214-0.073-1.825-0.226c-7.985-1.997-29.113-3.54-38.246-2.333
		c-4.109,0.547-7.875-2.347-8.419-6.453c-0.542-4.106,2.346-7.875,6.453-8.418c11.199-1.481,34.197,0.238,43.849,2.651
		c4.019,1.005,6.462,5.077,5.457,9.096C380.552,185.608,377.494,187.884,374.133,187.884z"/>
	<path style="fill:#495059;" d="M362.94,229.524c-1.547,0-3.108-0.477-4.448-1.466c-6.622-4.888-25.568-14.364-34.472-16.729
		c-4.003-1.063-6.387-5.17-5.324-9.174c1.064-4.003,5.168-6.384,9.174-5.324c10.92,2.899,31.527,13.251,39.531,19.158
		c3.333,2.46,4.04,7.155,1.58,10.488C367.51,228.47,365.24,229.524,362.94,229.524z"/>
	<path style="fill:#495059;" d="M154.572,170.784c-4.63,0-14.298-0.606-21.167-2.879c-3.933-1.301-6.066-5.543-4.765-9.476
		c1.301-3.933,5.543-6.066,9.476-4.765c4.162,1.376,11.585,2.119,16.456,2.119c4.872,0,12.295-0.743,16.456-2.119
		c3.935-1.303,8.175,0.832,9.476,4.765s-0.833,8.175-4.765,9.476C168.871,170.178,159.202,170.784,154.572,170.784z"/>
	<path style="fill:#495059;" d="M173.385,136.345c-0.781,0-1.575-0.123-2.356-0.382c-4.162-1.376-11.585-2.119-16.456-2.119
		c-4.872,0-12.295,0.743-16.456,2.119c-3.936,1.302-8.175-0.832-9.476-4.765c-1.301-3.933,0.833-8.175,4.765-9.476
		c6.869-2.272,16.537-2.879,21.167-2.879c4.63,0,14.299,0.606,21.167,2.879c3.933,1.301,6.066,5.543,4.765,9.476
		C179.462,134.349,176.531,136.345,173.385,136.345z"/>
	<path style="fill:#495059;" d="M322.91,136.345c-0.781,0-1.575-0.123-2.357-0.382c-4.162-1.376-11.585-2.119-16.456-2.119
		c-4.872,0-12.295,0.743-16.457,2.119c-3.936,1.302-8.175-0.832-9.476-4.765c-1.301-3.933,0.833-8.175,4.765-9.476
		c6.869-2.272,16.537-2.879,21.168-2.879c4.63,0,14.298,0.606,21.167,2.879c3.933,1.301,6.066,5.543,4.765,9.476
		C328.987,134.349,326.057,136.345,322.91,136.345z"/>
	<path style="fill:#495059;" d="M304.098,170.784c-4.63,0-14.299-0.606-21.168-2.879c-3.933-1.301-6.066-5.543-4.765-9.476
		s5.543-6.066,9.476-4.765c4.162,1.376,11.585,2.119,16.457,2.119c4.871,0,12.294-0.743,16.456-2.119
		c3.935-1.303,8.175,0.832,9.476,4.765c1.301,3.933-0.833,8.175-4.765,9.476C318.396,170.178,308.728,170.784,304.098,170.784z"/>
	<path style="fill:#495059;" d="M249.045,170.866h-39.421c-4.142,0-7.5-3.357-7.5-7.5c0-4.142,3.358-7.5,7.5-7.5h39.421
		c4.142,0,7.5,3.358,7.5,7.5C256.545,167.509,253.188,170.866,249.045,170.866z"/>
</g>
<path style="fill:#B77866;" d="M433.18,352.561h-26.886c-10,0-18.134-8.135-18.134-18.135v-27.377
	c0-9.999,8.135-18.134,18.134-18.134h26.886c4.142,0,7.5,3.357,7.5,7.5s-3.358,7.5-7.5,7.5h-26.886
	c-1.728,0-3.134,1.406-3.134,3.134v27.377c0,1.728,1.406,3.135,3.134,3.135h26.886c4.142,0,7.5,3.357,7.5,7.5
	C440.68,349.203,437.322,352.561,433.18,352.561z"/>
<path style="fill:#78CFC0;" d="M500.505,368.933h-55.83c-6.349,0-11.495-5.147-11.495-11.495v-72.787
	c0-3.21,2.602-5.812,5.812-5.812h67.197c3.21,0,5.812,2.602,5.812,5.812v72.787C512,363.787,506.854,368.933,500.505,368.933z"/>
<g>
	<path style="fill:#DEE2E5;" d="M455.567,262.545c-3.656,0-6.858-2.677-7.41-6.401c-1.746-11.784,0.916-21.019,3.054-28.439
		c1.724-5.98,3.085-10.703,1.867-15.209c-1.081-3.999,1.285-8.116,5.284-9.197c3.998-1.08,8.116,1.284,9.197,5.283
		c2.311,8.55,0.153,16.036-1.934,23.277c-1.916,6.648-3.898,13.524-2.629,22.085c0.607,4.098-2.222,7.911-6.32,8.518
		C456.303,262.519,455.932,262.545,455.567,262.545z"/>
	<path style="fill:#DEE2E5;" d="M491.213,262.545c-3.656,0-6.858-2.677-7.41-6.401c-1.746-11.784,0.915-21.019,3.054-28.439
		c1.724-5.98,3.085-10.703,1.867-15.209c-1.081-3.999,1.285-8.116,5.284-9.197c3.998-1.08,8.116,1.284,9.197,5.283
		c2.31,8.55,0.153,16.036-1.934,23.277c-1.916,6.648-3.898,13.524-2.629,22.085c0.607,4.098-2.222,7.911-6.32,8.518
		C491.95,262.519,491.579,262.545,491.213,262.545z"/>
</g>
<g>
</g>
<g>
</g>
<g>
</g>
<g>
</g>
<g>
</g>
<g>
</g>
<g>
</g>
<g>
</g>
<g>
</g>
<g>
</g>
<g>
</g>
<g>
</g>
<g>
</g>
<g>
</g>
<g>
</g>
</svg>
