<?xml version="1.0" encoding="iso-8859-1"?>
<!-- Generator: Adobe Illustrator 19.0.0, SVG Export Plug-In . SVG Version: 6.00 Build 0)  -->
<svg version="1.1" id="Capa_1" xmlns="http://www.w3.org/2000/svg" xmlns:xlink="http://www.w3.org/1999/xlink" x="0px" y="0px"
	 viewBox="0 0 512 512" style="enable-background:new 0 0 512 512;" xml:space="preserve">
<path style="fill:#EDA751;" d="M168.818,448.202c-6.845,1.128-14.112,0.452-21.757-2.039c-23.32-7.597-53.796-12.767-66.544,5.741
	c-4.127,5.991-12.332,7.504-18.325,3.377c-5.993-4.128-7.505-12.332-3.377-18.325c12.127-17.606,38.696-34.647,96.408-15.849
	c13.482,4.393,19.928-2.389,35.097-27.993c3.811-6.432,7.752-13.083,12.254-19.376c4.236-5.917,12.465-7.282,18.383-3.047
	c5.918,4.234,7.282,12.465,3.047,18.383c-3.841,5.366-7.487,11.521-11.013,17.473c-6.775,11.436-13.781,23.261-23.223,31.434
	C183.33,443.553,176.327,446.963,168.818,448.202z"/>
<path style="opacity:0.15;fill:#C17A00;enable-background:new    ;" d="M168.818,448.202c-6.845,1.128-14.112,0.452-21.757-2.039
	c-23.32-7.597-53.796-12.767-66.544,5.741c-4.127,5.991-12.332,7.504-18.325,3.377c-5.993-4.128-7.505-12.332-3.377-18.325
	c12.127-17.606,38.696-34.647,96.408-15.849c13.482,4.393,19.928-2.389,35.097-27.993c3.811-6.432,7.752-13.083,12.254-19.376
	c4.236-5.917,12.465-7.282,18.383-3.047c5.918,4.234,7.282,12.465,3.047,18.383c-3.841,5.366-7.487,11.521-11.013,17.473
	c-6.775,11.436-13.781,23.261-23.223,31.434C183.33,443.553,176.327,446.963,168.818,448.202z"/>
<path style="fill:#FCD79D;" d="M65.367,429.13c-2.552,2.514-4.719,5.163-6.552,7.825c-4.128,5.993-2.615,14.197,3.377,18.325
	c5.993,4.127,14.198,2.615,18.325-3.377c1.326-1.925,2.853-3.58,4.535-5.017C81.118,437.192,71.459,430.929,65.367,429.13z"/>
<g>
	<path style="fill:#EDA751;" d="M368.508,437.616c-9.33,0-17.859-6.24-20.363-15.683c-2.139-8.068-3.814-15.746-5.291-22.52
		c-2.234-10.243-5.609-25.715-8.739-28.245c0.005,0.019-0.117-0.037-0.318-0.084c-11.333-2.67-18.355-14.022-15.684-25.355
		c2.671-11.332,14.023-18.355,25.355-15.683c13.775,3.247,24.125,12.138,30.761,26.428c4.55,9.798,6.992,20.993,9.819,33.956
		c1.451,6.655,2.953,13.537,4.851,20.698c2.984,11.254-3.721,22.796-14.975,25.78C372.115,437.387,370.296,437.616,368.508,437.616z
		"/>
	<path style="fill:#EDA751;" d="M156.562,437.616c-1.789,0-3.606-0.229-5.417-0.709c-11.254-2.984-17.958-14.526-14.975-25.78
		c1.899-7.161,3.4-14.044,4.851-20.698c2.827-12.963,5.269-24.157,9.819-33.956c6.636-14.29,16.986-23.181,30.761-26.428
		c11.332-2.67,22.684,4.351,25.355,15.683c2.671,11.333-4.351,22.685-15.684,25.355c-0.26,0.062-0.364,0.11-0.365,0.111
		c-3.069,2.444-6.453,17.954-8.691,28.218c-1.477,6.774-3.152,14.452-5.291,22.52C174.421,431.376,165.89,437.616,156.562,437.616z"
		/>
	<path style="fill:#EDA751;" d="M230.15,512c-11.643,0-21.081-9.438-21.081-21.081v-53.734c0-11.643,9.438-21.081,21.081-21.081
		c11.643,0,21.081,9.438,21.081,21.081v53.734C251.231,502.562,241.793,512,230.15,512z"/>
	<path style="fill:#EDA751;" d="M294.92,512c-11.643,0-21.081-9.438-21.081-21.081v-53.734c0-11.643,9.438-21.081,21.081-21.081
		s21.081,9.438,21.081,21.081v53.734C316.001,502.562,306.563,512,294.92,512z"/>
</g>
<g>
	<path style="opacity:0.2;fill:#A35F00;enable-background:new    ;" d="M374.229,356.472c-6.636-14.29-16.986-23.181-30.761-26.428
		c-11.332-2.671-22.684,4.351-25.355,15.684c-2.671,11.333,4.351,22.685,15.684,25.355c0.201,0.047,0.323,0.103,0.318,0.084
		c3.13,2.53,6.504,18.002,8.739,28.245c1.477,6.774,3.152,14.452,5.291,22.52c0.975,3.677,2.872,6.859,5.366,9.386
		c14.512-16.795,23.891-37.667,25.864-60.482C377.937,365.738,376.309,360.951,374.229,356.472z"/>
	<path style="opacity:0.2;fill:#A35F00;enable-background:new    ;" d="M181.602,330.044c-13.775,3.247-24.125,12.138-30.761,26.428
		c-2.08,4.479-3.708,9.266-5.145,14.363c1.974,22.816,11.352,43.688,25.864,60.483c2.494-2.526,4.391-5.709,5.365-9.386
		c2.139-8.068,3.814-15.746,5.291-22.52c2.239-10.264,5.622-25.774,8.691-28.218c0.001-0.001,0.105-0.049,0.366-0.111
		c11.333-2.67,18.354-14.022,15.684-25.355C204.286,334.395,192.934,327.374,181.602,330.044z"/>
	<path style="opacity:0.2;fill:#A35F00;enable-background:new    ;" d="M294.92,416.103c-11.643,0-21.081,9.438-21.081,21.081
		v34.454c15.061-1.363,29.3-5.415,42.163-11.646v-22.808C316.001,425.542,306.563,416.103,294.92,416.103z"/>
	<path style="opacity:0.2;fill:#A35F00;enable-background:new    ;" d="M230.15,416.103c-11.643,0-21.081,9.438-21.081,21.081
		v22.808c12.863,6.231,27.102,10.283,42.163,11.646v-34.454C251.231,425.542,241.793,416.103,230.15,416.103z"/>
</g>
<ellipse style="fill:#FCD690;" cx="262.54" cy="361.8" rx="97.23" ry="90.35"/>
<path style="opacity:0.15;fill:#C17A00;enable-background:new    ;" d="M248.336,451.192c-44.433-29.172-30.663-88.962-23.12-115.11
	v-57.734c-35.179,13.599-59.916,45.84-59.916,83.453C165.3,407.219,201.366,444.805,248.336,451.192z"/>
<path style="fill:#EDA751;" d="M202.812,207.776c13.869-20.604,18.666-49.873-18.082-80.526
	c-37.037-30.894-78.507-29.377-107.697-17.122c-7.196,3.021-11.937,10.064-12.028,17.869c-0.367,31.656,13.834,70.647,56.396,93.334
	C163.631,243.839,188.942,228.38,202.812,207.776z"/>
<path style="fill:#FF91AB;" d="M65.072,132.805c1.069,30.713,15.897,66.974,56.329,88.526c36.603,19.51,60.489,10.489,75.237-5.676
	C160.244,135.549,100.032,128.857,65.072,132.805z"/>
<path style="fill:#EDA751;" d="M322.258,207.776c-13.869-20.604-18.666-49.873,18.081-80.526
	c37.037-30.894,78.507-29.377,107.697-17.122c7.196,3.021,11.937,10.064,12.028,17.869c0.367,31.656-13.834,70.647-56.396,93.334
	C361.439,243.839,336.127,228.38,322.258,207.776z"/>
<path style="fill:#FF91AB;" d="M459.997,132.805c-1.069,30.713-15.897,66.974-56.329,88.526
	c-36.603,19.51-60.488,10.489-75.237-5.676C364.825,135.549,425.038,128.857,459.997,132.805z"/>
<path style="fill:#FFDC9C;" d="M428.075,229.226c0-75.69-74.115-137.048-165.54-137.048s-165.54,61.359-165.54,137.048
	c0,12.424,1.997,23.701,5.739,33.874c1.899,5.162,3.468,10.439,4.885,15.754c2.777,10.416,5.296,20.798,7.309,28.964
	c0.819,3.323,5.36,3.703,6.758,0.58c1.135-2.536,2.439-5.104,3.823-7.32c0.806-1.291,2.577-1.573,3.735-0.585
	c30.144,25.717,78.62,37.575,133.292,37.575c48.226,0,91.633-9.226,121.889-29.052c3.514-2.303,8.192-1.78,11.072,1.279
	c3.568,3.79,5.848,7.086,7.383,9.908c1.148,2.109,4.319,1.556,4.737-0.808c2.333-13.172,7.76-32.014,11.276-44.788
	c1.262-4.583,2.652-9.122,4.18-13.623C426.335,251.368,428.075,240.797,428.075,229.226z"/>
<path style="opacity:0.15;fill:#C17A00;enable-background:new    ;" d="M96.994,229.226c0,12.424,1.997,23.701,5.739,33.874
	c1.899,5.162,3.468,10.439,4.885,15.754c2.777,10.416,5.296,20.798,7.309,28.964c0.819,3.323,5.36,3.703,6.758,0.58
	c1.135-2.536,2.439-5.104,3.823-7.32c0.806-1.291,2.578-1.573,3.735-0.585c23.063,19.675,56.864,31.23,95.953,35.577
	c-105.417-62.98-91.665-147.691-51.051-222.732C127.783,137.625,96.994,180.446,96.994,229.226z"/>
<g>
	<path style="fill:#495059;" d="M198.771,225.595c-4.142,0-7.5-3.357-7.5-7.5V207.51c0-4.143,3.358-7.5,7.5-7.5s7.5,3.357,7.5,7.5
		v10.585C206.271,222.237,202.913,225.595,198.771,225.595z"/>
	<path style="fill:#495059;" d="M326.298,225.595c-4.142,0-7.5-3.357-7.5-7.5V207.51c0-4.143,3.358-7.5,7.5-7.5s7.5,3.357,7.5,7.5
		v10.585C333.798,222.237,330.44,225.595,326.298,225.595z"/>
	<path style="fill:#495059;" d="M139.038,246.624c-3.36,0-6.419-2.275-7.27-5.683c-1.005-4.019,1.438-8.091,5.457-9.096
		c8.32-2.079,28.149-3.561,37.81-2.285c4.106,0.543,6.996,4.312,6.453,8.418c-0.543,4.107-4.309,6.999-8.418,6.453
		c-7.536-0.997-25.63,0.322-32.208,1.967C140.252,246.551,139.64,246.624,139.038,246.624z"/>
	<path style="fill:#495059;" d="M148.586,282.138c-2.3,0-4.569-1.054-6.04-3.046c-2.46-3.332-1.752-8.028,1.58-10.488
		c6.899-5.093,24.668-14.018,34.087-16.519c4.003-1.063,8.11,1.321,9.174,5.324c1.063,4.004-1.321,8.11-5.324,9.174
		c-7.347,1.951-23.574,10.064-29.028,14.09C151.694,281.661,150.133,282.138,148.586,282.138z"/>
	<path style="fill:#495059;" d="M386.032,246.624c-0.603,0-1.214-0.073-1.825-0.226c-6.577-1.645-24.671-2.963-32.207-1.967
		c-4.109,0.547-7.875-2.346-8.418-6.453c-0.542-4.106,2.347-7.875,6.453-8.418c9.66-1.275,29.491,0.205,37.81,2.285
		c4.019,1.005,6.462,5.077,5.457,9.096C392.45,244.349,389.392,246.624,386.032,246.624z"/>
	<path style="fill:#495059;" d="M376.484,282.138c-1.547,0-3.108-0.477-4.448-1.466c-5.455-4.026-21.682-12.14-29.029-14.09
		c-4.003-1.063-6.387-5.17-5.324-9.174c1.064-4.003,5.171-6.386,9.174-5.324c9.418,2.501,27.188,11.427,34.087,16.519
		c3.333,2.46,4.04,7.155,1.58,10.488C381.054,281.084,378.783,282.138,376.484,282.138z"/>
	<path style="fill:#495059;" d="M206.788,205.833c-2.968,0-6.324-0.247-9.591-0.858c-6.066-1.136-11.962-3.554-15.114-5.445
		c-3.552-2.132-4.702-6.739-2.571-10.291c2.132-3.551,6.738-4.703,10.291-2.57c1.67,1.003,5.925,2.771,10.155,3.563
		c4.227,0.793,8.833,0.681,10.754,0.352c4.078-0.701,7.961,2.035,8.665,6.117c0.703,4.082-2.036,7.961-6.118,8.664
		C211.587,205.651,209.33,205.833,206.788,205.833z"/>
	<path style="fill:#495059;" d="M318.281,205.833c-2.542,0-4.799-0.181-6.471-0.47c-4.082-0.703-6.821-4.582-6.118-8.664
		c0.704-4.082,4.586-6.829,8.664-6.117c1.92,0.328,6.526,0.441,10.754-0.352c4.23-0.792,8.485-2.56,10.155-3.563
		c3.551-2.13,8.158-0.979,10.29,2.57c2.131,3.552,0.981,8.159-2.571,10.291c-3.152,1.892-9.048,4.31-15.115,5.445
		C324.605,205.586,321.249,205.833,318.281,205.833z"/>
	<path style="fill:#495059;" d="M280.389,235.83h-35.708c-4.142,0-7.5-3.357-7.5-7.5s3.358-7.5,7.5-7.5h35.708
		c4.142,0,7.5,3.357,7.5,7.5S284.531,235.83,280.389,235.83z"/>
	<path style="fill:#495059;" d="M242.622,249.252c-0.886,0-1.786-0.158-2.663-0.491c-3.872-1.471-5.818-5.803-4.347-9.675
		c0.83-2.184,1.568-7.834,1.568-10.756s-0.738-8.572-1.568-10.756c-1.472-3.872,0.475-8.204,4.347-9.675
		c3.873-1.472,8.204,0.475,9.675,4.347c1.737,4.571,2.546,12.3,2.546,16.084s-0.809,11.513-2.546,16.084
		C248.497,247.409,245.646,249.252,242.622,249.252z"/>
	<path style="fill:#495059;" d="M282.447,249.252c-3.024,0-5.874-1.843-7.012-4.838c-1.737-4.57-2.546-12.3-2.546-16.084
		s0.809-11.514,2.546-16.084c1.471-3.872,5.803-5.818,9.675-4.347c3.872,1.471,5.818,5.803,4.347,9.675
		c-0.829,2.183-1.567,7.833-1.567,10.756c0,2.923,0.738,8.573,1.567,10.756c1.472,3.872-0.475,8.204-4.347,9.675
		C284.233,249.094,283.332,249.252,282.447,249.252z"/>
</g>
<g>
	<path style="fill:#7CC5E6;" d="M70.026,85.165c-4.142,0-7.5-3.357-7.5-7.5V45.172c0-4.143,3.358-7.5,7.5-7.5s7.5,3.357,7.5,7.5
		v32.493C77.526,81.808,74.169,85.165,70.026,85.165z"/>
	<path style="fill:#7CC5E6;" d="M24.372,260.717c-4.142,0-7.5-3.357-7.5-7.5v-54.884c0-4.143,3.358-7.5,7.5-7.5s7.5,3.357,7.5,7.5
		v54.884C31.872,257.359,28.514,260.717,24.372,260.717z"/>
	<path style="fill:#7CC5E6;" d="M179.059,55.285c-4.142,0-7.5-3.357-7.5-7.5V7.5c0-4.143,3.358-7.5,7.5-7.5s7.5,3.357,7.5,7.5
		v40.285C186.559,51.928,183.201,55.285,179.059,55.285z"/>
	<path style="fill:#7CC5E6;" d="M347.237,65.522c-4.142,0-7.5-3.357-7.5-7.5V23.528c0-4.143,3.358-7.5,7.5-7.5s7.5,3.357,7.5,7.5
		v34.494C354.737,62.165,351.379,65.522,347.237,65.522z"/>
	<path style="fill:#7CC5E6;" d="M467.411,278.001c-4.142,0-7.5-3.357-7.5-7.5v-34.568c0-4.143,3.358-7.5,7.5-7.5s7.5,3.357,7.5,7.5
		v34.568C474.911,274.644,471.553,278.001,467.411,278.001z"/>
	<path style="fill:#7CC5E6;" d="M447.516,36.042c-4.142,0-7.5-3.357-7.5-7.5V7.5c0-4.143,3.358-7.5,7.5-7.5s7.5,3.357,7.5,7.5
		v21.042C455.016,32.685,451.658,36.042,447.516,36.042z"/>
	<path style="fill:#7CC5E6;" d="M255.156,72.679c-4.142,0-7.5-3.357-7.5-7.5V36.715c0-4.143,3.358-7.5,7.5-7.5s7.5,3.358,7.5,7.5
		v28.464C262.656,69.321,259.298,72.679,255.156,72.679z"/>
	<path style="fill:#7CC5E6;" d="M49.316,338.524c-4.142,0-7.5-3.357-7.5-7.5v-18.767c0-4.143,3.358-7.5,7.5-7.5s7.5,3.357,7.5,7.5
		v18.767C56.816,335.167,53.458,338.524,49.316,338.524z"/>
	<path style="fill:#7CC5E6;" d="M418.936,476.056c-4.142,0-7.5-3.357-7.5-7.5v-25.98c0-4.143,3.358-7.5,7.5-7.5s7.5,3.357,7.5,7.5
		v25.98C426.436,472.698,423.078,476.056,418.936,476.056z"/>
	<path style="fill:#7CC5E6;" d="M103.104,480.107c-4.142,0-7.5-3.357-7.5-7.5v-8.618c0-4.143,3.358-7.5,7.5-7.5s7.5,3.357,7.5,7.5
		v8.618C110.604,476.75,107.246,480.107,103.104,480.107z"/>
	<path style="fill:#7CC5E6;" d="M487.628,89.13c-4.142,0-7.5-3.357-7.5-7.5V56.242c0-4.143,3.358-7.5,7.5-7.5s7.5,3.357,7.5,7.5
		V81.63C495.128,85.772,491.771,89.13,487.628,89.13z"/>
	<path style="fill:#7CC5E6;" d="M425.433,363.205c-4.142,0-7.5-3.357-7.5-7.5V335.06c0-4.143,3.358-7.5,7.5-7.5s7.5,3.357,7.5,7.5
		v20.646C432.933,359.848,429.575,363.205,425.433,363.205z"/>
	<path style="fill:#7CC5E6;" d="M108.104,372.27c-4.142,0-7.5-3.357-7.5-7.5v-26.702c0-4.143,3.358-7.5,7.5-7.5s7.5,3.357,7.5,7.5
		v26.702C115.604,368.912,112.246,372.27,108.104,372.27z"/>
	<path style="fill:#7CC5E6;" d="M483.218,406.193c-4.142,0-7.5-3.357-7.5-7.5v-34.51c0-4.143,3.358-7.5,7.5-7.5s7.5,3.357,7.5,7.5
		v34.51C490.718,402.836,487.36,406.193,483.218,406.193z"/>
</g>
<g>
</g>
<g>
</g>
<g>
</g>
<g>
</g>
<g>
</g>
<g>
</g>
<g>
</g>
<g>
</g>
<g>
</g>
<g>
</g>
<g>
</g>
<g>
</g>
<g>
</g>
<g>
</g>
<g>
</g>
</svg>
