<?xml version="1.0" encoding="iso-8859-1"?>
<!-- Generator: Adobe Illustrator 19.0.0, SVG Export Plug-In . SVG Version: 6.00 Build 0)  -->
<svg version="1.1" id="Capa_1" xmlns="http://www.w3.org/2000/svg" xmlns:xlink="http://www.w3.org/1999/xlink" x="0px" y="0px"
	 viewBox="0 0 512.001 512.001" style="enable-background:new 0 0 512.001 512.001;" xml:space="preserve">
<path style="fill:#EDA751;" d="M148.986,439.867c-3.598,0-7.167-1.544-9.639-4.533c-4.4-5.319-3.654-13.199,1.665-17.599
	c20.969-17.344,37.261-17.185,54.502-17.018c8.687,0.085,17.671,0.172,28.837-1.923c17.594-3.302,26.357-21.258,29.302-60.039
	c0.523-6.884,6.537-12.041,13.41-11.518c6.884,0.522,12.04,6.526,11.518,13.41c-1.671,22.007-5.059,38.033-10.663,50.439
	c-8.179,18.103-21.285,28.963-38.955,32.278c-13.572,2.549-24.262,2.443-33.691,2.352c-15.212-0.155-24.395-0.238-38.325,11.282
	C154.615,438.928,151.792,439.867,148.986,439.867z"/>
<path style="fill:#FCD79D;" d="M139.347,435.334c2.472,2.989,6.041,4.533,9.639,4.533c2.806,0,5.629-0.939,7.96-2.868
	c1.861-1.539,3.635-2.865,5.351-4.017c-2.938-8.617-10.68-15.639-15.953-19.353c-1.746,1.249-3.52,2.608-5.332,4.107
	C135.693,422.135,134.947,430.015,139.347,435.334z"/>
<g>
	<path style="fill:#EDA751;" d="M308.838,439.007c-9.241,0-17.542-6.44-19.543-15.842c-3.598-16.908-8.867-37.028-17.763-42.576
		c-9.372-5.846-12.23-18.183-6.385-27.555c5.846-9.373,18.183-12.23,27.555-6.385c20.295,12.659,28.957,36.416,35.718,68.191
		c2.298,10.804-4.597,21.426-15.4,23.725C311.618,438.863,310.216,439.007,308.838,439.007z"/>
	<path style="fill:#EDA751;" d="M168.471,373.606c-5.208,0-10.538-0.575-15.95-1.876c-10.739-2.582-17.353-13.381-14.771-24.121
		c2.582-10.739,13.38-17.351,24.121-14.772c18.465,4.45,41.244-12.124,50.707-21.503c7.845-7.775,20.508-7.719,28.284,0.126
		c7.775,7.845,7.72,20.508-0.126,28.284C234.435,345.99,204.51,373.606,168.471,373.606z"/>
	<path style="fill:#EDA751;" d="M391.036,380.777c-9.241,0-17.542-6.44-19.543-15.842c-3.835-18.026-19.427-23.128-22.338-23.386
		c-11.013-0.859-19.24-10.483-18.38-21.496c0.86-11.011,10.448-19.223,21.499-18.382c18.343,1.433,50.402,17.615,58.344,54.939
		c2.298,10.804-4.597,21.426-15.4,23.725C393.815,380.634,392.414,380.777,391.036,380.777z"/>
	<path style="fill:#EDA751;" d="M339.684,276.328c-8.402,0-16.224-5.337-18.994-13.753c-3.454-10.491,2.252-21.797,12.743-25.25
		c12.655-4.166,37.762-16.924,42.201-35.393c2.582-10.74,13.38-17.353,24.121-14.771c10.739,2.582,17.353,13.382,14.771,24.121
		c-10.302,42.853-58.94,60.862-68.586,64.037C343.865,276.003,341.756,276.328,339.684,276.328z"/>
</g>
<g>
	<path style="opacity:0.2;fill:#A35F00;enable-background:new    ;" d="M267.063,327.238c-6.873-0.523-12.887,4.634-13.41,11.518
		c-1.94,25.55-6.408,42.057-14.26,51.293c7.814,3.69,16.19,6.371,24.945,7.946c1.279-2.174,2.478-4.47,3.579-6.908
		c5.605-12.405,8.992-28.432,10.663-50.439C279.103,333.765,273.947,327.761,267.063,327.238z"/>
	<path style="opacity:0.2;fill:#A35F00;enable-background:new    ;" d="M212.578,311.335c-5.137,5.091-14.2,12.297-24.364,17.115
		c2.267,8.811,5.841,17.395,10.8,25.495c2.202,3.595,4.623,7.008,7.242,10.228c17.732-8.616,30.597-20.578,34.48-24.428
		c7.846-7.776,7.901-20.439,0.126-28.284C233.085,303.616,220.422,303.56,212.578,311.335z"/>
</g>
<ellipse transform="matrix(-0.5222 -0.8528 0.8528 -0.5222 183.5618 701.4326)" style="fill:#FCD690;" cx="288.269" cy="299.296" rx="78.678" ry="84.678"/>
<path style="opacity:0.15;fill:#C17A00;enable-background:new    ;" d="M318.392,372.122c-46.266-1.457-63.232-52.124-69.522-74.973
	l-26.257-42.877c-19.941,26.099-23.649,61.293-6.543,89.227C236.726,377.229,280.605,388.741,318.392,372.122z"/>
<path style="fill:#EDA751;" d="M173.084,209.835c6.869-20.51,4.115-46.192-33.835-63.41c-38.249-17.354-72.71-6.473-94.375,10.577
	c-5.341,4.203-7.689,11.214-5.957,17.787c7.026,26.659,27.981,56.101,68.966,65.285
	C148.547,249.187,166.214,230.345,173.084,209.835z"/>
<path style="fill:#FF91AB;" d="M40.086,178.811c8.013,25.535,28.861,52.54,67.796,61.264c35.247,7.898,53.208-5.208,61.844-22.196
	C120.616,159.066,68.52,167.398,40.086,178.811z"/>
<path style="fill:#EDA751;" d="M260.975,156.012c-21.391-3.203-43.015-17.33-41.102-58.959
	c1.927-41.958,27.284-67.707,52.318-79.255c6.172-2.847,13.484-1.752,18.551,2.778c20.553,18.375,37.253,50.423,26.805,91.105
	C307.18,152.043,282.366,159.215,260.975,156.012z"/>
<path style="fill:#FF91AB;" d="M293.792,23.445c19.103,18.744,33.681,49.589,23.755,88.235
	c-8.986,34.985-28.824,45.027-47.88,44.998C239.601,86.201,270.702,43.584,293.792,23.445z"/>
<path style="fill:#FFDC9C;" d="M350.929,125.532c34.423,56.212-5.542,114.539-73.44,156.119s-138.018,50.667-172.441-5.545
	S97.762,140.618,165.66,99.038S316.506,69.32,350.929,125.532z"/>
<path style="opacity:0.15;fill:#C17A00;enable-background:new    ;" d="M109.639,154.953
	c-23.385,39.122-26.776,84.927-4.591,121.154c29.591,48.322,85.561,48.389,143.822,21.043
	C141.921,298.328,113.605,229.158,109.639,154.953z"/>
<g>
	
		<ellipse transform="matrix(-0.5222 -0.8528 0.8528 -0.5222 52.6119 509.763)" style="fill:#FF91AB;" cx="169.103" cy="240.144" rx="20.786" ry="26.099"/>
	
		<ellipse transform="matrix(0.5222 0.8528 -0.8528 0.5222 280.2121 -167.6965)" style="fill:#FF91AB;" cx="289.769" cy="166.23" rx="20.787" ry="26.099"/>
</g>
<g>
	<path style="fill:#495059;" d="M171.263,222.007c-2.524,0-4.988-1.273-6.403-3.584l-4.813-7.86
		c-2.163-3.532-1.053-8.149,2.479-10.314c3.533-2.161,8.149-1.053,10.314,2.48l4.813,7.86c2.163,3.532,1.053,8.149-2.479,10.313
		C173.95,221.65,172.599,222.007,171.263,222.007z"/>
	<path style="fill:#495059;" d="M265.973,164.008c-2.525,0-4.988-1.273-6.403-3.584l-4.813-7.86
		c-2.163-3.532-1.053-8.149,2.479-10.314c3.533-2.16,8.15-1.053,10.313,2.48l4.814,7.86c2.163,3.532,1.053,8.15-2.48,10.314
		C268.66,163.651,267.309,164.008,265.973,164.008z"/>
	<path style="fill:#495059;" d="M212.176,201.898c-2.713,0-5.439-0.41-8.084-1.241c-3.952-1.241-6.148-5.451-4.907-9.403
		c1.242-3.952,5.453-6.15,9.403-4.907c3.299,1.037,6.869,0.599,9.803-1.198c2.936-1.798,4.948-4.782,5.523-8.188
		c0.689-4.084,4.563-6.834,8.645-6.146c4.084,0.69,6.836,4.56,6.146,8.644c-1.298,7.683-5.847,14.418-12.48,18.481
		C221.952,200.555,217.085,201.898,212.176,201.898z"/>
	<path style="fill:#495059;" d="M136.463,264.786c-1.897,0-3.795-0.715-5.255-2.148c-2.955-2.902-2.999-7.651-0.097-10.606
		c5.29-5.386,19.497-15.615,27.339-19.1c3.784-1.679,8.218,0.025,9.899,3.81c1.682,3.785-0.024,8.218-3.81,9.899
		c-5.97,2.651-18.642,11.741-22.725,15.9C140.346,264.036,138.404,264.786,136.463,264.786z"/>
	<path style="fill:#495059;" d="M159.694,286.827c-0.938,0-1.893-0.178-2.816-0.552c-3.838-1.558-5.688-5.932-4.131-9.77
		c2.838-6.994,12.075-21.865,18-28.076c2.858-2.998,7.606-3.11,10.604-0.25c2.997,2.858,3.109,7.606,0.25,10.604
		c-4.51,4.728-12.763,17.961-14.953,23.361C165.465,285.06,162.658,286.827,159.694,286.827z"/>
	<path style="fill:#495059;" d="M292.926,166.803c-2.185,0-4.351-0.949-5.833-2.779c-2.607-3.219-2.111-7.941,1.107-10.549
		c6.668-5.401,22.237-13.407,29.439-15.67c3.949-1.236,8.161,0.954,9.403,4.907c1.241,3.951-0.955,8.161-4.907,9.403
		c-5.561,1.747-19.416,8.903-24.493,13.016C296.253,166.256,294.584,166.803,292.926,166.803z"/>
	<path style="fill:#495059;" d="M298.557,186.161c-3.23,0-6.213-2.104-7.184-5.357c-1.184-3.97,1.073-8.147,5.042-9.331
		c8.222-2.452,25.673-3.923,33.189-3.271c4.127,0.356,7.183,3.991,6.825,8.118c-0.357,4.126-4.006,7.185-8.118,6.825
		c-5.809-0.5-21.349,0.835-27.606,2.701C299.989,186.06,299.267,186.161,298.557,186.161z"/>
</g>
<path style="fill:#B77866;" d="M416.943,165.825V56.537H312.569v109.288c0,11.313-4.572,22.146-12.677,30.038l-17.596,17.135
	c-16.898,16.456-26.43,39.042-26.43,62.629v208.667c0,15.302,12.405,27.707,27.707,27.707h162.366
	c15.302,0,27.707-12.405,27.707-27.707V275.627c0-23.587-9.532-46.173-26.43-62.629l-17.596-17.135
	C421.515,187.971,416.943,177.138,416.943,165.825z"/>
<path style="fill:#DEE2E5;" d="M420.076,56.537h-110.64c-8.401,0-15.212-6.811-15.212-15.212V29.056
	C294.225,13.009,307.233,0,323.281,0h82.951c16.047,0,29.056,13.009,29.056,29.056v12.269
	C435.288,49.726,428.477,56.537,420.076,56.537z"/>
<path style="fill:#FFFFFF;" d="M420.251,430.311H309.262c-5.247,0-9.501-4.254-9.501-9.501V279.671c0-5.247,4.254-9.501,9.501-9.501
	h110.989c5.247,0,9.501,4.254,9.501,9.501V420.81C429.752,426.057,425.498,430.311,420.251,430.311z"/>
<path style="fill:#F5D141;" d="M332.567,335.812c0-17.777,14.412-32.189,32.189-32.189c17.778,0,32.189,14.412,32.189,32.189v74.164
	h-64.378V335.812z"/>
<path style="fill:#BD4568;" d="M299.761,380.372v40.438c0,5.247,4.254,9.501,9.501,9.501h110.989c5.247,0,9.501-4.254,9.501-9.501
	v-87.751L299.761,380.372z"/>
<path style="fill:#FFFFFF;" d="M382.561,415.13H346.95c-4.143,0-7.5-3.357-7.5-7.5s3.357-7.5,7.5-7.5h35.611
	c4.143,0,7.5,3.357,7.5,7.5C390.061,411.772,386.704,415.13,382.561,415.13z"/>
<path style="opacity:0.1;enable-background:new    ;" d="M255.866,464.129v20.165c0,15.302,12.405,27.707,27.707,27.707h162.366
	c15.302,0,27.707-12.405,27.707-27.707v-20.165L255.866,464.129L255.866,464.129z"/>
<path style="opacity:0.1;enable-background:new    ;" d="M323.48,231.465c15.092-21.715,16.237-63.857,16.241-123.87
	c0-8.724,7.077-15.799,15.801-15.799h61.421V56.537H312.569v109.288c0,11.313-4.572,22.146-12.677,30.038l-17.596,17.135
	c-16.898,16.455-26.43,39.041-26.43,62.628v208.667c0,15.302,12.405,27.707,27.707,27.707h103.525
	C302.821,454.919,286.58,284.559,323.48,231.465z"/>
<g>
</g>
<g>
</g>
<g>
</g>
<g>
</g>
<g>
</g>
<g>
</g>
<g>
</g>
<g>
</g>
<g>
</g>
<g>
</g>
<g>
</g>
<g>
</g>
<g>
</g>
<g>
</g>
<g>
</g>
</svg>
