<?xml version="1.0" encoding="iso-8859-1"?>
<!-- Generator: Adobe Illustrator 19.0.0, SVG Export Plug-In . SVG Version: 6.00 Build 0)  -->
<svg version="1.1" id="Capa_1" xmlns="http://www.w3.org/2000/svg" xmlns:xlink="http://www.w3.org/1999/xlink" x="0px" y="0px"
	 viewBox="0 0 512 512" style="enable-background:new 0 0 512 512;" xml:space="preserve">
<path style="fill:#EDA751;" d="M181.036,446.679c-14.296,0.001-28.893-6.488-41.162-18.737
	c-16.493-16.466-30.88-20.043-38.84-17.904c-5.912,1.59-10.083,6.792-12.397,15.461c-1.943,7.28-9.418,11.606-16.702,9.663
	c-7.28-1.944-11.607-9.421-9.663-16.702c4.87-18.241,16.119-30.591,31.676-34.774c20.139-5.415,43.904,3.678,65.205,24.944
	c9.215,9.2,19.88,12.777,28.524,9.572c9.024-3.347,14.843-13.724,15.965-28.469c0.571-7.514,7.125-13.148,14.64-12.57
	c7.514,0.571,13.141,7.126,12.57,14.64c-1.936,25.446-14.528,44.879-33.685,51.984C191.934,445.728,186.506,446.678,181.036,446.679
	z"/>
<path style="fill:#FCD79D;" d="M88.638,425.499c1.102-4.13,2.631-7.463,4.564-10.003c-8.965-8.822-18.905-10.133-26.01-9.759
	c-2.028,3.837-3.682,8.088-4.919,12.724c-1.943,7.28,2.383,14.758,9.663,16.702C79.22,437.105,86.695,432.779,88.638,425.499z"/>
<g>
	<path style="fill:#EDA751;" d="M238.939,510.988c-0.9,0-1.808-0.055-2.723-0.169c-11.964-1.489-20.456-12.395-18.967-24.359
		c3.908-31.401,2.284-49.215-1.604-67.78c-2.471-11.801,5.091-23.37,16.892-25.842c11.8-2.471,23.371,5.091,25.842,16.892
		c4.675,22.325,6.838,44.834,2.197,82.122C259.2,502.9,249.793,510.988,238.939,510.988z"/>
	<path style="fill:#EDA751;" d="M164.584,372.102c-14.235,0-28.979-4.169-41.601-12.578c-26.485-17.644-35.878-48.752-24.514-81.183
		c3.988-11.379,16.445-17.368,27.822-13.384c11.378,3.987,17.37,16.443,13.383,27.822c-4.789,13.665-2.26,23.896,7.516,30.409
		c10.315,6.871,24.054,6.579,29.449,1.728c8.964-8.062,22.767-7.331,30.83,1.634c8.062,8.964,7.331,22.767-1.633,30.83
		C194.956,367.164,180.071,372.102,164.584,372.102z"/>
</g>
<path style="opacity:0.1;fill:#C18F00;enable-background:new    ;" d="M126.291,264.957c-8.733-3.059-18.087-0.225-23.774,6.396
	c8.279,13.77,19.96,25.734,34.882,35.602c-0.31-4.212,0.44-8.94,2.276-14.177C143.661,281.401,137.669,268.945,126.291,264.957z"/>
<path style="fill:#EDA751;" d="M375.493,372.102c-15.489,0-30.37-4.936-41.251-14.722c-8.965-8.063-9.696-21.866-1.634-30.83
	c8.064-8.965,21.867-9.695,30.83-1.634c5.394,4.853,19.135,5.144,29.449-1.728c9.776-6.512,12.305-16.743,7.516-30.409
	c-3.987-11.378,2.005-23.834,13.383-27.822c11.377-3.987,23.835,2.005,27.822,13.384c11.364,32.431,1.97,63.539-24.514,81.183
	C404.475,367.931,389.727,372.102,375.493,372.102z"/>
<path style="opacity:0.1;fill:#C18F00;enable-background:new    ;" d="M413.787,264.957c-11.378,3.987-17.37,16.443-13.383,27.822
	c1.835,5.237,2.586,9.965,2.276,14.177c14.922-9.868,26.603-21.833,34.882-35.603C431.875,264.731,422.521,261.897,413.787,264.957z
	"/>
<path style="fill:#EDA751;" d="M316.349,512c-1.443,0-2.905-0.143-4.375-0.442c-11.814-2.403-19.444-13.929-17.041-25.744
	c5.391-26.501,1.787-38.627-4.54-56.217c-4.08-11.345,1.809-23.85,13.154-27.931c11.347-4.078,23.85,1.809,27.931,13.154
	c7.846,21.815,13.732,42.868,6.24,79.697C335.613,504.862,326.512,512,316.349,512z"/>
<path style="opacity:0.2;fill:#C18F00;enable-background:new    ;" d="M218.283,377.164c-7.514-0.578-14.068,5.056-14.64,12.57
	c-1.122,14.745-6.941,25.122-15.965,28.469c-6.361,2.359-13.814,1.033-20.98-3.491c7.723,11.392,17.512,21.423,28.862,29.632
	c0.537-0.177,1.074-0.358,1.607-0.556c19.157-7.105,31.75-26.538,33.685-51.984C231.425,384.29,225.797,377.735,218.283,377.164z"/>
<g>
	<path style="opacity:0.2;fill:#A35F00;enable-background:new    ;" d="M389.051,325.348c-9.652,4.571-20.865,3.84-25.612-0.432
		c-8.962-8.061-22.766-7.331-30.83,1.634c-8.062,8.964-7.331,22.767,1.634,30.83c10.881,9.786,25.762,14.722,41.251,14.722
		c5.186,0,10.44-0.561,15.635-1.671c0.941-5.754,1.431-11.647,1.431-17.646C392.56,343.333,391.338,334.146,389.051,325.348z"/>
	<path style="opacity:0.2;fill:#A35F00;enable-background:new    ;" d="M176.639,324.916c-4.749,4.27-15.96,5.001-25.612,0.431
		c-2.287,8.798-3.509,17.985-3.509,27.437c0,5.999,0.49,11.892,1.431,17.646c5.194,1.11,10.448,1.671,15.634,1.671
		c15.487,0,30.371-4.937,41.251-14.722c8.964-8.063,9.695-21.866,1.633-30.83C199.406,317.585,185.602,316.854,176.639,324.916z"/>
	<path style="opacity:0.2;fill:#A35F00;enable-background:new    ;" d="M232.537,392.837c-11.801,2.471-19.363,14.041-16.892,25.842
		c2.528,12.069,4.097,23.826,3.813,39.2c13.337,5.717,27.946,9.24,43.307,10.091c1.301-23.901-0.802-41.129-4.386-58.241
		C255.907,397.928,244.337,390.366,232.537,392.837z"/>
	<path style="opacity:0.2;fill:#A35F00;enable-background:new    ;" d="M340.132,447.375c-1.608-11.879-4.905-22.132-8.654-32.555
		c-4.081-11.345-16.584-17.232-27.931-13.154c-11.345,4.081-17.234,16.586-13.154,27.931c4.422,12.294,7.509,21.924,7.129,35.653
		C313.055,461.885,327.465,455.726,340.132,447.375z"/>
</g>
<ellipse style="fill:#FCD690;" cx="270.041" cy="352.79" rx="100.69" ry="93.56"/>
<path style="opacity:0.15;fill:#C17A00;enable-background:new    ;" d="M255.335,445.352
	c-46.012-30.209-31.752-92.124-23.941-119.201v-59.786c-36.429,14.082-62.045,47.469-62.045,86.419
	C169.349,399.817,206.696,438.739,255.335,445.352z"/>
<path style="fill:#EDA751;" d="M208.763,190.546c19.703-16.533,32.858-44.286,5.067-85.313
	c-28.01-41.351-69.714-51.717-102.271-47.881c-8.027,0.946-14.762,6.597-17.087,14.337c-9.431,31.397-6.465,74.267,29.394,109.032
	C159.444,215.215,189.06,207.079,208.763,190.546z"/>
<path style="fill:#FF91AB;" d="M93.161,76.494c-7.732,30.87-3.36,71.202,30.705,104.227c30.838,29.897,57.191,27.761,76.498,15.897
	C187.086,106.48,129.082,82.578,93.161,76.494z"/>
<path style="fill:#EDA751;" d="M331.315,190.546c-19.703-16.533-32.858-44.286-5.067-85.313
	c28.01-41.351,69.714-51.717,102.271-47.881c8.027,0.946,14.762,6.597,17.087,14.337c9.431,31.397,6.465,74.267-29.394,109.032
	C380.634,215.215,351.018,207.079,331.315,190.546z"/>
<path style="fill:#FF91AB;" d="M446.917,76.494c7.732,30.87,3.36,71.202-30.705,104.227c-30.838,29.897-57.191,27.761-76.498,15.897
	C352.992,106.48,410.996,82.578,446.917,76.494z"/>
<path style="fill:#FFDC9C;" d="M441.462,215.499c0,78.379-76.749,112.709-171.423,112.709S98.616,293.879,98.616,215.499
	S175.365,73.581,270.039,73.581S441.462,137.12,441.462,215.499z"/>
<path style="fill:#B77866;" d="M283.93,290.707L283.93,290.707c7.812-7.073,19.69-7.147,27.59-0.172l8.017,7.078
	c8.956,7.908,22.728,6.612,30.051-2.828l4.933-6.359c4.436-5.718,11.536-8.703,18.725-7.874l0,0
	c18.814,2.171,33.809-15.449,28.659-33.673l-0.18-0.637c-2.085-7.38,0.081-15.308,5.63-20.602l7.649-7.299
	c11.525-10.996,9.339-29.962-4.385-38.048l-13.992-8.244c-5.425-3.196-9.1-8.688-9.985-14.922l-3.137-22.091
	c-1.729-12.179-13.637-20.171-25.563-17.156l-31.252,7.899c-6.297,1.591-12.975,0.135-18.037-3.933l-25.65-20.615
	c-7.572-6.086-18.358-6.086-25.931,0l-25.65,20.615c-5.062,4.068-11.741,5.525-18.037,3.933l-31.252-7.899
	c-11.926-3.014-23.834,4.977-25.563,17.156l-3.137,22.091c-0.885,6.234-4.56,11.726-9.985,14.922l-13.992,8.244
	c-13.724,8.086-15.91,27.052-4.385,38.048l7.649,7.299c5.549,5.294,7.715,13.222,5.63,20.602l-0.18,0.637
	c-5.15,18.225,9.846,35.844,28.659,33.673l0,0c7.189-0.829,14.289,2.156,18.725,7.874l4.933,6.359
	c7.323,9.44,21.096,10.736,30.051,2.828l8.017-7.078c7.899-6.975,19.778-6.901,27.59,0.172l0,0
	C264.033,297.846,276.045,297.846,283.93,290.707z"/>
<path style="opacity:0.15;fill:#C17A00;enable-background:new    ;" d="M178.508,95.493c-48.009,25.15-79.892,69.493-79.892,120.007
	c0,67.378,56.715,102.203,132.778,110.652C122.208,260.932,136.448,173.205,178.508,95.493z"/>
<g>
	<path style="fill:#495059;" d="M204.009,201.648c-4.142,0-7.5-3.358-7.5-7.5v-10.96c0-4.142,3.358-7.5,7.5-7.5s7.5,3.358,7.5,7.5
		v10.96C211.509,198.29,208.151,201.648,204.009,201.648z"/>
	<path style="fill:#495059;" d="M336.068,201.648c-4.142,0-7.5-3.358-7.5-7.5v-10.96c0-4.142,3.358-7.5,7.5-7.5s7.5,3.358,7.5,7.5
		v10.96C343.568,198.29,340.211,201.648,336.068,201.648z"/>
	<path style="fill:#495059;" d="M270.039,210.065c-8.839,0-17.245-3.829-23.063-10.503c-2.721-3.123-2.396-7.86,0.727-10.582
		c3.123-2.721,7.86-2.397,10.582,0.727c2.968,3.406,7.252,5.359,11.754,5.359c4.502,0,8.786-1.953,11.754-5.359
		c2.722-3.123,7.459-3.447,10.582-0.727c3.123,2.722,3.448,7.459,0.727,10.582C287.284,206.236,278.878,210.065,270.039,210.065z"/>
	<path style="fill:#495059;" d="M142.154,223.425c-3.36,0-6.418-2.275-7.27-5.683c-1.005-4.018,1.438-8.09,5.457-9.095
		c8.593-2.148,29.074-3.677,39.054-2.361c4.106,0.542,6.996,4.312,6.453,8.418c-0.542,4.106-4.304,6.995-8.418,6.453
		c-7.827-1.034-26.621,0.334-33.451,2.042C143.368,223.352,142.756,223.425,142.154,223.425z"/>
	<path style="fill:#495059;" d="M152.041,260.201c-2.3,0-4.569-1.054-6.04-3.046c-2.46-3.333-1.752-8.028,1.58-10.488
		c7.127-5.261,25.482-14.481,35.209-17.063c4.006-1.06,8.111,1.321,9.173,5.325c1.063,4.003-1.321,8.11-5.325,9.173
		c-7.63,2.025-24.484,10.451-30.149,14.633C155.149,259.724,153.588,260.201,152.041,260.201z"/>
	<path style="fill:#495059;" d="M397.924,223.425c-0.603,0-1.214-0.073-1.825-0.226c-6.83-1.707-25.624-3.077-33.451-2.042
		c-4.11,0.543-7.875-2.347-8.418-6.453c-0.542-4.106,2.347-7.876,6.453-8.418c9.98-1.317,30.46,0.212,39.054,2.361
		c4.019,1.004,6.462,5.077,5.457,9.095C404.343,221.149,401.285,223.424,397.924,223.425z"/>
	<path style="fill:#495059;" d="M388.037,260.201c-1.547,0-3.108-0.477-4.448-1.466c-5.665-4.182-22.518-12.608-30.149-14.633
		c-4.003-1.063-6.387-5.17-5.325-9.173c1.063-4.004,5.175-6.386,9.173-5.325c9.728,2.582,28.082,11.802,35.209,17.063
		c3.332,2.46,4.04,7.156,1.58,10.488C392.606,259.147,390.336,260.201,388.037,260.201z"/>
</g>
<circle style="fill:#78CFC0;" cx="204.011" cy="185.91" r="29.13"/>
<circle style="opacity:0.5;fill:#FFFFFF;enable-background:new    ;" cx="204.011" cy="185.91" r="19.281"/>
<circle style="fill:#78CFC0;" cx="336.071" cy="185.91" r="29.13"/>
<circle style="opacity:0.5;fill:#FFFFFF;enable-background:new    ;" cx="336.071" cy="185.91" r="19.281"/>
<g>
	<path style="fill:#DEE2E5;" d="M329.159,58.776h-118.24c-12.385,0-22.425-10.04-22.425-22.425l0,0
		c0-11.228,8.304-20.726,19.432-22.224L310.388,0.331c21.803-2.936,41.196,14.02,41.196,36.021l0,0
		C351.584,48.737,341.544,58.776,329.159,58.776z"/>
	<path style="fill:#DEE2E5;" d="M369.582,95.493H170.496c-16.331,0-29.57-13.239-29.57-29.57l0,0c0-16.331,13.239-29.57,29.57-29.57
		h199.086c16.331,0,29.57,13.239,29.57,29.57l0,0C399.153,82.253,385.913,95.493,369.582,95.493z"/>
</g>
<path style="opacity:0.1;enable-background:new    ;" d="M369.582,95.493H170.496c-16.331,0-29.57-13.239-29.57-29.57l0,0
	c0-16.331,13.239-29.57,29.57-29.57h199.086c16.331,0,29.57,13.239,29.57,29.57l0,0C399.153,82.253,385.913,95.493,369.582,95.493z"
	/>
<path style="fill:#DEE2E5;" d="M391.577,137.707H148.501c-16.331,0-29.57-13.239-29.57-29.57l0,0c0-16.331,13.239-29.57,29.57-29.57
	h243.076c16.331,0,29.57,13.239,29.57,29.57l0,0C421.148,124.468,407.909,137.707,391.577,137.707z"/>
<g>
</g>
<g>
</g>
<g>
</g>
<g>
</g>
<g>
</g>
<g>
</g>
<g>
</g>
<g>
</g>
<g>
</g>
<g>
</g>
<g>
</g>
<g>
</g>
<g>
</g>
<g>
</g>
<g>
</g>
</svg>
