<?xml version="1.0" encoding="iso-8859-1"?>
<!-- Generator: Adobe Illustrator 19.0.0, SVG Export Plug-In . SVG Version: 6.00 Build 0)  -->
<svg version="1.1" id="Capa_1" xmlns="http://www.w3.org/2000/svg" xmlns:xlink="http://www.w3.org/1999/xlink" x="0px" y="0px"
	 viewBox="0 0 512 512" style="enable-background:new 0 0 512 512;" xml:space="preserve">
<path style="fill:#BD4568;" d="M339.768,475.04H49.839c-9.317,0-16.869-7.553-16.869-16.869v-47.672
	c0-9.317,7.553-16.869,16.869-16.869h289.929c9.317,0,16.869,7.553,16.869,16.869v47.672
	C356.637,467.487,349.084,475.04,339.768,475.04z"/>
<rect x="78.54" y="393.63" style="opacity:0.1;enable-background:new    ;" width="34.867" height="81.41"/>
<path style="fill:#EDA751;" d="M13.361,414.252c-3.599,0-7.188-1.446-9.821-4.301c-5.002-5.423-4.662-13.874,0.761-18.876
	c28.207-26.022,54.153-29.808,95.739-13.965c22.567,8.593,36.91-6.345,57.846-31.974c4.668-5.714,13.083-6.559,18.797-1.894
	c5.714,4.667,6.561,13.083,1.894,18.797c-15.744,19.271-36.227,44.34-66.054,44.343c-6.825,0-14.135-1.312-21.994-4.305
	c-35.577-13.554-49.766-8.29-68.113,8.635C19.848,413.081,16.6,414.252,13.361,414.252z"/>
<path style="fill:#FCD79D;" d="M12.189,384.341c-2.619,2.051-5.244,4.295-7.888,6.734c-5.423,5.002-5.763,13.453-0.761,18.876
	c2.633,2.855,6.222,4.301,9.821,4.301c3.238,0,6.487-1.171,9.055-3.54c2.543-2.346,5.006-4.459,7.457-6.338
	C26.667,395.359,19.638,387.442,12.189,384.341z"/>
<path style="opacity:0.2;fill:#C18F00;enable-background:new    ;" d="M176.682,343.242c-5.714-4.665-14.129-3.82-18.797,1.894
	c-17.612,21.56-30.559,35.55-47.661,34.335c5.055,8.878,11.345,17.043,18.659,24.286c21.244-6.913,37.008-26.192,49.692-41.718
	C183.243,356.325,182.396,347.909,176.682,343.242z"/>
<ellipse style="fill:#FCD690;" cx="210.82" cy="326.93" rx="98.58" ry="91.6"/>
<path style="opacity:0.15;fill:#C17A00;enable-background:new    ;" d="M196.421,417.558
	c-45.049-29.576-31.087-90.194-23.44-116.704V242.32c-35.666,13.788-60.745,46.475-60.745,84.609
	C112.235,372.976,148.8,411.082,196.421,417.558z"/>
<path style="fill:#EDA751;" d="M150.824,168.088c19.29-16.186,32.169-43.358,4.961-83.526
	c-27.424-40.485-68.254-50.633-100.13-46.878c-7.859,0.926-14.452,6.459-16.729,14.037c-9.233,30.739-6.329,72.711,28.779,106.748
	C102.538,192.24,131.534,184.275,150.824,168.088z"/>
<path style="fill:#FF91AB;" d="M37.643,56.425c-7.57,30.224-3.29,69.711,30.061,102.044c30.192,29.271,55.993,27.18,74.896,15.564
	C129.6,85.783,72.812,62.381,37.643,56.425z"/>
<path style="fill:#EDA751;" d="M270.809,168.088c-19.29-16.186-32.169-43.358-4.961-83.526
	c27.424-40.485,68.253-50.633,100.129-46.878c7.859,0.926,14.452,6.459,16.729,14.037c9.233,30.739,6.329,72.711-28.779,106.748
	C319.095,192.24,290.099,184.275,270.809,168.088z"/>
<path style="fill:#FF91AB;" d="M383.989,56.425c7.57,30.224,3.29,69.711-30.062,102.044c-30.192,29.271-55.993,27.18-74.895,15.564
	C292.032,85.783,348.821,62.381,383.989,56.425z"/>
<path style="fill:#FFDC9C;" d="M378.649,192.519c0,76.738-75.141,110.348-167.833,110.348S42.984,269.257,42.984,192.519
	S118.125,53.573,210.817,53.573S378.649,115.781,378.649,192.519z"/>
<path style="opacity:0.15;fill:#C17A00;enable-background:new    ;" d="M121.202,75.025
	c-47.003,24.623-78.218,68.038-78.218,117.493c0,65.966,55.527,100.062,129.997,108.335C66.082,237,80.023,151.11,121.202,75.025z"
	/>
<g>
	<ellipse style="fill:#FF91AB;" cx="144.12" cy="195.53" rx="30.388" ry="24.2"/>
	<ellipse style="fill:#FF91AB;" cx="308.83" cy="195.53" rx="30.388" ry="24.2"/>
</g>
<g>
	<path style="fill:#495059;" d="M161.832,178.89c-4.142,0-7.5-3.357-7.5-7.5v-10.731c0-4.143,3.358-7.5,7.5-7.5
		c4.143,0,7.5,3.357,7.5,7.5v10.731C169.332,175.532,165.975,178.89,161.832,178.89z"/>
	<path style="fill:#495059;" d="M291.125,178.89c-4.143,0-7.5-3.357-7.5-7.5v-10.731c0-4.143,3.357-7.5,7.5-7.5s7.5,3.357,7.5,7.5
		v10.731C298.625,175.532,295.268,178.89,291.125,178.89z"/>
	<path style="fill:#495059;" d="M226.479,187.13c-8.699,0-16.972-3.768-22.697-10.337c-2.722-3.122-2.398-7.859,0.725-10.581
		c3.122-2.723,7.859-2.397,10.581,0.726c2.877,3.3,7.028,5.192,11.391,5.192c4.362,0,8.514-1.893,11.391-5.192
		c2.721-3.124,7.459-3.448,10.581-0.726c3.123,2.722,3.447,7.459,0.726,10.581C243.45,183.362,235.178,187.13,226.479,187.13z"/>
	<path style="fill:#495059;" d="M101.272,200.21c-3.36,0-6.418-2.275-7.271-5.683c-1.004-4.018,1.438-8.091,5.457-9.096
		c8.427-2.107,28.509-3.607,38.295-2.313c4.106,0.543,6.996,4.311,6.453,8.418c-0.543,4.108-4.325,6.993-8.418,6.453
		c-7.65-1.013-26.017,0.326-32.691,1.995C102.486,200.137,101.874,200.21,101.272,200.21z"/>
	<path style="fill:#495059;" d="M110.952,236.216c-2.3,0-4.568-1.053-6.039-3.045c-2.461-3.333-1.754-8.028,1.578-10.488
		c6.986-5.158,24.983-14.199,34.524-16.732c4.003-1.06,8.111,1.321,9.174,5.324c1.063,4.004-1.321,8.11-5.324,9.174
		c-7.46,1.98-23.93,10.215-29.464,14.301C114.061,235.739,112.5,236.216,110.952,236.216z"/>
	<path style="fill:#495059;" d="M351.686,200.21c-0.603,0-1.214-0.073-1.825-0.226c-6.675-1.669-25.038-3.009-32.691-1.995
		c-4.096,0.539-7.875-2.345-8.418-6.453c-0.543-4.106,2.347-7.875,6.453-8.418c9.785-1.292,29.869,0.207,38.295,2.313
		c4.019,1.005,6.461,5.077,5.457,9.096C358.104,197.935,355.046,200.21,351.686,200.21z"/>
	<path style="fill:#495059;" d="M342.005,236.216c-1.548,0-3.108-0.477-4.449-1.467c-5.534-4.086-22.004-12.32-29.464-14.301
		c-4.003-1.063-6.387-5.17-5.324-9.174s5.17-6.386,9.174-5.324c9.541,2.533,27.538,11.574,34.524,16.732
		c3.332,2.46,4.039,7.155,1.578,10.488C346.574,235.162,344.304,236.216,342.005,236.216z"/>
</g>
<path id="SVGCleanerId_0" style="fill:#DEE2E5;" d="M348.836,262.06c-3.476-29.073-119.819-48.635-157.892,0v165.465h157.892V262.06
	z"/>
<g>
	<path id="SVGCleanerId_0_1_" style="fill:#DEE2E5;" d="M348.836,262.06c-3.476-29.073-119.819-48.635-157.892,0v165.465h157.892
		V262.06z"/>
</g>
<path style="fill:#DEE2E5;" d="M348.837,262.06c3.01-29.074,103.761-48.635,136.731,0v165.465H348.837V262.06z"/>
<g>
	<path style="fill:#78CFC0;" d="M316.196,475.04H185.674c-12.152,0-22.003-9.851-22.003-22.003V284.063
		c0-12.152,9.851-22.003,22.003-22.003h130.521v212.98H316.196z"/>
	<path style="fill:#78CFC0;" d="M489.997,475.04h-108.52V262.06h108.52c12.152,0,22.003,9.851,22.003,22.003v168.975
		C512,465.189,502.149,475.04,489.997,475.04z"/>
	<rect x="316.2" y="262.06" style="fill:#78CFC0;" width="65.28" height="212.98"/>
</g>
<rect x="316.2" y="262.06" style="opacity:0.1;enable-background:new    ;" width="65.28" height="212.98"/>
<path style="fill:#FFFFFF;" d="M213.801,443.932h52.266c3.192,0,5.779-2.587,5.779-5.779v-18.11c0-3.192-2.587-5.779-5.779-5.779
	h-52.266c-3.192,0-5.779,2.587-5.779,5.779v18.11C208.021,441.344,210.609,443.932,213.801,443.932z"/>
<path style="fill:#EDA751;" d="M176.193,379.562c-28.1,3.27-60.745-8.902-77.129-41.917c-5.247-10.574-0.929-23.399,9.645-28.647
	c10.572-5.249,23.399-0.93,28.647,9.645c9.68,19.509,29.91,20.762,40.386,16.969c11.108-4.015,23.355,1.723,27.373,12.821
	c4.018,11.1-1.722,23.355-12.821,27.373C187.219,377.643,181.793,378.91,176.193,379.562z"/>
<g>
	<path style="fill:#F5D141;" d="M348.836,398.034c-4.142,0-7.5-3.357-7.5-7.5v-66.23c0-4.143,3.358-7.5,7.5-7.5
		c4.143,0,7.5,3.357,7.5,7.5v66.23C356.336,394.677,352.979,398.034,348.836,398.034z"/>
	<path style="fill:#F5D141;" d="M348.836,446.883c-4.142,0-7.5-3.357-7.5-7.5v-15.439c0-4.143,3.358-7.5,7.5-7.5
		c4.143,0,7.5,3.357,7.5,7.5v15.439C356.336,443.525,352.979,446.883,348.836,446.883z"/>
</g>
<g style="opacity:0.1;">
	<path d="M479.251,446.883h-65.024c-4.143,0-7.5-3.357-7.5-7.5s3.357-7.5,7.5-7.5h65.024c4.143,0,7.5,3.357,7.5,7.5
		S483.394,446.883,479.251,446.883z"/>
	<path d="M466.224,421.752h-38.97c-4.143,0-7.5-3.357-7.5-7.5s3.357-7.5,7.5-7.5h38.97c4.143,0,7.5,3.357,7.5,7.5
		C473.724,418.395,470.366,421.752,466.224,421.752z"/>
</g>
<g>
</g>
<g>
</g>
<g>
</g>
<g>
</g>
<g>
</g>
<g>
</g>
<g>
</g>
<g>
</g>
<g>
</g>
<g>
</g>
<g>
</g>
<g>
</g>
<g>
</g>
<g>
</g>
<g>
</g>
</svg>
