<?xml version="1.0" encoding="iso-8859-1"?>
<!-- Generator: Adobe Illustrator 19.0.0, SVG Export Plug-In . SVG Version: 6.00 Build 0)  -->
<svg version="1.1" id="Capa_1" xmlns="http://www.w3.org/2000/svg" xmlns:xlink="http://www.w3.org/1999/xlink" x="0px" y="0px"
	 viewBox="0 0 512 512" style="enable-background:new 0 0 512 512;" xml:space="preserve">
<g>
	<path style="fill:#EDA751;" d="M119.1,360.391c-26.739,0-61.782-5.902-86.454-31.9c-9.543-10.056-9.128-25.944,0.928-35.487
		s25.944-9.129,35.486,0.928c8.116,8.551,34.496,22.425,76.248,13.733c13.569-2.824,26.865,5.886,29.691,19.457
		c2.826,13.572-5.884,26.866-19.457,29.692C150.278,357.911,136.432,360.391,119.1,360.391z"/>
	<path style="fill:#EDA751;" d="M350.273,438.872c-1.739,0-3.485-0.096-5.235-0.29c-20.188-2.238-38.785-16.81-52.366-41.033
		c-4.237-7.557-1.546-17.119,6.012-21.356c7.56-4.24,17.12-1.546,21.357,6.011c8.25,14.714,18.887,24.131,28.455,25.192
		c6.387,0.707,12.759-2.402,18.913-9.25c28.219-31.415,76.139-38.455,111.463-16.378c7.348,4.592,9.581,14.271,4.988,21.619
		c-4.592,7.347-14.269,9.582-21.618,4.989c-19.468-12.168-51.534-11.479-71.492,10.738
		C379.191,431.982,364.985,438.872,350.273,438.872z"/>
</g>
<path style="fill:#FCD79D;" d="M462.243,408.375c7.349,4.593,17.026,2.358,21.618-4.989c4.592-7.348,2.359-17.027-4.989-21.619
	c-5.08-3.175-10.426-5.728-15.931-7.712c-8.122,6.689-12.336,19.841-13.666,28.651C453.967,404.041,458.358,405.947,462.243,408.375
	z"/>
<g>
	<path style="fill:#EDA751;" d="M308.982,512c-6.519,0-13.031-2.523-17.95-7.553c-18.99-19.424-29.282-38.704-31.464-58.945
		c-2.209-20.495,4.705-37.204,10.097-47.988c6.198-12.399,21.277-17.426,33.677-11.226c12.4,6.2,17.425,21.277,11.226,33.677
		c-5.698,11.395-12.155,24.31,12.361,49.385c9.691,9.913,9.512,25.805-0.401,35.497C321.647,509.62,315.311,512,308.982,512z"/>
	<path style="fill:#EDA751;" d="M167.448,512c-10.34,0-20.023-6.438-23.666-16.741c-16.983-48.038,8.164-88.766,28.004-103.154
		c11.225-8.138,26.919-5.639,35.056,5.583c8.138,11.223,5.639,26.918-5.583,35.057c-3.448,2.5-19.077,20.514-10.145,45.78
		c4.621,13.07-2.229,27.412-15.3,32.033C173.048,511.536,170.224,512,167.448,512z"/>
</g>
<g>
	<path style="opacity:0.2;fill:#A35F00;enable-background:new    ;" d="M145.308,307.665c-13.638,2.839-25.624,3.261-35.88,2.257
		c-2.583,9.815-3.964,20.071-3.964,30.625c0,6.603,0.537,13.09,1.571,19.425c4.156,0.29,8.199,0.418,12.065,0.418
		c17.332,0,31.178-2.481,36.442-3.577c13.573-2.826,22.284-16.12,19.457-29.692C172.173,313.551,158.877,304.842,145.308,307.665z"
		/>
	<path style="opacity:0.2;fill:#A35F00;enable-background:new    ;" d="M171.786,392.104c-9.704,7.037-20.674,20.378-27.366,37.79
		c12.533,11.99,27.556,21.673,44.279,28.293c1.69-14.239,10.135-23.684,12.56-25.443c11.222-8.139,13.721-23.834,5.583-35.057
		C198.705,386.466,183.01,383.966,171.786,392.104z"/>
	<path style="opacity:0.2;fill:#A35F00;enable-background:new    ;" d="M303.343,386.288c-12.4-6.2-27.479-1.173-33.677,11.226
		c-5.392,10.785-12.306,27.493-10.097,47.988c0.755,7.001,2.504,13.885,5.223,20.702c17.095-2.821,33.098-8.658,47.365-16.903
		c-5.823-12.849-1.528-21.458,2.412-29.336C320.768,407.566,315.743,392.488,303.343,386.288z"/>
	<path style="opacity:0.2;fill:#A35F00;enable-background:new    ;" d="M348.496,407.396c-9.568-1.061-20.205-10.478-28.455-25.192
		c-4.237-7.557-13.797-10.251-21.357-6.011c-7.557,4.237-10.249,13.799-6.012,21.356c10.599,18.902,24.251,31.927,39.331,37.8
		c10.162-8.599,18.935-18.616,25.971-29.716C354.835,407.155,351.667,407.747,348.496,407.396z"/>
</g>
<ellipse style="fill:#FCD690;" cx="241.24" cy="340.55" rx="115.78" ry="107.58"/>
<path style="opacity:0.15;fill:#C17A00;enable-background:new    ;" d="M224.334,446.985
	c-52.906-34.735-36.51-105.927-27.529-137.061V241.18c-41.887,16.192-71.341,54.581-71.341,99.367
	C125.464,394.627,168.407,439.38,224.334,446.985z"/>
<path style="fill:#EDA751;" d="M170.783,154.001c22.655-19.01,37.781-50.921,5.826-98.096C144.402,8.359,96.451-3.56,59.015,0.851
	c-9.229,1.087-16.973,7.585-19.647,16.486c-10.844,36.101-7.433,85.394,33.798,125.368
	C114.075,182.366,148.129,173.011,170.783,154.001z"/>
<path style="fill:#FF91AB;" d="M37.861,22.86c-8.89,35.495-3.863,81.87,35.305,119.844c35.458,34.377,65.76,31.92,87.959,18.279
	C145.858,57.339,79.164,29.855,37.861,22.86z"/>
<path style="fill:#EDA751;" d="M311.698,154.001c-22.655-19.01-37.781-50.921-5.826-98.096C338.079,8.359,386.03-3.56,423.466,0.851
	c9.229,1.087,16.973,7.585,19.647,16.486c10.844,36.101,7.433,85.394-33.798,125.368
	C368.406,182.366,334.352,173.011,311.698,154.001z"/>
<path style="fill:#FF91AB;" d="M444.62,22.86c8.89,35.495,3.863,81.87-35.305,119.844c-35.458,34.377-65.76,31.92-87.959,18.279
	C336.623,57.339,403.317,29.855,444.62,22.86z"/>
<path style="fill:#FFDC9C;" d="M438.348,182.693c0,90.123-88.248,129.596-197.107,129.596S44.133,272.816,44.133,182.693
	S132.381,19.511,241.241,19.511S438.348,92.57,438.348,182.693z"/>
<path style="opacity:0.15;fill:#C17A00;enable-background:new    ;" d="M135.995,44.705
	c-55.202,28.918-91.862,79.906-91.862,137.988c0,77.473,65.213,117.516,152.672,127.231
	C71.26,234.932,87.633,134.061,135.995,44.705z"/>
<g>
	<ellipse style="fill:#FF91AB;" cx="131.52" cy="186.49" rx="35.689" ry="28.421"/>
	<ellipse style="fill:#FF91AB;" cx="324.96" cy="186.49" rx="35.689" ry="28.421"/>
</g>
<g>
	<path style="fill:#495059;" d="M228.24,175.32c-9.839,0-19.195-4.261-25.671-11.691c-2.722-3.123-2.396-7.86,0.727-10.582
		c3.122-2.721,7.859-2.395,10.582,0.727c3.626,4.161,8.86,6.547,14.362,6.547c5.503,0,10.737-2.386,14.362-6.546
		c2.721-3.125,7.458-3.449,10.581-0.728c3.123,2.721,3.449,7.459,0.727,10.582C247.437,171.059,238.08,175.32,228.24,175.32z"/>
	<path style="fill:#495059;" d="M81.195,190.682c-3.36,0-6.418-2.275-7.271-5.683c-1.004-4.018,1.438-8.09,5.457-9.095
		c9.79-2.447,33.121-4.191,44.485-2.69c4.106,0.543,6.995,4.311,6.453,8.418c-0.544,4.108-4.317,6.995-8.418,6.453
		c-9.285-1.227-30.765,0.342-38.882,2.371C82.41,190.608,81.798,190.682,81.195,190.682z"/>
	<path style="fill:#495059;" d="M92.561,232.968c-2.3,0-4.569-1.054-6.04-3.046c-2.46-3.333-1.752-8.029,1.58-10.488
		c8.12-5.994,29.027-16.496,40.104-19.437c4.005-1.062,8.111,1.322,9.174,5.324c1.063,4.004-1.321,8.111-5.324,9.174
		c-9.052,2.403-28.314,12.038-35.046,17.007C95.67,232.491,94.108,232.968,92.561,232.968z"/>
	<path style="fill:#495059;" d="M375.286,190.682c-0.603,0-1.214-0.073-1.824-0.226c-8.119-2.029-29.596-3.597-38.884-2.371
		c-4.095,0.542-7.875-2.346-8.418-6.453c-0.542-4.106,2.347-7.875,6.453-8.418c11.364-1.502,34.695,0.243,44.485,2.69
		c4.019,1.005,6.462,5.077,5.458,9.095C381.704,188.406,378.646,190.681,375.286,190.682z"/>
	<path style="fill:#495059;" d="M363.92,232.968c-1.547,0-3.107-0.477-4.448-1.466c-6.732-4.969-25.995-14.605-35.047-17.007
		c-4.003-1.063-6.387-5.17-5.324-9.173s5.165-6.387,9.174-5.325c11.078,2.941,31.984,13.443,40.105,19.437
		c3.332,2.46,4.04,7.155,1.58,10.488C368.489,231.914,366.22,232.968,363.92,232.968z"/>
</g>
<g>
	<path style="fill:#BD4568;" d="M152.318,113.621c-8.764-8.764-22.909-8.867-31.799-0.31c-9.174,8.83-9.003,23.739,0.001,32.742
		l21.594,21.594c5.635,5.635,14.772,5.635,20.408,0l21.594-21.594c9.004-9.004,9.175-23.913,0.001-32.743
		C175.226,104.754,161.081,104.857,152.318,113.621z"/>
	<path style="fill:#BD4568;" d="M241.241,341.999c-11.84-11.84-30.949-11.979-42.96-0.419c-12.394,11.929-12.162,32.07,0.002,44.234
		l29.173,29.173c7.613,7.614,19.957,7.614,27.571,0l29.173-29.173c12.164-12.164,12.396-32.305,0.001-44.234
		C272.189,330.02,253.08,330.16,241.241,341.999z"/>
	<path style="fill:#BD4568;" d="M304.163,113.621c8.764-8.764,22.909-8.867,31.799-0.31c9.174,8.83,9.003,23.739-0.001,32.742
		l-21.594,21.594c-5.636,5.635-14.772,5.635-20.408,0l-21.594-21.594c-9.004-9.004-9.176-23.913-0.001-32.743
		C281.255,104.754,295.4,104.857,304.163,113.621z"/>
</g>
<path style="fill:#EDA751;" d="M309.389,409.439c-13.311,0.001-26.86-4.067-39.125-12.254c-11.53-7.696-14.638-23.283-6.942-34.813
	c7.695-11.53,23.283-14.641,34.814-6.943c10.077,6.725,17.25,3.093,20.629,0.329c4.594-3.759,8.217-10.908,4.61-19.7
	c-5.263-12.825,0.869-27.488,13.694-32.751c12.829-5.262,27.49,0.87,32.751,13.695c11.363,27.694,3.622,58.882-19.261,77.608
	C338.504,404.474,324.093,409.438,309.389,409.439z"/>
<g>
</g>
<g>
</g>
<g>
</g>
<g>
</g>
<g>
</g>
<g>
</g>
<g>
</g>
<g>
</g>
<g>
</g>
<g>
</g>
<g>
</g>
<g>
</g>
<g>
</g>
<g>
</g>
<g>
</g>
</svg>
