<?xml version="1.0" encoding="iso-8859-1"?>
<!-- Generator: Adobe Illustrator 19.0.0, SVG Export Plug-In . SVG Version: 6.00 Build 0)  -->
<svg version="1.1" id="Capa_1" xmlns="http://www.w3.org/2000/svg" xmlns:xlink="http://www.w3.org/1999/xlink" x="0px" y="0px"
	 viewBox="0 0 512 512" style="enable-background:new 0 0 512 512;" xml:space="preserve">
<path style="fill:#EDA751;" d="M63.206,430.2c-1.116,0-2.249-0.137-3.38-0.424c-7.339-1.86-11.78-9.319-9.919-16.657
	c3.866-15.247,14.469-28.701,29.089-36.913c12.353-6.94,33.124-13.35,61.931-4.469c23.443,7.219,33.824-5.541,53.249-32.768l0.714-1
	c4.399-6.163,12.96-7.591,19.123-3.194c6.162,4.399,7.592,12.96,3.194,19.122l-0.712,0.997
	c-9.793,13.726-19.043,26.689-31.488,35.613c-15.427,11.062-32.487,13.495-52.155,7.432c-19.513-6.012-32.756-2.137-40.43,2.173
	c-8.102,4.551-13.912,11.748-15.94,19.747C74.91,426.065,69.33,430.2,63.206,430.2z"/>
<path style="fill:#FCD79D;" d="M53.9,402.348c-1.702,3.452-3.05,7.057-3.992,10.771c-1.861,7.339,2.58,14.797,9.919,16.657
	c1.131,0.287,2.264,0.424,3.38,0.424c6.124,0,11.704-4.135,13.278-10.342c0.642-2.534,1.667-4.987,3.021-7.301
	C72.573,406.187,62.339,403.095,53.9,402.348z"/>
<g>
	<path style="fill:#EDA751;" d="M294.676,486.284c-0.431,0-0.863-0.013-1.298-0.039c-12.094-0.706-21.325-11.082-20.619-23.174
		c2.081-35.661,1.499-55.308-2.076-70.078c-2.85-11.773,4.384-23.628,16.158-26.478c11.767-2.854,23.628,4.384,26.478,16.158
		c5.4,22.306,5.198,49.294,3.232,82.954C315.872,477.285,306.204,486.284,294.676,486.284z"/>
	<path style="fill:#EDA751;" d="M217.324,486.284c-11.529,0-21.196-8.999-21.876-20.657c-1.965-33.659-2.167-60.648,3.231-82.954
		c2.849-11.773,14.703-19.01,26.479-16.158c11.774,2.85,19.009,14.704,16.159,26.478c-3.575,14.77-4.157,34.417-2.076,70.078
		c0.706,12.093-8.525,22.469-20.618,23.174C218.188,486.271,217.754,486.284,217.324,486.284z"/>
	<path style="fill:#EDA751;" d="M381.638,346.493c-25.821,0-48.296-8.049-54.813-10.621c-11.268-4.448-16.796-17.187-12.35-28.455
		c4.447-11.267,17.184-16.794,28.455-12.35c15.157,5.981,48.811,13.574,67.696-0.512c9.711-7.245,23.453-5.244,30.696,4.465
		c7.244,9.71,5.245,23.453-4.465,30.696C419.742,342.485,399.856,346.493,381.638,346.493z"/>
	<path style="fill:#EDA751;" d="M130.362,346.493c-18.221,0-38.102-4.007-55.22-16.777c-9.71-7.243-11.709-20.986-4.465-30.696
		s20.987-11.709,30.696-4.465c8.257,6.159,33.032,14.193,67.696,0.512c11.268-4.448,24.008,1.082,28.455,12.35
		s-1.082,24.007-12.35,28.455C178.658,338.444,156.179,346.493,130.362,346.493z"/>
</g>
<g>
	<path style="opacity:0.2;fill:#A35F00;enable-background:new    ;" d="M169.069,295.067c-12.451,4.914-23.616,7.017-33.208,7.421
		c-1.328,6.748-2.029,13.7-2.029,20.804c0,7.896,0.859,15.608,2.491,23.056c23.257-1.08,42.842-8.105,48.851-10.476
		c11.268-4.448,16.797-17.187,12.35-28.455C193.077,296.149,180.337,290.619,169.069,295.067z"/>
	<path style="opacity:0.2;fill:#A35F00;enable-background:new    ;" d="M214.015,334.774c-6.162-4.397-14.723-2.969-19.123,3.194
		l-0.714,1c-17.971,25.188-28.209,37.98-48.201,34.043c5.05,9.765,11.539,18.755,19.206,26.723
		c6.924-1.646,13.515-4.702,19.826-9.228c12.445-8.924,21.695-21.887,31.488-35.613l0.712-0.997
		C221.607,347.735,220.177,339.173,214.015,334.774z"/>
	<path style="opacity:0.2;fill:#A35F00;enable-background:new    ;" d="M225.158,366.514c-11.776-2.852-23.629,4.385-26.479,16.158
		c-2.83,11.692-4.111,24.686-4.416,39.237c13.24,7.247,28.064,12.197,43.855,14.277c-0.381-19.594,0.644-32.641,3.198-43.194
		C244.167,381.218,236.932,369.365,225.158,366.514z"/>
	<path style="opacity:0.2;fill:#A35F00;enable-background:new    ;" d="M317.716,420.807c-0.346-14.108-1.637-26.737-4.396-38.135
		c-2.85-11.774-14.711-19.012-26.478-16.158c-11.775,2.85-19.008,14.705-16.158,26.478c2.542,10.503,3.569,23.479,3.203,42.918
		C289.714,433.57,304.535,428.34,317.716,420.807z"/>
	<path style="opacity:0.2;fill:#A35F00;enable-background:new    ;" d="M314.475,307.417c-4.447,11.268,1.082,24.007,12.35,28.455
		c5.839,2.305,24.489,9,46.875,10.37c1.617-7.416,2.467-15.092,2.467-22.951c0-7.195-0.72-14.233-2.081-21.062
		c-12.201-1.017-23.836-4.274-31.155-7.163C331.66,290.623,318.922,296.15,314.475,307.417z"/>
</g>
<ellipse style="fill:#FCD690;" cx="256" cy="323.29" rx="101.17" ry="94.01"/>
<path style="opacity:0.15;fill:#C17A00;enable-background:new    ;" d="M241.227,416.298
	c-46.23-30.352-31.903-92.561-24.055-119.766v-60.069c-36.602,14.149-62.339,47.694-62.339,86.829
	C154.833,370.547,192.357,409.653,241.227,416.298z"/>
<path style="fill:#EDA751;" d="M194.433,160.285c19.796-16.611,33.013-44.496,5.091-85.718
	C171.381,33.02,129.48,22.606,96.768,26.459c-8.065,0.95-14.832,6.628-17.168,14.405c-9.476,31.546-6.495,74.618,29.534,109.549
	C144.881,185.07,174.637,176.896,194.433,160.285z"/>
<path style="fill:#FF91AB;" d="M78.284,45.692c-7.768,31.016-3.376,71.539,30.85,104.722c30.984,30.039,57.462,27.893,76.86,15.973
	C172.653,75.82,114.375,51.804,78.284,45.692z"/>
<path style="fill:#EDA751;" d="M317.566,160.285c-19.796-16.611-33.013-44.496-5.091-85.718
	c28.143-41.547,70.044-51.962,102.756-48.108c8.065,0.95,14.832,6.628,17.168,14.405c9.476,31.546,6.495,74.618-29.534,109.549
	C367.119,185.07,337.363,176.896,317.566,160.285z"/>
<path style="fill:#FF91AB;" d="M433.716,45.692c7.768,31.016,3.376,71.539-30.85,104.722c-30.984,30.039-57.462,27.893-76.86,15.973
	C339.347,75.82,397.625,51.804,433.716,45.692z"/>
<path style="fill:#FFDC9C;" d="M428.236,185.356c0,78.751-77.112,113.243-172.236,113.243S83.764,264.107,83.764,185.356
	S160.877,42.765,256,42.765S428.236,106.605,428.236,185.356z"/>
<path style="opacity:0.15;fill:#C17A00;enable-background:new    ;" d="M164.035,64.78c-48.237,25.269-80.27,69.823-80.27,120.576
	c0,67.697,56.984,102.687,133.407,111.177C107.468,231.004,121.775,142.861,164.035,64.78z"/>
<g>
	<path style="fill:#495059;" d="M127.509,193.283c-3.361,0-6.419-2.275-7.271-5.684c-1.004-4.019,1.439-8.09,5.458-9.095
		c8.634-2.158,29.209-3.692,39.226-2.37c4.106,0.543,6.995,4.313,6.452,8.419c-0.543,4.105-4.313,7-8.418,6.452
		c-7.866-1.04-26.754,0.336-33.623,2.052C128.723,193.21,128.111,193.283,127.509,193.283z"/>
	<path style="fill:#495059;" d="M137.442,230.234c-2.3,0-4.569-1.055-6.04-3.047c-2.46-3.332-1.752-8.028,1.58-10.488
		c7.158-5.284,25.593-14.544,35.364-17.138c4.005-1.061,8.111,1.321,9.173,5.325c1.063,4.003-1.321,8.11-5.325,9.173
		c-7.67,2.036-24.61,10.505-30.304,14.708C140.551,229.757,138.99,230.234,137.442,230.234z"/>
	<path style="fill:#495059;" d="M384.491,193.283c-0.603,0-1.214-0.073-1.824-0.226c-6.869-1.717-25.758-3.093-33.622-2.052
		c-4.106,0.535-7.876-2.346-8.419-6.452s2.346-7.876,6.452-8.419c10.022-1.325,30.592,0.212,39.226,2.37
		c4.019,1.005,6.462,5.076,5.458,9.095C390.91,191.008,387.852,193.283,384.491,193.283z"/>
	<path style="fill:#495059;" d="M374.558,230.234c-1.548,0-3.108-0.478-4.448-1.467c-5.694-4.203-22.634-12.672-30.304-14.708
		c-4.004-1.063-6.388-5.17-5.325-9.173c1.063-4.004,5.171-6.386,9.173-5.325c9.771,2.594,28.206,11.854,35.364,17.138
		c3.333,2.46,4.04,7.156,1.58,10.488C379.127,229.18,376.857,230.234,374.558,230.234z"/>
</g>
<g>
	<path style="fill:#7694E4;" d="M200.72,154.337c-44.174-74.88-165.444-52.443-187.341,49.199
		c-2.461,11.423,1.19,23.309,9.661,31.358l0,0c16.714,15.881,43.934,10.423,53.566-10.524
		c19.032-41.389,56.897-83.483,102.574-70.339L200.72,154.337z"/>
	<path style="fill:#7694E4;" d="M311.28,154.337c44.174-74.88,165.444-52.443,187.341,49.199c2.461,11.423-1.19,23.309-9.661,31.358
		l0,0c-16.714,15.881-43.934,10.423-53.566-10.524c-19.032-41.389-56.897-83.483-102.574-70.339L311.28,154.337z"/>
</g>
<g>
	<path style="fill:#495059;" d="M207.151,166.994c-2.093,0-4.174-0.871-5.658-2.573c-2.988-3.429-7.302-5.395-11.837-5.395
		c-4.534,0-8.848,1.967-11.836,5.395c-2.721,3.124-7.458,3.448-10.581,0.728c-3.123-2.721-3.448-7.458-0.728-10.581
		c5.838-6.7,14.274-10.542,23.146-10.542s17.308,3.842,23.145,10.542c2.721,3.123,2.396,7.86-0.727,10.581
		C210.654,166.387,208.899,166.994,207.151,166.994z"/>
	<path style="fill:#495059;" d="M339.837,166.994c-2.093,0-4.175-0.871-5.657-2.573c-2.988-3.429-7.303-5.395-11.837-5.395
		s-8.849,1.967-11.837,5.395c-2.721,3.124-7.459,3.448-10.581,0.728c-3.123-2.721-3.449-7.458-0.728-10.581
		c5.837-6.7,14.273-10.542,23.146-10.542c8.872,0,17.309,3.842,23.146,10.542c2.722,3.123,2.395,7.86-0.728,10.581
		C343.34,166.387,341.585,166.994,339.837,166.994z"/>
</g>
<path style="fill:#FF91AB;" d="M256,215.75c6.201,0,13.774,2.1,20.158,4.376c7.41,2.641,15.229-3.195,14.696-11.044
	c-1.542-22.702-16.901-38.4-34.854-38.4c-17.954,0-33.313,15.698-34.854,38.4c-0.533,7.848,7.286,13.684,14.696,11.044
	C242.226,217.85,249.799,215.75,256,215.75z"/>
<g>
	<path style="fill:#7694E4;" d="M48.004,305.669c0,13.256-10.746,24.002-24.002,24.002C10.746,329.671,0,318.925,0,305.669
		c0-27.883,20.687-45.585,30.932-43.503C43.176,264.655,48.004,285.155,48.004,305.669z"/>
	<path style="fill:#7694E4;" d="M463.996,297.992c0,13.256,10.746,24.002,24.002,24.002S512,311.248,512,297.992
		c0-27.883-20.687-45.585-30.932-43.502C468.824,256.978,463.996,277.478,463.996,297.992z"/>
</g>
<g>
</g>
<g>
</g>
<g>
</g>
<g>
</g>
<g>
</g>
<g>
</g>
<g>
</g>
<g>
</g>
<g>
</g>
<g>
</g>
<g>
</g>
<g>
</g>
<g>
</g>
<g>
</g>
<g>
</g>
</svg>
