<?xml version="1.0" encoding="iso-8859-1"?>
<!-- Generator: Adobe Illustrator 19.0.0, SVG Export Plug-In . SVG Version: 6.00 Build 0)  -->
<svg version="1.1" id="Capa_1" xmlns="http://www.w3.org/2000/svg" xmlns:xlink="http://www.w3.org/1999/xlink" x="0px" y="0px"
	 viewBox="0 0 511.999 511.999" style="enable-background:new 0 0 511.999 511.999;" xml:space="preserve">
<path style="fill:#EDA751;" d="M122.166,401.628c29.4-3.065,54.938-16.119,70.99-36.983c7.006-9.105,5.303-22.166-3.803-29.172
	c-9.106-7.006-22.167-5.302-29.172,3.803c-9.112,11.844-29.544,23.61-59.555,21.11c-11.444-0.956-21.503,7.554-22.457,19.004
	c-0.954,11.449,7.555,21.503,19.004,22.457C105.716,402.558,114.089,402.47,122.166,401.628z"/>
<path style="fill:#78CFC0;" d="M3.154,381.634c11.143,11.614,33.18,30.733,59.804,33.773c21.542,2.46,41.408-12.775,43.225-34.381
	c1.774-21.105-14.048-39.523-35.108-41.014c-27.859-1.972-53.634,14.609-66.737,24.879C-0.936,369.025-1.485,376.799,3.154,381.634z
	"/>
<path style="opacity:0.1;enable-background:new    ;" d="M80.526,386.185c-0.178,0-0.357-0.006-0.537-0.019l-47.003-3.327
	c-4.132-0.293-7.245-3.879-6.952-8.011s3.884-7.238,8.011-6.952l47.003,3.327c4.132,0.293,7.245,3.879,6.952,8.011
	C87.72,383.165,84.427,386.185,80.526,386.185z"/>
<path style="fill:#EDA751;" d="M92.665,459.115c-4.538,0-8.944-2.378-11.334-6.611c-3.53-6.253-1.323-14.184,4.93-17.714
	c15.465-8.731,30.871-9.178,44.463-9.572c23.738-0.689,44.24-1.283,68.475-46.535c3.39-6.33,11.271-8.713,17.599-5.323
	c6.33,3.39,8.713,11.27,5.323,17.599c-31.347,58.531-64.225,59.484-90.643,60.25c-12.11,0.351-22.568,0.655-32.433,6.224
	C97.025,458.574,94.829,459.115,92.665,459.115z"/>
<path style="fill:#FCD79D;" d="M102.374,428.336c-5.315,1.379-10.71,3.403-16.114,6.454c-6.253,3.53-8.46,11.461-4.93,17.714
	c2.39,4.233,6.796,6.611,11.334,6.611c2.164,0,4.36-0.541,6.38-1.682c3.964-2.238,8.026-3.616,12.25-4.499
	C110.828,441.952,106.23,432.98,102.374,428.336z"/>
<g>
	<path style="fill:#EDA751;" d="M216.259,510.477c-10.194,0-19.096-7.498-20.57-17.881c-3.639-25.642-0.773-47.665,1.319-63.745
		c0.653-5.017,1.216-9.35,1.5-13.045c0.88-11.455,10.881-20.022,22.335-19.147c11.455,0.88,20.028,10.88,19.147,22.335
		c-0.368,4.788-1.028,9.858-1.726,15.226c-1.982,15.229-4.229,32.491-1.384,52.53c1.614,11.375-6.298,21.905-17.673,23.519
		C218.217,510.409,217.231,510.477,216.259,510.477z"/>
	<path style="fill:#EDA751;" d="M295.741,510.477c-0.973,0-1.958-0.068-2.949-0.209c-11.375-1.614-19.287-12.144-17.673-23.519
		c2.844-20.039,0.598-37.3-1.384-52.53c-0.698-5.368-1.358-10.438-1.726-15.226c-0.88-11.455,7.693-21.455,19.147-22.335
		c11.45-0.886,21.455,7.692,22.335,19.147c0.284,3.694,0.848,8.027,1.5,13.045c2.093,16.08,4.959,38.102,1.319,63.745
		C314.837,502.979,305.934,510.477,295.741,510.477z"/>
</g>
<g>
	<path style="opacity:0.2;fill:#A35F00;enable-background:new    ;" d="M216.798,373.36c-6.328-3.39-14.209-1.007-17.599,5.323
		c-13.958,26.062-26.677,37.309-39.489,42.295c5.354,7.34,11.628,14.039,18.665,19.951c14.381-8.108,29.228-22.861,43.747-49.97
		C225.511,384.63,223.128,376.75,216.798,373.36z"/>
	<path style="opacity:0.2;fill:#A35F00;enable-background:new    ;" d="M314.992,428.851c-0.653-5.017-1.216-9.35-1.5-13.045
		c-0.88-11.455-10.884-20.033-22.335-19.147c-11.455,0.88-20.028,10.88-19.147,22.335c0.368,4.788,1.028,9.858,1.726,15.226
		c1.304,10.021,2.713,20.928,2.721,32.921c14.835-2.48,28.707-7.611,41.052-14.847C316.897,443.536,315.877,435.656,314.992,428.851
		z"/>
	<path style="opacity:0.2;fill:#A35F00;enable-background:new    ;" d="M220.843,396.659c-11.454-0.875-21.455,7.692-22.335,19.147
		c-0.284,3.694-0.848,8.027-1.5,13.045c-0.886,6.805-1.905,14.685-2.516,23.442c12.344,7.236,26.216,12.368,41.052,14.847
		c0.008-11.993,1.417-22.901,2.721-32.921c0.698-5.368,1.358-10.438,1.726-15.226C240.871,407.539,232.298,397.539,220.843,396.659z
		"/>
</g>
<ellipse style="fill:#FCD690;" cx="256" cy="358.87" rx="95.95" ry="89.16"/>
<path style="opacity:0.15;fill:#C17A00;enable-background:new    ;" d="M241.989,447.081
	c-43.845-28.786-30.256-87.784-22.814-113.585v-56.969c-34.713,13.419-59.122,45.233-59.122,82.348
	C160.054,403.691,195.641,440.779,241.989,447.081z"/>
<path style="opacity:0.2;fill:#A35F00;enable-background:new    ;" d="M189.353,335.473c-9.106-7.006-22.167-5.302-29.172,3.802
	c-8.455,10.99-26.663,21.905-53.219,21.426c6.898,15.4,17.921,28.562,31.661,38.071c22.393-5.51,41.561-17.267,54.533-34.127
	C200.161,355.54,198.459,342.479,189.353,335.473z"/>
<path style="fill:#EDA751;" d="M389.834,401.628c-29.4-3.065-54.938-16.119-70.99-36.983c-7.006-9.105-5.303-22.166,3.803-29.172
	c9.106-7.006,22.167-5.302,29.172,3.803c9.112,11.844,29.544,23.61,59.555,21.11c11.444-0.956,21.503,7.554,22.457,19.004
	c0.954,11.449-7.555,21.503-19.004,22.457C406.284,402.558,397.911,402.47,389.834,401.628z"/>
<path style="fill:#78CFC0;" d="M508.846,381.634c-11.143,11.614-33.18,30.733-59.804,33.773
	c-21.542,2.46-41.408-12.775-43.225-34.381c-1.775-21.105,14.048-39.523,35.108-41.014c27.858-1.972,53.633,14.609,66.737,24.879
	C512.936,369.025,513.485,376.799,508.846,381.634z"/>
<path style="opacity:0.1;enable-background:new    ;" d="M431.474,386.185c-3.901,0-7.194-3.019-7.474-6.971
	c-0.293-4.132,2.82-7.718,6.952-8.011l47.003-3.327c4.127-0.289,7.718,2.82,8.011,6.952c0.292,4.132-2.82,7.718-6.952,8.011
	l-47.003,3.327C431.831,386.178,431.651,386.185,431.474,386.185z"/>
<path style="opacity:0.2;fill:#A35F00;enable-background:new    ;" d="M322.647,335.473c9.106-7.006,22.167-5.302,29.172,3.802
	c8.455,10.99,26.663,21.905,53.219,21.426c-6.898,15.4-17.921,28.562-31.66,38.071c-22.393-5.51-41.561-17.267-54.533-34.127
	C311.839,355.54,313.541,342.479,322.647,335.473z"/>
<path style="fill:#7694E4;" d="M440.93,176.217c16.927-14.945,27.532-36.886,27.282-61.3c-0.44-42.947-35.024-78.348-77.951-79.737
	c-20.389-0.66-39.135,6.268-53.666,18.157c-2.096,1.715-5.231,0.889-6.244-1.623C318.484,22.292,289.673,1.523,256,1.523
	s-62.484,20.769-74.351,50.192c-1.013,2.512-4.148,3.338-6.244,1.623c-14.531-11.89-33.277-18.817-53.666-18.157
	c-42.927,1.389-77.511,36.79-77.951,79.737c-0.25,24.414,10.354,46.354,27.282,61.299c2.18,1.924,1.585,5.504-1.094,6.635
	c-26.463,11.171-44.858,37.699-44.011,68.42c1.041,37.748,31.667,68.614,69.406,69.946c6.599,0.233,13.006-0.427,19.115-1.863
	c2.535-0.596,4.911,1.351,4.909,3.955c0,0.018,0,0.036,0,0.055c0,39.352,31.901,71.254,71.254,71.254
	c26.409,0,49.454-14.372,61.76-35.718c1.584-2.747,5.538-2.648,7.019,0.155c11.976,22.679,35.782,38.142,63.213,38.142
	c39.468,0,71.464-31.995,71.464-71.464c0-0.674-0.009-1.345-0.028-2.014c-0.073-2.612,2.281-4.612,4.836-4.063
	c6.045,1.299,12.368,1.846,18.876,1.51c37.516-1.941,67.557-32.985,68.264-70.545c0.572-30.443-17.748-56.676-44.023-67.769
	C439.347,181.721,438.749,178.142,440.93,176.217z"/>
<g style="opacity:0.1;">
	<path d="M256,112.509c-4.142,0-7.5-3.358-7.5-7.5V53.134c0-4.142,3.358-7.5,7.5-7.5c4.142,0,7.5,3.358,7.5,7.5v51.875
		C263.5,109.151,260.142,112.509,256,112.509z"/>
	<path d="M68.093,264.253c-3.385,0-6.456-2.307-7.285-5.743c-0.971-4.027,1.505-8.079,5.532-9.05l78.17-18.86
		c4.031-0.972,8.079,1.506,9.05,5.532c0.971,4.027-1.505,8.079-5.532,9.05l-78.17,18.86
		C69.267,264.185,68.675,264.253,68.093,264.253z"/>
	<path d="M181.431,361.073c-0.543,0-1.094-0.059-1.646-0.183c-4.042-0.906-6.585-4.916-5.68-8.958l11.657-52.042
		c0.906-4.042,4.915-6.583,8.958-5.68c4.042,0.906,6.585,4.916,5.68,8.958l-11.657,52.042
		C187.961,358.701,184.864,361.073,181.431,361.073z"/>
	<path d="M330.569,361.073c-3.434,0-6.53-2.372-7.312-5.862L311.6,303.168c-0.905-4.042,1.638-8.052,5.68-8.958
		c4.043-0.906,8.053,1.638,8.958,5.68l11.657,52.042c0.905,4.042-1.638,8.052-5.68,8.958
		C331.663,361.014,331.112,361.073,330.569,361.073z"/>
	<path d="M443.907,264.253c-0.583,0-1.174-0.068-1.765-0.211l-78.17-18.86c-4.026-0.972-6.503-5.023-5.532-9.05
		c0.972-4.026,5.021-6.505,9.05-5.532l78.17,18.86c4.026,0.972,6.503,5.023,5.532,9.05
		C450.363,261.946,447.292,264.253,443.907,264.253z"/>
</g>
<path style="fill:#EDA751;" d="M197.611,204.28c18.775-15.754,31.31-42.2,4.828-81.294c-26.691-39.403-66.429-49.28-97.453-45.625
	c-7.649,0.901-14.066,6.286-16.282,13.662c-8.987,29.918-6.16,70.768,28.009,103.895
	C150.615,227.786,178.836,220.033,197.611,204.28z"/>
<path style="fill:#FF91AB;" d="M87.455,95.601c-7.368,29.416-3.202,67.847,29.258,99.317c29.385,28.489,54.497,26.453,72.894,15.148
	C176.955,124.174,121.684,101.397,87.455,95.601z"/>
<path style="fill:#EDA751;" d="M314.389,204.28c-18.775-15.754-31.31-42.2-4.828-81.294c26.691-39.403,66.429-49.28,97.453-45.625
	c7.649,0.901,14.066,6.286,16.282,13.662c8.987,29.918,6.16,70.768-28.009,103.895C361.385,227.786,333.164,220.033,314.389,204.28z
	"/>
<path style="fill:#FF91AB;" d="M424.545,95.601c7.368,29.416,3.202,67.847-29.258,99.317
	c-29.385,28.489-54.497,26.453-72.894,15.148C335.045,124.174,390.316,101.397,424.545,95.601z"/>
<path style="fill:#FFDC9C;" d="M419.347,228.057c0,74.687-73.133,107.399-163.347,107.399S92.653,302.744,92.653,228.057
	S165.786,92.825,256,92.825S419.347,153.37,419.347,228.057z"/>
<path style="opacity:0.15;fill:#C17A00;enable-background:new    ;" d="M168.781,113.704
	c-45.747,23.965-76.128,66.22-76.128,114.353c0,64.203,54.043,97.388,126.523,105.439
	C115.133,271.349,128.702,187.755,168.781,113.704z"/>
<g>
	<ellipse style="fill:#FF91AB;" cx="175.84" cy="231.21" rx="29.576" ry="23.553"/>
	<ellipse style="fill:#FF91AB;" cx="336.16" cy="231.21" rx="29.576" ry="23.553"/>
</g>
<g>
	<path style="fill:#495059;" d="M193.081,215.212c-4.142,0-7.5-3.358-7.5-7.5v-10.444c0-4.142,3.358-7.5,7.5-7.5s7.5,3.358,7.5,7.5
		v10.444C200.581,211.854,197.223,215.212,193.081,215.212z"/>
	<path style="fill:#495059;" d="M318.919,215.212c-4.142,0-7.5-3.358-7.5-7.5v-10.444c0-4.142,3.358-7.5,7.5-7.5s7.5,3.358,7.5,7.5
		v10.444C326.419,211.854,323.061,215.212,318.919,215.212z"/>
	<path style="fill:#495059;" d="M256,223.232c-8.524,0-16.631-3.692-22.242-10.129c-2.722-3.122-2.396-7.86,0.726-10.581
		c3.122-2.722,7.86-2.397,10.581,0.726c2.761,3.168,6.747,4.985,10.935,4.985c4.188,0,8.173-1.817,10.935-4.985
		c2.721-3.124,7.459-3.448,10.581-0.726c3.123,2.722,3.448,7.459,0.726,10.581C272.631,219.54,264.524,223.232,256,223.232z"/>
	<path style="fill:#495059;" d="M134.139,235.963c-3.36,0-6.418-2.275-7.27-5.683c-1.005-4.019,1.438-8.091,5.457-9.095
		c8.218-2.055,27.805-3.517,37.347-2.257c4.106,0.543,6.996,4.312,6.453,8.418c-0.542,4.107-4.309,6.996-8.418,6.453
		c-7.428-0.98-25.261,0.317-31.743,1.938C135.354,235.89,134.741,235.963,134.139,235.963z"/>
	<path style="fill:#495059;" d="M143.561,271.006c-2.3,0-4.569-1.054-6.04-3.046c-2.46-3.333-1.752-8.028,1.58-10.488
		c6.814-5.03,24.366-13.846,33.669-16.316c4.006-1.062,8.11,1.321,9.174,5.325c1.063,4.003-1.321,8.11-5.324,9.173
		c-7.242,1.922-23.234,9.918-28.61,13.887C146.669,270.529,145.108,271.006,143.561,271.006z"/>
	<path style="fill:#495059;" d="M377.861,235.963c-0.602,0-1.214-0.073-1.825-0.226c-6.482-1.62-24.314-2.921-31.743-1.938
		c-4.107,0.541-7.875-2.347-8.418-6.453c-0.542-4.106,2.347-7.875,6.453-8.418c9.544-1.26,29.129,0.203,37.347,2.257
		c4.018,1.004,6.461,5.077,5.457,9.095C384.279,233.688,381.221,235.963,377.861,235.963z"/>
	<path style="fill:#495059;" d="M368.439,271.006c-1.547,0-3.108-0.477-4.448-1.466c-5.376-3.969-21.369-11.964-28.61-13.887
		c-4.003-1.063-6.387-5.17-5.324-9.173s5.171-6.384,9.174-5.325c9.303,2.47,26.854,11.286,33.669,16.316
		c3.332,2.46,4.04,7.156,1.58,10.488C373.008,269.952,370.738,271.006,368.439,271.006z"/>
</g>
<g>
</g>
<g>
</g>
<g>
</g>
<g>
</g>
<g>
</g>
<g>
</g>
<g>
</g>
<g>
</g>
<g>
</g>
<g>
</g>
<g>
</g>
<g>
</g>
<g>
</g>
<g>
</g>
<g>
</g>
</svg>
