<?xml version="1.0" encoding="iso-8859-1"?>
<!-- Generator: Adobe Illustrator 19.0.0, SVG Export Plug-In . SVG Version: 6.00 Build 0)  -->
<svg version="1.1" id="Layer_1" xmlns="http://www.w3.org/2000/svg" xmlns:xlink="http://www.w3.org/1999/xlink" x="0px" y="0px"
	 viewBox="0 0 504.123 504.123" style="enable-background:new 0 0 504.123 504.123;" xml:space="preserve">
<path style="fill:#324D5B;" d="M227.643,404.086c-3.545-3.545-9.058-3.545-12.209,0c-3.545,3.545-3.545,9.058,0,12.209l61.834,61.44
	c3.545,3.545,9.058,3.545,12.209,0c3.545-3.545,3.545-9.058,0-12.209L227.643,404.086z M347.766,465.526l-61.834-61.44
	c-3.545-3.545-9.058-3.545-12.209,0c-3.545,3.545-3.545,9.058,0,12.209l61.834,61.44c3.545,3.545,9.058,3.545,12.209,0
	C351.311,474.585,351.311,469.071,347.766,465.526z"/>
<path style="fill:#E2574C;" d="M382.818,166.597c5.514-11.028,7.089-23.631,7.089-36.628C389.908,57.895,331.225,0,259.151,0h-2.363
	c0.394,3.151,0,7.089,0,10.24c0,32.689-10.634,63.015-30.326,85.858c-83.889,10.24-151.631,79.163-151.631,165.415
	c0,48.049,18.905,89.797,51.2,120.123v122.486l80.345-79.557c11.422,2.363,25.6,5.12,37.809,5.12
	c93.342,0,169.354-74.043,169.354-166.991C413.538,228.037,400.935,193.378,382.818,166.597z"/>
<path style="fill:#BF392B;" d="M383.606,164.628c3.545-11.815,9.846-21.662,9.846-34.265c0-13.785-5.908-26.782-9.846-39.385h-1.182
	c-15.36,0-29.932,1.182-42.142,8.665c3.938,5.12,6.302,11.815,6.302,18.905c0,17.329-14.178,31.508-31.508,31.508
	c-4.332,0-8.271-0.788-11.815-2.363v22.055c0,43.323,35.446,78.769,78.769,78.769c11.028,0,21.662-0.788,31.114-4.726
	C413.538,217.403,401.329,186.289,383.606,164.628z M70.892,260.332c0,35.84,11.815,74.831,31.508,102.006
	c84.283-15.36,149.662-85.858,149.662-171.323c0-35.84-6.302-69.317-25.994-96.492C133.514,104.763,70.892,174.868,70.892,260.332z
	 M155.175,404.48l-29.145,99.643l83.495-78.769C189.834,421.022,171.323,414.72,155.175,404.48z"/>
<path style="fill:#2B414D;" d="M295.385,120.123c0,11.815,9.846,21.662,21.662,21.662c11.815,0,21.662-9.846,21.662-21.662
	s-9.846-21.662-21.662-21.662C305.231,98.462,295.385,108.308,295.385,120.123z"/>
<path style="fill:#FFFFFF;" d="M307.2,116.185c0,3.151,2.757,5.908,5.908,5.908s5.908-2.757,5.908-5.908s-2.757-5.908-5.908-5.908
	S307.2,113.034,307.2,116.185z"/>
<path style="fill:#EFC75E;" d="M433.231,157.538c-3.545-16.935-11.815-31.508-42.142-31.508c-29.145,0-40.172,16.542-40.172,37.022
	c0,2.757-0.788,7.483,0,10.24c7.483-0.394,14.572,0,21.662,0C394.24,173.292,417.083,168.566,433.231,157.538z"/>
<path style="fill:#A78B42;" d="M350.917,173.292c7.089-0.394,14.178,0,21.268,0c21.662,0,44.111-4.726,60.258-15.36
	c-6.302-5.12-16.542-8.271-25.6-8.271C385.575,149.662,367.065,160.295,350.917,173.292z"/>
<g>
</g>
<g>
</g>
<g>
</g>
<g>
</g>
<g>
</g>
<g>
</g>
<g>
</g>
<g>
</g>
<g>
</g>
<g>
</g>
<g>
</g>
<g>
</g>
<g>
</g>
<g>
</g>
<g>
</g>
</svg>
