<svg height="511pt" viewBox="-21 0 511 511.90396" width="511pt" xmlns="http://www.w3.org/2000/svg"><path d="m368.746094 178.234375-46.253906 54.5-186.578126-.433594-35.144531-54.066406c6.050781-9.898437 13.570313-18.824219 22.300781-26.464844 26.453126-22.265625 59.246094-35.625 93.722657-38.183593 5.96875-.597657 11.964843-.886719 17.964843-.867188 15.144532-.019531 30.238282 1.789062 44.949219 5.378906 14.445313 3.464844 28.367188 8.832032 41.394531 15.96875 19.480469 10.292969 35.910157 25.523438 47.644532 44.167969zm0 0" fill="#bdc3c7"/><path d="m434.351562 373.054688c.210938 17.992187-4.179687 35.734374-12.757812 51.550781l-83.394531 63.171875c-33.421875 10.707031-68.351563 15.921875-103.441407 15.449218-28.652343.214844-57.21875-3.136718-85.042968-9.980468-4.601563-1.214844-9.199219-2.515625-13.539063-3.90625-1.648437-.519532-3.296875-1.039063-4.859375-1.5625l-83.394531-63.171875c-4.507813-8.171875-7.839844-16.933594-9.894531-26.035157-1.941406-8.363281-2.902344-16.925781-2.863282-25.515624 0-3.382813.171876-6.855469.433594-10.238282 2.574219-26.199218 11.378906-51.402344 25.6875-73.503906-15.535156-47.554688-29.332031-124.527344-.085937-124.527344 22.734375 0 64.128906 26.726563 89.988281 45.039063 26.109375-12.429688 54.652344-18.921875 83.570312-19.003907 3.558594 0 7.113282.085938 10.671876.347657 25.34375 1.433593 50.164062 7.800781 73.070312 18.742187 7.984375-5.640625 17.441406-12.148437 27.335938-18.398437 22.300781-13.882813 46.945312-26.726563 62.742187-26.726563 29.242187 0 15.359375 77.40625-.175781 124.875 16.226562 24.851563 25.210937 53.726563 25.949218 83.394532zm0 0" fill="#ecf0f1"/><path d="m133.917969 219.023438c-23.109375 13.574218-43.476563 31.351562-60.050781 52.414062-12.496094-43.390625-14.753907-79.230469-10.585938-89.121094 7.113281.78125 26.726562 6.332032 70.636719 36.707032zm0 0" fill="#ff5364"/><path d="m149.625 449.074219c.039062 14.53125-4.6875 28.675781-13.449219 40.265625-1.648437-.519532-3.296875-1.039063-4.859375-1.5625l-83.394531-63.171875c-4.507813-8.171875-7.839844-16.933594-9.894531-26.035157 12.167968-10.882812 27.933594-16.878906 44.257812-16.835937 37.175782.035156 67.304688 30.164063 67.339844 67.339844zm0 0" fill="#3f5c6c"/><path d="m217.402344 121.394531c.007812 22.609375-14.578125 42.632813-36.097656 49.5625-21.519532 6.929688-45.050782-.824219-58.234376-19.1875 26.453126-22.265625 59.246094-35.625 93.722657-38.183593.425781 2.582031.628906 5.195312.609375 7.808593zm0 0" fill="#3f5c6c"/><path d="m321.535156 138.75c.019532 12.222656-8.460937 22.8125-20.390625 25.460938-11.933593 2.644531-24.097656-3.363282-29.25-14.445313-5.152343-11.082031-1.902343-24.253906 7.8125-31.667969 14.445313 3.464844 28.367188 8.832032 41.394531 15.96875.273438 1.546875.417969 3.113282.433594 4.683594zm0 0" fill="#3f5c6c"/><path d="m257.058594 114.019531c.492187-13.636719-.910156-27.273437-4.164063-40.527343-2.816406-13.15625 2.179688-26.761719 12.84375-34.972657 14.839844-9.976562 34.882813 1.5625 45.558594 9.375 7.738281 5.652344 18.597656 3.964844 24.253906-3.777343 5.65625-7.738282 3.964844-18.597657-3.773437-24.253907-43.390625-31.761719-74.109375-17.703125-85.390625-10.238281-22.804688 16.292969-33.527344 44.730469-27.164063 72.027344 2.535156 10.296875 3.613282 20.902344 3.210938 31.5zm0 0" fill="#95a5a5"/><path d="m139.300781 468.515625c0-23.964844-27.199219-52.070313-60.746093-52.070313-33.550782 0-60.746094 28.105469-60.746094 52.070313 0 23.960937 27.195312 34.710937 60.746094 34.710937 33.546874 0 60.746093-10.75 60.746093-34.710937zm0 0" fill="#bdc3c7"/><path d="m451.707031 468.515625c0-23.964844-27.199219-52.070313-60.746093-52.070313-33.550782 0-60.746094 28.105469-60.746094 52.070313 0 23.960937 27.195312 34.710937 60.746094 34.710937 33.546874 0 60.746093-10.75 60.746093-34.710937zm0 0" fill="#bdc3c7"/><path d="m78.554688 511.902344c-14.371094-.015625-26.019532-11.660156-26.035157-26.03125v-17.355469c0-4.792969 3.886719-8.679687 8.679688-8.679687s8.675781 3.886718 8.675781 8.679687v17.355469c0 4.792968 3.886719 8.675781 8.679688 8.675781 4.792968 0 8.675781-3.882813 8.675781-8.675781v-17.355469c0-4.792969 3.886719-8.679687 8.679687-8.679687 4.792969 0 8.675782 3.886718 8.675782 8.679687v17.355469c-.015626 14.371094-11.660157 26.015625-26.03125 26.03125zm0 0" fill="#95a5a5"/><path d="m390.960938 511.902344c-14.371094-.015625-26.019532-11.660156-26.035157-26.03125v-17.355469c0-4.792969 3.886719-8.679687 8.679688-8.679687s8.675781 3.886718 8.675781 8.679687v17.355469c0 4.792968 3.886719 8.675781 8.679688 8.675781 4.792968 0 8.675781-3.882813 8.675781-8.675781v-17.355469c0-4.792969 3.886719-8.679687 8.679687-8.679687 4.792969 0 8.679688 3.886718 8.679688 8.679687v17.355469c-.015625 14.371094-11.664063 26.015625-26.035156 26.03125zm0 0" fill="#95a5a5"/><path d="m208.722656 459.835938c-19.160156-.019532-34.691406-15.550782-34.710937-34.710938v-8.679688c0-4.792968 3.886719-8.675781 8.675781-8.675781 4.792969 0 8.679688 3.882813 8.679688 8.675781v8.679688c0 9.585938 7.769531 17.355469 17.355468 17.355469 9.585938 0 17.355469-7.769531 17.355469-17.355469v-34.710938c0-4.792968 3.886719-8.679687 8.679687-8.679687 4.792969 0 8.675782 3.886719 8.675782 8.679687v34.710938c-.019532 19.160156-15.546875 34.691406-34.710938 34.710938zm0 0" fill="#95a5a5"/><path d="m260.789062 459.835938c-19.160156-.019532-34.691406-15.550782-34.710937-34.710938v-34.710938c0-4.792968 3.886719-8.679687 8.679687-8.679687 4.792969 0 8.675782 3.886719 8.675782 8.679687v34.710938c0 9.585938 7.773437 17.355469 17.355468 17.355469 9.585938 0 17.359376-7.769531 17.359376-17.355469v-8.679688c0-4.792968 3.882812-8.675781 8.675781-8.675781s8.679687 3.882813 8.679687 8.675781v8.679688c-.019531 19.160156-15.550781 34.691406-34.714844 34.710938zm0 0" fill="#95a5a5"/><path d="m182.679688 338.34375c-4.066407-.007812-7.582032-2.835938-8.464844-6.804688-1.886719-6.847656-6.394532-12.675781-12.550782-16.21875-8.824218-4.660156-21.109374-3.945312-36.558593 2.09375-4.464844 1.746094-9.5-.460937-11.246094-4.925781-1.746094-4.464843.457031-9.5 4.921875-11.246093 20.535156-8.003907 37.78125-8.375 51.28125-1.113282 10.523438 5.976563 18.148438 15.992188 21.109375 27.726563.550781 2.5625-.089844 5.238281-1.738281 7.273437-1.652344 2.039063-4.132813 3.21875-6.753906 3.214844zm0 0" fill="#35495e"/><path d="m278.15625 338.34375c-2.621094.003906-5.101562-1.175781-6.753906-3.214844-1.648438-2.035156-2.285156-4.710937-1.738282-7.273437 2.960938-11.734375 10.585938-21.75 21.109376-27.726563 13.507812-7.265625 30.753906-6.894531 51.28125 1.113282 4.464843 1.746093 6.667968 6.78125 4.921874 11.246093-1.746093 4.464844-6.78125 6.671875-11.246093 4.925781-15.550781-6.074218-27.90625-6.753906-36.726563-1.996093-6.074218 3.523437-10.515625 9.292969-12.375 16.0625-.851562 4-4.382812 6.859375-8.472656 6.863281zm0 0" fill="#35495e"/><g fill="#bdc3c7"><path d="m104.578125 355.699219c-1.867187.003906-3.683594-.601563-5.175781-1.722657-27.054688-16.785156-58.449219-25.242187-90.273438-24.308593-4.792968 0-8.675781-3.886719-8.675781-8.679688s3.882813-8.675781 8.675781-8.675781c62.917969 0 99.152344 26.632812 100.664063 27.769531 2.992187 2.242188 4.210937 6.144531 3.027343 9.6875-1.183593 3.546875-4.503906 5.933594-8.242187 5.929688zm0 0"/><path d="m9.136719 399.089844c-3.824219.003906-7.199219-2.496094-8.308594-6.160156-1.113281-3.660157.304687-7.613282 3.488281-9.738282 27.898438-18.601562 80.679688-18.8125 82.914063-18.8125 4.792969 0 8.679687 3.886719 8.679687 8.675782 0 4.792968-3.886718 8.679687-8.679687 8.679687-.488281 0-49.769531.21875-73.285157 15.898437-1.421874.949219-3.097656 1.457032-4.808593 1.457032zm0 0"/><path d="m364.945312 355.6875c-3.738281.007812-7.058593-2.375-8.246093-5.917969-1.183594-3.542969.03125-7.449219 3.019531-9.6875 1.507812-1.136719 37.75-27.769531 100.664062-27.769531 4.792969 0 8.679688 3.882812 8.679688 8.675781s-3.886719 8.679688-8.679688 8.679688c-31.824218-.9375-63.21875 7.519531-90.269531 24.3125-1.496093 1.109375-3.308593 1.707031-5.167969 1.707031zm0 0"/><path d="m460.375 399.089844c-1.710938 0-3.382812-.507813-4.804688-1.457032-23.515624-15.679687-72.796874-15.898437-73.289062-15.898437-4.792969 0-8.675781-3.886719-8.675781-8.679687 0-4.789063 3.882812-8.675782 8.675781-8.675782 2.238281 0 55.019531.210938 82.917969 18.8125 3.179687 2.125 4.597656 6.078125 3.488281 9.738282-1.109375 3.664062-4.488281 6.164062-8.3125 6.160156zm0 0"/></g><path d="m269.902344 372.015625-19.523438 20.828125c-8.75 8.328125-22.496094 8.328125-31.242187 0l-19.527344-20.828125c-3.328125-3.269531-4.65625-8.070313-3.46875-12.582031 2.507813-7.28125 9.308594-12.207032 17.007813-12.324219.691406-.070313 1.386718-.101563 2.082031-.085937h39.050781c.695312-.015626 1.390625.015624 2.082031.085937 7.691407.148437 14.472657 5.0625 17.011719 12.324219 1.183594 4.511718-.140625 9.3125-3.472656 12.582031zm0 0" fill="#df4d60"/><path d="m273.375 359.433594c-.632812 1.773437-1.859375 3.277344-3.472656 4.25l-19.523438 13.886718c-9.675781 5.550782-21.570312 5.550782-31.242187 0l-19.527344-13.886718c-1.609375-.972656-2.835937-2.476563-3.46875-4.25 2.507813-7.28125 9.308594-12.207032 17.007813-12.324219.691406-.070313 1.386718-.101563 2.082031-.085937h39.050781c.695312-.015626 1.390625.015624 2.082031.085937 7.691407.148437 14.472657 5.0625 17.011719 12.324219zm0 0" fill="#ff5364"/><path d="m260.789062 360.039062c0-4.792968-11.652343-8.675781-26.03125-8.675781-14.378906 0-26.035156 3.882813-26.035156 8.675781 0 4.792969 11.65625 8.679688 26.035156 8.679688 14.378907 0 26.03125-3.886719 26.03125-8.679688zm0 0" fill="#fb7b76"/><path d="m356.25 225.53125c0 33.546875-27.199219 60.746094-60.746094 60.746094-33.550781 0-60.746094-27.199219-60.746094-60.746094-.042968-12.277344 3.679688-24.273438 10.671876-34.363281 25.34375 1.433593 50.164062 7.800781 73.070312 18.742187 7.984375-5.640625 17.441406-12.148437 27.335938-18.398437 6.832031 10.027343 10.464843 21.886719 10.414062 34.019531zm0 0" fill="#3f5c6c"/><path d="m395.820312 271.699219c-16.578124-21.140625-36.976562-38.980469-60.136718-52.589844 7.027344-4.859375 13.449218-9.113281 19.4375-12.929687 30.546875-19.003907 45.210937-23.171876 51.371094-23.863282 4.082031 9.890625 1.910156 45.90625-10.671876 89.382813zm0 0" fill="#ff5364"/></svg>