<svg xmlns="http://www.w3.org/2000/svg" xmlns:xlink="http://www.w3.org/1999/xlink" aria-hidden="true" focusable="false" width="1.04em" height="1em" style="-ms-transform: rotate(360deg); -webkit-transform: rotate(360deg); transform: rotate(360deg);" preserveAspectRatio="xMidYMid meet" viewBox="0 0 1056 1024"><path d="M815 960H79V160h450l65-62l-2-2H79q-26 0-45 19t-19 45v800q0 27 19 45.5t45 18.5h736q27 0 45.5-18.5T879 960V492l-64 61v407zM990 41Q947 0 895 0q-57 0-102 45L354 483q-2 2-3.5 4t-2.5 4t-1 4q-15 54-70 233q-1 5-1 10t2 9.5t6 7.5q8 8 19 8q4 0 8-1q131-44 229-73q6-2 11-7q427-421 441-436q50-51 49-104q-2-54-51-101zm-44 160q-27 28-414 410l-20 19q-20 6-62 19.5T359 679q36-118 47-158Q822 106 838 90q26-26 57-26q26 0 51 24q30 29 31 55q0 26-31 58z" fill="#626262"/></svg>